<svg xmlns="http://www.w3.org/2000/svg" xmlns:xlink="http://www.w3.org/1999/xlink" width="350" height="350" viewBox="0 0 350 350">
  <defs>
    <clipPath id="clip-path">
      <rect id="Rectangle_88" data-name="Rectangle 88" width="217" height="203" transform="translate(2808 5444)" fill="#fff" stroke="#707070" stroke-width="1"/>
    </clipPath>
  </defs>
  <g id="bootstrap" transform="translate(-2150 -5391)">
    <g id="Ellipse_55" data-name="Ellipse 55" transform="translate(2150 5391)" fill="#00b4d8" stroke="#00b4d8" stroke-width="1">
      <circle cx="175" cy="175" r="175" stroke="none"/>
      <circle cx="175" cy="175" r="174.5" fill="none"/>
    </g>
    <g id="Mask_Group_14" data-name="Mask Group 14" transform="translate(-591 21)" clip-path="url(#clip-path)">
      <g id="bootstrap-seeklogo.com" transform="translate(2811.023 5444)">
        <path id="Path_769" data-name="Path 769" d="M0,176.428c0,14.425,12.167,26.116,27.176,26.116H183.587c15.01,0,27.176-11.693,27.176-26.116V26.116C210.763,11.691,198.6,0,183.587,0H27.176C12.165,0,0,11.693,0,26.116Z" fill="#56e3ff"/>
        <path id="Path_770" data-name="Path 770" d="M96.757,97.771V69.087h26.272a42.522,42.522,0,0,1,7.238.6,18.556,18.556,0,0,1,6.166,2.147,11.653,11.653,0,0,1,4.289,4.294,13.8,13.8,0,0,1,1.609,7.042q0,7.729-4.826,11.164t-12.332,3.435ZM68.7,48.133V170.767h61.839a67.743,67.743,0,0,0,16.711-2.061,45.565,45.565,0,0,0,14.477-6.355,31.724,31.724,0,0,0,10.1-11.078,32.676,32.676,0,0,0,3.753-16.06q0-11.508-5.808-19.666t-17.605-11.422q8.579-3.95,12.958-10.134T169.5,78.534q0-8.588-2.949-14.428a23.847,23.847,0,0,0-8.311-9.361,36.694,36.694,0,0,0-12.868-5.067,82.588,82.588,0,0,0-16.621-1.546Zm28.06,101.68V116.148h30.561q9.115,0,14.656,4.037t5.54,13.483a16.3,16.3,0,0,1-1.7,7.9,13.153,13.153,0,0,1-4.558,4.9,19.747,19.747,0,0,1-6.613,2.577,38.925,38.925,0,0,1-7.864.772Z" transform="translate(-9.358 -8.178)" fill="#fff"/>
      </g>
    </g>
  </g>
</svg>
