<svg id="svg-work-animation" xmlns="http://www.w3.org/2000/svg" xmlns:xlink="http://www.w3.org/1999/xlink" viewBox="0 0 1080 1080" shape-rendering="geometricPrecision" text-rendering="geometricPrecision"><style><![CDATA[#svg-work-animation-rectangle-1_to {animation: svg-work-animation-rectangle-1_to__to 10000ms linear infinite normal forwards}@keyframes svg-work-animation-rectangle-1_to__to { 0% {transform: translate(475px,591px)} 10% {transform: translate(474.999999px,671.773889px)} 20% {transform: translate(475px,591px)} 100% {transform: translate(475px,591px)} }#svg-work-animation-path-605_ts {animation: svg-work-animation-path-605_ts__ts 10000ms linear infinite normal forwards}@keyframes svg-work-animation-path-605_ts__ts { 0% {transform: translate(214.447998px,106.346528px) scale(1,1)} 10% {transform: translate(214.447998px,106.346528px) scale(1.300000,1.300000)} 20% {transform: translate(214.447998px,106.346528px) scale(1,1)} 100% {transform: translate(214.447998px,106.346528px) scale(1,1)} }#svg-work-animation-mobile-app_tr {animation: svg-work-animation-mobile-app_tr__tr 10000ms linear infinite normal forwards}@keyframes svg-work-animation-mobile-app_tr__tr { 0% {transform: translate(549.422485px,508.059998px) rotate(0deg)} 80% {transform: translate(549.422485px,508.059998px) rotate(0deg)} 86% {transform: translate(549.422485px,508.059998px) rotate(10deg)} 91% {transform: translate(549.422485px,508.059998px) rotate(5deg)} 100% {transform: translate(549.422485px,508.059998px) rotate(0deg)} }]]></style><g id="svg-work-animation-g1" clip-path="url(#svg-work-animation-clip-svg_work_animation)"><g id="svg-work-animation-svg-work-animation"><g id="svg-work-animation-illustration" transform="matrix(1.30000000000000 0 0 1.30000000000000 -162.25380249023442 -161.99971160888674)"><g id="svg-work-animation-rectangle-1_to" transform="translate(475,591)"><g id="svg-work-animation-rectangle-1" transform="translate(0,0)"><g id="svg-work-animation-group-13" transform="matrix(1 0 0 1 -67.84829778999999 -286.66268100000002)"><g id="svg-work-animation-group-12"><path id="svg-work-animation-path-606" d="M371.943000,281.600000L250.814000,129.493000C248.283322,126.496933,244.560829,124.768483,240.639000,124.768483C236.717171,124.768483,232.994678,126.496933,230.464000,129.493000L109.333000,281.600000C106.991822,284.469073,106.318813,288.352428,107.558000,291.842000L153.825000,421.416000C155.757823,426.294509,160.529239,429.448834,165.775000,429.316000L315.500000,429.316000C320.746123,429.449259,325.518050,426.294860,327.451000,421.416000L373.718000,291.840000C374.955012,288.350894,374.282162,284.469212,371.943000,281.600000ZM306.371000,406.447000L174.905000,406.447000L133.434000,290.306000L228.074000,171.466000L228.074000,324.966000C223.891736,328.120629,221.406791,333.034756,221.345000,338.273000C221.345000,347.954000,230.001000,355.830000,240.640000,355.830000C251.279000,355.830000,259.934000,347.954000,259.934000,338.273000C259.872512,333.034681,257.387504,328.120429,253.205000,324.966000L253.205000,171.466000L347.844000,290.306000Z" transform="matrix(1 0 0 1 -106.94300000000000 -124.76800000000000)" fill="rgb(255,255,255)" stroke="none" stroke-width="1"/></g></g><rect id="svg-work-animation-rect1" width="130" height="266" rx="22" ry="22" fill="none" stroke="none" stroke-width="21"/><rect id="svg-work-animation-rect2" width="109" height="245" rx="11.500000" ry="11.500000" transform="matrix(1 0 0 1 10.50000000000000 10.50000000000000)" fill="none" stroke="rgb(255,255,255)" stroke-width="21"/><rect id="svg-work-animation-rectangle-3" width="188" height="58" rx="19" ry="19" transform="matrix(1 0 0 1 -28.15400000000000 47.77578400000004)" fill="rgb(255,255,255)" stroke="none" stroke-width="1"/></g></g><g id="svg-work-animation-mask-group-1" transform="matrix(1 0 0 1 111 3)"><g id="svg-work-animation-nodes" transform="matrix(1 0 0 1 215.39800000000000 220)"><g id="svg-work-animation-group-11"><g id="svg-work-animation-group-10"><g id="svg-work-animation-path-605_ts" transform="translate(214.447998,106.346528) scale(1,1)"><path id="svg-work-animation-path-605" d="M315.400000,28.991000L394.981000,28.991000C398.808624,32.949690,404.093685,35.163278,409.600000,35.114000C420.239000,35.114000,428.895000,27.238000,428.895000,17.557000C428.895000,7.876000,420.241000,0,409.600000,0C404.091954,-0.050653,398.804823,2.163044,394.976000,6.123000L232.300000,6.123000C229.943222,2.251576,225.709674,-0.079121,221.178000,0L207.719000,0C203.188389,-0.078048,198.956234,2.252511,196.600000,6.123000L33.918000,6.123000C30.089484,2.163198,24.802723,-0.050496,19.295000,0C8.656000,0,0,7.876000,0,17.557000C0,27.238000,8.656000,35.114000,19.295000,35.114000C24.803046,35.164653,30.090177,32.950956,33.919000,28.991000L113.500000,28.991000C95.055528,37.945629,77.986139,49.491459,62.810000,63.278000C22.307000,100.135000,0,149.138000,0,201.261000C0,207.576000,5.626000,212.695000,12.565000,212.695000C19.504000,212.695000,25.130000,207.576000,25.130000,201.261000C25.130000,111.604000,100.793000,37.737000,197.066000,29.724000C199.517534,33.159746,203.498720,35.174070,207.719000,35.114000L221.177000,35.114000C225.397160,35.173553,229.378120,33.159343,231.830000,29.724000C328.100000,37.737000,403.766000,111.600000,403.766000,201.261000C403.766000,207.576000,409.392000,212.695000,416.331000,212.695000C423.270000,212.695000,428.896000,207.576000,428.896000,201.261000C428.896000,149.138000,406.589000,100.134000,366.086000,63.277000C350.910846,49.491355,333.842860,37.945899,315.400000,28.991000Z" transform="translate(-214.447998,-106.346528)" fill="rgb(255,255,255)" stroke="none" stroke-width="1"/></g></g></g></g></g></g><g id="svg-work-animation-g2" display="none" clip-path="url(#svg-work-animation-clip-path-2)"><g id="svg-work-animation-web_design"><g id="svg-work-animation-web-design" transform="matrix(1 0 0 1 226 225.88600000000000)"><path id="svg-work-animation-path-625" d="M12.357000,135.929000L616,135.929000C622.824354,135.928448,628.356448,130.396354,628.357000,123.572000L628.357000,12.358000C628.357000,5.533256,622.824744,0.000552,616,0L12.357000,0C5.532256,0.000552,-0,5.533256,0,12.358000L0,123.572000C0.000552,130.396354,5.532646,135.928448,12.357000,135.929000ZM24.714000,24.715000L603.642000,24.715000L603.642000,111.215000L24.714000,111.215000ZM24.714000,24.715000" fill="rgb(255,255,255)" stroke="none" stroke-width="1"/><path id="svg-work-animation-path-626" d="M71.753000,30.444000C51.752529,30.445105,35.539632,46.659195,35.540000,66.659667C35.540368,86.660138,51.753862,102.873632,71.754333,102.874000C91.754805,102.874368,107.968895,86.661471,107.970000,66.661000C107.947955,46.668042,91.745958,30.466045,71.753000,30.444000ZM71.753000,78.159000C65.401725,78.159000,60.253000,73.010275,60.253000,66.659000C60.253000,60.307725,65.401725,55.159000,71.753000,55.159000C78.104275,55.159000,83.253000,60.307725,83.253000,66.659000C83.246386,73.007533,78.101533,78.152386,71.753000,78.159000ZM71.753000,78.159000" fill="rgb(255,255,255)" stroke="none" stroke-width="1"/><path id="svg-work-animation-path-627" d="M148.986000,30.444000C128.985138,30.443448,112.770736,46.656805,112.770000,66.657667C112.769264,86.658529,128.982471,102.873079,148.983333,102.874000C168.984195,102.874920,185.198895,86.661862,185.200000,66.661000C185.177955,46.668042,168.975958,30.466045,148.983000,30.444000ZM148.986000,78.159000C142.634725,78.159000,137.486000,73.010275,137.486000,66.659000C137.486000,60.307725,142.634725,55.159000,148.986000,55.159000C155.337275,55.159000,160.486000,60.307725,160.486000,66.659000C160.479386,73.007533,155.334533,78.152386,148.986000,78.159000ZM148.986000,78.159000" fill="rgb(255,255,255)" stroke="none" stroke-width="1"/><path id="svg-work-animation-path-628" d="M226.220000,30.444000C211.572309,30.442787,198.366212,39.265302,192.759755,52.797579C187.153299,66.329855,190.250594,81.906907,200.607360,92.265104C210.964127,102.623301,226.540751,105.722746,240.073802,100.118158C253.606852,94.513570,262.431191,81.308691,262.432000,66.661000C262.407762,46.670903,246.210093,30.470998,226.220000,30.444000ZM226.220000,78.159000C219.868725,78.159000,214.720000,73.010275,214.720000,66.659000C214.720000,60.307725,219.868725,55.159000,226.220000,55.159000C232.571275,55.159000,237.720000,60.307725,237.720000,66.659000C237.712836,73.007305,232.568305,78.151836,226.220000,78.159000ZM226.220000,78.159000" fill="rgb(255,255,255)" stroke="none" stroke-width="1"/><path id="svg-work-animation-path-629" d="M616.642000,161.094000L344.761000,161.094000C341.483108,161.093204,338.339183,162.394716,336.020989,164.712160C333.702794,167.029605,332.400265,170.173108,332.400000,173.451000L332.400000,304.715000C332.400552,311.539354,337.932646,317.071448,344.757000,317.072000L616.642000,317.072000C623.466744,317.072000,628.999448,311.539744,629,304.715000L629,173.451000C628.999448,166.626256,623.466744,161.094000,616.642000,161.094000ZM604.285000,292.358000L357.119000,292.358000L357.119000,185.809000L604.285000,185.809000ZM604.285000,292.358000" fill="rgb(255,255,255)" stroke="none" stroke-width="1"/><path id="svg-work-animation-path-630" d="M12.357000,469.542000L292.449000,469.542000C299.273354,469.541448,304.805448,464.009354,304.806000,457.185000L304.806000,173.451000C304.805448,166.626646,299.273354,161.094552,292.449000,161.094000L12.357000,161.094000C5.532646,161.094552,0.000552,166.626646,0,173.451000L0,457.185000C0.000552,464.009354,5.532646,469.541448,12.357000,469.542000ZM28.664000,444.828000L91.534000,372.586000L137.383000,405.410000C140.109725,407.362829,143.513108,408.123417,146.811743,407.517133C150.110378,406.910850,153.020878,404.989781,154.875000,402.195000L209.275000,320.206000L280.092000,395.491000L280.092000,444.824000L28.664000,444.824000ZM280.092000,185.808000L280.092000,359.422000L216.600000,291.920000C214.679801,289.879680,212.122807,288.553047,209.349000,288.158000C208.424323,288.022524,207.487032,287.995006,206.556000,288.076000C202.797214,288.394713,199.389883,290.412890,197.304000,293.556000L141.363000,377.863000L96.784000,345.946000C91.600973,342.239295,84.449717,343.078760,80.266000,347.885000L24.714000,411.720000L24.714000,185.807000ZM280.092000,185.808000" fill="rgb(255,255,255)" stroke="none" stroke-width="1"/><path id="svg-work-animation-path-631" d="M104.889000,310.200000C135.420958,310.200000,160.172000,285.448958,160.172000,254.917000C160.172000,224.385042,135.420958,199.634000,104.889000,199.634000C74.357042,199.634000,49.606000,224.385042,49.606000,254.917000C49.641268,285.434337,74.371663,310.164732,104.889000,310.200000ZM104.889000,224.348000C117.253461,224.348000,128.400344,231.796439,133.131551,243.219905C137.862759,254.643372,135.246488,267.792036,126.502779,276.534315C117.759069,285.276594,104.609977,287.890714,93.187285,283.157638C81.764593,278.424562,74.317978,267.276461,74.320000,254.912000C74.340387,238.037659,88.014659,224.363387,104.889000,224.343000ZM104.889000,224.348000" fill="rgb(255,255,255)" stroke="none" stroke-width="1"/><path id="svg-work-animation-path-632" d="M616.642000,342.770000L344.761000,342.770000C337.936417,342.770000,332.404000,348.302417,332.404000,355.127000C332.404000,361.951583,337.936417,367.484000,344.761000,367.484000L616.642000,367.484000C623.466583,367.484000,628.999000,361.951583,628.999000,355.127000C628.999000,348.302417,623.466583,342.770000,616.642000,342.770000ZM616.642000,342.770000" fill="rgb(255,255,255)" stroke="none" stroke-width="1"/><path id="svg-work-animation-path-633" d="M521.831000,405.880000C521.830448,399.055646,516.298354,393.523552,509.474000,393.523000L344.762000,393.523000C337.937417,393.523000,332.405000,399.055417,332.405000,405.880000C332.405000,412.704583,337.937417,418.237000,344.762000,418.237000L509.474000,418.237000C516.298354,418.236448,521.830448,412.704354,521.831000,405.880000ZM521.831000,405.880000" fill="rgb(255,255,255)" stroke="none" stroke-width="1"/><path id="svg-work-animation-path-634" d="M344.762000,444.276000C337.937417,444.276000,332.405000,449.808417,332.405000,456.633000C332.405000,463.457583,337.937417,468.990000,344.762000,468.990000L447.324000,468.990000C454.148583,468.990000,459.681000,463.457583,459.681000,456.633000C459.681000,449.808417,454.148583,444.276000,447.324000,444.276000ZM344.762000,444.276000" fill="rgb(255,255,255)" stroke="none" stroke-width="1"/><path id="svg-work-animation-path-635" d="M616.642000,493.777000L12.356000,493.777000C5.532037,493.778104,0.000552,499.310037,0,506.134000L0,615.870000C0.000552,622.694354,5.532646,628.226448,12.357000,628.227000L616.642000,628.227000C623.466744,628.227000,628.999448,622.694744,629,615.870000L629,506.134000C628.999448,499.309256,623.466744,493.777000,616.642000,493.777000ZM604.285000,603.513000L24.713000,603.513000L24.713000,518.491000L604.285000,518.491000ZM604.285000,603.513000" fill="rgb(255,255,255)" stroke="none" stroke-width="1"/><path id="svg-work-animation-path-636" d="M48.190000,573.361000L105.033000,573.361000C111.857583,573.361000,117.390000,567.828583,117.390000,561.004000C117.390000,554.179417,111.857583,548.647000,105.033000,548.647000L48.190000,548.647000C43.775269,548.647000,39.695889,551.002231,37.488523,554.825500C35.281158,558.648769,35.281158,563.359231,37.488523,567.182500C39.695889,571.005769,43.775269,573.361000,48.190000,573.361000ZM48.190000,573.361000" fill="rgb(255,255,255)" stroke="none" stroke-width="1"/><path id="svg-work-animation-path-637" d="M166.526000,573.361000L223.369000,573.361000C230.193583,573.361000,235.726000,567.828583,235.726000,561.004000C235.726000,554.179417,230.193583,548.647000,223.369000,548.647000L166.526000,548.647000C162.111269,548.647000,158.031889,551.002231,155.824523,554.825500C153.617158,558.648769,153.617158,563.359231,155.824523,567.182500C158.031889,571.005769,162.111269,573.361000,166.526000,573.361000ZM166.526000,573.361000" fill="rgb(255,255,255)" stroke="none" stroke-width="1"/><path id="svg-work-animation-path-638" d="M284.862000,573.361000L341.700000,573.361000C348.524583,573.361000,354.057000,567.828583,354.057000,561.004000C354.057000,554.179417,348.524583,548.647000,341.700000,548.647000L284.862000,548.647000C278.037418,548.647000,272.505001,554.179418,272.505001,561.004000C272.505001,567.828582,278.037418,573.361000,284.862000,573.361000ZM284.862000,573.361000" fill="rgb(255,255,255)" stroke="none" stroke-width="1"/><path id="svg-work-animation-path-639" d="M403.193000,573.361000L460.036000,573.361000C466.860583,573.361000,472.393000,567.828583,472.393000,561.004000C472.393000,554.179417,466.860583,548.647000,460.036000,548.647000L403.193000,548.647000C398.778269,548.647000,394.698889,551.002231,392.491523,554.825500C390.284158,558.648769,390.284158,563.359231,392.491523,567.182500C394.698889,571.005769,398.778269,573.361000,403.193000,573.361000ZM403.193000,573.361000" fill="rgb(255,255,255)" stroke="none" stroke-width="1"/><path id="svg-work-animation-path-640" d="M521.529000,573.361000L578.372000,573.361000C585.196583,573.361000,590.729000,567.828583,590.729000,561.004000C590.729000,554.179417,585.196583,548.647000,578.372000,548.647000L521.529000,548.647000C517.114269,548.647000,513.034889,551.002231,510.827523,554.825500C508.620158,558.648769,508.620158,563.359231,510.827523,567.182500C513.034889,571.005769,517.114269,573.361000,521.529000,573.361000ZM521.529000,573.361000" fill="rgb(255,255,255)" stroke="none" stroke-width="1"/><path id="svg-work-animation-path-641" d="M565.309000,418.300000C566.265494,418.297858,567.218633,418.186809,568.150000,417.969000L568.692000,417.839000C575.335157,416.277967,579.455033,409.627157,577.894000,402.984000C576.332967,396.340843,569.682157,392.220967,563.039000,393.782000L562.492000,393.912000C556.386250,395.347472,552.324195,401.129226,553.043900,407.360020C553.763604,413.590814,559.036781,418.294277,565.309000,418.300000ZM565.309000,418.300000" fill="rgb(255,255,255)" stroke="none" stroke-width="1"/><path id="svg-work-animation-path-642" d="M450.266000,54.568000L449.724000,54.698000C443.618250,56.133472,439.556195,61.915226,440.275900,68.146020C440.995604,74.376814,446.268781,79.080277,452.541000,79.086000C453.495857,79.084087,454.447367,78.973033,455.377000,78.755000L455.924000,78.625000C460.248381,77.639652,463.713009,74.412325,465.002187,70.168600C466.291365,65.924875,465.207335,61.315736,462.161759,58.091508C459.116182,54.867281,454.576247,53.522558,450.266000,54.568000ZM450.266000,54.568000" fill="rgb(255,255,255)" stroke="none" stroke-width="1"/><path id="svg-work-animation-path-643" d="M396.662000,55.600000L292.449000,55.600000C288.034269,55.600000,283.954889,57.955231,281.747524,61.778500C279.540158,65.601769,279.540158,70.312231,281.747524,74.135500C283.954889,77.958769,288.034269,80.314000,292.449000,80.314000L396.662000,80.314000C403.486583,80.314000,409.019000,74.781583,409.019000,67.957000C409.019000,61.132417,403.486583,55.600000,396.662000,55.600000ZM396.662000,55.600000" fill="rgb(255,255,255)" stroke="none" stroke-width="1"/></g></g><g id="svg-work-animation-ui-design"><g id="svg-work-animation-typography" transform="matrix(1 0 0 1 225.45699999999999 224.95599999999999)"><path id="svg-work-animation-path-622" d="M588.655000,91.588000L510.466000,91.588000C505.360680,91.588000,501.222000,95.726680,501.222000,100.832000C501.222000,105.937320,505.360680,110.076000,510.466000,110.076000L588.655000,110.076000C601.020239,110.090328,611.040672,120.110761,611.055000,132.476000L611.055000,458.861000L19.031000,458.861000L19.031000,132.474000C19.045328,120.108761,29.065761,110.088328,41.431000,110.074000L117.155000,110.074000C122.260320,110.074000,126.399000,105.935320,126.399000,100.830000C126.399000,95.724680,122.260320,91.586000,117.155000,91.586000L41.431000,91.586000C18.860081,91.611901,0.569349,109.903080,0.544000,132.474000L0.544000,488.627000C0.569351,511.198310,18.860690,529.489649,41.432000,529.515000L196.639000,529.515000L196.639000,571.136000L171.528000,606.154000C168.224151,610.761067,167.774929,616.829141,170.364352,621.872490C172.953775,626.915839,178.146743,630.087025,183.816000,630.087000L445.038000,630.087000C450.706727,630.086381,455.898942,626.915193,458.488042,621.872274C461.077142,616.829355,460.628165,610.761905,457.325000,606.155000L433.325000,572.688000C433.153437,571.568853,432.776434,570.491072,432.213000,569.509000L432.213000,529.516000L588.656000,529.516000C611.227310,529.490649,629.518649,511.199310,629.544000,488.628000L629.544000,132.474000C629.517548,109.902919,611.226082,91.612348,588.655000,91.587000ZM588.655000,511.027000L382.524000,511.027000C377.418680,511.027000,373.280000,515.165680,373.280000,520.271000C373.280000,525.376320,377.418680,529.515000,382.524000,529.515000L413.724000,529.515000L413.724000,564.864000L397.421000,564.864000C394.118437,564.864000,391.066742,566.625896,389.415461,569.486000C387.764179,572.346103,387.764179,575.869897,389.415461,578.730000C391.066742,581.590104,394.118437,583.352000,397.421000,583.352000L418.221000,583.352000L438.480000,611.600000L190.373000,611.600000L210.628000,583.353000L232.663000,583.353000C237.768320,583.353000,241.907000,579.214320,241.907000,574.109000C241.907000,569.003680,237.768320,564.865000,232.663000,564.865000L215.126000,564.865000L215.126000,529.514000L343.126000,529.514000C348.231320,529.514000,352.370000,525.375320,352.370000,520.270000C352.370000,515.164680,348.231320,511.026000,343.126000,511.026000L41.431000,511.026000C29.065761,511.011672,19.045328,500.991239,19.031000,488.626000L19.031000,477.348000L611.055000,477.348000L611.055000,488.627000C611.041222,500.992467,601.020467,511.013222,588.655000,511.027000Z" fill="rgb(255,255,255)" stroke="none" stroke-width="1"/><path id="svg-work-animation-path-623" d="M389.235000,120.267000L400.744000,129.686000C404.122963,132.452163,408.793316,133.023839,412.739709,131.154337C416.686101,129.284836,419.202099,125.308812,419.202000,120.942000L419.202000,73.342000C419.192634,66.120342,413.340658,60.268366,406.119000,60.259000L223.141000,60.259000C215.919342,60.268366,210.067366,66.120342,210.058000,73.342000L210.058000,120.810000C210.058047,125.223931,212.628142,129.233796,216.638701,131.077217C220.649260,132.920638,225.366053,132.260133,228.716000,129.386000L239.344000,120.268000L284.228000,120.268000L284.228000,197C284.228000,202.105320,288.366680,206.244000,293.472000,206.244000C298.577320,206.244000,302.716000,202.105320,302.716000,197L302.716000,111.023000C302.716000,108.571339,301.742081,106.220091,300.008495,104.486505C298.274909,102.752919,295.923661,101.779000,293.472000,101.779000L235.922000,101.779000C233.713589,101.778563,231.578022,102.568936,229.902000,104.007000L228.545000,105.172000L228.545000,78.752000L400.714000,78.752000L400.714000,105.773000L398.388000,103.873000C396.736458,102.521415,394.668098,101.782967,392.534000,101.783000L334.988000,101.783000C332.536257,101.782735,330.184856,102.756568,328.451212,104.490212C326.717568,106.223856,325.743735,108.575257,325.744000,111.027000L325.744000,282.878000C325.744482,287.000991,328.475076,290.625331,332.438000,291.763000L362.881000,300.502000L362.881000,301.308000L265.581000,301.308000L265.581000,300.508000L296.026000,291.769000C299.988924,290.631331,302.719518,287.006991,302.720000,282.884000L302.720000,236.400000C302.720000,231.294680,298.581320,227.156000,293.476000,227.156000C288.370680,227.156000,284.232000,231.294680,284.232000,236.400000L284.232000,275.918000L255.089000,284.283000C250.363253,285.653648,247.105901,289.974525,247.089000,294.895000L247.089000,308.758000C247.095614,314.853587,252.035413,319.793386,258.131000,319.800000L370.331000,319.800000C376.425416,319.792286,381.363838,314.853416,381.371000,308.759000L381.371000,294.892000C381.355339,289.973358,378.101173,285.652925,373.378000,284.280000L344.234000,275.915000L344.234000,120.267000Z" fill="rgb(255,255,255)" stroke="none" stroke-width="1"/><path id="svg-work-animation-path-624" d="M143.400000,60.700000L144.890000,60.700000L144.890000,319.358000L143.400000,319.358000C132.571247,319.370675,123.796123,328.146246,123.784000,338.975000L123.784000,360.443000C123.796123,371.271754,132.571247,380.047325,143.400000,380.060000L164.869000,380.060000C175.697753,380.047325,184.472877,371.271754,184.485000,360.443000L184.485000,358.953000L445.600000,358.953000L445.600000,360.443000C445.612127,371.273314,454.389685,380.049529,465.220000,380.060000L486.689000,380.060000C497.515801,380.044571,506.287883,371.269805,506.300000,360.443000L506.300000,338.975000C506.287877,328.146246,497.512753,319.370675,486.684000,319.358000L482.729000,319.358000L482.729000,167.429000C482.729000,162.323680,478.590320,158.185000,473.485000,158.185000C468.379680,158.185000,464.241000,162.323680,464.241000,167.429000L464.241000,319.407000C453.810656,319.930116,445.617224,328.530561,445.600000,338.974000L445.600000,340.464000L184.482000,340.464000L184.482000,338.974000C184.469877,328.145246,175.694753,319.369675,164.866000,319.357000L163.376000,319.357000L163.376000,60.700000L164.866000,60.700000C175.694364,60.687326,184.469326,51.912364,184.482000,41.084000L184.482000,39.594000L445.600000,39.594000L445.600000,41.084000C445.617783,51.527420,453.811648,60.127418,464.242000,60.650000L464.242000,128.033000C464.242000,133.138320,468.380680,137.277000,473.486000,137.277000C478.591320,137.277000,482.730000,133.138320,482.730000,128.033000L482.730000,60.700000L486.685000,60.700000C497.512583,60.686776,506.286776,51.912583,506.300000,41.085000L506.300000,19.616000C506.287332,8.789586,497.515411,0.015428,486.689000,0L465.220000,0C454.390074,0.010470,445.612678,8.786077,445.600000,19.616000L445.600000,21.106000L184.482000,21.106000L184.482000,19.616000C184.469326,8.787636,175.694364,0.012674,164.866000,0L143.400000,0C132.571636,0.012674,123.796674,8.787636,123.784000,19.616000L123.784000,41.085000C123.797225,51.912973,132.572026,60.687327,143.400000,60.700000ZM464.100000,338.973000C464.100000,338.349861,464.604861,337.844552,465.228000,337.844000L486.697000,337.844000C487.320139,337.844552,487.825000,338.349861,487.825000,338.973000L487.825000,360.441000C487.825000,361.064139,487.320139,361.569448,486.697000,361.570000L465.220000,361.570000C464.596861,361.569448,464.092000,361.064139,464.092000,360.441000ZM166,338.973000L166,360.441000C165.999450,361.063911,165.494910,361.568898,164.872000,361.570000L143.400000,361.570000C142.777090,361.568898,142.272550,361.063911,142.272000,360.441000L142.272000,338.974000C142.272550,338.351089,142.777090,337.846102,143.400000,337.845000L164.869000,337.845000C165.490283,337.848840,165.992365,338.352708,165.994000,338.974000ZM464.100000,19.615000C464.100551,18.992251,464.605251,18.487551,465.228000,18.487000L486.697000,18.487000C487.319749,18.487551,487.824449,18.992251,487.825000,19.615000L487.825000,41.085000C487.824449,41.707749,487.319749,42.212449,486.697000,42.213000L465.220000,42.213000C464.597251,42.212449,464.092551,41.707749,464.092000,41.085000ZM142.277000,19.615000C142.278101,18.992479,142.782479,18.488101,143.405000,18.487000L164.874000,18.487000C165.496521,18.488101,166.000899,18.992479,166.002000,19.615000L166.002000,41.085000C166.000899,41.707521,165.496521,42.211899,164.874000,42.213000L143.400000,42.213000C142.777479,42.211899,142.273101,41.707521,142.272000,41.085000Z" fill="rgb(255,255,255)" stroke="none" stroke-width="1"/></g></g><clipPath id="svg-work-animation-clip-path-2"><rect id="svg-work-animation-rectangle-4" width="629" height="650" rx="0" ry="0" transform="matrix(1 0 0 1 226 215)" fill="rgb(255,255,255)" stroke="rgb(112,112,112)" stroke-width="1"/></clipPath></g><g id="svg-work-animation-g3" clip-path="url(#svg-work-animation-clip-path-4)"><clipPath id="svg-work-animation-clip-path-4"><rect id="svg-work-animation-rectangle-42" width="629" height="650" rx="0" ry="0" transform="matrix(1 0 0 1 202 183)" fill="rgb(255,255,255)" stroke="rgb(112,112,112)" stroke-width="1"/></clipPath></g><g id="svg-work-animation-mobile-app_tr" transform="translate(549.422485,508.059998) rotate(0)"><g id="svg-work-animation-mobile-app" display="none" transform="translate(-525.422485,-476.059998)"><g id="svg-work-animation-coding" transform="matrix(1 0 0 1 334.28300000000002 183)"><path id="svg-work-animation-path-607" d="M494.074000,11.516000L215.586000,11.516000C191.937000,11.546000,172.773000,30.307000,172.742000,53.459000L172.742000,619.693000C172.773000,642.845000,191.937000,661.606000,215.586000,661.636000L494.074000,661.636000C517.723000,661.606000,536.887000,642.845000,536.918000,619.693000L536.918000,53.459000C536.887000,30.307000,517.723000,11.546000,494.074000,11.516000ZM404.958000,32.488000L398.933000,53.460000L309.643000,53.460000L304.288000,32.488000ZM515.500000,619.693000C515.359392,631.392799,505.778148,640.772776,494.078000,640.665000L215.586000,640.665000C203.885852,640.772776,194.304608,631.392799,194.164000,619.693000L194.164000,53.459000C194.304608,41.759201,203.885852,32.379224,215.586000,32.487000L282.200000,32.487000L290.889000,66.487000C292.133944,71.195440,296.408870,74.463557,301.279000,74.430000L407.047000,74.430000C411.800977,74.461352,416.003327,71.346582,417.356000,66.789000L427.210000,32.489000L494.074000,32.489000C505.774931,32.378999,515.358300,41.758410,515.500000,53.459000Z" transform="matrix(1 0 0 1 -163.69051500000026 -43.51599999999988)" fill="rgb(255,255,255)" stroke="none" stroke-width="1"/><path id="svg-work-animation-path-609" d="M381.352000,656.419000L357.660000,656.419000C344.575000,656.419000,333.968000,664.160000,333.968000,673.709000C333.968000,683.258000,344.575000,691,357.660000,691L381.352000,691C394.437000,691,405.044000,683.259000,405.044000,673.710000C405.044000,664.161000,394.437000,656.419000,381.352000,656.419000Z" transform="matrix(1 0 0 1 -178.36651499999979 -112.69968400000002)" fill="rgb(255,255,255)" stroke="none" stroke-width="1"/><path id="svg-work-animation-path-610" d="M402.940000,300.913000C397.874401,297.928876,391.353449,299.525844,388.240000,304.513000L323.978000,409.368000C322.519776,411.753594,322.087498,414.627241,322.779349,417.336266C323.471199,420.045292,325.228454,422.359760,327.652000,423.754000C332.717599,426.738124,339.238551,425.141156,342.352000,420.154000L406.614000,315.300000C408.072550,312.914322,408.505011,310.040432,407.813146,307.331161C407.121281,304.621890,405.363825,302.307238,402.940000,300.913000Z" transform="matrix(1 0 0 1 -183.20699999999999 -37.27400000000000)" fill="rgb(255,255,255)" stroke="none" stroke-width="1"/><path id="svg-work-animation-path-611" d="M445.172000,303.351000C441.420678,298.823435,434.749175,298.099485,430.114000,301.717000C427.902112,303.425877,426.476371,305.957513,426.161747,308.734872C425.847123,311.512231,426.670426,314.298642,428.444000,316.459000L465.933000,362.334000L428.444000,408.209000C426.670426,410.369358,425.847123,413.155769,426.161747,415.933128C426.476371,418.710487,427.902112,421.242123,430.114000,422.951000C434.749175,426.568515,441.420678,425.844565,445.172000,421.317000L488.016000,368.888000C491.148920,365.080638,491.148920,359.588362,488.016000,355.781000Z" transform="matrix(1 0 0 1 -190.45300000000000 -37.27400000000000)" fill="rgb(255,255,255)" stroke="none" stroke-width="1"/><path id="svg-work-animation-path-612" d="M287.030000,421.317000C290.781322,425.844565,297.452825,426.568515,302.088000,422.951000C304.299888,421.242123,305.725629,418.710487,306.040253,415.933128C306.354877,413.155769,305.531574,410.369358,303.758000,408.209000L266.269000,362.334000L303.758000,316.459000C305.531574,314.298642,306.354877,311.512231,306.040253,308.734872C305.725629,305.957513,304.299888,303.425877,302.088000,301.717000C297.452825,298.099485,290.781322,298.823435,287.030000,303.351000L244.186000,355.780000C241.053080,359.587362,241.053080,365.079638,244.186000,368.887000Z" transform="matrix(1 0 0 1 -177.57200000000000 -37.27400000000000)" fill="rgb(255,255,255)" stroke="none" stroke-width="1"/></g></g></g></g><clipPath id="svg-work-animation-clip-svg_work_animation"><rect id="svg-work-animation-rect3" width="1080" height="1080" rx="0" ry="0" fill="rgb(0,0,0)" stroke="none" stroke-width="1"/></clipPath></g></svg>