<svg xmlns="http://www.w3.org/2000/svg" xmlns:xlink="http://www.w3.org/1999/xlink" width="350" height="350" viewBox="0 0 350 350">
  <defs>
    <clipPath id="clip-path">
      <rect id="Rectangle_173" data-name="Rectangle 173" width="227" height="214" transform="translate(1756 6083)" fill="#fff" stroke="#707070" stroke-width="1"/>
    </clipPath>
  </defs>
  <g id="laravel" transform="translate(-1650 -5994)">
    <g id="Ellipse_63" data-name="Ellipse 63" transform="translate(1650 5994)" fill="#00b4d8" stroke="#00b4d8" stroke-width="1">
      <circle cx="175" cy="175" r="175" stroke="none"/>
      <circle cx="175" cy="175" r="174.5" fill="none"/>
    </g>
    <g id="Mask_Group_22" data-name="Mask Group 22" transform="translate(-33 -21)" clip-path="url(#clip-path)">
      <g id="laravel-2" data-name="laravel" transform="translate(1762.942 6083)">
        <path id="Path_793" data-name="Path 793" d="M212.969,48.308a3.263,3.263,0,0,1,.12.873V95.017a3.327,3.327,0,0,1-1.726,2.9l-39.52,22.15v43.9a3.337,3.337,0,0,1-1.716,2.9L87.632,213.1a3.832,3.832,0,0,1-.6.242c-.077.025-.15.071-.231.092a3.555,3.555,0,0,1-1.76,0c-.095-.025-.181-.075-.271-.109a3.7,3.7,0,0,1-.566-.225L1.725,166.867A3.33,3.33,0,0,1,0,163.968V26.46a3.332,3.332,0,0,1,.12-.877c.026-.1.086-.184.12-.28a3.247,3.247,0,0,1,.219-.518,3.151,3.151,0,0,1,.236-.3A3.417,3.417,0,0,1,1,24.1a3.341,3.341,0,0,1,.339-.251,2.788,2.788,0,0,1,.378-.288h0L42.962.447a3.523,3.523,0,0,1,3.433,0L87.636,23.561h.008a4.132,4.132,0,0,1,.378.284,3.975,3.975,0,0,1,.335.251,3.766,3.766,0,0,1,.309.393,3.04,3.04,0,0,1,.232.3,3.534,3.534,0,0,1,.223.518c.034.1.094.184.12.284a3.3,3.3,0,0,1,.121.873v85.886l34.366-19.263V49.177a3.287,3.287,0,0,1,.121-.869c.03-.1.086-.188.12-.284a3.81,3.81,0,0,1,.223-.518c.064-.109.159-.2.232-.3a3.325,3.325,0,0,1,.309-.389,3.231,3.231,0,0,1,.335-.251,3.48,3.48,0,0,1,.378-.288h0l41.245-23.114a3.519,3.519,0,0,1,3.434,0l41.241,23.114a3.839,3.839,0,0,1,.386.284c.107.084.231.159.33.251a4,4,0,0,1,.309.393,2.5,2.5,0,0,1,.231.3,3.2,3.2,0,0,1,.223.518A2.293,2.293,0,0,1,212.969,48.308Zm-6.755,44.775V54.968l-14.433,8.088L171.844,74.23v38.116l34.375-19.263Zm-41.241,68.951V123.892l-19.613,10.9-56,31.114v38.5ZM6.875,32.246V162.034l75.607,42.373V165.914l-39.5-21.761-.013-.008-.017-.008a629.287,629.287,0,0,0-.7-.519l-.009-.012a3.233,3.233,0,0,1-.283-.351,3.6,3.6,0,0,1-.258-.326l0-.013a2.616,2.616,0,0,1-.18-.417,2.455,2.455,0,0,1-.163-.376v0a3.143,3.143,0,0,1-.069-.489,2.811,2.811,0,0,1-.051-.376V51.509L21.307,40.329,6.875,32.25ZM44.683,7.206,10.321,26.46,44.674,45.714,79.032,26.456,44.674,7.206Zm17.87,120.163L82.487,116.2V32.246L68.054,40.334,48.116,51.509V135.46ZM168.41,29.927,134.053,49.182,168.41,68.436l34.353-19.258Zm-3.437,44.3L145.035,63.055,130.6,54.968V93.083l19.934,11.171,14.437,8.091ZM85.916,160.125l50.395-28.006,25.191-14L127.169,98.881,87.64,121.035l-36.027,20.19Z" transform="translate(0 0)" fill="#fff"/>
      </g>
    </g>
  </g>
</svg>
