<svg xmlns="http://www.w3.org/2000/svg" xmlns:xlink="http://www.w3.org/1999/xlink" width="350" height="350" viewBox="0 0 350 350">
  <defs>
    <clipPath id="clip-path">
      <rect id="Rectangle_87" data-name="Rectangle 87" width="251" height="244" transform="translate(2256 5444)" fill="#fff" stroke="#707070" stroke-width="1"/>
    </clipPath>
  </defs>
  <g id="sass" transform="translate(-2685 -5391)">
    <g id="Ellipse_54" data-name="Ellipse 54" transform="translate(2685 5391)" fill="#00b4d8" stroke="#00b4d8" stroke-width="1">
      <circle cx="175" cy="175" r="175" stroke="none"/>
      <circle cx="175" cy="175" r="174.5" fill="none"/>
    </g>
    <g id="Mask_Group_13" data-name="Mask Group 13" transform="translate(479)" clip-path="url(#clip-path)">
      <g id="sass-seeklogo.com" transform="translate(2255.554 5471.436)">
        <path id="Path_768" data-name="Path 768" d="M216.577,108.656a51.953,51.953,0,0,0-22.739,5.272c-2.338-4.631-4.677-8.756-5.089-11.782-.459-3.53-1.009-5.685-.459-9.9s3.026-10.224,2.98-10.682-.55-2.613-5.593-2.659-9.4.963-9.9,2.292a55.339,55.339,0,0,0-2.109,7.473c-.871,4.585-10.086,20.952-15.358,29.525-1.7-3.347-3.163-6.282-3.484-8.62-.458-3.53-1.009-5.685-.458-9.9s3.026-10.224,2.98-10.682-.551-2.613-5.593-2.659-9.4.963-9.9,2.292-1.055,4.447-2.109,7.473-13.3,30.35-16.5,37.41c-1.651,3.622-3.071,6.511-4.08,8.482h0a2.106,2.106,0,0,1-.184.367c-.871,1.7-1.374,2.613-1.374,2.613v.045c-.688,1.238-1.422,2.384-1.788,2.384-.275,0-.78-3.3.091-7.794,1.834-9.49,6.189-24.252,6.144-24.757,0-.275.825-2.842-2.842-4.173-3.577-1.329-4.86.871-5.181.871s-.55.78-.55.78,3.989-16.6-7.611-16.6c-7.243,0-17.238,7.931-22.189,15.083-3.118,1.7-9.765,5.318-16.871,9.215-2.7,1.513-5.5,3.026-8.115,4.447-.183-.183-.367-.413-.55-.6C44.1,108.885,18.155,98.294,19.255,78.168,19.668,70.832,22.19,51.577,69.09,28.2c38.6-19.026,69.32-13.754,74.638-2.063,7.61,16.688-16.459,47.68-56.345,52.173-15.221,1.7-23.2-4.172-25.215-6.373-2.109-2.292-2.43-2.43-3.209-1.971-1.284.688-.458,2.751,0,3.943,1.192,3.118,6.1,8.619,14.4,11.324,7.335,2.384,25.169,3.714,46.763-4.63,24.161-9.353,43.05-35.347,37.5-57.124-5.547-22.1-42.225-29.387-76.93-17.055-20.631,7.335-43,18.889-59.1,33.926C2.476,58.225-.55,73.767.688,80.277,5.135,103.383,37,118.421,49.743,129.561c-.642.367-1.238.688-1.742.963-6.373,3.164-30.671,15.863-36.723,29.3-6.877,15.221,1.1,26.132,6.373,27.6,16.367,4.539,33.193-3.621,42.224-17.1s7.931-30.992,3.759-39.015a.961.961,0,0,0-.183-.275c1.65-.963,3.347-1.971,5-2.934,3.255-1.926,6.464-3.713,9.215-5.18A60.413,60.413,0,0,0,74.408,139.6c-.688,8.62,2.842,19.805,7.473,24.207a8.26,8.26,0,0,0,6.052,1.971c5.41,0,7.84-4.493,10.545-9.811,3.3-6.51,6.281-14.074,6.281-14.074s-3.713,20.447,6.373,20.447c3.667,0,7.381-4.768,9.032-7.2v.045s.091-.138.275-.458c.367-.6.6-.963.6-.963v-.091c1.467-2.568,4.767-8.391,9.674-18.064,6.327-12.47,12.425-28.057,12.425-28.057a79.592,79.592,0,0,0,2.429,10.132c1.1,3.713,3.393,7.794,5.227,11.736-1.467,2.064-2.384,3.209-2.384,3.209l.046.046c-1.193,1.558-2.476,3.255-3.9,4.905-5,5.96-10.957,12.791-11.782,14.763-.963,2.338-.733,4.035,1.1,5.41,1.33,1.009,3.713,1.145,6.144,1.009a28.228,28.228,0,0,0,9.214-2.109,30.916,30.916,0,0,0,7.931-4.173,17.748,17.748,0,0,0,7.611-15.634,31.57,31.57,0,0,0-2.889-11.049c.459-.641.871-1.283,1.33-1.925a210.11,210.11,0,0,0,13.754-23.749A79.577,79.577,0,0,0,179.4,110.26c.917,3.209,2.8,6.694,4.447,10.086-7.289,5.915-11.782,12.791-13.387,17.284-2.888,8.344-.642,12.1,3.622,12.974,1.925.413,4.676-.5,6.694-1.375a30.486,30.486,0,0,0,8.482-4.355c4.905-3.622,9.627-8.666,9.352-15.5a29.3,29.3,0,0,0-2.109-9.17c6.189-2.567,14.167-3.988,24.345-2.8,21.823,2.567,26.132,16.184,25.307,21.914s-5.41,8.849-6.923,9.811-2.017,1.284-1.88,1.971c.183,1.009.916.964,2.2.78,1.788-.321,11.462-4.631,11.874-15.175.688-13.478-12.149-28.195-34.843-28.057ZM48.23,165.413c-7.244,7.885-17.33,10.865-21.685,8.344-4.676-2.706-2.842-14.351,6.052-22.694a115.522,115.522,0,0,1,17.009-12.7c1.054-.642,2.613-1.558,4.493-2.7.321-.184.5-.275.5-.275h0l1.1-.687c3.255,11.919.138,22.419-7.473,30.717Zm52.723-35.852c-2.522,6.143-7.794,21.869-11,21-2.751-.733-4.447-12.654-.55-24.436,1.971-5.915,6.143-12.975,8.573-15.725,3.943-4.4,8.3-5.869,9.352-4.08,1.33,2.338-4.814,19.392-6.372,23.243Zm43.508,20.814c-1.055.551-2.063.917-2.522.642-.321-.184.459-.917.459-.917s5.456-5.868,7.61-8.527c1.238-1.558,2.7-3.392,4.264-5.456v.6c0,7.015-6.786,11.737-9.811,13.662Zm33.559-7.656c-.78-.551-.642-2.384,1.971-8.115a30.552,30.552,0,0,1,7.473-9.627,12.977,12.977,0,0,1,.733,4.218c-.046,8.849-6.372,12.149-10.178,13.525Z" fill="#fff"/>
      </g>
    </g>
  </g>
</svg>
