<svg xmlns="http://www.w3.org/2000/svg" xmlns:xlink="http://www.w3.org/1999/xlink" width="350" height="350" viewBox="0 0 350 350">
  <defs>
    <clipPath id="clip-path">
      <rect id="Rectangle_89" data-name="Rectangle 89" width="251" height="244" transform="translate(3399 5444)" fill="#fff" stroke="#707070" stroke-width="1"/>
    </clipPath>
  </defs>
  <g id="tailwind" transform="translate(-3389 -5391)">
    <g id="Ellipse_56" data-name="Ellipse 56" transform="translate(3389 5391)" fill="#00b4d8" stroke="#00b4d8" stroke-width="1">
      <circle cx="175" cy="175" r="175" stroke="none"/>
      <circle cx="175" cy="175" r="174.5" fill="none"/>
    </g>
    <g id="Mask_Group_15" data-name="Mask Group 15" transform="translate(40)" clip-path="url(#clip-path)">
      <path id="tailwindcss-icon" d="M62.75,100.4Q75.3,50.2,125.5,50.2c50.2,0,56.475,37.65,81.575,43.925Q232.177,100.4,251,75.3q-12.548,50.2-62.75,50.2c-50.2,0-56.475-37.65-81.575-43.925Q81.573,75.3,62.75,100.4ZM0,175.7q12.548-50.2,62.75-50.2c50.2,0,56.475,37.65,81.575,43.925q25.1,6.277,43.925-18.825Q175.7,200.8,125.5,200.8c-50.2,0-56.475-37.65-81.575-43.925Q18.823,150.6,0,175.7Z" transform="translate(3399 5440.5)" fill="#fff" fill-rule="evenodd"/>
    </g>
  </g>
</svg>
