<svg xmlns="http://www.w3.org/2000/svg" xmlns:xlink="http://www.w3.org/1999/xlink" width="350" height="350" viewBox="0 0 350 350">
  <defs>
    <clipPath id="clip-path">
      <rect id="Rectangle_91" data-name="Rectangle 91" width="218" height="209" transform="translate(4576 5444)" fill="#fff" stroke="#707070" stroke-width="1"/>
    </clipPath>
  </defs>
  <g id="xd" transform="translate(-4210 -5409)">
    <g id="Ellipse_58" data-name="Ellipse 58" transform="translate(4210 5409)" fill="#00b4d8" stroke="#00b4d8" stroke-width="1">
      <circle cx="175" cy="175" r="175" stroke="none"/>
      <circle cx="175" cy="175" r="174.5" fill="none"/>
    </g>
    <g id="Mask_Group_17" data-name="Mask Group 17" transform="translate(-300 36)" clip-path="url(#clip-path)">
      <g id="adobe-xd-1" transform="translate(4576.322 5444)">
        <path id="Path_773" data-name="Path 773" d="M178.865,209.014H38.489C17.206,209.014,0,192.044,0,171.053V37.961C0,16.97,17.206,0,38.489,0H178.865c21.283,0,38.489,16.97,38.489,37.961V171.053C217.354,192.044,200.148,209.014,178.865,209.014Z" fill="#b5f3ff"/>
        <path id="Path_774" data-name="Path 774" d="M176.794,201.574H43.3c-18.11,0-32.873-14.56-32.873-32.422V42.852c0-17.862,14.763-32.422,32.873-32.422h133.4a32.646,32.646,0,0,1,32.873,32.422V169.067a32.594,32.594,0,0,1-32.786,32.508Z" transform="translate(-1.371 -1.496)" fill="#56e3ff"/>
        <path id="Path_775" data-name="Path 775" d="M92.084,106.314l25.361,48.054c.452.712.183,1.432-.548,1.432H101.135a1.778,1.778,0,0,1-1.9-1.158c-5.8-11.791-11.685-23.581-17.753-36.263h-.183c-5.434,11.971-11.415,24.567-17.206,36.358a1.751,1.751,0,0,1-1.635.986H47.526c-.9,0-1-.712-.539-1.252L71.8,107.841l-24-47.162a.721.721,0,0,1,.539-1.252h15.58c.9,0,1.269.18,1.626.986,5.7,11.791,11.5,23.941,16.936,35.817h.183C87.919,84.44,93.718,72.2,99.335,60.5c.452-.712.722-1.158,1.635-1.158h14.58c.722,0,1,.54.548,1.252Zm29.8,14.56c0-20.811,14.041-37.069,36.316-37.069a40.476,40.476,0,0,1,4.712.18V60.318a.9.9,0,0,1,.9-.892H178.13c.722,0,.9.266.9.712v82a62.929,62.929,0,0,0,.452,8.755c0,.54-.183.712-.722.986a54.54,54.54,0,0,1-23.187,5.179c-19.658.077-33.7-11.885-33.69-36.186Zm41.019-22.861a13.782,13.782,0,0,0-5.251-.892c-11.415,0-19.379,8.661-19.379,23.049,0,16.438,8.155,23.049,18.388,23.049a17.192,17.192,0,0,0,6.251-.986V98.014Z" transform="translate(-6.142 -8.509)" fill="#fff"/>
      </g>
    </g>
  </g>
</svg>
