<svg id="ampera_bridge" xmlns="http://www.w3.org/2000/svg" xmlns:xlink="http://www.w3.org/1999/xlink" viewBox="0 0 708.512000 770.476000" shape-rendering="geometricPrecision" text-rendering="geometricPrecision"><style><![CDATA[#ampera_bridge-group-34_to {animation: ampera_bridge-group-34_to__to 10000ms linear infinite normal forwards}@keyframes ampera_bridge-group-34_to__to { 0% {transform: translate(8.557094px,-60.427825px)} 86% {transform: translate(120.666094px,-51.460179px)} 100% {transform: translate(8.557094px,-60.427825px)} }#ampera_bridge-group-34 {animation: ampera_bridge-group-34_c_o 10000ms linear infinite normal forwards}@keyframes ampera_bridge-group-34_c_o { 0% {opacity: 0} 11% {opacity: 1} 65% {opacity: 1} 86% {opacity: 0} 100% {opacity: 0} }#ampera_bridge-group-35_to {animation: ampera_bridge-group-35_to__to 10000ms linear infinite normal forwards}@keyframes ampera_bridge-group-35_to__to { 0% {transform: translate(178.652644px,-51.180076px)} 45% {transform: translate(169.140961px,-45.499076px)} 100% {transform: translate(178.652644px,-51.180076px)} }]]></style><g id="ampera_bridge-ampera_bridge" transform="matrix(1 0 0 1 -231 -291.52400000000000)"><g id="ampera_bridge-ampera_bridge2"><g id="ampera_bridge-path-985" transform="matrix(1 0 0 1 231 516)"><path id="ampera_bridge-path1" d="M339,545.500000C316.026428,545.500000,293.067505,543.636169,270.760986,539.960266C249.022339,536.377930,227.639664,531.032654,207.207169,524.072998C187.146744,517.240051,167.798828,508.782990,149.700836,498.936646C131.776413,489.184814,114.921585,477.985809,99.604416,465.650726C84.289253,453.317230,70.385330,439.746490,58.278915,425.315582C46.058334,410.748413,35.562500,395.176147,27.083000,379.031403C18.447916,362.590576,11.816167,345.386169,7.371917,327.895905C2.812000,309.950836,0.500000,291.481232,0.500000,273C0.500000,263.603577,1.182667,254.173401,2.529083,244.971497C3.864750,235.842819,5.865750,226.854828,8.476417,218.257248C11.090250,209.649246,14.338500,201.356079,18.130917,193.608078C21.962418,185.780243,26.386250,178.434235,31.279499,171.774246C36.264168,164.989822,41.791584,158.842331,47.708248,153.502747C53.777668,148.025162,60.337082,143.326080,67.204247,139.536072C81.708916,131.530823,97.649414,127.471741,114.583000,127.471741C136.628174,127.471741,160.020172,134.342239,184.109329,147.892319C190.526001,151.501740,196.781082,154.222992,202.700745,155.980743C208.401749,157.673569,213.994827,158.532486,219.324585,158.533737C219.328110,158.533737,219.333405,158.533737,219.336914,158.533737C233.764771,158.533737,246.922287,152.542603,260.747070,139.678406C273.091095,128.192245,284.637512,112.452660,296.861847,95.788910C305.198914,84.424072,313.819916,72.672241,323.349915,61.327824C334.147339,48.474575,344.509827,38.113991,355.029663,29.654158C361.122345,24.754574,367.424408,20.378740,373.760925,16.648241C380.583008,12.631824,387.704163,9.209741,394.926575,6.477074C402.614746,3.568074,410.684906,1.338574,418.912842,-0.149592C427.601990,-1.721259,436.752502,-2.518176,446.110260,-2.518176C452.500244,-2.518176,459.147919,-2.147009,465.868652,-1.415009C476.582825,-0.248176,486.985748,1.278491,496.788422,3.122491C506.478241,4.945241,515.864319,7.131324,524.686096,9.619991C533.398499,12.077741,541.815308,14.902575,549.702820,18.015991C557.485168,21.087908,564.980530,24.530907,571.980652,28.249325C578.880554,31.914574,585.502563,35.955326,591.662842,40.259407C597.728149,44.497326,603.525269,49.115826,608.892944,53.986656C614.171692,58.776909,619.192078,63.953575,623.814636,69.372993C628.354553,74.695488,632.646484,80.411156,636.570984,86.361244C640.419495,92.195992,644.030518,98.431572,647.303589,104.894905C650.507507,111.221321,653.484741,117.957573,656.152649,124.916740C658.758484,131.713654,661.148987,138.931152,663.257751,146.368744C665.312012,153.614243,667.162598,161.293076,668.757996,169.192078C674.640442,198.317078,677.500000,232.272903,677.500000,273C677.500000,291.481232,675.187988,309.950836,670.628174,327.895905C666.183838,345.386169,659.552063,362.590576,650.917053,379.031403C642.437500,395.176147,631.941650,410.748413,619.721069,425.315582C607.614685,439.746490,593.710815,453.317230,578.395569,465.650726C563.078430,477.985809,546.223572,489.184814,528.299194,498.936646C510.201172,508.782990,490.853333,517.240051,470.792908,524.072998C450.360321,531.032654,428.977753,536.377930,407.239014,539.960266C384.932495,543.636169,361.973572,545.500000,339,545.500000Z" fill="rgb(0,180,216)" stroke="none" stroke-width="1"/><path id="ampera_bridge-path2" d="M446.110352,-2.018188C436.782166,-2.017273,427.661438,-1.222229,419.001343,0.344666C410.803162,1.828064,402.762512,4.049805,395.102570,6.948303C387.906586,9.671326,380.811096,13.081238,374.013336,17.083252C367.697571,20.801666,361.415405,25.163574,355.341492,30.047913C344.847168,38.486816,334.507263,48.824585,323.730927,61.651733C314.211426,72.982819,305.595245,84.726990,297.262848,96.084503C285.024506,112.765839,273.464905,128.522064,261.086670,140.040070C247.160583,152.998413,233.890411,159.033752,219.324738,159.033752C213.947845,159.033752,208.306763,158.168152,202.558319,156.460999C196.604095,154.692657,190.314514,151.956421,183.864258,148.328156C159.850830,134.820648,136.541260,127.971741,114.583008,127.971741C97.734863,127.971741,81.875610,132.009827,67.445862,139.973755C60.612183,143.745331,54.084229,148.421997,48.043152,153.873901C42.151672,159.190918,36.647095,165.313080,31.682434,172.070251C26.806763,178.706421,22.398438,186.026733,18.579895,193.827911C14.799255,201.551910,11.560913,209.819977,8.954834,218.402496C6.351440,226.976318,4.355896,235.939819,3.023804,245.043915C1.680908,254.221893,1,263.627655,1,273C1,291.439758,3.306824,309.867920,7.856506,327.772736C12.291077,345.225067,18.908752,362.392761,27.525574,378.798889C35.988586,394.912079,46.464355,410.454407,58.661987,424.994141C70.747498,439.400330,84.628113,452.948151,99.918030,465.261322C115.211914,477.577576,132.041687,488.759918,149.939758,498.497498C168.012909,508.330322,187.334656,516.775879,207.368347,523.599731C227.774902,530.550598,249.130676,535.889099,270.842255,539.466919C293.122009,543.138428,316.053589,545,339,545C361.946411,545,384.877991,543.138428,407.157745,539.466919C428.869324,535.889099,450.225098,530.550598,470.631653,523.599731C490.665253,516.775879,509.987000,508.330322,528.060181,498.497498C545.958313,488.759918,562.788086,477.577576,578.082031,465.261322C593.371948,452.948151,607.252441,439.400330,619.338013,424.994141C631.535645,410.454407,642.011414,394.912079,650.474426,378.798889C659.091248,362.392761,665.708923,345.225067,670.143494,327.772736C674.693176,309.867920,677,291.439758,677,273C677,232.306580,674.143677,198.383087,668.267822,169.291077C666.674988,161.404572,664.827515,153.738312,662.776672,146.505157C660.671997,139.081909,658.286255,131.878754,655.685852,125.095734C653.023926,118.152496,650.053650,111.431976,646.857483,105.120728C643.592896,98.674408,639.991638,92.455414,636.153564,86.636566C632.240356,80.703583,627.960938,75.004395,623.434143,69.697418C618.825439,64.294250,613.819946,59.132904,608.556824,54.356995C603.204834,49.500244,597.424500,44.895081,591.376404,40.669312C585.232727,36.376740,578.628174,32.346649,571.746094,28.690918C564.762390,24.981232,557.284180,21.546082,549.519165,18.481079C541.647339,15.373810,533.246582,12.554382,524.550354,10.101135C515.742737,7.616577,506.371246,5.433899,496.695984,3.613892C486.905914,1.772217,476.515930,0.247498,465.814575,-0.918030C459.111420,-1.648010,452.487183,-2.018188,446.125732,-2.018188L446.110352,-2.018188M446.110229,-3.018127C452.456360,-3.018799,459.043335,-2.661316,465.922852,-1.912109C639.328064,16.973663,678,122.226227,678,273C678,423.773743,526.224487,546,339,546C151.775391,546,0,423.773743,0,273C0,196.979462,44.143188,126.971771,114.583008,126.971771C135.650146,126.971771,159.057190,133.226929,184.354492,147.456573C197.425659,154.809052,208.929382,158.033752,219.324738,158.033752C292.849701,158.033752,311.523682,-3.004700,446.110229,-3.018127Z" fill="rgb(116,205,221)" stroke="none" stroke-width="1"/></g><g id="ampera_bridge-ampera_bridge3" transform="matrix(1 0 0 1 182 -139)"><path id="ampera_bridge-path-205" d="M-5594.617000,4004.667000C-5594.617000,4004.667000,-5365.917000,3987.022000,-5273.117000,3984.687000C-5209.360000,3983.087000,-4962.800000,3985.016000,-4962.800000,3985.016000C-4962.800000,3985.016000,-4974.672000,3986.274000,-5004.646000,3991.128000C-5049.073000,3998.328000,-5137.324000,4010.909000,-5308.771000,4022.238000L-5594.617000,4029.793000C-5594.617000,4029.793000,-5578.332000,4027.634000,-5580.825000,4017.036000C-5583.318000,4006.438000,-5594.617000,4004.667000,-5594.617000,4004.667000Z" transform="matrix(1 0 0 1 5719 -3094)" fill="rgb(226,226,226)" stroke="rgb(226,226,226)" stroke-width="1"/><path id="ampera_bridge-path-244" d="M-5493.500000,4061.787000C-5500.761000,4065.220000,-5527.383000,4124.978000,-5517.100000,4125.664000C-5506.817000,4126.350000,-5274.793000,4139.164000,-5273.083000,4133.204000C-5271.373000,4127.244000,-5278.849000,4074.267000,-5288.848000,4067.404000C-5298.847000,4060.541000,-5486.244000,4058.354000,-5493.500000,4061.787000Z" transform="matrix(1 0 0 1 5719 -3094)" fill="rgb(226,226,226)" stroke="rgb(226,226,226)" stroke-width="1"/><path id="ampera_bridge-path-245" d="M-5496.944000,4061.600000C-5503.244000,4064.624000,-5526.334000,4117.268000,-5517.416000,4117.872000C-5508.498000,4118.476000,-5307.243000,4129.761000,-5305.760000,4124.514000C-5304.277000,4119.267000,-5310.760000,4072.594000,-5319.434000,4066.546000C-5328.108000,4060.498000,-5490.646000,4058.572000,-5496.944000,4061.600000Z" transform="matrix(1 0 0 1 5966 -3122)" fill="rgb(226,226,226)" stroke="rgb(226,226,226)" stroke-width="1"/><path id="ampera_bridge-path-204" d="M-5594.121000,4030.594000C-5594.121000,4030.594000,-5171.084000,3994.845000,-5074.716000,3989.377000C-5033.505000,3987.039000,-5048.716000,3986.706000,-5017.832000,3985.508000C-4955.360000,3983.085000,-4962.211000,3985.508000,-4962.211000,3985.508000C-4962.211000,3985.508000,-4982.964000,3984.832000,-5030.057000,4000.177000C-5077.150000,4015.522000,-5088.839000,4032.144000,-5088.839000,4032.144000C-5088.839000,4032.144000,-5135.991000,4021.023000,-5198.047000,4026.702000C-5260.103000,4032.381000,-5307.962000,4059.555000,-5307.962000,4059.555000C-5307.962000,4059.555000,-5356.632000,4049.010000,-5430.450000,4057.121000C-5504.268000,4065.232000,-5556.183000,4098.897000,-5556.183000,4098.897000C-5556.183000,4098.897000,-5546.283000,4087.761000,-5569.410000,4084.850000C-5588.997000,4082.385000,-5563.232000,4062.158000,-5569.410000,4048.594000C-5575.588000,4035.030000,-5594.121000,4030.594000,-5594.121000,4030.594000Z" transform="matrix(1 0 0 1 5719 -3094)" fill="rgb(201,80,72)" stroke="rgb(205,107,104)" stroke-width="1"/><path id="ampera_bridge-path-211" d="M-5455.451000,3547.441000L-5467.538000,3547.441000L-5481.387000,3998.177000L-5462.044000,3998.177000L-5457.988000,3990.689000L-5451.124000,3692.425000L-5449.564000,3547.441000Z" transform="matrix(1 0 0 1 5719 -3094)" fill="rgb(201,80,72)" stroke="rgb(201,80,72)" stroke-width="1"/><path id="ampera_bridge-path-210" d="M-5451.924000,3995.090000L-5444.015000,3547.442000L-5454.033000,3547.442000L-5461.942000,3997.727000Z" transform="matrix(1 0 0 1 5719 -3094)" fill="rgb(171,89,87)" stroke="rgb(171,89,87)" stroke-width="1"/><path id="ampera_bridge-path-209" d="M-5455.451000,3710.940000L-5447.845000,3715.463000L-5334.085000,3715.463000L-5335.233000,3707.894000L-5446.041000,3680.354000Z" transform="matrix(1 0 0 1 5719 -3094)" fill="rgb(171,89,87)" stroke="rgb(171,89,87)" stroke-width="1"/><path id="ampera_bridge-path-208" d="M-5338.179000,3654.979000L-5455.479000,3654.979000L-5455.479000,3710.826000L-5338.179000,3710.826000Z" transform="matrix(1 0 0 1 5721.50000000000000 -3094)" fill="rgb(201,80,72)" stroke="rgb(201,80,72)" stroke-width="1"/><path id="ampera_bridge-path-213" d="M-5342.025000,3619.828000L-5340.825000,3545.670000" transform="matrix(1 0 0 1 5621 -3092)" fill="none" stroke="rgb(171,89,87)" stroke-width="5"/><path id="ampera_bridge-path-2132" d="M-5342.025000,3619.828000L-5340.825000,3545.670000" transform="matrix(1 0 0 1 5632 -3092)" fill="none" stroke="rgb(171,89,87)" stroke-width="5"/><path id="ampera_bridge-path-2133" d="M-5342.025000,3619.828000L-5340.825000,3545.670000" transform="matrix(1 0 0 1 5643 -3092)" fill="none" stroke="rgb(171,89,87)" stroke-width="5"/><path id="ampera_bridge-path-2134" d="M-5342.025000,3619.828000L-5340.825000,3545.670000" transform="matrix(1 0 0 1 5654 -3092)" fill="none" stroke="rgb(171,89,87)" stroke-width="5"/><path id="ampera_bridge-path-2135" d="M-5342.025000,3619.828000L-5340.825000,3545.670000" transform="matrix(1 0 0 1 5665 -3092)" fill="none" stroke="rgb(171,89,87)" stroke-width="5"/><path id="ampera_bridge-path-2136" d="M-5342.025000,3619.828000L-5340.825000,3545.670000" transform="matrix(1 0 0 1 5676 -3092)" fill="none" stroke="rgb(171,89,87)" stroke-width="5"/><path id="ampera_bridge-path-2137" d="M-5342.025000,3619.828000L-5340.825000,3545.670000" transform="matrix(1 0 0 1 5687 -3092)" fill="none" stroke="rgb(171,89,87)" stroke-width="5"/><path id="ampera_bridge-path-2138" d="M-5342.025000,3619.828000L-5340.825000,3545.670000" transform="matrix(1 0 0 1 5698 -3092)" fill="none" stroke="rgb(171,89,87)" stroke-width="5"/><path id="ampera_bridge-path-2139" d="M-5342.025000,3619.828000L-5340.825000,3545.670000" transform="matrix(1 0 0 1 5709 -3092)" fill="none" stroke="rgb(171,89,87)" stroke-width="5"/><path id="ampera_bridge-path-21310" d="M-5342.025000,3619.828000L-5340.825000,3545.670000" transform="matrix(1 0 0 1 5720 -3092)" fill="none" stroke="rgb(171,89,87)" stroke-width="5"/><path id="ampera_bridge-path-215" d="M-5449.069000,3623.665000L-5444.918000,3626.665000L-5334.918000,3628.194000L-5334.918000,3622.623000L-5443.609000,3618.691000Z" transform="matrix(1 0 0 1 5719 -3094)" fill="rgb(171,89,87)" stroke="rgb(171,89,87)" stroke-width="1"/><path id="ampera_bridge-path-214" d="M-5448.577000,3613.345000L-5333.620000,3613.345000L-5333.620000,3623.665000L-5448.577000,3623.665000Z" transform="matrix(1 0 0 1 5719 -3094)" fill="rgb(201,80,72)" stroke="rgb(201,80,72)" stroke-width="1"/><path id="ampera_bridge-path-217" d="M-5452.979000,3784.369000L-5448.134000,3787.209000L-5336.090000,3789.624000L-5336.090000,3783.091000L-5442.454000,3774.854000Z" transform="matrix(1 0 0 1 5719 -3094)" fill="rgb(64,132,125)" stroke="rgb(64,132,125)" stroke-width="1"/><path id="ampera_bridge-path-216" d="M-5335.935000,3769.400000L-5451.456000,3767.181000L-5451.456000,3784.221000L-5335.935000,3786.141000Z" transform="matrix(1 0 0 1 5717.47999999999956 -3094)" fill="rgb(78,165,156)" stroke="rgb(78,165,156)" stroke-width="1"/><path id="ampera_bridge-path-240" d="M-5452.979000,3784.369000L-5448.134000,3787.209000L-5336.090000,3789.624000L-5336.090000,3783.091000L-5442.454000,3774.854000Z" transform="matrix(1 0 0 1 5719 -2914)" fill="rgb(64,132,125)" stroke="rgb(64,132,125)" stroke-width="1"/><path id="ampera_bridge-path-241" d="M-5335.935000,3770.249000L-5451.456000,3767.180000L-5451.456000,3784.220000L-5335.935000,3786.140000Z" transform="matrix(1 0 0 1 5717.47999999999956 -2914)" fill="rgb(78,165,156)" stroke="rgb(78,165,156)" stroke-width="1"/><path id="ampera_bridge-path-207" d="M-5332.700000,3999.116000L-5342.029000,3999.116000L-5334.729000,3544.045000L-5320.529000,3544.045000L-5314.851000,3559.052000L-5319.718000,3999.116000Z" transform="matrix(1 0 0 1 5719 -3094)" fill="rgb(171,89,87)" stroke="rgb(171,89,87)" stroke-width="1"/><path id="ampera_bridge-path-206" d="M-5327.423000,3999.116000L-5320.123000,3543.760000L-5305.360000,3550.087000L-5310.105000,3999.115000Z" transform="matrix(1 0 0 1 5719 -3094)" fill="rgb(201,80,72)" stroke="rgb(201,80,72)" stroke-width="1"/><path id="ampera_bridge-path-212" d="M-5486.976000,3530.547000L-5457.457000,3542.547000L-5284.657000,3539.187000L-5318.257000,3525.027000Z" transform="matrix(1 0 0 1 5719 -3094)" fill="rgb(201,80,72)" stroke="rgb(201,80,72)" stroke-width="1"/><path id="ampera_bridge-path-218" d="M-5455.451000,3547.441000L-5467.538000,3547.441000L-5481.387000,3923.596000L-5462.044000,3923.596000L-5457.988000,3917.347000L-5451.124000,3668.435000L-5449.564000,3547.441000Z" transform="matrix(1 0 0 1 5965 -3032)" fill="rgb(201,80,72)" stroke="rgb(201,80,72)" stroke-width="1"/><path id="ampera_bridge-path-219" d="M-5451.924000,3920.945000L-5444.015000,3547.445000L-5454.033000,3547.445000L-5461.942000,3923.145000Z" transform="matrix(1 0 0 1 5965 -3032)" fill="rgb(171,89,87)" stroke="rgb(171,89,87)" stroke-width="1"/><path id="ampera_bridge-path-220" d="M-5446.040000,3705.386000L-5438.984000,3718.105000L-5350.907000,3718.105000L-5350.907000,3708.025000L-5446.040000,3680.353000Z" transform="matrix(1 0 0 1 5956.39999999999964 -3063.38999999999987)" fill="rgb(171,89,87)" stroke="rgb(171,89,87)" stroke-width="1"/><path id="ampera_bridge-path-221" d="M-5344.547000,3654.979000L-5454.406000,3654.979000L-5455.481000,3701.538000L-5344.546000,3701.538000Z" transform="matrix(1 0 0 1 5967.50000000000000 -3051.42000000000007)" fill="rgb(201,80,72)" stroke="rgb(201,80,72)" stroke-width="1"/><path id="ampera_bridge-path-223" d="M-5342.025000,3605.473000L-5340.825000,3545.673000" transform="matrix(1 0 0 1 5870.89000000000033 -3030)" fill="none" stroke="rgb(171,89,87)" stroke-width="5"/><path id="ampera_bridge-path-224" d="M-5342.025000,3605.473000L-5340.825000,3545.673000" transform="matrix(1 0 0 1 5880.35999999999967 -3030)" fill="none" stroke="rgb(171,89,87)" stroke-width="5"/><path id="ampera_bridge-path-225" d="M-5342.025000,3605.473000L-5340.825000,3545.673000" transform="matrix(1 0 0 1 5889.81999999999971 -3030)" fill="none" stroke="rgb(171,89,87)" stroke-width="5"/><path id="ampera_bridge-path-226" d="M-5342.025000,3605.473000L-5340.825000,3545.673000" transform="matrix(1 0 0 1 5899.27999999999975 -3030)" fill="none" stroke="rgb(171,89,87)" stroke-width="5"/><path id="ampera_bridge-path-227" d="M-5342.025000,3605.473000L-5340.825000,3545.673000" transform="matrix(1 0 0 1 5908.73999999999978 -3030)" fill="none" stroke="rgb(171,89,87)" stroke-width="5"/><path id="ampera_bridge-path-228" d="M-5342.025000,3605.473000L-5340.825000,3545.673000" transform="matrix(1 0 0 1 5918.19999999999982 -3030)" fill="none" stroke="rgb(171,89,87)" stroke-width="5"/><path id="ampera_bridge-path-229" d="M-5342.025000,3605.473000L-5340.825000,3545.673000" transform="matrix(1 0 0 1 5927.65999999999985 -3030)" fill="none" stroke="rgb(171,89,87)" stroke-width="5"/><path id="ampera_bridge-path-230" d="M-5342.025000,3605.473000L-5340.825000,3545.673000" transform="matrix(1 0 0 1 5937.11999999999989 -3030)" fill="none" stroke="rgb(171,89,87)" stroke-width="5"/><path id="ampera_bridge-path-232" d="M-5449.069000,3623.665000L-5445.399000,3626.665000L-5348.150000,3628.194000L-5348.150000,3622.623000L-5444.240000,3618.691000Z" transform="matrix(1 0 0 1 5964.50000000000000 -3047.03999999999996)" fill="rgb(171,89,87)" stroke="rgb(171,89,87)" stroke-width="1"/><path id="ampera_bridge-path-233" d="M-5448.577000,3613.345000L-5345.550000,3613.345000L-5345.550000,3623.665000L-5448.577000,3623.665000Z" transform="matrix(1 0 0 1 5962.89000000000033 -3046.19999999999982)" fill="rgb(201,80,72)" stroke="rgb(201,80,72)" stroke-width="1"/><path id="ampera_bridge-path-234" d="M-5453.717000,3785.571000L-5450.579000,3788.155000L-5343.434000,3789.624000L-5343.434000,3783.091000L-5443.114000,3774.854000Z" transform="matrix(1 0 0 1 5966.01000000000022 -3072.55999999999995)" fill="rgb(64,132,125)" stroke="rgb(64,132,125)" stroke-width="1"/><path id="ampera_bridge-path-235" d="M-5342.182000,3767.180000L-5451.455000,3767.180000L-5451.455000,3784.220000L-5342.182000,3786.140000Z" transform="matrix(1 0 0 1 5963.47999999999956 -3071.67999999999984)" fill="rgb(78,165,156)" stroke="rgb(78,165,156)" stroke-width="1"/><path id="ampera_bridge-path-242" d="M-5453.717000,3785.571000L-5450.579000,3788.155000L-5343.434000,3789.624000L-5343.434000,3783.091000L-5443.114000,3774.854000Z" transform="matrix(1 0 0 1 5966.01000000000022 -2926.55999999999995)" fill="rgb(64,132,125)" stroke="rgb(64,132,125)" stroke-width="1"/><path id="ampera_bridge-path-243" d="M-5342.182000,3770.329000L-5451.455000,3767.180000L-5451.455000,3784.220000L-5342.182000,3786.140000Z" transform="matrix(1 0 0 1 5963.47999999999956 -2925.67999999999984)" fill="rgb(78,165,156)" stroke="rgb(78,165,156)" stroke-width="1"/><path id="ampera_bridge-path-236" d="M-5332.700000,3924.535000L-5342.029000,3924.535000L-5334.729000,3544.045000L-5324.221000,3544.045000L-5314.855000,3556.592000L-5319.722000,3924.535000Z" transform="matrix(1 0 0 1 5940.43999999999960 -3032)" fill="rgb(171,89,87)" stroke="rgb(171,89,87)" stroke-width="1"/><path id="ampera_bridge-path-237" d="M-5327.423000,3924.535000L-5320.067000,3544.211000L-5305.359000,3549.052000L-5310.104000,3924.535000Z" transform="matrix(1 0 0 1 5936.86999999999989 -3032)" fill="rgb(201,80,72)" stroke="rgb(201,80,72)" stroke-width="1"/><path id="ampera_bridge-path-238" d="M-5486.975000,3530.547000L-5461.561000,3542.547000L-5312.792000,3539.187000L-5341.720000,3525.027000Z" transform="matrix(1 0 0 1 5965 -3032)" fill="rgb(201,80,72)" stroke="rgb(201,80,72)" stroke-width="1"/><g id="ampera_bridge-ellipse-17" transform="matrix(1 0 0 1 298 564)"><circle id="ampera_bridge-circle1" r="25" transform="matrix(1 0 0 1 25 25)" fill="rgb(255,255,255)" stroke="none" stroke-width="1"/><circle id="ampera_bridge-circle2" r="24.500000" transform="matrix(1 0 0 1 25 25)" fill="none" stroke="rgb(255,255,255)" stroke-width="1"/></g><path id="ampera_bridge-path-239" d="M-5414.943000,3682.900000L-5396.025000,3682.900000L-5384.944000,3698.517000" transform="matrix(1 0 0 1 5719 -3094)" fill="none" stroke="rgb(0,0,0)" stroke-width="3" stroke-linecap="round"/><text id="ampera_bridge-ampera" dx="0" dy="0" font-family="SegoeUI-Bold, &quot;Segoe UI&quot;" font-size="17" font-weight="bold" transform="matrix(1 0.01700000000000 -0.01700000000000 1 285.56924999999995 872.10775000000001)" fill="rgb(242,167,78)" stroke="none" stroke-width="1"><![CDATA[AMPERA]]></text></g></g><g id="ampera_bridge-group-34_to" transform="translate(8.557094,-60.427825)"><g id="ampera_bridge-group-34" transform="translate(0,0)" opacity="0"><path id="ampera_bridge-path-989" d="M-13311.734493,3336.812130C-13311.734493,3336.812130,-13297.678367,3355.817448,-13286.891976,3355.652086C-13276.105586,3355.486725,-13266.298399,3351.850819,-13263.193211,3349.867504C-13260.088023,3347.884190,-13253.713099,3343.091775,-13253.713099,3343.091775C-13253.713099,3343.091775,-13239.820510,3354.494557,-13231.649706,3354.659919C-13223.478901,3354.825280,-13214.325864,3355.156002,-13205.172826,3347.884190C-13196.019789,3340.612377,-13195.366649,3337.968638,-13195.366649,3337.968638C-13195.366649,3337.968638,-13187.189788,3338.464722,-13181.964673,3335.825066C-13176.739557,3333.185410,-13172.649107,3327.892829,-13173.956396,3321.282461C-13175.263684,3314.672093,-13181.801135,3309.543852,-13183.762573,3308.727253C-13185.724010,3307.910655,-13190.135477,3307.901468,-13190.135477,3307.901468C-13190.135477,3307.901468,-13188.665661,3296.993749,-13189.318800,3295.175795C-13189.971940,3293.357842,-13194.385426,3287.243558,-13202.392693,3285.590966C-13210.399961,3283.938374,-13207.944883,3283.607652,-13207.944883,3283.607652C-13207.944883,3283.607652,-13199.935597,3267.581899,-13207.944883,3256.175034C-13215.954170,3244.768168,-13235.075912,3236.343930,-13239.651926,3235.847846C-13244.227940,3235.351763,-13264.657980,3236.013208,-13273.483943,3242.788937C-13282.309906,3249.564666,-13285.093067,3262.785401,-13284.760945,3265.925224C-13284.568867,3267.958692,-13284.568867,3270.006040,-13284.760945,3272.039508C-13284.953023,3274.072976,-13291.134859,3269.394748,-13301.595185,3268.899685C-13312.055511,3268.404622,-13320.390862,3276.006137,-13321.534613,3279.145960C-13322.678364,3282.285782,-13324.312727,3297.985916,-13324.312727,3297.985916C-13324.312727,3297.985916,-13331.013715,3296.658943,-13334.282441,3297.985916C-13337.551167,3299.312889,-13342.454255,3299.803869,-13344.252155,3306.910321C-13346.050055,3314.016773,-13338.699965,3319.634973,-13336.080341,3321.287565C-13333.460717,3322.940157,-13332.975153,3323.766963,-13332.975153,3323.766963C-13332.975153,3323.766963,-13333.792839,3323.932324,-13332.975153,3326.906786C-13332.157467,3329.881247,-13330.359566,3334.839023,-13324.312727,3335.831190C-13320.147498,3336.452222,-13315.944641,3336.779990,-13311.734493,3336.812130Z" transform="matrix(1 0 0 1 13702 -2868)" fill="rgb(0,180,216)" stroke="rgb(0,180,216)" stroke-width="1"/><path id="ampera_bridge-path-986" d="M-13192.506000,3328.500000C-13192.506000,3328.500000,-13190.590000,3342.454000,-13212.753000,3352.578000C-13234.916000,3362.702000,-13254.068000,3343.822000,-13254.068000,3343.822000C-13254.068000,3343.822000,-13266.380000,3356.682000,-13284.439000,3355.587000C-13302.498000,3354.492000,-13310.979000,3336.434000,-13310.979000,3336.434000C-13310.979000,3336.434000,-13326.301000,3338.349000,-13330.953000,3332.334000C-13335.605000,3326.319000,-13332.321000,3321.934000,-13332.321000,3321.934000" transform="matrix(1 0 0 1 13702 -2868)" fill="none" stroke="rgb(0,180,216)" stroke-width="2" stroke-linecap="round" stroke-linejoin="bevel"/><path id="ampera_bridge-path-987" d="M-13333.446000,3324.120000C-13333.446000,3324.120000,-13348.466000,3316.732000,-13343.540000,3305.241000C-13338.614000,3293.750000,-13323.840000,3297.306000,-13323.840000,3297.306000C-13323.840000,3297.306000,-13325.755000,3278.974000,-13313.716000,3272.134000C-13301.677000,3265.294000,-13284.987000,3272.134000,-13284.987000,3272.134000C-13284.987000,3272.134000,-13288.317000,3252.353000,-13271.581000,3242.310000C-13265.476000,3238.644000,-13253.958000,3235.773000,-13241.481000,3236.838000C-13226.762000,3238.094000,-13211.281000,3250.622000,-13206.732000,3259.001000C-13197.769000,3275.511000,-13211.932000,3293.201000,-13211.932000,3293.201000" transform="matrix(1 0 0 1 13702 -2868)" fill="none" stroke="rgb(0,180,216)" stroke-width="2" stroke-linecap="round" stroke-linejoin="bevel"/><path id="ampera_bridge-path-988" d="M-13207.007000,3284.719000C-13207.007000,3284.719000,-13195.242000,3286.360000,-13191.407000,3291.833000C-13187.572000,3297.306000,-13189.492000,3307.976000,-13189.492000,3307.976000C-13189.492000,3307.976000,-13176.359000,3306.334000,-13173.892000,3322.751000C-13171.425000,3339.168000,-13194.959000,3339.168000,-13194.959000,3339.168000" transform="matrix(1 0 0 1 13702 -2868)" fill="none" stroke="rgb(0,180,216)" stroke-width="2" stroke-linecap="round" stroke-linejoin="bevel"/></g></g><g id="ampera_bridge-group-35_to" transform="translate(178.652644,-51.180076)"><g id="ampera_bridge-group-35" transform="translate(0,0)"><path id="ampera_bridge-path-9892" d="M-13312.006160,3336.872848C-13312.006160,3336.872848,-13297.922368,3355.816918,-13287.114746,3355.652090C-13276.307125,3355.487261,-13266.480636,3351.863072,-13263.369336,3349.886149C-13260.258035,3347.909226,-13253.870564,3343.132256,-13253.870564,3343.132256C-13253.870564,3343.132256,-13239.950632,3354.498291,-13231.763745,3354.663119C-13223.576858,3354.827948,-13214.405805,3355.157605,-13205.234752,3347.909226C-13196.063699,3340.660848,-13195.409274,3338.025629,-13195.409274,3338.025629C-13195.409274,3338.025629,-13187.216318,3338.520114,-13181.980918,3335.888965C-13176.745519,3333.257816,-13172.647018,3327.982291,-13173.956879,3321.393226C-13175.266741,3314.804161,-13181.817059,3309.692447,-13183.782357,3308.878479C-13185.747655,3308.064512,-13190.167805,3308.055355,-13190.167805,3308.055355C-13190.167805,3308.055355,-13188.695096,3297.182787,-13189.349521,3295.370693C-13190.003946,3293.558598,-13194.426119,3287.464018,-13202.449147,3285.816752C-13210.472175,3284.169486,-13208.012265,3283.839829,-13208.012265,3283.839829C-13208.012265,3283.839829,-13199.987214,3267.865722,-13208.012265,3256.495617C-13216.037316,3245.125512,-13235.196694,3236.728423,-13239.781715,3236.233937C-13244.366736,3235.739452,-13264.836987,3236.398766,-13273.680322,3243.152659C-13282.523657,3249.906552,-13285.312296,3263.084682,-13284.979521,3266.214386C-13284.787064,3268.241300,-13284.787064,3270.282051,-13284.979521,3272.308966C-13285.171977,3274.335880,-13291.365980,3269.672729,-13301.846895,3269.179262C-13312.327809,3268.685794,-13320.679566,3276.262812,-13321.825569,3279.392516C-13322.971571,3282.522220,-13324.609151,3298.171758,-13324.609151,3298.171758C-13324.609151,3298.171758,-13331.323329,3296.849061,-13334.598488,3298.171758C-13337.873647,3299.494454,-13342.786386,3299.983852,-13344.587825,3307.067402C-13346.389264,3314.150952,-13339.024707,3319.751047,-13336.399927,3321.398313C-13333.775146,3323.045579,-13333.288626,3323.869721,-13333.288626,3323.869721C-13333.288626,3323.869721,-13334.107922,3324.034549,-13333.288626,3326.999425C-13332.469331,3329.964301,-13330.667892,3334.906099,-13324.609151,3335.895070C-13320.435723,3336.514100,-13316.224594,3336.840812,-13312.006160,3336.872848Z" transform="matrix(1 0 0 1 13702 -2868)" fill="rgb(0,180,216)" stroke="rgb(0,180,216)" stroke-width="1"/><path id="ampera_bridge-path-9862" d="M-13192.506000,3328.500000C-13192.506000,3328.500000,-13190.590000,3342.454000,-13212.753000,3352.578000C-13234.916000,3362.702000,-13254.068000,3343.822000,-13254.068000,3343.822000C-13254.068000,3343.822000,-13266.380000,3356.682000,-13284.439000,3355.587000C-13302.498000,3354.492000,-13310.979000,3336.434000,-13310.979000,3336.434000C-13310.979000,3336.434000,-13326.301000,3338.349000,-13330.953000,3332.334000C-13335.605000,3326.319000,-13332.321000,3321.934000,-13332.321000,3321.934000" transform="matrix(1 0 0 1 13702 -2868)" fill="none" stroke="rgb(0,180,216)" stroke-width="2" stroke-linecap="round" stroke-linejoin="bevel"/><path id="ampera_bridge-path-9872" d="M-13333.446000,3324.120000C-13333.446000,3324.120000,-13348.466000,3316.732000,-13343.540000,3305.241000C-13338.614000,3293.750000,-13323.840000,3297.306000,-13323.840000,3297.306000C-13323.840000,3297.306000,-13325.755000,3278.974000,-13313.716000,3272.134000C-13301.677000,3265.294000,-13284.987000,3272.134000,-13284.987000,3272.134000C-13284.987000,3272.134000,-13288.317000,3252.353000,-13271.581000,3242.310000C-13265.476000,3238.644000,-13253.958000,3235.773000,-13241.481000,3236.838000C-13226.762000,3238.094000,-13211.281000,3250.622000,-13206.732000,3259.001000C-13197.769000,3275.511000,-13211.932000,3293.201000,-13211.932000,3293.201000" transform="matrix(1 0 0 1 13702 -2868)" fill="none" stroke="rgb(0,180,216)" stroke-width="2" stroke-linecap="round" stroke-linejoin="bevel"/><path id="ampera_bridge-path-9882" d="M-13207.007000,3284.719000C-13207.007000,3284.719000,-13195.242000,3286.360000,-13191.407000,3291.833000C-13187.572000,3297.306000,-13189.492000,3307.976000,-13189.492000,3307.976000C-13189.492000,3307.976000,-13176.359000,3306.334000,-13173.892000,3322.751000C-13171.425000,3339.168000,-13194.959000,3339.168000,-13194.959000,3339.168000" transform="matrix(1 0 0 1 13702 -2868)" fill="none" stroke="rgb(0,180,216)" stroke-width="2" stroke-linecap="round" stroke-linejoin="bevel"/></g></g></g></svg>