<svg xmlns="http://www.w3.org/2000/svg" xmlns:xlink="http://www.w3.org/1999/xlink" width="1920" height="1080" viewBox="0 0 1920 1080">
  <defs>
    <style>
      .cls-1 {
        clip-path: url(#clip-background_biography_);
      }

      .cls-2 {
        fill: #00b4d8;
        stroke: #00b4d8;
      }

      .cls-3 {
        stroke: none;
      }

      .cls-4 {
        fill: none;
      }
    </style>
    <clipPath id="clip-background_biography_">
      <rect width="1920" height="1080"/>
    </clipPath>
  </defs>
  <g id="background_biography_" data-name="background_biography " class="cls-1">
    <g id="graphics" transform="matrix(0.951, -0.309, 0.309, 0.951, 1253.005, 3.498)">
      <g id="Rectangle_17" data-name="Rectangle 17" class="cls-2" transform="translate(302 262)">
        <rect class="cls-3" width="707" height="107" rx="9"/>
        <rect class="cls-4" x="0.5" y="0.5" width="706" height="106" rx="8.5"/>
      </g>
      <g id="Rectangle_18" data-name="Rectangle 18" class="cls-2" transform="translate(336 351)">
        <rect class="cls-3" width="662" height="92" rx="9"/>
        <rect class="cls-4" x="0.5" y="0.5" width="661" height="91" rx="8.5"/>
      </g>
      <g id="Rectangle_19" data-name="Rectangle 19" class="cls-2" transform="translate(247 416)">
        <rect class="cls-3" width="838" height="90" rx="9"/>
        <rect class="cls-4" x="0.5" y="0.5" width="837" height="89" rx="8.5"/>
      </g>
      <g id="Rectangle_20" data-name="Rectangle 20" class="cls-2" transform="translate(296 495)">
        <rect class="cls-3" width="656" height="90" rx="9"/>
        <rect class="cls-4" x="0.5" y="0.5" width="655" height="89" rx="8.5"/>
      </g>
      <g id="Rectangle_21" data-name="Rectangle 21" class="cls-2" transform="translate(296 451)">
        <rect class="cls-3" width="688" height="90" rx="9"/>
        <rect class="cls-4" x="0.5" y="0.5" width="687" height="89" rx="8.5"/>
      </g>
      <g id="Rectangle_22" data-name="Rectangle 22" class="cls-2" transform="translate(215 571)">
        <rect class="cls-3" width="848" height="54" rx="9"/>
        <rect class="cls-4" x="0.5" y="0.5" width="847" height="53" rx="8.5"/>
      </g>
      <g id="Rectangle_23" data-name="Rectangle 23" class="cls-2" transform="translate(1071 571)">
        <rect class="cls-3" width="58" height="54" rx="9"/>
        <rect class="cls-4" x="0.5" y="0.5" width="57" height="53" rx="8.5"/>
      </g>
      <g id="Rectangle_24" data-name="Rectangle 24" class="cls-2" transform="translate(1076 416)">
        <rect class="cls-3" width="69" height="54" rx="9"/>
        <rect class="cls-4" x="0.5" y="0.5" width="68" height="53" rx="8.5"/>
      </g>
      <g id="Rectangle_25" data-name="Rectangle 25" class="cls-2" transform="translate(975 327)">
        <rect class="cls-3" width="125" height="45" rx="9"/>
        <rect class="cls-4" x="0.5" y="0.5" width="124" height="44" rx="8.5"/>
      </g>
      <g id="Rectangle_26" data-name="Rectangle 26" class="cls-2" transform="translate(1111 327)">
        <rect class="cls-3" width="58" height="45" rx="9"/>
        <rect class="cls-4" x="0.5" y="0.5" width="57" height="44" rx="8.5"/>
      </g>
      <g id="Rectangle_27" data-name="Rectangle 27" class="cls-2" transform="translate(197 416)">
        <rect class="cls-3" width="58" height="54" rx="9"/>
        <rect class="cls-4" x="0.5" y="0.5" width="57" height="53" rx="8.5"/>
      </g>
      <g id="Rectangle_28" data-name="Rectangle 28" class="cls-2" transform="translate(154 571)">
        <rect class="cls-3" width="43" height="54" rx="9"/>
        <rect class="cls-4" x="0.5" y="0.5" width="42" height="53" rx="8.5"/>
      </g>
      <g id="Rectangle_29" data-name="Rectangle 29" class="cls-2" transform="translate(237 647)">
        <rect class="cls-3" width="801" height="42" rx="9"/>
        <rect class="cls-4" x="0.5" y="0.5" width="800" height="41" rx="8.5"/>
      </g>
      <g id="Rectangle_30" data-name="Rectangle 30" class="cls-2" transform="translate(336 621)">
        <rect class="cls-3" width="662" height="42" rx="9"/>
        <rect class="cls-4" x="0.5" y="0.5" width="661" height="41" rx="8.5"/>
      </g>
      <g id="Rectangle_31" data-name="Rectangle 31" class="cls-2" transform="translate(308 674)">
        <rect class="cls-3" width="633" height="80" rx="9"/>
        <rect class="cls-4" x="0.5" y="0.5" width="632" height="79" rx="8.5"/>
      </g>
      <g id="Rectangle_32" data-name="Rectangle 32" class="cls-2" transform="translate(221 701)">
        <rect class="cls-3" width="763" height="33" rx="9"/>
        <rect class="cls-4" x="0.5" y="0.5" width="762" height="32" rx="8.5"/>
      </g>
      <g id="Rectangle_33" data-name="Rectangle 33" class="cls-2" transform="translate(1003 701)">
        <rect class="cls-3" width="51" height="33" rx="9"/>
        <rect class="cls-4" x="0.5" y="0.5" width="50" height="32" rx="8.5"/>
      </g>
      <g id="Rectangle_34" data-name="Rectangle 34" class="cls-2" transform="translate(159 701)">
        <rect class="cls-3" width="51" height="33" rx="9"/>
        <rect class="cls-4" x="0.5" y="0.5" width="50" height="32" rx="8.5"/>
      </g>
      <g id="Rectangle_35" data-name="Rectangle 35" class="cls-2" transform="translate(409 694)">
        <rect class="cls-3" width="434" height="80" rx="9"/>
        <rect class="cls-4" x="0.5" y="0.5" width="433" height="79" rx="8.5"/>
      </g>
      <g id="Rectangle_36" data-name="Rectangle 36" class="cls-2" transform="translate(461 746)">
        <rect class="cls-3" width="327" height="80" rx="9"/>
        <rect class="cls-4" x="0.5" y="0.5" width="326" height="79" rx="8.5"/>
      </g>
      <g id="Rectangle_37" data-name="Rectangle 37" class="cls-2" transform="translate(421 793)">
        <rect class="cls-3" width="399" height="33" rx="9"/>
        <rect class="cls-4" x="0.5" y="0.5" width="398" height="32" rx="8.5"/>
      </g>
      <g id="Rectangle_38" data-name="Rectangle 38" class="cls-2" transform="translate(369 793)">
        <rect class="cls-3" width="40" height="33" rx="9"/>
        <rect class="cls-4" x="0.5" y="0.5" width="39" height="32" rx="8.5"/>
      </g>
      <g id="Rectangle_39" data-name="Rectangle 39" class="cls-2" transform="translate(237 332)">
        <rect class="cls-3" width="593" height="37" rx="9"/>
        <rect class="cls-4" x="0.5" y="0.5" width="592" height="36" rx="8.5"/>
      </g>
      <g id="Rectangle_40" data-name="Rectangle 40" class="cls-2" transform="translate(237 279)">
        <rect class="cls-3" width="593" height="37" rx="9"/>
        <rect class="cls-4" x="0.5" y="0.5" width="592" height="36" rx="8.5"/>
      </g>
      <g id="Rectangle_41" data-name="Rectangle 41" class="cls-2" transform="translate(410 230)">
        <rect class="cls-3" width="427" height="37" rx="9"/>
        <rect class="cls-4" x="0.5" y="0.5" width="426" height="36" rx="8.5"/>
      </g>
      <g id="Rectangle_42" data-name="Rectangle 42" class="cls-2" transform="translate(442 199)">
        <rect class="cls-3" width="427" height="37" rx="9"/>
        <rect class="cls-4" x="0.5" y="0.5" width="426" height="36" rx="8.5"/>
      </g>
      <g id="Rectangle_43" data-name="Rectangle 43" class="cls-2" transform="translate(877 199)">
        <rect class="cls-3" width="45" height="37" rx="9"/>
        <rect class="cls-4" x="0.5" y="0.5" width="44" height="36" rx="8.5"/>
      </g>
      <g id="Rectangle_44" data-name="Rectangle 44" class="cls-2" transform="translate(175 332)">
        <rect class="cls-3" width="51" height="37" rx="9"/>
        <rect class="cls-4" x="0.5" y="0.5" width="50" height="36" rx="8.5"/>
      </g>
    </g>
    <g id="graphics-2" data-name="graphics" transform="matrix(0.951, -0.309, 0.309, 0.951, 1091.005, 403.498)">
      <g id="Rectangle_17-2" data-name="Rectangle 17" class="cls-2" transform="translate(302 262)">
        <rect class="cls-3" width="707" height="107" rx="9"/>
        <rect class="cls-4" x="0.5" y="0.5" width="706" height="106" rx="8.5"/>
      </g>
      <g id="Rectangle_18-2" data-name="Rectangle 18" class="cls-2" transform="translate(336 351)">
        <rect class="cls-3" width="662" height="92" rx="9"/>
        <rect class="cls-4" x="0.5" y="0.5" width="661" height="91" rx="8.5"/>
      </g>
      <g id="Rectangle_19-2" data-name="Rectangle 19" class="cls-2" transform="translate(247 416)">
        <rect class="cls-3" width="838" height="90" rx="9"/>
        <rect class="cls-4" x="0.5" y="0.5" width="837" height="89" rx="8.5"/>
      </g>
      <g id="Rectangle_20-2" data-name="Rectangle 20" class="cls-2" transform="translate(296 495)">
        <rect class="cls-3" width="656" height="90" rx="9"/>
        <rect class="cls-4" x="0.5" y="0.5" width="655" height="89" rx="8.5"/>
      </g>
      <g id="Rectangle_21-2" data-name="Rectangle 21" class="cls-2" transform="translate(296 451)">
        <rect class="cls-3" width="688" height="90" rx="9"/>
        <rect class="cls-4" x="0.5" y="0.5" width="687" height="89" rx="8.5"/>
      </g>
      <g id="Rectangle_22-2" data-name="Rectangle 22" class="cls-2" transform="translate(215 571)">
        <rect class="cls-3" width="848" height="54" rx="9"/>
        <rect class="cls-4" x="0.5" y="0.5" width="847" height="53" rx="8.5"/>
      </g>
      <g id="Rectangle_23-2" data-name="Rectangle 23" class="cls-2" transform="translate(1071 571)">
        <rect class="cls-3" width="58" height="54" rx="9"/>
        <rect class="cls-4" x="0.5" y="0.5" width="57" height="53" rx="8.5"/>
      </g>
      <g id="Rectangle_24-2" data-name="Rectangle 24" class="cls-2" transform="translate(1076 416)">
        <rect class="cls-3" width="69" height="54" rx="9"/>
        <rect class="cls-4" x="0.5" y="0.5" width="68" height="53" rx="8.5"/>
      </g>
      <g id="Rectangle_25-2" data-name="Rectangle 25" class="cls-2" transform="translate(975 327)">
        <rect class="cls-3" width="125" height="45" rx="9"/>
        <rect class="cls-4" x="0.5" y="0.5" width="124" height="44" rx="8.5"/>
      </g>
      <g id="Rectangle_26-2" data-name="Rectangle 26" class="cls-2" transform="translate(1111 327)">
        <rect class="cls-3" width="58" height="45" rx="9"/>
        <rect class="cls-4" x="0.5" y="0.5" width="57" height="44" rx="8.5"/>
      </g>
      <g id="Rectangle_27-2" data-name="Rectangle 27" class="cls-2" transform="translate(197 416)">
        <rect class="cls-3" width="58" height="54" rx="9"/>
        <rect class="cls-4" x="0.5" y="0.5" width="57" height="53" rx="8.5"/>
      </g>
      <g id="Rectangle_28-2" data-name="Rectangle 28" class="cls-2" transform="translate(154 571)">
        <rect class="cls-3" width="43" height="54" rx="9"/>
        <rect class="cls-4" x="0.5" y="0.5" width="42" height="53" rx="8.5"/>
      </g>
      <g id="Rectangle_29-2" data-name="Rectangle 29" class="cls-2" transform="translate(237 647)">
        <rect class="cls-3" width="801" height="42" rx="9"/>
        <rect class="cls-4" x="0.5" y="0.5" width="800" height="41" rx="8.5"/>
      </g>
      <g id="Rectangle_30-2" data-name="Rectangle 30" class="cls-2" transform="translate(336 621)">
        <rect class="cls-3" width="662" height="42" rx="9"/>
        <rect class="cls-4" x="0.5" y="0.5" width="661" height="41" rx="8.5"/>
      </g>
      <g id="Rectangle_31-2" data-name="Rectangle 31" class="cls-2" transform="translate(308 674)">
        <rect class="cls-3" width="633" height="80" rx="9"/>
        <rect class="cls-4" x="0.5" y="0.5" width="632" height="79" rx="8.5"/>
      </g>
      <g id="Rectangle_32-2" data-name="Rectangle 32" class="cls-2" transform="translate(221 701)">
        <rect class="cls-3" width="763" height="33" rx="9"/>
        <rect class="cls-4" x="0.5" y="0.5" width="762" height="32" rx="8.5"/>
      </g>
      <g id="Rectangle_33-2" data-name="Rectangle 33" class="cls-2" transform="translate(1003 701)">
        <rect class="cls-3" width="51" height="33" rx="9"/>
        <rect class="cls-4" x="0.5" y="0.5" width="50" height="32" rx="8.5"/>
      </g>
      <g id="Rectangle_34-2" data-name="Rectangle 34" class="cls-2" transform="translate(159 701)">
        <rect class="cls-3" width="51" height="33" rx="9"/>
        <rect class="cls-4" x="0.5" y="0.5" width="50" height="32" rx="8.5"/>
      </g>
      <g id="Rectangle_35-2" data-name="Rectangle 35" class="cls-2" transform="translate(409 694)">
        <rect class="cls-3" width="434" height="80" rx="9"/>
        <rect class="cls-4" x="0.5" y="0.5" width="433" height="79" rx="8.5"/>
      </g>
      <g id="Rectangle_36-2" data-name="Rectangle 36" class="cls-2" transform="translate(461 746)">
        <rect class="cls-3" width="327" height="80" rx="9"/>
        <rect class="cls-4" x="0.5" y="0.5" width="326" height="79" rx="8.5"/>
      </g>
      <g id="Rectangle_37-2" data-name="Rectangle 37" class="cls-2" transform="translate(421 793)">
        <rect class="cls-3" width="399" height="33" rx="9"/>
        <rect class="cls-4" x="0.5" y="0.5" width="398" height="32" rx="8.5"/>
      </g>
      <g id="Rectangle_38-2" data-name="Rectangle 38" class="cls-2" transform="translate(369 793)">
        <rect class="cls-3" width="40" height="33" rx="9"/>
        <rect class="cls-4" x="0.5" y="0.5" width="39" height="32" rx="8.5"/>
      </g>
      <g id="Rectangle_39-2" data-name="Rectangle 39" class="cls-2" transform="translate(237 332)">
        <rect class="cls-3" width="593" height="37" rx="9"/>
        <rect class="cls-4" x="0.5" y="0.5" width="592" height="36" rx="8.5"/>
      </g>
      <g id="Rectangle_40-2" data-name="Rectangle 40" class="cls-2" transform="translate(237 279)">
        <rect class="cls-3" width="593" height="37" rx="9"/>
        <rect class="cls-4" x="0.5" y="0.5" width="592" height="36" rx="8.5"/>
      </g>
      <g id="Rectangle_41-2" data-name="Rectangle 41" class="cls-2" transform="translate(410 230)">
        <rect class="cls-3" width="427" height="37" rx="9"/>
        <rect class="cls-4" x="0.5" y="0.5" width="426" height="36" rx="8.5"/>
      </g>
      <g id="Rectangle_42-2" data-name="Rectangle 42" class="cls-2" transform="translate(442 199)">
        <rect class="cls-3" width="427" height="37" rx="9"/>
        <rect class="cls-4" x="0.5" y="0.5" width="426" height="36" rx="8.5"/>
      </g>
      <g id="Rectangle_43-2" data-name="Rectangle 43" class="cls-2" transform="translate(877 199)">
        <rect class="cls-3" width="45" height="37" rx="9"/>
        <rect class="cls-4" x="0.5" y="0.5" width="44" height="36" rx="8.5"/>
      </g>
      <g id="Rectangle_44-2" data-name="Rectangle 44" class="cls-2" transform="translate(175 332)">
        <rect class="cls-3" width="51" height="37" rx="9"/>
        <rect class="cls-4" x="0.5" y="0.5" width="50" height="36" rx="8.5"/>
      </g>
    </g>
  </g>
</svg>
