<svg xmlns="http://www.w3.org/2000/svg" xmlns:xlink="http://www.w3.org/1999/xlink" width="1920" height="1080" viewBox="0 0 1920 1080">
  <defs>
    <clipPath id="clip-background_contact_">
      <rect width="1920" height="1080"/>
    </clipPath>
  </defs>
  <g id="background_contact_" data-name="background_contact " clip-path="url(#clip-background_contact_)">
    <g id="Ellipse_108" data-name="Ellipse 108" transform="translate(1371 101)" fill="#147198" stroke="#147198" stroke-width="1">
      <ellipse cx="345" cy="332" rx="345" ry="332" stroke="none"/>
      <ellipse cx="345" cy="332" rx="344.5" ry="331.5" fill="none"/>
    </g>
    <g id="Path_1104" data-name="Path 1104" transform="translate(1297 449)" fill="#147198">
      <path d="M 56.24518203735352 689.527587890625 C 32.86968231201172 689.527587890625 9.509058952331543 687.2613525390625 -13.1876916885376 682.7919311523438 C -35.30731582641602 678.4362182617188 -57.06481552124023 671.9367065429688 -77.85594177246094 663.4741821289063 C -98.26931762695313 655.1654663085938 -117.9579391479492 644.8814697265625 -136.3750610351563 632.907958984375 C -154.616943359375 621.0484619140625 -171.7706909179688 607.4285888671875 -187.3599395751953 592.4266967773438 C -202.9488220214844 577.42529296875 -217.1015625 560.9183349609375 -229.4250640869141 543.3645629882813 C -241.8663177490234 525.6429443359375 -252.5520629882813 506.6979370117188 -261.185302734375 487.0556945800781 C -269.9779357910156 467.0508117675781 -276.7309265136719 446.1160583496094 -281.2565612792969 424.8331909179688 C -283.5571899414063 414.0139465332031 -285.3134460449219 402.9404602050781 -286.4764404296875 391.9201965332031 C -287.6564331054688 380.7379455566406 -288.2548217773438 369.3348083496094 -288.2548217773438 358.027587890625 C -288.2548217773438 344.9318237304688 -287.3585815429688 331.8117065429688 -285.591064453125 319.0313110351563 C -283.8092041015625 306.1470642089844 -281.1263122558594 293.4989624023438 -277.616943359375 281.4383239746094 C -274.0473022460938 269.1706848144531 -269.5869445800781 257.3900756835938 -264.3594360351563 246.4236907958984 C -259.0016784667969 235.1839447021484 -252.7733154296875 224.6655731201172 -245.8475646972656 215.1609497070313 C -231.220947265625 195.0880737304688 -213.4994354248047 179.4100799560547 -193.1753234863281 168.5623168945313 C -171.2828216552734 156.8775787353516 -146.5844421386719 150.9528198242188 -119.7664413452148 150.9528198242188 C -80.05344390869141 150.9528198242188 -35.93306732177734 163.8880767822266 11.36905860900879 189.3993225097656 C 19.08355903625488 193.5598297119141 26.56468391418457 197.2294464111328 33.60480880737305 200.3063201904297 C 40.46455764770508 203.3043212890625 47.09805679321289 205.8235778808594 53.32106018066406 207.7942047119141 C 59.37793350219727 209.7120666503906 65.21630859375 211.1640777587891 70.67380523681641 212.1098175048828 C 75.97943115234375 213.0293273925781 81.07468414306641 213.4960784912109 85.81818389892578 213.4974517822266 C 85.82492065429688 213.4974517822266 85.83250427246094 213.4974517822266 85.83924102783203 213.4974517822266 C 113.4292297363281 213.4974517822266 131.5025329589844 198.2698059082031 141.0933074951172 166.9440765380859 C 149.3196868896484 140.0744476318359 149.9540557861328 106.1535720825195 150.5138092041016 76.22582244873047 C 150.8466796875 58.42269897460938 151.1611785888672 41.60694885253906 153.1733093261719 29.74144744873047 C 155.3525543212891 16.88957405090332 159.3045654296875 10.90382289886475 165.6103057861328 10.90382289886475 C 189.2015533447266 10.90382289886475 215.1629333496094 13.02094841003418 242.7731781005859 17.19619750976563 C 270.1873168945313 21.34182357788086 298.7938232421875 27.44994735717773 327.7980651855469 35.35082244873047 C 387.9236755371094 51.72932434082031 447.1315612792969 75.08157348632813 499.0209350585938 102.8832015991211 C 526.5081787109375 117.6104507446289 551.741943359375 133.4859466552734 574.0209350585938 150.0685729980469 C 597.5462036132813 167.5787048339844 617.888916015625 185.9687042236328 634.4840698242188 204.7274475097656 C 643.1329345703125 214.5039520263672 650.8826904296875 224.5243225097656 657.51806640625 234.5101928710938 C 664.3543090820313 244.7982025146484 670.1775512695313 255.3058166503906 674.8260498046875 265.7408142089844 C 679.6154174804688 276.4923095703125 683.279541015625 287.4405822753906 685.7164306640625 298.2813110351563 C 688.22705078125 309.4501953125 689.5000610351563 320.7948303222656 689.5000610351563 331.9999389648438 C 689.5000610351563 337.6328125 689.0722045898438 343.3814392089844 688.2282104492188 349.0860595703125 C 687.3978271484375 354.6989440917969 686.1420288085938 360.4225769042969 684.4957885742188 366.0980834960938 C 681.2815551757813 377.1788330078125 676.4540405273438 388.5123291015625 670.1470336914063 399.7838134765625 C 664.0447998046875 410.6895751953125 656.40966796875 421.8023376464844 647.4537963867188 432.8130798339844 C 638.7913208007813 443.4633178710938 628.6886596679688 454.2700805664063 617.4265747070313 464.9330749511719 C 595.9293212890625 485.2868347167969 569.69140625 505.6446838378906 539.4418334960938 525.4413452148438 C 510.9990539550781 544.0552978515625 479.0065612792969 562.1844482421875 444.3526916503906 579.3250732421875 C 411.4389343261719 595.6051025390625 376.4384460449219 610.8460693359375 340.3235473632813 624.6246948242188 C 305.4228210449219 637.940185546875 270.1609191894531 649.63671875 235.5171813964844 659.3893432617188 C 201.2425537109375 669.0379638671875 168.46630859375 676.53466796875 138.0986785888672 681.6712036132813 C 107.2778091430664 686.8843383789063 79.73831176757813 689.527587890625 56.24518203735352 689.527587890625 Z" stroke="none"/>
      <path d="M 165.6103057861328 11.40380859375 C 162.5049285888672 11.40380859375 160.033935546875 12.939208984375 158.0560607910156 16.09747314453125 C 156.1530609130859 19.136474609375 154.7170562744141 23.6260986328125 153.6661834716797 29.82269287109375 C 151.6604309082031 41.64996337890625 151.3463134765625 58.4456787109375 151.0136871337891 76.22784423828125 C 150.4534301757813 106.1859741210938 149.8183135986328 140.1411743164063 141.5713195800781 167.0781860351563 C 131.9054260253906 198.6500854492188 113.6684265136719 213.9974365234375 85.81829833984375 213.9974365234375 C 81.04681396484375 213.9974365234375 75.92282104492188 213.52880859375 70.58843994140625 212.6047058105469 C 65.10943603515625 211.6554565429688 59.24905395507813 210.1979370117188 53.1700439453125 208.2728271484375 C 46.93106079101563 206.2968139648438 40.28106689453125 203.7709350585938 33.4044189453125 200.7651977539063 C 26.35256958007813 197.6828308105469 18.85894775390625 194.0068359375 11.13168334960938 189.8393249511719 C -36.0966796875 164.367919921875 -80.13717651367188 151.4528198242188 -119.7664184570313 151.4528198242188 C -146.50146484375 151.4528198242188 -171.1205444335938 157.3577270507813 -192.93994140625 169.00341796875 C -213.1969604492188 179.8153076171875 -230.8616943359375 195.4439392089844 -245.4435424804688 215.4554443359375 C -252.3511962890625 224.9352111816406 -258.5635375976563 235.4268188476563 -263.908203125 246.6388244628906 C -269.1240844726563 257.5809631347656 -273.574951171875 269.3362121582031 -277.136962890625 281.5779418945313 C -280.6395874023438 293.6153259277344 -283.3173217773438 306.2395629882813 -285.095947265625 319.0998229980469 C -286.8602905273438 331.8575744628906 -287.7549438476563 344.9547119140625 -287.7549438476563 358.027587890625 C -287.7549438476563 369.3173217773438 -287.1575927734375 380.7028198242188 -285.9793090820313 391.8677062988281 C -284.8180541992188 402.8706970214844 -283.064697265625 413.9269409179688 -280.7677001953125 424.7291870117188 C -276.2490844726563 445.9788208007813 -269.506591796875 466.8808288574219 -260.7276611328125 486.8545532226563 C -252.107666015625 506.466552734375 -241.4382934570313 525.3826904296875 -229.0159301757813 543.0773315429688 C -216.7108154296875 560.6048583984375 -202.5791625976563 577.0872192382813 -187.0133056640625 592.0664672851563 C -171.4468383789063 607.0463256835938 -154.3180541992188 620.6464233398438 -136.1025390625 632.4888305664063 C -117.7120361328125 644.445068359375 -98.05157470703125 654.71435546875 -77.66744995117188 663.01123046875 C -56.90606689453125 671.4615478515625 -35.179443359375 677.9517211914063 -13.0911865234375 682.3013305664063 C 9.573944091796875 686.7645874023438 32.90194702148438 689.027587890625 56.24505615234375 689.027587890625 C 79.71041870117188 689.027587890625 107.2218017578125 686.38671875 138.0153198242188 681.17822265625 C 168.3653106689453 676.044677734375 201.1240539550781 668.5518188476563 235.3815612792969 658.907958984375 C 270.0109252929688 649.159423828125 305.258544921875 637.4677124023438 340.1451721191406 624.1575927734375 C 376.2454223632813 610.3845825195313 411.2313232421875 595.1498413085938 444.1309204101563 578.876953125 C 478.7669372558594 561.7450561523438 510.741943359375 543.6260986328125 539.16796875 525.02294921875 C 569.3927001953125 505.2425537109375 595.60693359375 484.9033203125 617.0827026367188 464.570068359375 C 628.3290405273438 453.9218139648438 638.4169311523438 443.1310729980469 647.0657958984375 432.49755859375 C 656.0035400390625 421.5090637207031 663.622314453125 410.4204406738281 669.710693359375 399.5395812988281 C 675.9990234375 388.3013305664063 680.811767578125 377.0030822753906 684.0154418945313 365.9587097167969 C 685.6553955078125 360.3049621582031 686.9064331054688 354.6035766601563 687.7333984375 349.012939453125 C 688.5738525390625 343.3323364257813 688.9999389648438 337.6083374023438 688.9999389648438 331.9999389648438 C 688.9999389648438 320.8316955566406 687.7310791015625 309.5239562988281 685.2283935546875 298.3910827636719 C 682.798828125 287.5823364257813 679.1451416015625 276.6657104492188 674.369140625 265.9443359375 C 669.73193359375 255.5346984863281 663.9223022460938 245.0518188476563 657.1015625 234.7868347167969 C 650.4788208007813 224.820068359375 642.7431640625 214.8182067871094 634.1095581054688 205.058837890625 C 617.5371704101563 186.32568359375 597.219970703125 167.9593505859375 573.7222900390625 150.4697265625 C 551.4629516601563 133.9016723632813 526.2503051757813 118.03955078125 498.78466796875 103.323974609375 C 446.9280700683594 75.539794921875 387.7564392089844 52.20196533203125 327.6666870117188 35.83331298828125 C 298.6809387207031 27.93743896484375 270.0935668945313 21.83331298828125 242.6984405517578 17.6905517578125 C 215.1128082275391 13.5189208984375 189.1765594482422 11.40380859375 165.6103057861328 11.40380859375 M 165.6103057861328 10.40380859375 C 356.1485595703125 10.40380859375 689.9999389648438 148.6414184570313 689.9999389648438 331.9999389648438 C 689.9999389648438 515.3585815429688 246.7833099365234 690.027587890625 56.24505615234375 690.027587890625 C -134.2930908203125 690.027587890625 -288.7549438476563 541.3861083984375 -288.7549438476563 358.027587890625 C -288.7549438476563 253.0310974121094 -231.7426147460938 150.4528198242188 -119.7664794921875 150.4528198242188 C -82.14889526367188 150.4528198242188 -38.34542846679688 162.0189819335938 11.6064453125 188.9591979980469 C 42.959716796875 205.8688049316406 67.15728759765625 212.9974365234375 85.818359375 212.9974365234375 C 185.3873138427734 212.9974365234375 127.9011840820313 10.40380859375 165.6103057861328 10.40380859375 Z" stroke="none" fill="#147198"/>
    </g>
    <g id="Ellipse_107" data-name="Ellipse 107" transform="translate(1391 119)" fill="#00b4d8" stroke="#00b4d8" stroke-width="1">
      <ellipse cx="345" cy="332" rx="345" ry="332" stroke="none"/>
      <ellipse cx="345" cy="332" rx="344.5" ry="331.5" fill="none"/>
    </g>
    <g id="Path_1103" data-name="Path 1103" transform="translate(1317 467)" fill="#00b4d8">
      <path d="M 56.24518203735352 689.527587890625 C 32.86968231201172 689.527587890625 9.509058952331543 687.2613525390625 -13.1876916885376 682.7919311523438 C -35.30731582641602 678.4362182617188 -57.06481552124023 671.9367065429688 -77.85594177246094 663.4741821289063 C -98.26931762695313 655.1654663085938 -117.9579391479492 644.8814697265625 -136.3750610351563 632.907958984375 C -154.616943359375 621.0484619140625 -171.7706909179688 607.4285888671875 -187.3599395751953 592.4266967773438 C -202.9488220214844 577.42529296875 -217.1015625 560.9183349609375 -229.4250640869141 543.3645629882813 C -241.8663177490234 525.6429443359375 -252.5520629882813 506.6979370117188 -261.185302734375 487.0556945800781 C -269.9779357910156 467.0508117675781 -276.7309265136719 446.1160583496094 -281.2565612792969 424.8331909179688 C -283.5571899414063 414.0139465332031 -285.3134460449219 402.9404602050781 -286.4764404296875 391.9201965332031 C -287.6564331054688 380.7379455566406 -288.2548217773438 369.3348083496094 -288.2548217773438 358.027587890625 C -288.2548217773438 344.9318237304688 -287.3585815429688 331.8117065429688 -285.591064453125 319.0313110351563 C -283.8092041015625 306.1470642089844 -281.1263122558594 293.4989624023438 -277.616943359375 281.4383239746094 C -274.0473022460938 269.1706848144531 -269.5869445800781 257.3900756835938 -264.3594360351563 246.4236907958984 C -259.0016784667969 235.1839447021484 -252.7733154296875 224.6655731201172 -245.8475646972656 215.1609497070313 C -231.220947265625 195.0880737304688 -213.4994354248047 179.4100799560547 -193.1753234863281 168.5623168945313 C -171.2828216552734 156.8775787353516 -146.5844421386719 150.9528198242188 -119.7664413452148 150.9528198242188 C -80.05344390869141 150.9528198242188 -35.93306732177734 163.8880767822266 11.36905860900879 189.3993225097656 C 19.08355903625488 193.5598297119141 26.56468391418457 197.2294464111328 33.60480880737305 200.3063201904297 C 40.46455764770508 203.3043212890625 47.09805679321289 205.8235778808594 53.32106018066406 207.7942047119141 C 59.37793350219727 209.7120666503906 65.21630859375 211.1640777587891 70.67380523681641 212.1098175048828 C 75.97943115234375 213.0293273925781 81.07468414306641 213.4960784912109 85.81818389892578 213.4974517822266 C 85.82492065429688 213.4974517822266 85.83250427246094 213.4974517822266 85.83924102783203 213.4974517822266 C 113.4292297363281 213.4974517822266 131.5025329589844 198.2698059082031 141.0933074951172 166.9440765380859 C 149.3196868896484 140.0744476318359 149.9540557861328 106.1535720825195 150.5138092041016 76.22582244873047 C 150.8466796875 58.42269897460938 151.1611785888672 41.60694885253906 153.1733093261719 29.74144744873047 C 155.3525543212891 16.88957405090332 159.3045654296875 10.90382289886475 165.6103057861328 10.90382289886475 C 189.2015533447266 10.90382289886475 215.1629333496094 13.02094841003418 242.7731781005859 17.19619750976563 C 270.1873168945313 21.34182357788086 298.7938232421875 27.44994735717773 327.7980651855469 35.35082244873047 C 387.9236755371094 51.72932434082031 447.1315612792969 75.08157348632813 499.0209350585938 102.8832015991211 C 526.5081787109375 117.6104507446289 551.741943359375 133.4859466552734 574.0209350585938 150.0685729980469 C 597.5462036132813 167.5787048339844 617.888916015625 185.9687042236328 634.4840698242188 204.7274475097656 C 643.1329345703125 214.5039520263672 650.8826904296875 224.5243225097656 657.51806640625 234.5101928710938 C 664.3543090820313 244.7982025146484 670.1775512695313 255.3058166503906 674.8260498046875 265.7408142089844 C 679.6154174804688 276.4923095703125 683.279541015625 287.4405822753906 685.7164306640625 298.2813110351563 C 688.22705078125 309.4501953125 689.5000610351563 320.7948303222656 689.5000610351563 331.9999389648438 C 689.5000610351563 337.6328125 689.0722045898438 343.3814392089844 688.2282104492188 349.0860595703125 C 687.3978271484375 354.6989440917969 686.1420288085938 360.4225769042969 684.4957885742188 366.0980834960938 C 681.2815551757813 377.1788330078125 676.4540405273438 388.5123291015625 670.1470336914063 399.7838134765625 C 664.0447998046875 410.6895751953125 656.40966796875 421.8023376464844 647.4537963867188 432.8130798339844 C 638.7913208007813 443.4633178710938 628.6886596679688 454.2700805664063 617.4265747070313 464.9330749511719 C 595.9293212890625 485.2868347167969 569.69140625 505.6446838378906 539.4418334960938 525.4413452148438 C 510.9990539550781 544.0552978515625 479.0065612792969 562.1844482421875 444.3526916503906 579.3250732421875 C 411.4389343261719 595.6051025390625 376.4384460449219 610.8460693359375 340.3235473632813 624.6246948242188 C 305.4228210449219 637.940185546875 270.1609191894531 649.63671875 235.5171813964844 659.3893432617188 C 201.2425537109375 669.0379638671875 168.46630859375 676.53466796875 138.0986785888672 681.6712036132813 C 107.2778091430664 686.8843383789063 79.73831176757813 689.527587890625 56.24518203735352 689.527587890625 Z" stroke="none"/>
      <path d="M 165.6103057861328 11.40380859375 C 162.5049285888672 11.40380859375 160.033935546875 12.939208984375 158.0560607910156 16.09747314453125 C 156.1530609130859 19.136474609375 154.7170562744141 23.6260986328125 153.6661834716797 29.82269287109375 C 151.6604309082031 41.64996337890625 151.3463134765625 58.4456787109375 151.0136871337891 76.22784423828125 C 150.4534301757813 106.1859741210938 149.8183135986328 140.1411743164063 141.5713195800781 167.0781860351563 C 131.9054260253906 198.6500854492188 113.6684265136719 213.9974365234375 85.81829833984375 213.9974365234375 C 81.04681396484375 213.9974365234375 75.92282104492188 213.52880859375 70.58843994140625 212.6047058105469 C 65.10943603515625 211.6554565429688 59.24905395507813 210.1979370117188 53.1700439453125 208.2728271484375 C 46.93106079101563 206.2968139648438 40.28106689453125 203.7709350585938 33.4044189453125 200.7651977539063 C 26.35256958007813 197.6828308105469 18.85894775390625 194.0068359375 11.13168334960938 189.8393249511719 C -36.0966796875 164.367919921875 -80.13717651367188 151.4528198242188 -119.7664184570313 151.4528198242188 C -146.50146484375 151.4528198242188 -171.1205444335938 157.3577270507813 -192.93994140625 169.00341796875 C -213.1969604492188 179.8153076171875 -230.8616943359375 195.4439392089844 -245.4435424804688 215.4554443359375 C -252.3511962890625 224.9352111816406 -258.5635375976563 235.4268188476563 -263.908203125 246.6388244628906 C -269.1240844726563 257.5809631347656 -273.574951171875 269.3362121582031 -277.136962890625 281.5779418945313 C -280.6395874023438 293.6153259277344 -283.3173217773438 306.2395629882813 -285.095947265625 319.0998229980469 C -286.8602905273438 331.8575744628906 -287.7549438476563 344.9547119140625 -287.7549438476563 358.027587890625 C -287.7549438476563 369.3173217773438 -287.1575927734375 380.7028198242188 -285.9793090820313 391.8677062988281 C -284.8180541992188 402.8706970214844 -283.064697265625 413.9269409179688 -280.7677001953125 424.7291870117188 C -276.2490844726563 445.9788208007813 -269.506591796875 466.8808288574219 -260.7276611328125 486.8545532226563 C -252.107666015625 506.466552734375 -241.4382934570313 525.3826904296875 -229.0159301757813 543.0773315429688 C -216.7108154296875 560.6048583984375 -202.5791625976563 577.0872192382813 -187.0133056640625 592.0664672851563 C -171.4468383789063 607.0463256835938 -154.3180541992188 620.6464233398438 -136.1025390625 632.4888305664063 C -117.7120361328125 644.445068359375 -98.05157470703125 654.71435546875 -77.66744995117188 663.01123046875 C -56.90606689453125 671.4615478515625 -35.179443359375 677.9517211914063 -13.0911865234375 682.3013305664063 C 9.573944091796875 686.7645874023438 32.90194702148438 689.027587890625 56.24505615234375 689.027587890625 C 79.71041870117188 689.027587890625 107.2218017578125 686.38671875 138.0153198242188 681.17822265625 C 168.3653106689453 676.044677734375 201.1240539550781 668.5518188476563 235.3815612792969 658.907958984375 C 270.0109252929688 649.159423828125 305.258544921875 637.4677124023438 340.1451721191406 624.1575927734375 C 376.2454223632813 610.3845825195313 411.2313232421875 595.1498413085938 444.1309204101563 578.876953125 C 478.7669372558594 561.7450561523438 510.741943359375 543.6260986328125 539.16796875 525.02294921875 C 569.3927001953125 505.2425537109375 595.60693359375 484.9033203125 617.0827026367188 464.570068359375 C 628.3290405273438 453.9218139648438 638.4169311523438 443.1310729980469 647.0657958984375 432.49755859375 C 656.0035400390625 421.5090637207031 663.622314453125 410.4204406738281 669.710693359375 399.5395812988281 C 675.9990234375 388.3013305664063 680.811767578125 377.0030822753906 684.0154418945313 365.9587097167969 C 685.6553955078125 360.3049621582031 686.9064331054688 354.6035766601563 687.7333984375 349.012939453125 C 688.5738525390625 343.3323364257813 688.9999389648438 337.6083374023438 688.9999389648438 331.9999389648438 C 688.9999389648438 320.8316955566406 687.7310791015625 309.5239562988281 685.2283935546875 298.3910827636719 C 682.798828125 287.5823364257813 679.1451416015625 276.6657104492188 674.369140625 265.9443359375 C 669.73193359375 255.5346984863281 663.9223022460938 245.0518188476563 657.1015625 234.7868347167969 C 650.4788208007813 224.820068359375 642.7431640625 214.8182067871094 634.1095581054688 205.058837890625 C 617.5371704101563 186.32568359375 597.219970703125 167.9593505859375 573.7222900390625 150.4697265625 C 551.4629516601563 133.9016723632813 526.2503051757813 118.03955078125 498.78466796875 103.323974609375 C 446.9280700683594 75.539794921875 387.7564392089844 52.20196533203125 327.6666870117188 35.83331298828125 C 298.6809387207031 27.93743896484375 270.0935668945313 21.83331298828125 242.6984405517578 17.6905517578125 C 215.1128082275391 13.5189208984375 189.1765594482422 11.40380859375 165.6103057861328 11.40380859375 M 165.6103057861328 10.40380859375 C 356.1485595703125 10.40380859375 689.9999389648438 148.6414184570313 689.9999389648438 331.9999389648438 C 689.9999389648438 515.3585815429688 246.7833099365234 690.027587890625 56.24505615234375 690.027587890625 C -134.2930908203125 690.027587890625 -288.7549438476563 541.3861083984375 -288.7549438476563 358.027587890625 C -288.7549438476563 253.0310974121094 -231.7426147460938 150.4528198242188 -119.7664794921875 150.4528198242188 C -82.14889526367188 150.4528198242188 -38.34542846679688 162.0189819335938 11.6064453125 188.9591979980469 C 42.959716796875 205.8688049316406 67.15728759765625 212.9974365234375 85.818359375 212.9974365234375 C 185.3873138427734 212.9974365234375 127.9011840820313 10.40380859375 165.6103057861328 10.40380859375 Z" stroke="none" fill="#00b4d8"/>
    </g>
  </g>
</svg>
