<svg xmlns="http://www.w3.org/2000/svg" xmlns:xlink="http://www.w3.org/1999/xlink" width="1920" height="1080" viewBox="0 0 1920 1080">
  <defs>
    <clipPath id="clip-background_contact3">
      <rect width="1920" height="1080"/>
    </clipPath>
  </defs>
  <g id="background_contact3" clip-path="url(#clip-background_contact3)">
    <g id="Group_54" data-name="Group 54">
      <path id="Path_1137" data-name="Path 1137" d="M-10110.526,3904.563s-42.541-38.842-80.921-61.038-144.271-69.361-235.827-92.944-192.362-37.917-251.55-43-110.978-8.786-288.542-3.237-355.129,65.2-406.918,84.621a599.5,599.5,0,0,0-90.632,43s-20.864,13.46-32.286,20.673-40.276,54.1-40.276,54.1l102.619-39.632,30.981,18.959s146.582-76.76,203-95.256,188.2-36.993,188.2-36.993,156.294-11.56,223.343-10.173,171.089,11.1,190.511,14.8,145.659,28.207,190.975,42.079,135.946,49.015,165.541,59.651,85.546,66.124,85.546,66.124l25.895-8.323Z" transform="translate(11786 -3015)" fill="#00b4d8" stroke="#00b4d8" stroke-width="1"/>
      <path id="Path_1136" data-name="Path 1136" d="M-10173.875,3932.347s-32.1-57.047-201.675-109.406-275.857-67.206-446.218-69.551-310.244,36.729-389.953,61.736-171.141,85.18-171.141,85.18l-155.819,7.636,104.242-40.458s31.258-32.04,96.12-55.484,186.771-61.736,326.654-75.021,299.3-2.344,430.589,12.5,306.334,82.054,374.322,117.22,75.021,51.577,75.021,51.577Z" transform="translate(11786 -3015)" fill="#147198" stroke="#147198" stroke-width="1"/>
    </g>
    <path id="Path_1129" data-name="Path 1129" d="M-9960.557,3785.418s-40.815-102.819-52.838-124.552-22.194-24.97-27.281-29.594-50.4-44.391-53.64-51.789-5.087-11.561-7.4-40.229-5.127-46.689-6.811-51.109-.632-16-1.895-20.205,2.315-12.839,7.577-19.363,13.47-12.839,13.47-15.575,1.473-12.418,8.419-20.416,13.892-16.206,13.892-18.732,12.206-22.1,19.573-31.781,44.83-61.878,46.3-65.457,6.946-15.154,14.313-18.311,26.729-10.523,36.832-12,13.681.421,15.154-1.263,17.47-33.886,19.574-43.357-1.684-29.887,0-37.674,7.366-34.938,12.207-38.727,9.682-10.313,20.626-13.26,16.417-5.051,16.417-5.051v-38.937s-7.365,5.472-9.471,8.84-4.21,9.261-5.894,9.682-13.68,2.315-16.206,3.578-6.524,4.209-8.419,4.209-15.574.421-16.206-.842,0-6.525-3.157-9.05-9.262-3.157-13.05-10.313a119.8,119.8,0,0,0-9.682-14.733s-4.631-39.779-2.736-42.3-6.172-9.445-6.172-9.445-10.083-8.167-19.352-10.059-17.724,2.491-17.724,2.491-20.105,2.28-22.42.6a39.311,39.311,0,0,0-7.064-3.476,74.03,74.03,0,0,0-13.146-1.24,115.65,115.65,0,0,0-15.057,1.24s4.75,5.16,9.38,7.686,10.524,4.209,11.155,8,2.1,22.731,1.473,25.677-1.472,16,1.685,20.837,42.937,55.354,46.3,65.877,4,58.721,3.367,60.195-8.63,7.787-9.893,9.471-12.629,5.683-13.681,6.735-2.736,4.209-9.682,4.42-25.467,3.368-32.412,5.893-21.258,14.1-26.52,27.151-12.207,14.1-12.628,15.575-9.894,21.258-21.048,26.73-28.625,11.786-40.621,8.208-30.939-14.944-33.886-16.206-7.366-1.684-11.365-4.63-14.1-6.524-18.1-5.893-13.471,7.366-10.734,10.523,16.627,11.365,17.68,13.681,4.209,5.051,6.524,5.262,6.736,3.368,7.788,5.052,2.524,5.472,4.63,6.314,16.417,5.472,18.942,13.47,4.841,31.781,0,35.991-14.1,16.627-28.834,16.627-14.943-1.263-18.521-5.893-21.679-22.31-25.678-30.729-14.1-29.045-16.417-31.36-5.261-10.524-5.472-14.733-6.525-17.89-9.472-18.311-9.681.21-13.891-2.526-25.678-19.574-27.993-25.888-16-28.834-16-33.254-5.894-9.261-10.1-12-10.733-2.946-12.628-1.684-2.947,5.262-7.577,6.735-24.415-2.947-31.36-8-23.361-10.524-28.413-13.681-19.574-17.89-22.311-20.837-5.051-4.42-5.051-6.946,0-15.364,3.156-19.784,11.576-29.466,11.576-31.992,3.578-11.787,10.1-17.469,17.884-26.518,19.357-29.043,8.209-27.361,8.84-29.677,3.368-15.154,1.474-15.575-5.894.421-6.314,7.156-12.628,17.89-17.259,23.152-9.26,16.838-12.207,14.943-8.841-17.89-12.629-19.995-25.677-9.26-30.729-12.839-11.366-7.577-14.312-12.418-6.946-11.786-8.84-12-4,1.473-4.209,0,14.1,25.888,11.786,26.52-3.368,2.1-7.577,2.315-8-.21-6.734,1.894,1.684,4,9.682,3.788,15.364-.842,18.521,0,8.63,5.683,12,6.314,7.787,1.684,8.208,2.947,1.052,10.1,2.946,11.786,8.419,5.052,9.261,7.788,2.526,13.891,1.053,20.626-7.577,20.416-13.26,25.046-12.839,12-14.522,15.364-9.682,21.047-9.682,23.363-1.895,7.785-1.895,7.785-20.838-4.839-33.676-16.625-30.1-29.045-35.358-39.569-19.573-15.785-22.1-18.732-7.367-8.84-7.788-13.891-.632-24.625-4.841-27.361-10.524-2.525-17.68-6.314-31.57-16.206-39.568-22.731-5.937,2.578-27.09,0-46.413-8.892-48.375,0,29.582,31.36,40.526,35.57,30.308,13.26,31.781,17.469,2.1,10.945,0,11.155-21.048,2.946-27.361-.842-11.786-6.735-16.627-6.946-23.152,5.472-33.676,7.788-18.1,3.368-28.2,0-45.462-17.89-51.986-18.521-10.945-.421-14.733-2.526-13.68-1.052-16.416,0-18.312,17.68-27.572,19.995-29.465,3.578-42.515,1.052-37.676,1.052-41.464,1.684-13.26,7.367-12.628,8,2.947,1.684,7.156-1.263,20.626-4,25.888-3.788,15.785,3.578,12,3.788-13.891,4.209-16.627,4.209-14.733.631-19.153,2.315-6.1,3.157-7.577,3.157-6.734-1.263-6.734,0-1.263,2.947,0,2.947,5.261-.842,5.051,0-2.947,2.736-1.895,3.578,3.577,1.473,4.841,0,7.367-6.525,10.945-6.525,24.625-1.894,26.729-3.157,13.68-6.1,17.89-5.262,34.1,2.947,41.253,1.052,26.52-20.626,36.622-20.837,45.042,18.311,47.356,18.311,24.2,2.947,29.887,4.42,16-.842,21.889-2.947,17.646-3.853,22.342-2.072,18.588,5.343,23.541,11.657,15.963,5.019,20.5,6.962,10.037,5.181,16.514,4.857,20.725-1.457,28.5,3.724,40.638,41.771,43.228,43.875,14.571,9.876,6.8,10.523-34.81-.971-41.447,0-21.532.81-24.123,8.581,1.295,11.819,0,20.076.648,14.571-5.181,24.933-2.914,33.028,0,35.942,14.732,12.628,20.885,15.866,13.114,3.238,14.086,19.1-4.857,27.847-6.152,28.98-6.314,3.562-7.934,5.343-5.182,7.448-12.952,11.819-13.6,8.581-16.189,8.743-10.2-.324-10.2,1.457-.485,3.562.81,3.562,7.124-.971,6.152.648-4.372,4.7-3.4,5.5,2.105,3.076,3.4,2.1,6.476-8.9,15.7-14.409,22.829-11.172,23.152-10.038,2.914,15.381,1.457,16.838-5.343,7.124-6.314,9.876-4.857,10.686-7.609,12.952-26.391,11.819-29.79,11.981-15.38-.972-22.18-2.591-29.79-1.781-30.437,0,0,3.4,7.285,3.886,28.818.162,30.275,3.076-10.2,6.8-11.333,8.743-3.886,7.447-7.609,8.742-13.6,3.238-16.838,4.533-9.228,4.371-12.3,5.019-7.123.162-6.962,1.133,11.657,1.943,12.952,1.3,8.095-4.209,12.628-4.371a54.041,54.041,0,0,0,12.952-2.1c2.914-.971,15.058-12.466,18.457-13.114s16.838-10.362,23.638-12.952,19.589-6.152,21.37-7.124,6.8-7.933,7.609-10.2,13.924-13.438,13.924-14.571-.81-4.857-2.429-6.152-1.78-13.276-1.133-13.761,8.9-23.638,12.79-22.5,17.646,7.447,26.39,10.038,19.913,4.209,26.39,8.581,33.19,36.914,33.19,38.371,1.134,13.114,0,15.542-5.181,7.933-5.181,9.714,0,8.9.81,10.2,4.857,4.857,5.343,3.076-2.1-7.124-.972-10.2,8.1-10.2,7.771-12.143-1.3-9.714.971-8.581,10.847,7.124,14.409,8.581,12.951,9.39,15.866,12.143,14.9,22.019,14.086,24.447-8.743,17.647-11.657,20.885-4.048,10.2-2.429,11.171,2.267-2.59,2.429-3.4,8.905-10.2,11.657-10.362,4.533-.81,4.533-1.781.648-7.609,1.781-8.9,5.181-3.4,5.019-4.857-3.724-5.5-3.724-9.39-.485-12.143-3.076-16.514-17.324-16.514-21.7-18.781-22.181-7.933-27.2-17-24.124-40.637-28.98-43.551-33.351-7.933-42.9-15.381-10.039-6.638-10.2-9.067.163-18.133-5.5-23.152-32.705-23.476-34-25.095a8.4,8.4,0,0,1,0-9.39c2.429-3.724-1.134-10.848,0-16.838s5.667-20.076,5.667-22.18,0-9.714,6.8-11.009,34-.809,37.4-1.457,14.731-2.914,17.646-1.781,16.677,16.19,24.124,19.266,42.742,5.181,44.2,5.99,31.731,16.028,36.751,18.457,32.057,15.7,36.59,17.323,15.866,6.476,19.752,10.038,30.762,47.761,39.5,65.57,16.837,43.228,16.514,46.142-.486,10.362,1.457,13.6,14.087,20.4,26.391,28.495,30.923,18.619,35.618,24.771,12.3,15.219,16.189,17.485,15.219,10.361,15.543,12.79,1.134,12.143,1.619,15.057,5.666,9.228,2.59,9.876-16.515,2.1-19.752,0-22.5-.324-27.037,1.3-10.686,4.533-10.686,6.638-.809,9.876,3.4,14.409,17.484,18.781,14.085,21.371-4.235,13.3-16.814,11.06-26.029-4.359-30.762-4.483-10.336-2.74-15.193-5.106-7.6-1.743-11.209-3.861-8.842-10.088-12.08-8.718-13.948,4.981-13.7,9.34,1,12.579,2.739,13.824,19.677,14.2,21.919,17.062,4.607,8.469,8.967,10.461,18.433,14.073,19.429,16.315,5.48,12.7,8.718,13.2,21.67-4.608,24.783-4.483,16.315,2.117,29.392,12.329,21.421,20.8,25.9,23.663,28.146,17.684,39.853,28.27,29.515,26.029,36.24,35.618,10.835,18.058,14.322,20.425,15.443,13.948,16.938,17.311.249,27.772,2.366,31.882,2.615,5.729,2.864,8.718,4.858,60.028,3.861,62.768-7.848,11.208-9.217,13.948a68.86,68.86,0,0,0-2.988,8.1l3.113,10.644s92.58-57.979,107.163-66.16,44.137-25.966,44.137-25.966Z" transform="translate(11786 -3015)" fill="#00b4d8" stroke="#00b4d8" stroke-width="1"/>
    <path id="Path_1130" data-name="Path 1130" d="M-10049.479,3806.992s-34.681-77.222-37.455-86.47-25.433-38.842-33.756-46.7-36.992-29.132-41.616-36.068-27.282-37.455-27.282-34.68,14.8,27.282,8.323,23.583-29.131-23.583-34.68-30.056-43.91-52.3-43.91-52.3-1.726,3.353-2.2,4.119-4.694,7.185-5.077,7.472-5.174,2.778-7.473,2.682-13.22-1.82-14.657-2.2-9-1.437-9-1.437,34.584,22.9,47.325,36.5,34.68,44.547,41.481,47.038,19.092,4.226,32.252,13.118,59.757,53.355,62.6,57.623,10.314,14.583,12.449,25.966,7.114,63.67,7.114,63.67l-1.778-70.428Z" transform="translate(11786 -3015)" fill="#147198" stroke="#147198" stroke-width="1"/>
    <path id="Path_1131" data-name="Path 1131" d="M-10225.989,3475.944s.843-3.789,14.733-4.42,22.73,3.157,28.413,7.156,5.894,10.313,3.578,13.891-11.787,18.522-16.838,17.89-24.2-7.788-24.2-7.788a10.386,10.386,0,0,0-1.082-5.984,20.81,20.81,0,0,1-2.358-7.959c0-1.105-.515-10.833-.884-11.5A4.788,4.788,0,0,0-10225.989,3475.944Z" transform="translate(11786 -3015)" fill="#147198" stroke="#147198" stroke-width="1"/>
    <path id="Path_1132" data-name="Path 1132" d="M-10204.867,3283.885s15.6,11.293,22.4,15.826,34.809,24.771,44.2,26.875,37.724-1.457,54.075-8.095,31.085-33.19,31.085-33.19-19.1,19.1-26.552,22.666-26.552-4.857-26.552-4.857-12.44,5.205-14.595,5.772-11.849,2.664-13.832,2.721-8.617-.114-12.018-1.474-17.288-7.652-21.427-9.863-10.715-6.065-11.451-6.292-7.651-2.437-8.162-2.664-6.122-3.8-6.916-4.251S-10204.867,3283.885-10204.867,3283.885Z" transform="translate(11786 -3015)" fill="#147198" stroke="#147198" stroke-width="1"/>
    <path id="Path_1127" data-name="Path 1127" d="M-11456.684-1038.764l-2.914-14.086-1.133,12.467-5.991-25.742s1.295,11.333.81,16.028a55.545,55.545,0,0,1-2.1,9.714s-.647-16.19,4.533-22.019,5.99-5.99,5.99-5.99-11.172,6.638-13.762,13.438a96.365,96.365,0,0,0-4.047,16.19s-4.209-17.485-5.181-20.885a50.533,50.533,0,0,0-2.915-7.286,78.212,78.212,0,0,1,0,11.981,97.88,97.88,0,0,1-2.267,14.571s-2.268-11.01-1.619-14.571,9.876-13.438,9.876-13.438l-9.876,8.743-1.618-7.286s-.972,11.981-3.4,11.981-4.857-3.562-3.238-7.448a33.891,33.891,0,0,0,2.1-7.933l-5.342,9.067.809-9.067s-6.962,17.485-8.257,15.381-1.943-5.181-2.429-6.314a11.054,11.054,0,0,0-2.428-2.752s2.915,2.429-1.457,13.924-6.8,10.362-7.448,7.448.972-11.495,2.429-14.247,6.477-11.5,6.477-11.5-11.981,14.247-12.629,15.543a30.49,30.49,0,0,1-1.619,2.752v-8.581l-3.237,9.229s-2.592-14.733-3.725-17.485a75.858,75.858,0,0,0-4.856-8.419,31.113,31.113,0,0,1,1.942,8.419c.162,3.886,1.295,16.19,0,15.543s-1.941-13.6,3.563-20.4,6.313-7.933,6.313-7.933-13.276,11.171-14.571,13.6-2.752,4.857-2.752,4.857l-6.638-7.124s4.856,5.181,2.914,9.714-4.371,11.009-4.533,8.581-6.638-28.009-6.638-28.009v15.7c0,2.752-1.295,5.99-1.781,4.371s-1.134-5.99-1.134-5.99-3.4,8.9-3.886,5.343,8.1-15.543,10.362-16.676,4.7-4.371,4.7-4.371l-15.058,11.333-1.123-9.714s-1.245,14.48-4.886,15.7-4.791-4.237-4.5-6.823,2.874-13.125,2.874-13.125l-7.664,12.015s1.916-11.248,1.82-11.536-9.483,21.747-11.017,19.064-5.557-10.346-6.323-11.209,1.821,7.483-.479,12.747-2.778,9.671-3.832,7.371a10.05,10.05,0,0,0-2.491-3.449s2.012,7.856,0,10.155-6.035,6.706-6.227,2.2.575-14.083,2.97-18.585,10.921-16.152,10.921-16.152-9.675,8.813-12.166,11.333-8.718,13.154-8.718,13.154l2.2-11.4s-5.94,11.3-6.228,11.4-9.579-19.447-11.017-21.268-3.257-4.407-3.257-4.407,3.641,8.718,3.832,9.1.957,13.781.957,13.781-4.216-9.279,1.82-15.027,8.526-7.856,8.526-7.856-13.411,10.634-15.136,13.22-6.61,10.921-6.61,10.921l4.119-21.335-9.867,18.557-6.61-20.176s.67,17.849-1.437,21.695-7.854.344-5.651-4.371,17.627-18.511,17.627-18.511l-17.148,11.688-.479-11.209s-9.676,16.19-9.293,15.424,14.37-14.715,14.37-14.715-15.04,19.314-15.424,19.505,3.353-23.088,3.353-23.088l-6.706,12.358v-12.358l-8.334,18.3-4.12-13.1-.766,8.881-4.982-6.131s3.065,10.538.862,14.466-4.216.1-1.916-2.682,14.945-15.232,14.945-15.232l-21.843,15.232a13.9,13.9,0,0,1,2.012-4.886c1.342-1.629,8.813-11.975,8.813-11.975s-15.424,16.765-14.753,14.178,2.4-16.478,2.4-16.478-12.264,27.878-13.6,23.854-9.771-18.01-9.771-18.01,4.312,13.125,4.312,19.448a83.443,83.443,0,0,1-.575,10.442s-6.035-17.436-8.143-20.884-13.987-11.841-13.987-11.841,10.061,15,11.88,17.877a12.846,12.846,0,0,1,1.724,6.419l16.861-12.454s-14.945,14.945-15.328,15.232-8.238-2.97-7.185-6.227,1.149-19.926,1.149-19.926-10.826,27.495-12.071,24.237-5.939-11.113-5.939-11.113,2.491,12.646.958,11.113-8.622-22.8-8.622-22.8,3.066,25.483,1.533,24.046-3.354-13.029,2.2-19.16,7.281-7.951,7.281-7.951-16.286,16.957-19.064,21.555-2.2,5.557-3.449,4.311-2.874-.862-4.023-5.748-5.077-19.41-5.077-19.41,0,26.02-1.82,23.817-6.8-5.173-5.077-7.951,15.136-15.865,15.136-15.865-20.693,15.578-24.142,19.984-5.461,9.005-4.886,6.419,5.27-30.177,5.27-30.177-7.952,16.477-12.071,20.6-9.675,10.442-11.208,12.837-2.3,12.167-2.3,12.167-3.16-20.405-4.311-23.184-2.491-6.035-2.491-6.035-.958,27.4-2.107,23.471-5.27-10.825-3.641-12.741,13.125-11.783,13.125-11.783-16.573,9.867-19.256,12.933-4.694,7.855-4.694,7.281,3.258-15.424,3.545-18.2.67-4.6.67-4.6-10.538,19.352-10.921,19.448-5.557-6.323-5.557-6.323,2.586,8.047,2.2,10.155-2.2,8.143-2.2,8.143h-7.089v45.619h429.245v-45.619Z" transform="translate(13141.7 -2215.854) rotate(-20)" fill="#147198" stroke="#147198" stroke-width="1"/>
    <path id="Path_1133" data-name="Path 1133" d="M-11456.684-1038.764l-2.914-14.086-1.133,12.467-5.991-25.742s1.295,11.333.81,16.028a55.545,55.545,0,0,1-2.1,9.714s-.647-16.19,4.533-22.019,5.99-5.99,5.99-5.99-11.172,6.638-13.762,13.438a96.365,96.365,0,0,0-4.047,16.19s-4.209-17.485-5.181-20.885a50.533,50.533,0,0,0-2.915-7.286,78.212,78.212,0,0,1,0,11.981,97.88,97.88,0,0,1-2.267,14.571s-2.268-11.01-1.619-14.571,9.876-13.438,9.876-13.438l-9.876,8.743-1.618-7.286s-.972,11.981-3.4,11.981-4.857-3.562-3.238-7.448a33.891,33.891,0,0,0,2.1-7.933l-5.342,9.067.809-9.067s-6.962,17.485-8.257,15.381-1.943-5.181-2.429-6.314a11.054,11.054,0,0,0-2.428-2.752s2.915,2.429-1.457,13.924-6.8,10.362-7.448,7.448.972-11.495,2.429-14.247,6.477-11.5,6.477-11.5-11.981,14.247-12.629,15.543a30.49,30.49,0,0,1-1.619,2.752v-8.581l-3.237,9.229s-2.592-14.733-3.725-17.485a75.858,75.858,0,0,0-4.856-8.419,31.113,31.113,0,0,1,1.942,8.419c.162,3.886,1.295,16.19,0,15.543s-1.941-13.6,3.563-20.4,6.313-7.933,6.313-7.933-13.276,11.171-14.571,13.6-2.752,4.857-2.752,4.857l-6.638-7.124s4.856,5.181,2.914,9.714-4.371,11.009-4.533,8.581-6.638-28.009-6.638-28.009v15.7c0,2.752-1.295,5.99-1.781,4.371s-1.134-5.99-1.134-5.99-3.4,8.9-3.886,5.343,8.1-15.543,10.362-16.676,4.7-4.371,4.7-4.371l-15.058,11.333-1.123-9.714s-1.245,14.48-4.886,15.7-4.791-4.237-4.5-6.823,2.874-13.125,2.874-13.125l-7.664,12.015s1.916-11.248,1.82-11.536-9.483,21.747-11.017,19.064-5.557-10.346-6.323-11.209,1.821,7.483-.479,12.747-2.778,9.671-3.832,7.371a10.05,10.05,0,0,0-2.491-3.449s2.012,7.856,0,10.155-6.035,6.706-6.227,2.2.575-14.083,2.97-18.585,10.921-16.152,10.921-16.152-9.675,8.813-12.166,11.333-8.718,13.154-8.718,13.154l2.2-11.4s-5.94,11.3-6.228,11.4-9.579-19.447-11.017-21.268-3.257-4.407-3.257-4.407,3.641,8.718,3.832,9.1.957,13.781.957,13.781-4.216-9.279,1.82-15.027,8.526-7.856,8.526-7.856-13.411,10.634-15.136,13.22-6.61,10.921-6.61,10.921l4.119-21.335-9.867,18.557-6.61-20.176s.67,17.849-1.437,21.695-7.854.344-5.651-4.371,17.627-18.511,17.627-18.511l-17.148,11.688-.479-11.209s-9.676,16.19-9.293,15.424,14.37-14.715,14.37-14.715-15.04,19.314-15.424,19.505,3.353-23.088,3.353-23.088l-6.706,12.358v-12.358l-8.334,18.3-4.12-13.1-.766,8.881-4.982-6.131s3.065,10.538.862,14.466-4.216.1-1.916-2.682,14.945-15.232,14.945-15.232l-21.843,15.232a13.9,13.9,0,0,1,2.012-4.886c1.342-1.629,8.813-11.975,8.813-11.975s-15.424,16.765-14.753,14.178,2.4-16.478,2.4-16.478-12.264,27.878-13.6,23.854-9.771-18.01-9.771-18.01,4.312,13.125,4.312,19.448a83.443,83.443,0,0,1-.575,10.442s-6.035-17.436-8.143-20.884-13.987-11.841-13.987-11.841,10.061,15,11.88,17.877a12.846,12.846,0,0,1,1.724,6.419l16.861-12.454s-14.945,14.945-15.328,15.232-8.238-2.97-7.185-6.227,1.149-19.926,1.149-19.926-10.826,27.495-12.071,24.237-5.939-11.113-5.939-11.113,2.491,12.646.958,11.113-8.622-22.8-8.622-22.8,3.066,25.483,1.533,24.046-3.354-13.029,2.2-19.16,7.281-7.951,7.281-7.951-16.286,16.957-19.064,21.555-2.2,5.557-3.449,4.311-2.874-.862-4.023-5.748-5.077-19.41-5.077-19.41,0,26.02-1.82,23.817-6.8-5.173-5.077-7.951,15.136-15.865,15.136-15.865-20.693,15.578-24.142,19.984-5.461,9.005-4.886,6.419,5.27-30.177,5.27-30.177-7.952,16.477-12.071,20.6-9.675,10.442-11.208,12.837-2.3,12.167-2.3,12.167-3.16-20.405-4.311-23.184-2.491-6.035-2.491-6.035-.958,27.4-2.107,23.471-5.27-10.825-3.641-12.741,13.125-11.783,13.125-11.783-16.573,9.867-19.256,12.933-4.694,7.855-4.694,7.281,3.258-15.424,3.545-18.2.67-4.6.67-4.6-10.538,19.352-10.921,19.448-5.557-6.323-5.557-6.323,2.586,8.047,2.2,10.155-2.2,8.143-2.2,8.143h-7.089v45.619h429.245v-45.619Z" transform="translate(13350.179 315.654) rotate(-8)" fill="#147198" stroke="#147198" stroke-width="1"/>
    <path id="Path_1134" data-name="Path 1134" d="M-11451.138-1078.223l-8.46,25.373-1.133,12.467-5.991-25.742s1.295,11.333.81,16.028a55.545,55.545,0,0,1-2.1,9.714s-.647-16.19,4.533-22.019,5.99-5.99,5.99-5.99-11.172,6.638-13.762,13.438a96.365,96.365,0,0,0-4.047,16.19s-4.209-17.485-5.181-20.885a50.533,50.533,0,0,0-2.915-7.286,78.212,78.212,0,0,1,0,11.981,97.88,97.88,0,0,1-2.267,14.571s-2.268-11.01-1.619-14.571,9.876-13.438,9.876-13.438l-9.876,8.743-1.618-7.286s-.972,11.981-3.4,11.981-4.857-3.562-3.238-7.448a33.891,33.891,0,0,0,2.1-7.933l-5.342,9.067.809-9.067s-6.962,17.485-8.257,15.381-1.943-5.181-2.429-6.314a11.054,11.054,0,0,0-2.428-2.752s2.915,2.429-1.457,13.924-6.8,10.362-7.448,7.448.972-11.495,2.429-14.247,6.477-11.5,6.477-11.5-11.981,14.247-12.629,15.543a30.49,30.49,0,0,1-1.619,2.752v-8.581l-3.237,9.229s-2.592-14.733-3.725-17.485a75.858,75.858,0,0,0-4.856-8.419,31.113,31.113,0,0,1,1.942,8.419c.162,3.886,1.295,16.19,0,15.543s-1.941-13.6,3.563-20.4,6.313-7.933,6.313-7.933-13.276,11.171-14.571,13.6-2.752,4.857-2.752,4.857l-6.638-7.124s4.856,5.181,2.914,9.714-4.371,11.009-4.533,8.581-6.638-28.009-6.638-28.009v15.7c0,2.752-1.295,5.99-1.781,4.371s-1.134-5.99-1.134-5.99-3.4,8.9-3.886,5.343,8.1-15.543,10.362-16.676,4.7-4.371,4.7-4.371l-15.058,11.333-1.123-9.714s-1.245,14.48-4.886,15.7-4.791-4.237-4.5-6.823,2.874-13.125,2.874-13.125l-7.664,12.015s1.916-11.248,1.82-11.536-9.483,21.747-11.017,19.064-5.557-10.346-6.323-11.209,1.821,7.483-.479,12.747-2.778,9.671-3.832,7.371a10.05,10.05,0,0,0-2.491-3.449s2.012,7.856,0,10.155-6.035,6.706-6.227,2.2.575-14.083,2.97-18.585,10.921-16.152,10.921-16.152-9.675,8.813-12.166,11.333-8.718,13.154-8.718,13.154l2.2-11.4s-5.94,11.3-6.228,11.4-9.579-19.447-11.017-21.268-3.257-4.407-3.257-4.407,3.641,8.718,3.832,9.1.957,13.781.957,13.781-4.216-9.279,1.82-15.027,8.526-7.856,8.526-7.856-13.411,10.634-15.136,13.22-6.61,10.921-6.61,10.921l4.119-21.335-9.867,18.557-6.61-20.176s.67,17.849-1.437,21.695-7.854.344-5.651-4.371,17.627-18.511,17.627-18.511l-17.148,11.688-.479-11.209s-9.676,16.19-9.293,15.424,14.37-14.715,14.37-14.715-15.04,19.314-15.424,19.505,3.353-23.088,3.353-23.088l-6.706,12.358v-12.358l-8.334,18.3-4.12-13.1-.766,8.881-4.982-6.131s3.065,10.538.862,14.466-4.216.1-1.916-2.682,14.945-15.232,14.945-15.232l-21.843,15.232a13.9,13.9,0,0,1,2.012-4.886c1.342-1.629,8.813-11.975,8.813-11.975s-15.424,16.765-14.753,14.178,2.4-16.478,2.4-16.478-12.264,27.878-13.6,23.854-9.771-18.01-9.771-18.01,4.312,13.125,4.312,19.448a83.443,83.443,0,0,1-.575,10.442s-6.035-17.436-8.143-20.884-13.987-11.841-13.987-11.841,10.061,15,11.88,17.877a12.846,12.846,0,0,1,1.724,6.419l16.861-12.454s-14.945,14.945-15.328,15.232-8.238-2.97-7.185-6.227,1.149-19.926,1.149-19.926-10.826,27.495-12.071,24.237-5.939-11.113-5.939-11.113,2.491,12.646.958,11.113-8.622-22.8-8.622-22.8,3.066,25.483,1.533,24.046-3.354-13.029,2.2-19.16,7.281-7.951,7.281-7.951-16.286,16.957-19.064,21.555-2.2,5.557-3.449,4.311-2.874-.862-4.023-5.748-5.077-19.41-5.077-19.41,0,26.02-1.82,23.817-6.8-5.173-5.077-7.951,15.136-15.865,15.136-15.865-20.693,15.578-24.142,19.984-5.461,9.005-4.886,6.419,5.27-30.177,5.27-30.177-7.952,16.477-12.071,20.6-9.675,10.442-11.208,12.837-2.3,12.167-2.3,12.167-3.16-20.405-4.311-23.184-2.491-6.035-2.491-6.035-.958,27.4-2.107,23.471-5.27-10.825-3.641-12.741,13.125-11.783,13.125-11.783-16.573,9.867-19.256,12.933-4.694,7.855-4.694,7.281,3.258-15.424,3.545-18.2.67-4.6.67-4.6-10.538,19.352-10.921,19.448-5.557-6.323-5.557-6.323,2.586,8.047,2.2,10.155-2.2,8.143-2.2,8.143h-7.089l-17.8,23.3s-7.031,9.369-39.172,10.6-26.109-5.271-38.081-.139-9.913,14.39-9.913,14.39,202.047,60.751,366.112,83.809,290.147,8.422,290.147,8.422l16.969-120.741Z" transform="translate(13248.179 356.654) rotate(-8)" fill="#147198" stroke="#147198" stroke-width="1"/>
    <path id="Path_1135" data-name="Path 1135" d="M-9848.3,3975.869l-269.306-22.242,9.618-76.945,271.109-77.546Z" transform="translate(11786 -3015)" fill="#147198" stroke="#147198" stroke-width="1"/>
    <path id="Path_1141" data-name="Path 1141" d="M-10227.494,3769.295s-19.864-8.482-23.422-12.86-8.209-12.312-15.6-16.143-216.974-69.224-212.6-70.866,105.067,25.72,117.653,28.456,101.511,33.107,104.794,35.843,18.605,18.332,22.983,21.615,10.943,8.756,9.85,10.4A19.3,19.3,0,0,1-10227.494,3769.295Z" transform="translate(11786 -3015)" fill="#00b4d8" stroke="#00b4d8" stroke-width="1"/>
    <path id="Path_1138" data-name="Path 1138" d="M-10243.011,3838.328s5.691,2.49,7.47-3.557.712-72.562,1.423-74.7,9.959-29.523,5.335-32.369-13.516-3.557-15.65,2.134-2.134,102.441-1.423,104.931A6.1,6.1,0,0,0-10243.011,3838.328Z" transform="translate(11786 -3015)" fill="#147198" stroke="#147198" stroke-width="1"/>
    <path id="Path_1139" data-name="Path 1139" d="M-10243.079,3831.81s5.572,2.346,7.313-3.351.7-68.368,1.394-70.379,9.75-27.817,5.223-30.5-13.231-3.351-15.322,2.011-2.088,96.52-1.392,98.866A5.821,5.821,0,0,0-10243.079,3831.81Z" transform="translate(11688 -3052)" fill="#147198" stroke="#147198" stroke-width="1"/>
    <path id="Path_1140" data-name="Path 1140" d="M-10243.148,3822.263s5.453,2.135,7.156-3.05.682-62.226,1.363-64.056,9.541-25.318,5.11-27.758-12.947-3.05-14.993,1.83-2.043,87.849-1.361,89.984A5.459,5.459,0,0,0-10243.148,3822.263Z" transform="translate(11592 -3073)" fill="#147198" stroke="#147198" stroke-width="1"/>
    <path id="Path_1145" data-name="Path 1145" d="M-10794.7,3648.388s68.294-.356,96.038,2.845,43.04,3.2,45.174,1.779,19.206-4.98,22.764-4.624,11.028-.712,9.249-2.134-132.675-10.315-212.352-11.027-126.628,4.269-145.836,8.181-27.032,8.537-23.12,9.6,71.14-4.624,91.414-4.624Z" transform="translate(11786 -3015)" fill="#00b4d8" stroke="#00b4d8" stroke-width="1"/>
    <path id="Path_1142" data-name="Path 1142" d="M-10229.879,3817.218s-6.017,2.024-7.9-2.891-.752-58.979-1.5-60.715-10.526-24-5.639-26.31,14.286-2.891,16.544,1.735,2.254,83.266,1.5,85.29A5.646,5.646,0,0,1-10229.879,3817.218Z" transform="translate(11294.904 -3119)" fill="#147198" stroke="#147198" stroke-width="1"/>
    <path id="Path_1143" data-name="Path 1143" d="M-10229.895,3818.9s-6.012,2.061-7.889-2.944-.751-60.059-1.5-61.826-10.518-24.437-5.634-26.792,14.273-2.944,16.528,1.766,2.252,84.79,1.5,86.851A5.675,5.675,0,0,1-10229.895,3818.9Z" transform="matrix(0.999, 0.035, -0.035, 0.999, 11306.384, -2761.461)" fill="#147198" stroke="#147198" stroke-width="1"/>
    <path id="Path_1144" data-name="Path 1144" d="M-10243.234,3816.219s5.3,2,6.959-2.86.663-58.336,1.326-60.053,9.278-23.735,4.97-26.023-12.591-2.86-14.58,1.716-1.987,82.358-1.324,84.36A5.215,5.215,0,0,0-10243.234,3816.219Z" transform="translate(10949.037 -3473.261) rotate(-2)" fill="#147198" stroke="#147198" stroke-width="1"/>
    <path id="Path_1149" data-name="Path 1149" d="M-11486.372,3792.814s114.215-54.995,119.023-57.4,37.87-18.635,48.09-16.832,29.455.6,39.675-2.4,85.36-22.242,62.518-21.641-64.32,19.236-82.354,16.23-31.258-1.8-44.483,3.006-62.519,25.247-83.558,34.865-56.506,33.062-58.91,36.068S-11486.372,3792.814-11486.372,3792.814Z" transform="translate(11786 -3015)" fill="#00b4d8" stroke="#00b4d8" stroke-width="1"/>
    <path id="Path_1146" data-name="Path 1146" d="M-10243.234,3816.219s5.3,2,6.959-2.86.663-58.336,1.326-60.053,9.278-23.735,4.97-26.023-12.591-2.86-14.58,1.716-1.987,82.358-1.324,84.36A5.215,5.215,0,0,0-10243.234,3816.219Z" transform="translate(10627.037 -3423.261) rotate(-2)" fill="#147198" stroke="#147198" stroke-width="1"/>
    <path id="Path_1147" data-name="Path 1147" d="M-10243.234,3816.219s5.3,2,6.959-2.86.663-58.336,1.326-60.053,9.278-23.735,4.97-26.023-12.591-2.86-14.58,1.716-1.987,82.358-1.324,84.36A5.215,5.215,0,0,0-10243.234,3816.219Z" transform="translate(10558.037 -3403.261) rotate(-2)" fill="#147198" stroke="#147198" stroke-width="1"/>
    <path id="Path_1148" data-name="Path 1148" d="M-10243.234,3816.219s5.3,2,6.959-2.86.663-58.336,1.326-60.053,9.278-23.735,4.97-26.023-12.591-2.86-14.58,1.716-1.987,82.358-1.324,84.36A5.215,5.215,0,0,0-10243.234,3816.219Z" transform="translate(10428.037 -3348.261) rotate(-2)" fill="#147198" stroke="#147198" stroke-width="1"/>
    <path id="Path_1150" data-name="Path 1150" d="M-11337.982,3911.581s1.894-81.81,3.262-85.094,5.2-10.124,15.87-9.029,4.651,54.449,6.02,60.2,2.736,8.482,2.736,13.954v19.974s-6.824,4.083-13.8,4.083S-11337.982,3911.581-11337.982,3911.581Z" transform="translate(11786 -3015)" fill="#00b4d8" stroke="#00b4d8" stroke-width="1"/>
    <path id="Path_1151" data-name="Path 1151" d="M-10835.919,3909.117s-1.368-32.013,0-35.023,3.83-12.586,3.83-16.143,1.095-22.983,4.1-30.371,13.134-50.618,19.7-61.563,16.417-24.078,13.407-28.729-9.3-4.378-13.407-1.094-15.323,18.879-17.785,24.625-13.134,36.664-15.049,35.843-24.351-22.983-31.191-27.908-32.56-33.107-38.032-32.56-9.029,6.841-4.378,13.134,60.742,58.827,62.384,60.469,4.925,4.1,4.651,6.84-7.389,27.088-10.124,43.231-5.744,26.541-6.019,32.286,0,16.964,0,16.964a37.83,37.83,0,0,0,13.441,2.848C-10843.408,3911.965-10835.919,3909.117-10835.919,3909.117Z" transform="translate(11786 -3015)" fill="#00b4d8" stroke="#00b4d8" stroke-width="1"/>
    <path id="Path_1152" data-name="Path 1152" d="M-10403.612,3908.845s-2.188-48.977,0-50.345,24.626-14.5,31.466-17.238,24.626-7.935,28.729-8.208,6.02-1.094,6.293-3.557,1.368-13.133-3.283-13.407-27.909,10.124-36.938,13.407-23.256,13.407-23.8,11.765,6.293-24.625,6.293-27.909.547-17.238-4.378-18.332-22.983-5.746-27.088-3.557-8.482,5.2-8.482,8.208,1.643,18.605-2.462,10.671-14.228-16.143-19.974-18.879-20.521-15.323-24.9-13.407-4.925,5.746-2.188,9.3,15.6,16.143,18.605,17.511,21.616,14.228,26.814,22.71,5.746,8.756,5.746,13.681.821,36.664,0,42.957-1.643,24.625-1.643,24.625,8.972,3.12,16.77,3.12A37.832,37.832,0,0,0-10403.612,3908.845Z" transform="translate(11786 -3015)" fill="#00b4d8" stroke="#00b4d8" stroke-width="1"/>
    <path id="Path_1153" data-name="Path 1153" d="M-10594.537,3201.281s6.946-5.051,14.1-6.1,27.361-.842,28.624-1.263,14.942-4,17.469-1.894,20.417,17.68,21.89,18.521,42.726,12.207,42.726,12.207-39.358-3.157-42.726-5.051a72.312,72.312,0,0,1-16.206-11.365c-6.314-6.1-7.789-7.367-10.945-8s-16,1.684-19.363,1.684S-10594.537,3201.281-10594.537,3201.281Z" transform="translate(11786 -3015)" fill="#147198" stroke="#147198" stroke-width="1"/>
    <path id="Path_1154" data-name="Path 1154" d="M-11456.684-1038.764l-2.914-14.086-1.133,12.467-5.991-25.742s1.295,11.333.81,16.028a55.545,55.545,0,0,1-2.1,9.714s-.647-16.19,4.533-22.019,5.99-5.99,5.99-5.99-11.172,6.638-13.762,13.438a96.365,96.365,0,0,0-4.047,16.19s-4.209-17.485-5.181-20.885a50.533,50.533,0,0,0-2.915-7.286,78.212,78.212,0,0,1,0,11.981,97.88,97.88,0,0,1-2.267,14.571s-2.268-11.01-1.619-14.571,9.876-13.438,9.876-13.438l-9.876,8.743-1.618-7.286s-.972,11.981-3.4,11.981-4.857-3.562-3.238-7.448a33.891,33.891,0,0,0,2.1-7.933l-5.342,9.067.809-9.067s-6.962,17.485-8.257,15.381-1.943-5.181-2.429-6.314a11.054,11.054,0,0,0-2.428-2.752s2.915,2.429-1.457,13.924-6.8,10.362-7.448,7.448.972-11.495,2.429-14.247,6.477-11.5,6.477-11.5-11.981,14.247-12.629,15.543a30.49,30.49,0,0,1-1.619,2.752v-8.581l-3.237,9.229s-2.592-14.733-3.725-17.485a75.858,75.858,0,0,0-4.856-8.419,31.113,31.113,0,0,1,1.942,8.419c.162,3.886,1.295,16.19,0,15.543s-1.941-13.6,3.563-20.4,6.313-7.933,6.313-7.933-13.276,11.171-14.571,13.6-2.752,4.857-2.752,4.857l-6.638-7.124s4.856,5.181,2.914,9.714-4.371,11.009-4.533,8.581-6.638-28.009-6.638-28.009v15.7c0,2.752-1.295,5.99-1.781,4.371s-1.134-5.99-1.134-5.99-3.4,8.9-3.886,5.343,8.1-15.543,10.362-16.676,4.7-4.371,4.7-4.371l-15.058,11.333-1.123-9.714s-1.245,14.48-4.886,15.7-4.791-4.237-4.5-6.823,2.874-13.125,2.874-13.125l-7.664,12.015s1.916-11.248,1.82-11.536-9.483,21.747-11.017,19.064-5.557-10.346-6.323-11.209,1.821,7.483-.479,12.747-2.778,9.671-3.832,7.371a10.05,10.05,0,0,0-2.491-3.449s2.012,7.856,0,10.155-6.035,6.706-6.227,2.2.575-14.083,2.97-18.585,10.921-16.152,10.921-16.152-9.675,8.813-12.166,11.333-8.718,13.154-8.718,13.154l2.2-11.4s-5.94,11.3-6.228,11.4-9.579-19.447-11.017-21.268-3.257-4.407-3.257-4.407,3.641,8.718,3.832,9.1.957,13.781.957,13.781-4.216-9.279,1.82-15.027,8.526-7.856,8.526-7.856-13.411,10.634-15.136,13.22-6.61,10.921-6.61,10.921l4.119-21.335-9.867,18.557-6.61-20.176s.67,17.849-1.437,21.695-7.854.344-5.651-4.371,17.627-18.511,17.627-18.511l-17.148,11.688-.479-11.209s-9.676,16.19-9.293,15.424,14.37-14.715,14.37-14.715-15.04,19.314-15.424,19.505,3.353-23.088,3.353-23.088l-6.706,12.358v-12.358l-8.334,18.3-4.12-13.1-.766,8.881-4.982-6.131s3.065,10.538.862,14.466-4.216.1-1.916-2.682,14.945-15.232,14.945-15.232l-21.843,15.232a13.9,13.9,0,0,1,2.012-4.886c1.342-1.629,8.813-11.975,8.813-11.975s-15.424,16.765-14.753,14.178,2.4-16.478,2.4-16.478-12.264,27.878-13.6,23.854-9.771-18.01-9.771-18.01,4.312,13.125,4.312,19.448a83.443,83.443,0,0,1-.575,10.442s-6.035-17.436-8.143-20.884-13.987-11.841-13.987-11.841,10.061,15,11.88,17.877a12.846,12.846,0,0,1,1.724,6.419l16.861-12.454s-14.945,14.945-15.328,15.232-8.238-2.97-7.185-6.227,1.149-19.926,1.149-19.926-10.826,27.495-12.071,24.237-5.939-11.113-5.939-11.113,2.491,12.646.958,11.113-8.622-22.8-8.622-22.8,3.066,25.483,1.533,24.046-3.354-13.029,2.2-19.16,7.281-7.951,7.281-7.951-16.286,16.957-19.064,21.555-2.2,5.557-3.449,4.311-2.874-.862-4.023-5.748-5.077-19.41-5.077-19.41,0,26.02-1.82,23.817-6.8-5.173-5.077-7.951,15.136-15.865,15.136-15.865-20.693,15.578-24.142,19.984-5.461,9.005-4.886,6.419,5.27-30.177,5.27-30.177-7.952,16.477-12.071,20.6-9.675,10.442-11.208,12.837-2.3,12.167-2.3,12.167-3.16-20.405-4.311-23.184-2.491-6.035-2.491-6.035-.958,27.4-2.107,23.471-5.27-10.825-3.641-12.741,13.125-11.783,13.125-11.783-16.573,9.867-19.256,12.933-4.694,7.855-4.694,7.281,3.258-15.424,3.545-18.2.67-4.6.67-4.6-10.538,19.352-10.921,19.448-5.557-6.323-5.557-6.323,2.586,8.047,2.2,10.155-2.2,8.143-2.2,8.143h-7.089v45.619s-124.145,178.149-16.833,178.149c28.973,0,68.983-9.359,114.646-4.586,30.545,3.192,127.238-30.918,133.784-103.411s186.582-61.514,197.648-70.153,0-45.619,0-45.619Z" transform="matrix(0.999, -0.035, 0.035, 0.999, 11872.151, 1500.82)" fill="#147198" stroke="#147198" stroke-width="1"/>
    <path id="Path_1155" data-name="Path 1155" d="M-11456.684-1038.764l-2.914-14.086-1.133,12.467-5.991-25.742s1.295,11.333.81,16.028a55.545,55.545,0,0,1-2.1,9.714s-.647-16.19,4.533-22.019,5.99-5.99,5.99-5.99-11.172,6.638-13.762,13.438a96.365,96.365,0,0,0-4.047,16.19s-4.209-17.485-5.181-20.885a50.533,50.533,0,0,0-2.915-7.286,78.212,78.212,0,0,1,0,11.981,97.88,97.88,0,0,1-2.267,14.571s-2.268-11.01-1.619-14.571,9.876-13.438,9.876-13.438l-9.876,8.743-1.618-7.286s-.972,11.981-3.4,11.981-4.857-3.562-3.238-7.448a33.891,33.891,0,0,0,2.1-7.933l-5.342,9.067.809-9.067s-6.962,17.485-8.257,15.381-1.943-5.181-2.429-6.314a11.054,11.054,0,0,0-2.428-2.752s2.915,2.429-1.457,13.924-6.8,10.362-7.448,7.448.972-11.495,2.429-14.247,6.477-11.5,6.477-11.5-11.981,14.247-12.629,15.543a30.49,30.49,0,0,1-1.619,2.752v-8.581l-3.237,9.229s-2.592-14.733-3.725-17.485a75.858,75.858,0,0,0-4.856-8.419,31.113,31.113,0,0,1,1.942,8.419c.162,3.886,1.295,16.19,0,15.543s-1.941-13.6,3.563-20.4,6.313-7.933,6.313-7.933-13.276,11.171-14.571,13.6-2.752,4.857-2.752,4.857l-6.638-7.124s4.856,5.181,2.914,9.714-4.371,11.009-4.533,8.581-6.638-28.009-6.638-28.009v15.7c0,2.752-1.295,5.99-1.781,4.371s-1.134-5.99-1.134-5.99-3.4,8.9-3.886,5.343,8.1-15.543,10.362-16.676,4.7-4.371,4.7-4.371l-15.058,11.333-1.123-9.714s-1.245,14.48-4.886,15.7-4.791-4.237-4.5-6.823,2.874-13.125,2.874-13.125l-7.664,12.015s1.916-11.248,1.82-11.536-9.483,21.747-11.017,19.064-5.557-10.346-6.323-11.209,1.821,7.483-.479,12.747-2.778,9.671-3.832,7.371a10.05,10.05,0,0,0-2.491-3.449s2.012,7.856,0,10.155-6.035,6.706-6.227,2.2.575-14.083,2.97-18.585,10.921-16.152,10.921-16.152-9.675,8.813-12.166,11.333-8.718,13.154-8.718,13.154l2.2-11.4s-5.94,11.3-6.228,11.4-9.579-19.447-11.017-21.268-3.257-4.407-3.257-4.407,3.641,8.718,3.832,9.1.957,13.781.957,13.781-4.216-9.279,1.82-15.027,8.526-7.856,8.526-7.856-13.411,10.634-15.136,13.22-6.61,10.921-6.61,10.921l4.119-21.335-9.867,18.557-6.61-20.176s.67,17.849-1.437,21.695-7.854.344-5.651-4.371,17.627-18.511,17.627-18.511l-17.148,11.688-.479-11.209s-9.676,16.19-9.293,15.424,14.37-14.715,14.37-14.715-15.04,19.314-15.424,19.505,3.353-23.088,3.353-23.088l-6.706,12.358v-12.358l-8.334,18.3-4.12-13.1-.766,8.881-4.982-6.131s3.065,10.538.862,14.466-4.216.1-1.916-2.682,14.945-15.232,14.945-15.232l-21.843,15.232a13.9,13.9,0,0,1,2.012-4.886c1.342-1.629,8.813-11.975,8.813-11.975s-15.424,16.765-14.753,14.178,2.4-16.478,2.4-16.478-12.264,27.878-13.6,23.854-9.771-18.01-9.771-18.01,4.312,13.125,4.312,19.448a83.443,83.443,0,0,1-.575,10.442s-6.035-17.436-8.143-20.884-13.987-11.841-13.987-11.841,10.061,15,11.88,17.877a12.846,12.846,0,0,1,1.724,6.419l16.861-12.454s-14.945,14.945-15.328,15.232-8.238-2.97-7.185-6.227,1.149-19.926,1.149-19.926-10.826,27.495-12.071,24.237-5.939-11.113-5.939-11.113,2.491,12.646.958,11.113-8.622-22.8-8.622-22.8,3.066,25.483,1.533,24.046-3.354-13.029,2.2-19.16,7.281-7.951,7.281-7.951-16.286,16.957-19.064,21.555-2.2,5.557-3.449,4.311-2.874-.862-4.023-5.748-5.077-19.41-5.077-19.41,0,26.02-1.82,23.817-6.8-5.173-5.077-7.951,15.136-15.865,15.136-15.865-20.693,15.578-24.142,19.984-5.461,9.005-4.886,6.419,5.27-30.177,5.27-30.177-7.952,16.477-12.071,20.6-9.675,10.442-11.208,12.837-2.3,12.167-2.3,12.167-3.16-20.405-4.311-23.184-2.491-6.035-2.491-6.035-.958,27.4-2.107,23.471-5.27-10.825-3.641-12.741,13.125-11.783,13.125-11.783-16.573,9.867-19.256,12.933-4.694,7.855-4.694,7.281,3.258-15.424,3.545-18.2.67-4.6.67-4.6-10.538,19.352-10.921,19.448-5.557-6.323-5.557-6.323,2.586,8.047,2.2,10.155-2.2,8.143-2.2,8.143h-7.089v45.619s-22.007,36.427,85.3,36.427c48.612,0,140.3,22.592,208.2,14.386,81.478-9.847,135.741-50.813,135.741-50.813v-45.619Z" transform="matrix(0.974, 0.225, -0.225, 0.974, 11103.611, 4453.752)" fill="#147198" stroke="#147198" stroke-width="1"/>
  </g>
</svg>
