<svg xmlns="http://www.w3.org/2000/svg" xmlns:xlink="http://www.w3.org/1999/xlink" width="1920" height="1080" viewBox="0 0 1920 1080">
  <defs>
    <clipPath id="clip-background_biography_">
      <rect width="1920" height="1080"/>
    </clipPath>
  </defs>
  <g id="background_biography_" data-name="background_biography " clip-path="url(#clip-background_biography_)">
    <path id="Path_1052" data-name="Path 1052" d="M-13706.81,3719.757s324.964-260.015,847.239-39.5,393.049-486.788,668.694-599.948,410.68,12.717,410.68,12.717v417.82s-194.4-174.092-351.084-34.818-240.828,445.054-591.912,566.918-539.232-141.021-702.176-185.7c-128.7-35.286-281.441,0-281.441,0Z" transform="translate(13702 -3020)" fill="#74cddd" stroke="#74cddd" stroke-width="1"/>
    <path id="Path_1053" data-name="Path 1053" d="M-11780.2,3333.854s-159.583-165.387-342.38-40.621-38.587,353.9-133.931,421.1-157.123,60.534-157.123,60.534,121.172,24.647,194.629,5.11,148.652-74.731,168.963-176.285-5.8-237.925,104.455-269.842S-11780.2,3333.854-11780.2,3333.854Z" transform="translate(13677 -2979)" fill="#00b4d8" stroke="#00b4d8" stroke-width="1"/>
  </g>
</svg>
