<svg id="spongebob-loading" xmlns="http://www.w3.org/2000/svg" xmlns:xlink="http://www.w3.org/1999/xlink" viewBox="0 0 1556 1080" shape-rendering="geometricPrecision" text-rendering="geometricPrecision"><style><![CDATA[#spongebob-loading-mouth_to {animation: spongebob-loading-mouth_to__to 3000ms linear infinite normal forwards}@keyframes spongebob-loading-mouth_to__to { 0% {transform: translate(1063.472717px,594.822052px)} 16.666667% {transform: translate(1067.877820px,529.336182px)} 53.333333% {transform: translate(1063.472717px,594.822052px)} 70% {transform: translate(1067.877820px,529.336182px)} 100% {transform: translate(1063.472717px,594.822052px)} }#spongebob-loading-mouth_ts {animation: spongebob-loading-mouth_ts__ts 3000ms linear infinite normal forwards}@keyframes spongebob-loading-mouth_ts__ts { 0% {transform: scale(1,1)} 16.666667% {transform: scale(0.500000,0.300000)} 53.333333% {transform: scale(1,1)} 70% {transform: scale(0.500000,0.300000)} 100% {transform: scale(1,1)} }#spongebob-loading-tire_tr {animation: spongebob-loading-tire_tr__tr 3000ms linear infinite normal forwards}@keyframes spongebob-loading-tire_tr__tr { 0% {transform: translate(464.955902px,322.101883px) rotate(0deg)} 100% {transform: translate(464.955902px,322.101883px) rotate(720deg)} }]]></style><defs><radialGradient id="spongebob-loading-path11-fill" cx="0.500000" cy="0.500000" r="0.500000" spreadMethod="pad" gradientUnits="objectBoundingBox"><stop id="spongebob-loading-path11-fill-0" offset="0%" stop-color="rgb(86,227,255)"/><stop id="spongebob-loading-path11-fill-1" offset="100%" stop-color="rgb(216,249,255)"/></radialGradient></defs><g id="spongebob-loading-g1" clip-path="url(#spongebob-loading-clip-spongebob_loading)"><g id="spongebob-loading-spongebob-loading"><path id="spongebob-loading-path-999" d="M-12734.680000,7858.139000L-12734.680000,7944.609000L-12796.642000,7972.816000C-12796.642000,7972.816000,-12915.942000,7958.482000,-12986.229000,7956.632000C-13056.516000,7954.782000,-13072.237000,7954.320000,-13072.237000,7954.320000L-13074.549000,7844.267000L-12796.643000,7851.667000Z" transform="matrix(1 0 0 1 13998 -7155)" fill="rgb(0,180,216)" stroke="rgb(0,0,0)" stroke-width="2"/><path id="spongebob-loading-path-1012" d="M-12987.607000,7902.776000L-12904.429000,7906.059000L-12904.429000,7921.108000L-12987.607000,7917.008000Z" transform="matrix(1 0 0 1 13998 -7155)" fill="rgb(0,0,0)" stroke="rgb(0,0,0)" stroke-width="1"/><path id="spongebob-loading-path-1000" d="M-12734.680000,7888L-12798.813000,7904.690000C-12798.813000,7904.690000,-12998.003000,7889.090000,-13010.042000,7888.273000C-13022.081000,7887.456000,-13074.342000,7884.716000,-13074.342000,7884.716000L-13074.342000,7840.938000L-12798.814000,7851.609000L-12734.681000,7849.694000Z" transform="matrix(1 0 0 1 13998 -7155)" fill="rgb(216,249,255)" stroke="rgb(0,0,0)" stroke-width="2"/><path id="spongebob-loading-path-1015" d="M-12997.879000,7858.691000C-12997.879000,7858.691000,-12974.126000,7878.929000,-12967.812000,7878.767000C-12961.498000,7878.605000,-12938.993000,7850.920000,-12938.993000,7850.920000L-12905.966000,7886.862000L-12883.466000,7853.834000C-12883.466000,7853.834000,-12921.835000,7843.473000,-12923.778000,7842.987000C-12925.721000,7842.501000,-13006.186000,7842.987000,-13006.186000,7842.987000Z" transform="matrix(1 0 0 1 13998 -7155)" fill="rgb(216,249,255)" stroke="rgb(0,0,0)" stroke-width="2"/><path id="spongebob-loading-path-1010" d="M-12783.430000,7912.690000C-12784.693000,7914.584000,-12784.272000,7928.265000,-12782.167000,7928.690000C-12780.062000,7929.115000,-12748.281000,7918.798000,-12747.229000,7916.062000C-12746.177000,7913.326000,-12746.177000,7903.223000,-12747.229000,7902.171000C-12748.281000,7901.119000,-12782.167000,7910.800000,-12783.430000,7912.690000Z" transform="matrix(1 0 0 1 13998 -7155)" fill="rgb(0,0,0)" stroke="rgb(0,0,0)" stroke-width="1"/><path id="spongebob-loading-path-1014" d="M-12937.859000,7875.367000C-12937.859000,7875.367000,-12959.553000,7915.356000,-12956.639000,7919.567000C-12953.725000,7923.778000,-12941.744000,7938.348000,-12937.859000,7938.667000C-12933.974000,7938.986000,-12920.050000,7921.505000,-12919.888000,7919.567000C-12919.726000,7917.629000,-12933.325000,7875.367000,-12933.325000,7875.367000Z" transform="matrix(1 0 0 1 13998 -7155)" fill="rgb(230,14,15)" stroke="rgb(0,0,0)" stroke-width="2"/><path id="spongebob-loading-path-1013" d="M-12949.517000,7858.691000C-12949.517000,7858.691000,-12944.660000,7877.633000,-12936.241000,7877.957000C-12927.822000,7878.281000,-12924.261000,7860.634000,-12924.261000,7859.824000C-12924.261000,7859.014000,-12949.517000,7858.691000,-12949.517000,7858.691000Z" transform="matrix(1 0 0 1 13998 -7155)" fill="rgb(230,14,15)" stroke="rgb(0,0,0)" stroke-width="2"/><path id="spongebob-loading-path-1011" d="M-12868.040000,7908.541000C-12868.040000,7908.541000,-12823.167000,7907.191000,-12821.252000,7908.541000C-12819.337000,7909.891000,-12819.337000,7921.382000,-12821.252000,7923.841000C-12823.167000,7926.300000,-12868.040000,7923.841000,-12868.040000,7923.841000Z" transform="matrix(1 0 0 1 13998 -7155)" fill="rgb(0,0,0)" stroke="rgb(0,0,0)" stroke-width="1"/><path id="spongebob-loading-path-1001" d="M-12796.622000,7861.732000L-12796.622000,7973.366000" transform="matrix(1 0 0 1 13998 -7155)" fill="none" stroke="rgb(0,0,0)" stroke-width="2"/><path id="spongebob-loading-path-996" d="M-13085.742000,7778.030000C-13085.742000,7778.030000,-13098.548000,7775.896000,-13106.017000,7801.862000C-13113.486000,7827.828000,-13109.217000,7836.720000,-13101.393000,7838.855000C-13093.569000,7840.990000,-13070.093000,7835.655000,-13070.093000,7835.655000L-13070.093000,7812.890000Z" transform="matrix(1 0 0 1 13998 -7155)" fill="rgb(216,249,255)" stroke="rgb(216,249,255)" stroke-width="1"/><path id="spongebob-loading-path-998" d="M-13089,7819.643000C-13089,7819.643000,-13097.813000,7821.080000,-13100.687000,7822.043000L-13104.136000,7823.192000C-13104.136000,7823.192000,-13095.322000,7818.115000,-13090.915000,7817.732000C-13086.508000,7817.349000,-13079.615000,7819.082000,-13079.615000,7819.082000L-13080.094000,7821.373000C-13081.043961,7820.518113,-13082.199130,7819.923820,-13083.447000,7819.648000C-13085.284326,7819.331474,-13087.162107,7819.329783,-13089,7819.643000Z" transform="matrix(1 0 0 1 13998 -7155)" fill="rgb(0,0,0)" stroke="rgb(0,0,0)" stroke-width="1"/><path id="spongebob-loading-path-992" d="M-12748.556000,7522.292000C-12742.866000,7529.406000,-12745.266000,7533.764000,-12734.328000,7541.500000C-12723.390000,7549.236000,-12720.011000,7543.900000,-12711.207000,7552.526000C-12702.403000,7561.152000,-12707.917000,7564.620000,-12699.113000,7576.002000C-12690.309000,7587.384000,-12677.949000,7585.161000,-12675.993000,7598.055000C-12674.037000,7610.949000,-12691.288000,7627.578000,-12691.288000,7627.578000L-12692.711000,7654.611000L-12708.718000,7681.288000L-12711.207000,7711.878000L-12723.657000,7731.086000L-12720.099000,7754.207000L-12733.260000,7782.307000L-12727.924000,7807.917000L-12736.461000,7831.037000C-12736.461000,7831.037000,-12728.635000,7856.291000,-12740.018000,7860.560000C-12751.401000,7864.829000,-12776.656000,7870.160000,-12798.353000,7864.473000C-12820.050000,7858.786000,-12841.392000,7620.109000,-12841.392000,7620.109000C-12841.392000,7620.109000,-12754.246000,7515.178000,-12748.556000,7522.292000Z" transform="matrix(1 0 0 1 13998 -7155)" fill="rgb(189,229,46)" stroke="rgb(115,122,0)" stroke-width="3"/><g id="spongebob-loading-path-991" transform="matrix(1 0 0 1 13998 -7155)"><path id="spongebob-loading-path1" d="M-12808.008789,7867.300293C-12812.043945,7867.300781,-12816.282227,7866.259766,-12820.603516,7864.207520C-12823.623047,7862.773438,-12827.977539,7862.076172,-12833.916992,7862.076172C-12840.151367,7862.076172,-12847.156250,7862.856934,-12852.784180,7863.483887C-12856.831055,7863.934570,-12860.325195,7864.323730,-12862.517578,7864.323730C-12863.748047,7864.323730,-12864.130859,7864.195313,-12864.195313,7864.169922C-12866.164063,7863.382324,-12874.069336,7861.148438,-12883.212891,7859.168945C-12891.422852,7857.391602,-12903.124023,7855.273438,-12912.251953,7855.273438C-12915.069336,7855.273438,-12917.508789,7855.479004,-12919.500977,7855.884766C-12921.687500,7856.330078,-12924.390625,7856.556152,-12927.533203,7856.556152C-12935.397461,7856.556641,-12945.017578,7855.189453,-12954.322266,7853.866699C-12962.996094,7852.633789,-12971.188477,7851.469238,-12977.480469,7851.469238C-12977.772461,7851.469238,-12978.049805,7851.471680,-12978.328125,7851.476563C-12978.870117,7851.486328,-12979.434570,7851.491211,-12980.006836,7851.491211C-12986.462891,7851.491211,-12993.900391,7850.866211,-13001.091797,7850.261719C-13008.346680,7849.652344,-13015.847656,7849.021484,-13022.431641,7849.021484C-13024.658203,7849.021484,-13026.638672,7849.090820,-13028.488281,7849.232910C-13035.291016,7849.755859,-13048.256836,7850.633789,-13058.666016,7850.633789C-13068.300781,7850.633789,-13071.165039,7849.865723,-13072.013672,7849.408203C-13077.765625,7846.308594,-13080.681641,7841.320801,-13080.681641,7834.583008C-13080.681641,7831.164551,-13080.009766,7827.964355,-13079.360352,7824.869141C-13078.333984,7819.975098,-13077.364258,7815.352539,-13078.972656,7810.295898C-13079.826172,7807.614746,-13081.109375,7805.120605,-13082.466797,7802.480469C-13085.167969,7797.229492,-13088.228516,7791.278320,-13088.865234,7781.838379C-13089.330078,7774.958496,-13087.761719,7771.658203,-13086.100586,7768.164551C-13084.326172,7764.431152,-13082.491211,7760.570801,-13082.816406,7752.710449C-13083.127930,7745.192871,-13085.206055,7741.400879,-13087.216797,7737.733887C-13089.343750,7733.853027,-13091.352539,7730.187988,-13091.352539,7721.826660C-13091.352539,7713.912598,-13089.388672,7709.608887,-13087.310547,7705.052734C-13085.100586,7700.209473,-13082.815430,7695.201172,-13082.815430,7685.901367C-13082.815430,7676.787598,-13085.326172,7671.853027,-13087.541992,7667.499512C-13088.669922,7665.283203,-13089.735352,7663.189941,-13090.465820,7660.648926C-13091.287109,7657.789551,-13091.570313,7654.765137,-13091.355469,7651.131348C-13090.886719,7643.214844,-13088.300781,7639.805664,-13085.562500,7636.196777C-13082.700195,7632.423340,-13079.740234,7628.521484,-13078.909180,7619.885254C-13078.068359,7611.145996,-13080.088867,7606.160156,-13082.042969,7601.338379C-13083.909180,7596.732422,-13085.671875,7592.381836,-13084.956055,7584.666504C-13084.651367,7581.388184,-13083.975586,7578.763672,-13082.889648,7576.643066C-13081.926758,7574.763184,-13080.739258,7573.423340,-13079.481445,7572.004883C-13076.490234,7568.631348,-13073.398438,7565.142578,-13072.857422,7554.727051C-13072.399414,7545.911133,-13074.530273,7536.481445,-13076.410156,7528.162109C-13077.483398,7523.408203,-13078.498047,7518.918457,-13078.812500,7515.360840C-13079.124023,7511.830566,-13078.715820,7509.554688,-13077.563477,7508.402344C-13076.547852,7507.387207,-13074.833984,7506.893555,-13072.323242,7506.893555C-13068.090820,7506.893555,-13062.324219,7508.352051,-13056.748047,7509.761719C-13050.930664,7511.233398,-13044.915039,7512.754395,-13040.208984,7512.754395C-13034.434570,7512.754395,-13030.897461,7510.258789,-13027.151367,7507.616211C-13022.799805,7504.546387,-13018.300781,7501.372070,-13009.263672,7501.372070C-13000.584961,7501.372070,-12995.458008,7503.980469,-12990.030273,7506.741699C-12984.863281,7509.370117,-12979.521484,7512.088379,-12970.962891,7512.750000C-12969.660156,7512.850586,-12968.412109,7512.901855,-12967.252930,7512.901855C-12960.493164,7512.901855,-12957.163086,7511.215332,-12953.942383,7509.584961C-12950.963867,7508.076660,-12948.151367,7506.652344,-12942.352539,7506.652344C-12941.708984,7506.652344,-12941.029297,7506.670410,-12940.333984,7506.705566C-12932.858398,7507.085938,-12928.979492,7509.087402,-12924.873047,7511.207031C-12920.618164,7513.403320,-12916.217773,7515.673828,-12907.940430,7515.954590C-12907.448242,7515.971191,-12906.958984,7515.979980,-12906.484375,7515.979980C-12899.114258,7515.979980,-12895.204102,7514.001953,-12891.422852,7512.089355C-12888.066406,7510.391602,-12884.896484,7508.788086,-12879.207031,7508.788086C-12878.620117,7508.788086,-12878.005859,7508.805664,-12877.381836,7508.839355C-12870.610352,7509.208984,-12867.513672,7511.481445,-12864.234375,7513.887695C-12860.705078,7516.478027,-12857.055664,7519.156738,-12849.199219,7519.156738C-12841.645508,7519.156738,-12837.636719,7516.337891,-12833.760742,7513.611816C-12830.243164,7511.137695,-12826.919922,7508.800781,-12820.809570,7508.800781C-12820.353516,7508.800781,-12819.879883,7508.813477,-12819.402344,7508.839844C-12816.208984,7509.012695,-12813.551758,7509.677246,-12811.041016,7510.930176C-12808.793945,7512.051758,-12806.950195,7513.500488,-12804.999023,7515.034180C-12801.002930,7518.174316,-12796.871094,7521.421387,-12788.904297,7522.347656C-12787.403320,7522.522461,-12785.836914,7522.610840,-12784.247070,7522.610840C-12776.981445,7522.610840,-12770.085938,7520.756836,-12765.581055,7519.201172C-12761.923828,7517.937988,-12759.242188,7516.683105,-12758.075195,7516.104980C-12756.351563,7516.865723,-12751.247070,7519.460938,-12749.474609,7524.172852C-12748.304688,7527.283691,-12748.791016,7530.832520,-12750.919922,7534.721191C-12759.269531,7549.968262,-12760.375000,7555.165039,-12759.636719,7564.021973C-12759.284180,7568.243652,-12759.457031,7575.050781,-12760.097656,7582.230957C-12760.813477,7590.250488,-12762.024414,7597.882813,-12763.507813,7603.722168C-12764.921875,7609.291016,-12767.261719,7612.211426,-12769.738281,7615.303223C-12772.812500,7619.140625,-12775.991211,7623.108398,-12777.407227,7631.954590C-12778.669922,7639.848145,-12776.951172,7644.355469,-12775.289063,7648.713867C-12773.549805,7653.275879,-12771.907227,7657.584473,-12773.488281,7666.063477C-12775.025391,7674.303711,-12778.029297,7678.168945,-12781.208984,7682.260742C-12784.564453,7686.577637,-12788.034180,7691.041992,-12790.194336,7700.507324C-12792.518555,7710.696289,-12791.640625,7716.188477,-12790.710938,7722.002441C-12789.960938,7726.695313,-12789.185547,7731.547363,-12790.218750,7739.416504C-12791.351563,7748.045410,-12793.281250,7752.007324,-12795.146484,7755.838867C-12797.042969,7759.731445,-12798.833008,7763.408203,-12799.474609,7771.144531C-12800.140625,7779.186523,-12798.651367,7783.038086,-12797.210938,7786.762695C-12795.925781,7790.085938,-12794.711914,7793.225586,-12795.206055,7799.608887C-12796.250000,7813.089355,-12800.488281,7828.342773,-12800.531250,7828.495117L-12800.671875,7828.997070L-12800.470703,7829.477539C-12800.441406,7829.549316,-12797.445313,7836.753418,-12795.310547,7844.541016C-12794.071289,7849.058594,-12793.363281,7852.875488,-12793.204102,7855.884766C-12793.026367,7859.239746,-12793.538086,7861.529297,-12794.683594,7862.505859C-12798.364258,7865.642090,-12802.971680,7867.300293,-12808.008789,7867.300293Z" fill="rgb(189,229,46)" stroke="none" stroke-width="1"/><path id="spongebob-loading-path2" d="M-12808.008789,7865.800293C-12805.636719,7865.800293,-12803.368164,7865.410645,-12801.263672,7864.642090C-12799.219727,7863.895996,-12797.333008,7862.792969,-12795.657227,7861.364258C-12795.083984,7860.875977,-12794.532227,7859.203125,-12794.701172,7855.974121C-12794.853516,7853.076172,-12795.542969,7849.371094,-12796.750000,7844.962402C-12798.857422,7837.265625,-12801.825195,7830.126953,-12801.855469,7830.056152L-12802.256836,7829.094238L-12801.975586,7828.090820C-12801.933594,7827.939453,-12797.734375,7812.828125,-12796.702148,7799.493164C-12796.234375,7793.449219,-12797.334961,7790.601074,-12798.610352,7787.303711C-12800.041992,7783.601563,-12801.664063,7779.406250,-12800.969727,7771.020996C-12800.304688,7763.003906,-12798.368164,7759.027344,-12796.495117,7755.182129C-12794.681641,7751.458496,-12792.806641,7747.608398,-12791.706055,7739.221191C-12790.701172,7731.568359,-12791.425781,7727.037109,-12792.192383,7722.239258C-12793.103516,7716.540039,-12794.045898,7710.646484,-12791.656250,7700.173340C-12789.422852,7690.383789,-12785.688477,7685.579102,-12782.393555,7681.340332C-12779.195313,7677.225098,-12776.432617,7673.670898,-12774.962891,7665.788086C-12774.283203,7662.145020,-12774.175781,7658.982910,-12774.633789,7656.122070C-12775.041016,7653.574707,-12775.842773,7651.473145,-12776.691406,7649.248535C-12778.342773,7644.916992,-12780.214844,7640.007813,-12778.887695,7631.717285C-12777.410156,7622.479980,-12773.956055,7618.168945,-12770.909180,7614.365234C-12768.433594,7611.275391,-12766.295898,7608.606934,-12764.960938,7603.353027C-12763.498047,7597.588867,-12762.300781,7590.040039,-12761.591797,7582.097656C-12760.958008,7574.998047,-12760.786133,7568.287598,-12761.130859,7564.146973C-12761.898438,7554.947266,-12760.771484,7549.588867,-12752.235352,7534.000488C-12751.186523,7532.084473,-12750.569336,7530.264648,-12750.399414,7528.591309C-12750.259766,7527.209961,-12750.414063,7525.941895,-12750.874023,7524.714355C-12752.270508,7520.982422,-12756.139648,7518.700195,-12758.060547,7517.764648C-12759.473633,7518.436523,-12761.932617,7519.528320,-12765.091797,7520.619141C-12771.801758,7522.936035,-12778.247070,7524.110840,-12784.247070,7524.110840C-12785.894531,7524.110840,-12787.519531,7524.019043,-12789.078125,7523.837891C-12797.464844,7522.862793,-12801.959961,7519.330078,-12805.925781,7516.213379C-12809.695313,7513.250488,-12812.952148,7510.691406,-12819.483398,7510.337402C-12819.934570,7510.312988,-12820.380859,7510.300781,-12820.809570,7510.300781C-12826.445313,7510.300781,-12829.435547,7512.403809,-12832.898438,7514.838867C-12836.775391,7517.565918,-12841.170898,7520.656738,-12849.199219,7520.656738C-12857.546875,7520.656738,-12861.571289,7517.703125,-12865.122070,7515.097168C-12868.349609,7512.728027,-12871.137695,7510.682129,-12877.462891,7510.337402C-12878.059570,7510.304688,-12878.646484,7510.288086,-12879.207031,7510.288086C-12884.538086,7510.288086,-12887.415039,7511.743164,-12890.745117,7513.427734C-12894.500000,7515.327148,-12898.755859,7517.479980,-12906.484375,7517.479980C-12906.975586,7517.479980,-12907.482422,7517.471191,-12907.991211,7517.453613C-12916.605469,7517.161621,-12921.158203,7514.812012,-12925.561523,7512.540039C-12929.519531,7510.497070,-12933.258789,7508.567383,-12940.410156,7508.203613C-12941.081055,7508.169434,-12941.734375,7508.152344,-12942.352539,7508.152344C-12947.792969,7508.152344,-12950.329102,7509.436035,-12953.264648,7510.922852C-12956.485352,7512.553711,-12960.134766,7514.401855,-12967.252930,7514.401855C-12968.450195,7514.401855,-12969.737305,7514.349121,-12971.079102,7514.245605C-12979.934570,7513.560547,-12985.659180,7510.648438,-12990.709961,7508.078613C-12993.418945,7506.701172,-12995.976563,7505.399414,-12998.916016,7504.438965C-13002.186523,7503.370117,-13005.474609,7502.872070,-13009.263672,7502.872070C-13013.105469,7502.872070,-13016.420898,7503.481934,-13019.398438,7504.736328C-13022.050781,7505.853027,-13024.204102,7507.372559,-13026.287109,7508.841797C-13030.058594,7511.502930,-13033.958984,7514.254395,-13040.208984,7514.254395C-13045.101563,7514.254395,-13051.208984,7512.709961,-13057.116211,7511.216309C-13062.603516,7509.828613,-13068.277344,7508.393555,-13072.323242,7508.393555C-13074.357422,7508.393555,-13075.802734,7508.763672,-13076.502930,7509.463379C-13077.057617,7510.018555,-13077.650391,7511.469238,-13077.318359,7515.228516C-13077.012695,7518.686035,-13076.009766,7523.128418,-13074.946289,7527.831543C-13073.045898,7536.245605,-13070.891602,7545.782227,-13071.359375,7554.804688C-13071.927734,7565.744629,-13075.344727,7569.599121,-13078.359375,7573C-13079.603516,7574.403809,-13080.678711,7575.616211,-13081.554688,7577.326660C-13082.551758,7579.274414,-13083.175781,7581.720703,-13083.461914,7584.805176C-13083.773438,7588.160645,-13083.627930,7591.033203,-13083.001953,7593.846680C-13082.444336,7596.354004,-13081.574219,7598.501465,-13080.652344,7600.774902C-13078.724609,7605.531738,-13076.540039,7610.923340,-13077.416016,7620.029297C-13078.288086,7629.088867,-13081.518555,7633.346680,-13084.368164,7637.103027C-13087.077148,7640.674316,-13089.416016,7643.758301,-13089.857422,7651.220215C-13090.303711,7658.765625,-13088.404297,7662.497559,-13086.205078,7666.819336C-13083.913086,7671.323242,-13081.315430,7676.427734,-13081.315430,7685.901367C-13081.315430,7695.526855,-13083.775391,7700.918457,-13085.945313,7705.675293C-13086.975586,7707.932129,-13087.948242,7710.063965,-13088.666992,7712.589355C-13089.475586,7715.427246,-13089.852539,7718.362305,-13089.852539,7721.826660C-13089.852539,7725.438477,-13089.456055,7728.453613,-13088.638672,7731.043945C-13087.916992,7733.335449,-13086.937500,7735.121582,-13085.901367,7737.012695C-13083.905273,7740.653320,-13081.643555,7744.779785,-13081.318359,7752.648438C-13080.977539,7760.879395,-13082.979492,7765.091797,-13084.746094,7768.808594C-13086.388672,7772.264160,-13087.807617,7775.248535,-13087.369141,7781.737305C-13087.094727,7785.809082,-13086.332031,7789.558594,-13085.039063,7793.199219C-13083.892578,7796.429199,-13082.489258,7799.156738,-13081.132813,7801.794434C-13079.745117,7804.492188,-13078.434570,7807.040039,-13077.543945,7809.841309C-13075.814453,7815.273926,-13076.871094,7820.308594,-13077.892578,7825.177246C-13078.526367,7828.197266,-13079.181641,7831.320313,-13079.181641,7834.583008C-13079.181641,7838.017090,-13078.356445,7840.968262,-13076.729492,7843.354980C-13075.436523,7845.251465,-13073.610352,7846.843750,-13071.302734,7848.087402C-13071.216797,7848.133301,-13070.379883,7848.543945,-13067.220703,7848.832031C-13065.021484,7849.032227,-13062.143555,7849.133789,-13058.666016,7849.133789C-13048.307617,7849.133789,-13035.384766,7848.258789,-13028.603516,7847.737305C-13026.715820,7847.592285,-13024.697266,7847.521484,-13022.431641,7847.521484C-13015.784180,7847.521484,-13008.251953,7848.154785,-13000.966797,7848.767090C-12993.805664,7849.369141,-12986.400391,7849.991211,-12980.005859,7849.991211C-12979.444336,7849.991211,-12978.888672,7849.986328,-12978.355469,7849.977051C-12978.066406,7849.971680,-12977.780273,7849.969238,-12977.480469,7849.969238C-12971.083008,7849.969238,-12962.838867,7851.141113,-12954.110352,7852.381836C-12944.858398,7853.696777,-12935.291016,7855.056641,-12927.533203,7855.056152C-12924.491211,7855.056152,-12921.888672,7854.840332,-12919.799805,7854.415039C-12917.709961,7853.989258,-12915.169922,7853.773438,-12912.251953,7853.773438C-12895.006836,7853.773438,-12867.734375,7861.176270,-12863.701172,7862.751953C-12863.615234,7862.769531,-12863.287109,7862.823730,-12862.517578,7862.823730C-12860.409180,7862.823730,-12856.952148,7862.438477,-12852.950195,7861.992676C-12847.285156,7861.361816,-12840.234375,7860.576172,-12833.916992,7860.576172C-12827.750000,7860.576172,-12823.184570,7861.320801,-12819.959961,7862.852539C-12815.840820,7864.808594,-12811.820313,7865.800781,-12808.008789,7865.800293M-12808.008789,7868.800293C-12812.119141,7868.800781,-12816.583008,7867.777832,-12821.247070,7865.562500C-12824.369141,7864.080078,-12828.916992,7863.576172,-12833.916992,7863.576172C-12844.483398,7863.576172,-12857.072266,7865.823730,-12862.517578,7865.823730C-12863.528320,7865.823730,-12864.292969,7865.746094,-12864.751953,7865.562500C-12868.305664,7864.141113,-12895.441406,7856.772949,-12912.251953,7856.772949C-12914.859375,7856.772949,-12917.216797,7856.950195,-12919.201172,7857.354492C-12921.633789,7857.850098,-12924.454102,7858.056152,-12927.533203,7858.056152C-12942.827148,7858.057129,-12964.563477,7852.969238,-12977.480469,7852.969238C-12977.758789,7852.969238,-12978.031250,7852.971680,-12978.301758,7852.976563C-12978.863281,7852.986328,-12979.431641,7852.991211,-12980.005859,7852.991211C-12993.046875,7852.991699,-13009.389648,7850.521484,-13022.431641,7850.521484C-13024.505859,7850.521484,-13026.493164,7850.583984,-13028.373047,7850.728516C-13036.756836,7851.373047,-13049.036133,7852.133789,-13058.666016,7852.133789C-13065.378906,7852.133789,-13070.803711,7851.764160,-13072.725586,7850.728516C-13077.404297,7848.207031,-13082.181641,7843.475586,-13082.181641,7834.583008C-13082.181641,7825.690430,-13077.912109,7818.576172,-13080.402344,7810.750977C-13082.892578,7802.925781,-13089.383789,7796.434082,-13090.362305,7781.939453C-13091.340820,7767.444824,-13083.693359,7767.800781,-13084.315430,7752.772461C-13084.937500,7737.744141,-13092.852539,7738.544434,-13092.852539,7721.826660C-13092.852539,7705.108887,-13084.315430,7703.597168,-13084.315430,7685.901367C-13084.315430,7668.205566,-13093.831055,7667.583008,-13092.852539,7651.042969C-13091.874023,7634.502930,-13082.002930,7636.370605,-13080.402344,7619.741699C-13078.801758,7603.112793,-13087.960938,7600.800781,-13086.449219,7584.527832C-13084.937500,7568.254883,-13075.333984,7573.501465,-13074.355469,7554.649414C-13073.376953,7535.797363,-13084.670898,7513.388184,-13078.624023,7507.341797C-13077.215820,7505.934082,-13075.016602,7505.393555,-13072.323242,7505.393555C-13063.451172,7505.393555,-13049.213867,7511.254395,-13040.208984,7511.254395C-13028.470703,7511.254395,-13026.603516,7499.872070,-13009.263672,7499.872070C-12991.923828,7499.872070,-12988.099609,7509.920410,-12970.847656,7511.254395C-12969.542969,7511.355469,-12968.348633,7511.401855,-12967.252930,7511.401855C-12954.532227,7511.401855,-12954.747070,7505.152344,-12942.352539,7505.152344C-12941.691406,7505.152344,-12940.994141,7505.169922,-12940.257813,7505.207520C-12924.518555,7506.007813,-12923.628906,7513.921875,-12907.889648,7514.455566C-12907.407227,7514.471680,-12906.938477,7514.479980,-12906.484375,7514.479980C-12892.796875,7514.479980,-12891.607422,7507.288086,-12879.207031,7507.288086C-12878.598633,7507.288086,-12877.964844,7507.305664,-12877.299805,7507.341797C-12862.626953,7508.142090,-12863.693359,7517.656738,-12849.199219,7517.656738C-12835.208984,7517.656738,-12834.140625,7507.300781,-12820.809570,7507.300781C-12820.329102,7507.300781,-12819.834961,7507.313965,-12819.321289,7507.341797C-12804.560547,7508.142090,-12804.026367,7519.079590,-12788.731445,7520.857910C-12787.232422,7521.032227,-12785.732422,7521.110840,-12784.247070,7521.110840C-12770.583984,7521.110840,-12758.141602,7514.455566,-12758.141602,7514.455566C-12758.141602,7514.455566,-12741.423828,7520.501953,-12749.604492,7535.441406C-12757.785156,7550.380859,-12758.853516,7555.360840,-12758.141602,7563.897461C-12757.429688,7572.434082,-12758.782227,7591.208008,-12762.053711,7604.091309C-12765.325195,7616.974609,-12773.435547,7616.629883,-12775.925781,7632.191406C-12778.416016,7647.752930,-12768.812500,7649.175781,-12772.013672,7666.338379C-12775.214844,7683.500977,-12784.551758,7682.522461,-12788.731445,7700.840820C-12792.911133,7719.159180,-12786.419922,7722.004883,-12788.731445,7739.611816C-12791.042969,7757.218750,-12796.734375,7756.240234,-12797.979492,7771.268555C-12799.224609,7786.296875,-12792.643555,7785.941406,-12793.710938,7799.724609C-12794.778320,7813.507813,-12799.086914,7828.899414,-12799.086914,7828.899414C-12799.086914,7828.899414,-12786.968750,7857.901855,-12793.710938,7863.647461C-12797.580078,7866.944824,-12802.473633,7868.799805,-12808.008789,7868.800293Z" fill="rgb(115,122,0)" stroke="none" stroke-width="1"/></g><path id="spongebob-loading-path-994" d="M-12778.506000,7860.439000C-12778.506000,7860.439000,-12804.784000,7848.981000,-12805.033000,7842.131000C-12805.282000,7835.281000,-12789.341000,7801.656000,-12772.901000,7795.431000C-12756.461000,7789.206000,-12753.846000,7800.412000,-12753.348000,7805.394000C-12752.850000,7810.376000,-12752.974000,7842.382000,-12761.568000,7852.968000C-12770.162000,7863.554000,-12778.506000,7860.439000,-12778.506000,7860.439000Z" transform="matrix(1 0 0 1 13998 -7155)" fill="rgb(216,249,255)" stroke="rgb(216,249,255)" stroke-width="1"/><path id="spongebob-loading-path-1002" d="M-12879.615000,7966.571000C-12879.615000,7966.571000,-12870.143000,7975.831000,-12861.935000,7974.148000C-12853.727000,7972.465000,-12846.571000,7964.888000,-12846.571000,7947.629000C-12846.571000,7930.370000,-12846.571000,7919.636000,-12856.671000,7921.951000C-12866.771000,7924.266000,-12855.408000,7929.951000,-12872.246000,7937.736000C-12889.084000,7945.521000,-12895.397000,7943.836000,-12895.397000,7943.836000Z" transform="matrix(1 0 0 1 13998 -7155)" fill="rgb(0,180,216)" stroke="rgb(0,0,0)" stroke-width="2"/><path id="spongebob-loading-path-995" d="M-12782.641000,7842.637000C-12778.041000,7843.978000,-12772.007000,7851.642000,-12772.007000,7851.642000C-12772.007000,7851.642000,-12774.498000,7843.882000,-12781.107000,7841.200000C-12787.716000,7838.518000,-12796.722000,7839.954000,-12796.722000,7839.954000Z" transform="matrix(1 0 0 1 13998 -7155)" fill="rgb(0,0,0)" stroke="rgb(0,0,0)" stroke-width="1"/><path id="spongebob-loading-path-1005" d="M-12901.938000,7946.454000C-12901.938000,7946.454000,-12906.309000,7946.292000,-12912.461000,7950.178000C-12918.613000,7954.064000,-12915.375000,7960.378000,-12922.822000,7958.597000C-12930.269000,7956.816000,-12930.917000,7949.368000,-12939.498000,7950.178000C-12948.079000,7950.988000,-12963.298000,7960.216000,-12959.736000,7973.654000C-12956.174000,7987.092000,-12946.298000,7997.292000,-12932.860000,7995.997000C-12919.422000,7994.702000,-12903.881000,7982.074000,-12901.937000,7983.854000C-12899.993000,7985.634000,-12901.126000,7989.197000,-12899.994000,7988.711000C-12898.862000,7988.225000,-12879.431000,7983.211000,-12878.461000,7981.102000C-12877.491000,7978.993000,-12878.461000,7973.654000,-12878.461000,7973.654000C-12878.461000,7973.654000,-12873.761000,7972.360000,-12873.442000,7964.102000C-12873.123000,7955.844000,-12878.299000,7947.426000,-12884.942000,7946.455000C-12891.585000,7945.484000,-12901.938000,7946.454000,-12901.938000,7946.454000Z" transform="matrix(1 0 0 1 13998 -7155)" fill="rgb(0,0,0)" stroke="rgb(0,0,0)" stroke-width="1"/><path id="spongebob-loading-path-1003" d="M-12862.777000,7930.159000C-12862.777000,7930.159000,-12866.987000,7869.122000,-12876.669000,7851.021000C-12886.351000,7832.920000,-12896.874000,7844.496000,-12900.031000,7851.021000C-12903.188000,7857.546000,-12902.977000,7936.473000,-12902.977000,7936.473000L-12886.398000,7936.473000C-12886.398000,7936.473000,-12886.139000,7868.911000,-12884.035000,7868.911000C-12881.931000,7868.911000,-12882.562000,7894.589000,-12882.562000,7894.589000C-12882.562000,7894.589000,-12883.826000,7939.840000,-12882.562000,7939.840000C-12879.048549,7939.218060,-12875.645542,7938.083275,-12872.462000,7936.472000C-12869.031062,7934.696176,-12865.786547,7932.581295,-12862.777000,7930.159000Z" transform="matrix(1 0 0 1 13998 -7155)" fill="rgb(189,229,46)" stroke="rgb(0,0,0)" stroke-width="2"/><path id="spongebob-loading-path-1004" d="M-12902.980000,7940.261000C-12902.980000,7940.261000,-12903.398000,7950.678000,-12901.865000,7951.161000C-12901.221000,7951.361000,-12900.317000,7952.488000,-12895.306000,7952.561000C-12890.295000,7952.634000,-12888.141000,7951.938000,-12887.863000,7951.161000C-12887.384000,7949.820000,-12887.263000,7939.404000,-12887.263000,7939.404000L-12902.983000,7939.021000Z" transform="matrix(1 0 0 1 13998 -7155)" fill="rgb(216,249,255)" stroke="rgb(216,249,255)" stroke-width="2"/><path id="spongebob-loading-path-993" d="M-12789.315000,7841.545000C-12789.315000,7841.545000,-12800.469000,7884.061000,-12812.887000,7892.690000C-12819.431000,7897.238000,-12831.380000,7903.156000,-12842.354000,7906.581000C-12848.251589,7908.379587,-12854.315654,7909.578329,-12860.454000,7910.159000C-12866.592346,7910.739671,-12871.609000,7890.795000,-12880.659000,7890.374000C-12889.709000,7889.953000,-12886.342000,7890.374000,-12886.342000,7890.374000C-12886.342000,7890.374000,-12897.917000,7875.220000,-12902.548000,7875.641000C-12907.179000,7876.062000,-12914.335000,7881.323000,-12911.599000,7887.217000C-12908.863000,7893.111000,-12901.075000,7898.583000,-12899.391000,7899.635000C-12897.707000,7900.687000,-12909.684000,7892.363000,-12916.322000,7891.716000C-12922.960000,7891.069000,-12925.378000,7901.175000,-12922.799000,7904.344000C-12920.220000,7907.513000,-12911.799000,7913.344000,-12910.911000,7913.930000C-12910.023000,7914.516000,-12925.211000,7905.824000,-12927.270000,7907.445000C-12929.329000,7909.066000,-12932.501000,7914.667000,-12927.270000,7918.572000C-12922.039000,7922.477000,-12911.943000,7926.310000,-12911.943000,7926.310000C-12911.943000,7926.310000,-12922.259000,7922.110000,-12924.175000,7923.210000C-12926.091000,7924.310000,-12929.406000,7928.958000,-12921.669000,7933.896000C-12913.932000,7938.834000,-12907.004000,7941.413000,-12893.519000,7941.339000C-12880.034000,7941.265000,-12869.569000,7933.602000,-12864.853000,7928.439000C-12860.137000,7923.276000,-12860.948000,7923.354000,-12860.948000,7923.354000C-12860.948000,7923.354000,-12820.315000,7911.944000,-12808.820000,7905.630000C-12797.325000,7899.316000,-12786.154000,7875.840000,-12782.754000,7866.130000C-12779.354000,7856.420000,-12776.440000,7847.511000,-12776.440000,7847.511000C-12777.760206,7845.590026,-12779.541691,7844.031356,-12781.621000,7842.978000C-12784.073213,7842.022429,-12786.683196,7841.536323,-12789.315000,7841.545000Z" transform="matrix(1 0 0 1 13998 -7155)" fill="rgb(189,229,46)" stroke="rgb(0,0,0)" stroke-width="2"/><g id="spongebob-loading-ellipse-71" transform="matrix(1 0 0 1 1048 804)"><ellipse id="spongebob-loading-ellipse1" rx="11.500000" ry="9.500000" transform="matrix(1 0 0 1 11.50000000000000 9.50000000000000)" fill="rgb(216,249,255)" stroke="none" stroke-width="1"/><ellipse id="spongebob-loading-ellipse2" rx="11" ry="9" transform="matrix(1 0 0 1 11.50000000000000 9.50000000000000)" fill="none" stroke="rgb(216,249,255)" stroke-width="1"/></g><path id="spongebob-loading-path-1006" d="M-12996.236000,7926.593000C-12996.236000,7926.593000,-12979.399000,7920.069000,-12979.188000,7916.911000C-12978.977000,7913.753000,-12981.502000,7906.177000,-12981.502000,7906.177000C-12978.397328,7905.556336,-12975.227898,7906.890666,-12973.502000,7909.545000C-12970.134000,7914.175000,-12965.502000,7936.274000,-12970.766000,7952.481000C-12976.030000,7968.688000,-12992.866000,7965.109000,-13001.705000,7956.481000C-13010.544000,7947.853000,-13018.122000,7929.541000,-13018.122000,7929.541000Z" transform="matrix(1 0 0 1 13998 -7155)" fill="rgb(0,180,216)" stroke="rgb(0,0,0)" stroke-width="2"/><path id="spongebob-loading-path-1007" d="M-12995.184000,7925.330000C-12995.184000,7925.330000,-12980.871000,7919.230000,-12979.820000,7917.542000C-12978.769000,7915.854000,-12996.868000,7839.036000,-13003.182000,7836.089000C-13009.496000,7833.142000,-13025.071000,7835.458000,-13026.123000,7843.245000C-13027.175000,7851.032000,-13029.912000,7884.077000,-13028.649000,7888.076000C-13027.386000,7892.075000,-13014.127000,7906.176000,-13014.127000,7906.176000L-13008.027000,7880.076000L-13005.713000,7872.499000C-13005.713000,7872.499000,-13008.448000,7858.608000,-13006.765000,7860.499000C-13005.082000,7862.390000,-13001.504000,7891.228000,-13000.031000,7898.384000C-12998.558000,7905.540000,-12995.184000,7925.330000,-12995.184000,7925.330000Z" transform="matrix(1 0 0 1 13998 -7155)" fill="rgb(189,229,46)" stroke="rgb(0,0,0)" stroke-width="2"/><path id="spongebob-loading-path-1009" d="M-13023.729000,7935.664000C-13027.353633,7936.241387,-13030.753914,7937.790677,-13033.568000,7940.147000C-13037.678000,7943.883000,-13041.041000,7948.118000,-13044.030000,7948.491000C-13047.019000,7948.864000,-13058.601000,7940.271000,-13066.447000,7941.641000C-13074.293000,7943.011000,-13087.993000,7954.095000,-13083.384000,7964.806000C-13078.775000,7975.517000,-13070.930000,7985.728000,-13052.622000,7980.871000C-13034.314000,7976.014000,-13029.707000,7974.146000,-13029.707000,7974.146000C-13029.707000,7974.146000,-13025.970000,7980.623000,-13023.728000,7979.377000C-13021.486000,7978.131000,-12999.942000,7969.289000,-13000.440000,7967.047000C-13000.938000,7964.805000,-13002.058000,7961.069000,-13001.560000,7960.322000C-13001.062000,7959.575000,-12996.081000,7954.468000,-12998.572000,7947.122000C-13001.063000,7939.776000,-13010.155000,7935.540000,-13013.641000,7935.664000C-13017.127000,7935.788000,-13023.729000,7935.664000,-13023.729000,7935.664000Z" transform="matrix(1 0 0 1 13998 -7155)" fill="rgb(0,0,0)" stroke="rgb(0,0,0)" stroke-width="1"/><g id="spongebob-loading-ellipse-72" transform="matrix(1 0 0 1 924 793)"><ellipse id="spongebob-loading-ellipse3" rx="11" ry="8.500000" transform="matrix(1 0 0 1 11 8.50000000000000)" fill="rgb(216,249,255)" stroke="none" stroke-width="1"/><ellipse id="spongebob-loading-ellipse4" rx="10.500000" ry="8" transform="matrix(1 0 0 1 11 8.50000000000000)" fill="none" stroke="rgb(216,249,255)" stroke-width="1"/></g><path id="spongebob-loading-path-1008" d="M-13025.971000,7932.800000C-13025.971000,7932.800000,-13026.345000,7941.144000,-13025.224000,7941.767000C-13023.403776,7942.654292,-13021.393767,7943.081770,-13019.370000,7943.012000C-13016.630000,7943.012000,-13011.648000,7942.012000,-13011.648000,7941.268000L-13011.648000,7932.177000Z" transform="matrix(1 0 0 1 13998 -7155)" fill="rgb(216,249,255)" stroke="rgb(0,0,0)" stroke-width="2"/><path id="spongebob-loading-path-997" d="M-13095.553000,7820.710000C-13095.553000,7820.710000,-13100.184000,7876.910000,-13097.448000,7881.747000C-13094.712000,7886.584000,-13083.767000,7895.428000,-13074.086000,7900.900000C-13064.405000,7906.372000,-13054.086000,7913.318000,-13054.086000,7913.318000C-13054.086000,7913.318000,-13045.667000,7925.946000,-13039.564000,7929.524000C-13033.461000,7933.102000,-13024.840000,7935.163000,-13016.621000,7934.789000C-13008.402000,7934.415000,-13000.181000,7933.668000,-12996.694000,7931.053000C-12993.207000,7928.438000,-12991.838000,7922.958000,-12994.204000,7921.837000C-12996.570000,7920.716000,-13003.420000,7922.837000,-13003.420000,7922.837000C-13003.420000,7922.837000,-12988.720000,7916.237000,-12988.974000,7912.625000C-12989.228000,7909.013000,-12988.102000,7904.406000,-12994.204000,7905.525000C-13000.306000,7906.644000,-13001.552000,7908.390000,-13001.552000,7908.390000C-13001.552000,7908.390000,-12990.468000,7901.290000,-12993.581000,7895.313000C-12996.694000,7889.336000,-13002.547000,7888.961000,-13008.027000,7891.328000C-13013.507000,7893.695000,-13015.500000,7894.566000,-13015.500000,7894.566000C-13015.500000,7894.566000,-13000.930000,7887.592000,-12999.435000,7882.366000C-12997.940000,7877.140000,-12998.813000,7869.289000,-13003.420000,7868.666000C-13008.027000,7868.043000,-13016.745000,7879.251000,-13020.980000,7879.625000C-13025.215000,7879.999000,-13041.031000,7877.533000,-13044.767000,7881.755000C-13048.503000,7885.977000,-13047.881000,7900.908000,-13047.881000,7900.908000C-13047.881000,7900.908000,-13062.451000,7893.450000,-13071.169000,7886.475000C-13079.887000,7879.500000,-13084.620000,7878.629000,-13084.495000,7874.145000C-13084.370000,7869.661000,-13081.880000,7820.219000,-13082.378000,7820.095000C-13084.727662,7819.426789,-13087.159175,7819.090201,-13089.602000,7819.095000C-13091.675215,7819.220839,-13093.700600,7819.770494,-13095.553000,7820.710000Z" transform="matrix(1 0 0 1 13998 -7155)" fill="rgb(189,229,46)" stroke="rgb(0,0,0)" stroke-width="2"/><path id="spongebob-loading-path-1016" d="M-12965.154000,8036.289000C-12965.154000,8036.289000,-12975.006000,7996.342000,-12986.770000,7994.153000C-12998.534000,7991.964000,-13019.876000,8042.582000,-13019.876000,8042.582000C-13019.876000,8042.582000,-13017.687000,8040.393000,-13021.518000,8040.393000C-13025.349000,8040.393000,-13048.880000,8040.120000,-13051.069000,8043.677000C-13053.258000,8047.234000,-13049.427000,8055.169000,-13049.427000,8055.169000C-13049.427000,8055.169000,-13060.919000,8060.369000,-13058.727000,8065.293000C-13056.535000,8070.217000,-13031.639000,8070.493000,-13031.639000,8070.493000C-13031.639000,8070.493000,-13019.601000,8099.222000,-13017.411000,8097.854000C-13015.221000,8096.486000,-12998.258000,8076.238000,-12993.333000,8078.154000C-12988.408000,8080.070000,-12972.812000,8101.137000,-12965.150000,8099.769000C-12957.488000,8098.401000,-12958.585000,8072.956000,-12954.750000,8071.861000C-12950.915000,8070.766000,-12933.955000,8069.672000,-12932.587000,8065.294000C-12931.219000,8060.916000,-12940.795000,8055.170000,-12940.795000,8055.170000C-12940.795000,8055.170000,-12924.106000,8045.594000,-12930.672000,8043.678000C-12937.238000,8041.762000,-12964.146000,8037.004000,-12964.419000,8038.646000C-12964.692000,8040.288000,-12961.863000,8046.141000,-12961.863000,8046.141000Z" transform="matrix(1 0 0 1 13998 -7155)" fill="rgb(181,243,255)" stroke="rgb(0,180,216)" stroke-width="1"/><g id="spongebob-loading-path-1017" transform="matrix(1 0 0 1 13998 -7155)"><path id="spongebob-loading-path3" d="M-12980.120117,8045.847656C-12980.678711,8041.934570,-12981.351563,8037.169434,-12981.813477,8033.888184C-12980.909180,8036.186523,-12980.120117,8038.428711,-12980.120117,8039.142578L-12980.120117,8045.847656Z" fill="rgb(0,180,216)" stroke="none" stroke-width="1"/><path id="spongebob-loading-path4" d="M-12982.858398,8030.051270C-12982.858398,8030.051270,-12979.620117,8037.523438,-12979.620117,8039.142578C-12979.620117,8040.309082,-12979.620117,8048.325195,-12979.620117,8052.717285C-12979.869141,8051.347168,-12982.858398,8030.051270,-12982.858398,8030.051270ZM-12979.620117,8052.717285C-12979.371094,8054.087402,-12979.620117,8055.581543,-12979.620117,8055.581543C-12979.620117,8055.581543,-12979.620117,8054.422363,-12979.620117,8052.717285Z" fill="rgb(0,180,216)" stroke="none" stroke-width="1"/></g><g id="spongebob-loading-path-1018" transform="matrix(1 0 0 1 13982 -7166.32999999999993)"><path id="spongebob-loading-path5" d="M-12982.224609,8050.612305L-12982.224609,8041.041504C-12982.224609,8040.032715,-12980.994141,8036.705566,-12979.851563,8033.854492C-12980.462891,8038.199219,-12981.467773,8045.327148,-12982.224609,8050.612305Z" fill="rgb(0,180,216)" stroke="none" stroke-width="1"/><path id="spongebob-loading-path6" d="M-12980.975586,8038.253906C-12981.655273,8040.236328,-12981.724609,8040.868164,-12981.724609,8041.041504L-12981.724609,8043.549316C-12981.468750,8041.739746,-12981.212891,8039.933594,-12980.975586,8038.253906M-12978.811523,8030.051270C-12978.811523,8030.051270,-12982.423828,8055.795410,-12982.724609,8057.452637C-12982.724609,8052.143066,-12982.724609,8042.452148,-12982.724609,8041.041504C-12982.724609,8039.084473,-12978.811523,8030.051270,-12978.811523,8030.051270ZM-12982.724609,8057.452637C-12982.724609,8059.513184,-12982.724609,8060.914551,-12982.724609,8060.914551C-12982.724609,8060.914551,-12983.025391,8059.108887,-12982.724609,8057.452637Z" fill="rgb(0,180,216)" stroke="none" stroke-width="1"/></g><g id="spongebob-loading-path-1019" transform="matrix(0.97029600000000 0.24192200000000 -0.24192200000000 0.97029600000000 15534 -3783.09999999999991)"><path id="spongebob-loading-path7" d="M-12982.242188,8045.075684L-12982.242188,8038.509766C-12982.242188,8037.846680,-12981.356445,8035.652344,-12980.380859,8033.473145C-12980.883789,8036.624023,-12981.634766,8041.322266,-12982.242188,8045.075684Z" fill="rgb(0,180,216)" stroke="none" stroke-width="1"/><path id="spongebob-loading-path8" d="M-12981.577148,8037.794922C-12981.732422,8038.302734,-12981.742188,8038.476074,-12981.742188,8038.509766L-12981.742188,8038.824219C-12981.687500,8038.480957,-12981.631836,8038.137695,-12981.577148,8037.794922M-12979.329102,8030.051758C-12979.329102,8030.051758,-12982.479492,8049.865234,-12982.742188,8051.140625C-12982.742188,8047.054199,-12982.742188,8039.595215,-12982.742188,8038.509766C-12982.742188,8037.003906,-12979.329102,8030.051758,-12979.329102,8030.051758ZM-12982.742188,8051.140625C-12982.742188,8052.726563,-12982.742188,8053.804688,-12982.742188,8053.804688C-12982.742188,8053.804688,-12983.003906,8052.415039,-12982.742188,8051.140625Z" fill="rgb(0,180,216)" stroke="none" stroke-width="1"/></g><path id="spongebob-loading-path-1020" d="M-13206.753000,8020.966000C-13211.404000,8020.145000,-13232.199000,8015.766000,-13226.453000,8002.087000C-13220.707000,7988.408000,-13194.441000,7999.078000,-13179.666000,7996.615000C-13164.891000,7994.152000,-13149.021000,7985.123000,-13145.190000,7985.944000C-13141.359000,7986.765000,-13135.890000,7994.973000,-13142.180000,8002.087000C-13148.470000,8009.201000,-13167.901000,8021.514000,-13178.297000,8023.429000C-13188.693000,8025.344000,-13202.100000,8021.787000,-13206.753000,8020.966000Z" transform="matrix(1 0 0 1 13998 -7155)" fill="rgb(254,234,25)" stroke="rgb(254,234,25)" stroke-width="1"/><g id="spongebob-loading-ellipse-73" transform="matrix(1 0 0 1 798 847)"><ellipse id="spongebob-loading-ellipse5" rx="3" ry="2.500000" transform="matrix(1 0 0 1 3 2.50000000000000)" fill="rgb(217,196,0)" stroke="none" stroke-width="1"/><ellipse id="spongebob-loading-ellipse6" rx="2.500000" ry="2" transform="matrix(1 0 0 1 3 2.50000000000000)" fill="none" stroke="rgb(217,196,0)" stroke-width="1"/></g><g id="spongebob-loading-ellipse-74" transform="matrix(1 0 0 1 790 850)"><ellipse id="spongebob-loading-ellipse7" rx="3" ry="2.500000" transform="matrix(1 0 0 1 3 2.50000000000000)" fill="rgb(217,196,0)" stroke="none" stroke-width="1"/><ellipse id="spongebob-loading-ellipse8" rx="2.500000" ry="2" transform="matrix(1 0 0 1 3 2.50000000000000)" fill="none" stroke="rgb(217,196,0)" stroke-width="1"/></g><g id="spongebob-loading-ellipse-75" transform="matrix(1 0 0 1 841 840)"><ellipse id="spongebob-loading-ellipse9" rx="3" ry="2.500000" transform="matrix(1 0 0 1 3 2.50000000000000)" fill="rgb(217,196,0)" stroke="none" stroke-width="1"/><ellipse id="spongebob-loading-ellipse10" rx="2.500000" ry="2" transform="matrix(1 0 0 1 3 2.50000000000000)" fill="none" stroke="rgb(217,196,0)" stroke-width="1"/></g><path id="spongebob-loading-path-1021" d="M-13273.536000,7975.077000C-13272.469000,7976.855000,-13256.819000,7982.902000,-13245.792000,7982.902000C-13234.765000,7982.902000,-13216.981000,7977.923000,-13216.625000,7975.077000C-13216.269000,7972.231000,-13215.557000,7958.004000,-13219.114000,7954.447000C-13222.671000,7950.890000,-13239.034000,7949.112000,-13245.792000,7949.112000C-13252.550000,7949.112000,-13273.181000,7956.225000,-13273.536000,7958.712000C-13273.891000,7961.199000,-13274.600000,7973.300000,-13273.536000,7975.077000Z" transform="matrix(1 0 0 1 13998 -7155)" fill="rgb(174,59,14)" stroke="rgb(91,18,1)" stroke-width="1"/><path id="spongebob-loading-path-1022" d="M-13272.951000,7959.600000C-13272.951000,7959.600000,-13258.009000,7965.493000,-13249.800000,7965.493000C-13241.591000,7965.493000,-13226.859000,7963.809000,-13223.280000,7961.704000C-13221.098108,7960.378462,-13219.400761,7958.385893,-13218.439000,7956.021000" transform="matrix(1 0 0 1 13998 -7155)" fill="none" stroke="rgb(91,18,1)" stroke-width="1"/><g id="spongebob-loading-ellipse-76" transform="matrix(1 0 0 1 763 800)"><ellipse id="spongebob-loading-ellipse11" rx="4" ry="3.500000" transform="matrix(1 0 0 1 4 3.50000000000000)" fill="rgb(91,18,1)" stroke="none" stroke-width="1"/><ellipse id="spongebob-loading-ellipse12" rx="3.500000" ry="3" transform="matrix(1 0 0 1 4 3.50000000000000)" fill="none" stroke="rgb(91,18,1)" stroke-width="1"/></g><path id="spongebob-loading-path-1023" d="M-12835.289000,7557.117000L-12828.889000,7548.580000" transform="matrix(1 0 0 1 13998 -7155)" fill="none" stroke="rgb(0,0,0)" stroke-width="4" stroke-linecap="round"/><path id="spongebob-loading-path-1024" d="M-12852.719000,7552.849000L-12852.719000,7535.775000" transform="matrix(1 0 0 1 13998 -7155)" fill="none" stroke="rgb(0,0,0)" stroke-width="4" stroke-linecap="round"/><path id="spongebob-loading-path-1025" d="M-12869.792000,7552.849000L-12875.483000,7539.688000" transform="matrix(1 0 0 1 13998 -7155)" fill="none" stroke="rgb(0,0,0)" stroke-width="4" stroke-linecap="round"/><g id="spongebob-loading-ellipse-77" transform="matrix(1 0 0 1 1101 391)"><ellipse id="spongebob-loading-ellipse13" rx="39" ry="38.500000" transform="matrix(1 0 0 1 39 38.50000000000000)" fill="rgb(255,255,255)" stroke="none" stroke-width="2"/><ellipse id="spongebob-loading-ellipse14" rx="38" ry="37.500000" transform="matrix(1 0 0 1 39 38.50000000000000)" fill="none" stroke="rgb(0,0,0)" stroke-width="2"/></g><g id="spongebob-loading-ellipse-78" transform="matrix(1 0 0 1 1123 410)"><circle id="spongebob-loading-circle1" r="17" transform="matrix(1 0 0 1 17 17)" fill="rgb(86,227,255)" stroke="none" stroke-width="2"/><circle id="spongebob-loading-circle2" r="16" transform="matrix(1 0 0 1 17 17)" fill="none" stroke="rgb(0,0,0)" stroke-width="2"/></g><g id="spongebob-loading-ellipse-79" transform="matrix(1 0 0 1 1133 421)"><ellipse id="spongebob-loading-ellipse15" rx="6.500000" ry="6" transform="matrix(1 0 0 1 6.50000000000000 6)" fill="rgb(0,0,0)" stroke="none" stroke-width="1"/><ellipse id="spongebob-loading-ellipse16" rx="6" ry="5.500000" transform="matrix(1 0 0 1 6.50000000000000 6)" fill="none" stroke="rgb(0,0,0)" stroke-width="1"/></g><path id="spongebob-loading-path-1026" d="M-12900.026000,7566.920000C-12900.026000,7566.920000,-12905.599000,7576.127000,-12905.599000,7585.539000C-12905.599000,7594.951000,-12900.026000,7602.646000,-12900.026000,7602.646000" transform="matrix(1 0 0 1 13998 -7155)" fill="none" stroke="rgb(0,0,0)" stroke-width="2" stroke-linecap="round"/><path id="spongebob-loading-path-1027" d="M-12880.506000,7626.338000C-12875.319183,7629.623798,-12869.546963,7631.877680,-12863.506000,7632.976000C-12854.399000,7634.352000,-12844.078000,7631.843000,-12844.078000,7631.843000" transform="matrix(1 0 0 1 13998 -7155)" fill="none" stroke="rgb(0,0,0)" stroke-width="2" stroke-linecap="round"/><g id="spongebob-loading-right-eye" transform="matrix(1 0 0 1 -23 38)"><path id="spongebob-loading-path-1028" d="M-12835.289000,7558.985000L-12826.914000,7548.585000" transform="matrix(0.94000000000000 -0.34200000000000 0.34200000000000 0.94000000000000 10517.29999999999927 -11137.10000000000036)" fill="none" stroke="rgb(0,0,0)" stroke-width="4" stroke-linecap="round"/><path id="spongebob-loading-path-1029" d="M-12852.719000,7552.849000L-12852.719000,7535.775000" transform="matrix(1 0 0 1 13877 -7199)" fill="none" stroke="rgb(0,0,0)" stroke-width="4" stroke-linecap="round"/><path id="spongebob-loading-path-1030" d="M-12869.792000,7552.849000L-12875.483000,7539.688000" transform="matrix(1 0 0 1 13876 -7199)" fill="none" stroke="rgb(0,0,0)" stroke-width="4" stroke-linecap="round"/><g id="spongebob-loading-ellipse-80" transform="matrix(1 0 0 1 980 345)"><ellipse id="spongebob-loading-ellipse17" rx="39" ry="38.500000" transform="matrix(1 0 0 1 39 38.50000000000000)" fill="rgb(255,255,255)" stroke="none" stroke-width="2"/><ellipse id="spongebob-loading-ellipse18" rx="38" ry="37.500000" transform="matrix(1 0 0 1 39 38.50000000000000)" fill="none" stroke="rgb(0,0,0)" stroke-width="2"/></g><g id="spongebob-loading-ellipse-81" transform="matrix(1 0 0 1 1002 364)"><circle id="spongebob-loading-circle3" r="17" transform="matrix(1 0 0 1 17 17)" fill="rgb(86,227,255)" stroke="none" stroke-width="2"/><circle id="spongebob-loading-circle4" r="16" transform="matrix(1 0 0 1 17 17)" fill="none" stroke="rgb(0,0,0)" stroke-width="2"/></g><g id="spongebob-loading-ellipse-82" transform="matrix(1 0 0 1 1012 375)"><ellipse id="spongebob-loading-ellipse19" rx="6.500000" ry="6" transform="matrix(1 0 0 1 6.50000000000000 6)" fill="rgb(0,0,0)" stroke="none" stroke-width="1"/><ellipse id="spongebob-loading-ellipse20" rx="6" ry="5.500000" transform="matrix(1 0 0 1 6.50000000000000 6)" fill="none" stroke="rgb(0,0,0)" stroke-width="1"/></g></g><path id="spongebob-loading-path-1031" d="M-13023.949000,7618.210000C-13023.949000,7618.210000,-13014.849000,7622.367000,-13006.269000,7623.051000C-13000.644984,7623.370661,-12995.009928,7622.658950,-12989.642000,7620.951000" transform="matrix(1 0 0 1 13998 -7155)" fill="none" stroke="rgb(0,0,0)" stroke-width="2" stroke-linecap="round"/><path id="spongebob-loading-path-1033" d="M-12976.748000,7610.589000L-12957.515000,7592.389000L-12968.715000,7576.398000C-12968.715000,7576.398000,-12972.767000,7571.976000,-12974.241000,7571.092000C-12975.715000,7570.208000,-12979.621000,7568.586000,-12981.241000,7569.176000C-12982.861000,7569.766000,-12988.315000,7573.229000,-12989.863000,7575.735000C-12991.411000,7578.241000,-12992.811000,7581.189000,-12992.369000,7583.035000C-12991.927000,7584.881000,-12988.831000,7593.204000,-12987.800000,7594.678000C-12987.325000,7595.356000,-12985.470000,7598.733000,-12982.862000,7602.490000C-12980.192000,7606.332000,-12976.748000,7610.589000,-12976.748000,7610.589000Z" transform="matrix(1 0 0 1 13998 -7155)" fill="rgb(189,229,46)" stroke="rgb(189,229,46)" stroke-width="1"/><path id="spongebob-loading-path-1032" d="M-12942.500000,7611.055000C-12942.500000,7611.055000,-12958.074000,7593.375000,-12963.547000,7583.273000C-12969.020000,7573.171000,-12976.597000,7567.067000,-12981.859000,7568.961000C-12987.121000,7570.855000,-12995.329000,7577.169000,-12992.382000,7586.641000C-12989.435000,7596.113000,-12980.382000,7607.267000,-12975.755000,7612.108000C-12971.128000,7616.949000,-12962.706000,7622.001000,-12956.813000,7624.526000C-12952.677061,7626.184606,-12948.371638,7627.384451,-12943.974000,7628.104000" transform="matrix(1 0 0 1 13998 -7155)" fill="none" stroke="rgb(0,0,0)" stroke-width="2" stroke-linecap="round"/><g id="spongebob-loading-ellipse-83" transform="matrix(0.89900000000000 0.43800000000000 -0.43800000000000 0.89900000000000 947.69700000000000 629.00500000000000)"><ellipse id="spongebob-loading-ellipse21" rx="14.500000" ry="23.500000" transform="matrix(1 0 0 1 14.50000000000000 23.50000000000000)" fill="rgb(161,196,39)" stroke="none" stroke-width="1"/><ellipse id="spongebob-loading-ellipse22" rx="14" ry="23" transform="matrix(1 0 0 1 14.50000000000000 23.50000000000000)" fill="none" stroke="rgb(161,196,39)" stroke-width="1"/></g><g id="spongebob-loading-ellipse-84" transform="matrix(0.89900000000000 0.43800000000000 -0.43800000000000 0.89900000000000 944.49000000000001 587.88000000000000)"><ellipse id="spongebob-loading-ellipse23" rx="10" ry="13" transform="matrix(1 0 0 1 10 13)" fill="rgb(161,196,39)" stroke="none" stroke-width="1"/><ellipse id="spongebob-loading-ellipse24" rx="9.500000" ry="12.500000" transform="matrix(1 0 0 1 10 13)" fill="none" stroke="rgb(161,196,39)" stroke-width="1"/></g><g id="spongebob-loading-ellipse-85" transform="matrix(0.92100000000000 0.39100000000000 -0.39100000000000 0.92100000000000 1161.25999999999999 602.18600000000004)"><ellipse id="spongebob-loading-ellipse25" rx="14.500000" ry="23.500000" transform="matrix(1 0 0 1 14.50000000000000 23.50000000000000)" fill="rgb(161,196,39)" stroke="none" stroke-width="1"/><ellipse id="spongebob-loading-ellipse26" rx="14" ry="23" transform="matrix(1 0 0 1 14.50000000000000 23.50000000000000)" fill="none" stroke="rgb(161,196,39)" stroke-width="1"/></g><g id="spongebob-loading-ellipse-86" transform="matrix(0.89900000000000 0.43800000000000 -0.43800000000000 0.89900000000000 1162.49000000000001 669.88000000000000)"><ellipse id="spongebob-loading-ellipse27" rx="10" ry="13" transform="matrix(1 0 0 1 10 13)" fill="rgb(161,196,39)" stroke="none" stroke-width="1"/><ellipse id="spongebob-loading-ellipse28" rx="9.500000" ry="12.500000" transform="matrix(1 0 0 1 10 13)" fill="none" stroke="rgb(161,196,39)" stroke-width="1"/></g><g id="spongebob-loading-ellipse-87" transform="matrix(0.81900000000000 0.57400000000000 -0.57400000000000 0.81900000000000 952.02800000000002 361.91699999999997)"><ellipse id="spongebob-loading-ellipse29" rx="11.500000" ry="19.500000" transform="matrix(1 0 0 1 11.50000000000000 19.50000000000000)" fill="rgb(161,196,39)" stroke="none" stroke-width="1"/><ellipse id="spongebob-loading-ellipse30" rx="11" ry="19" transform="matrix(1 0 0 1 11.50000000000000 19.50000000000000)" fill="none" stroke="rgb(161,196,39)" stroke-width="1"/></g><g id="spongebob-loading-ellipse-88" transform="matrix(0.89900000000000 0.43800000000000 -0.43800000000000 0.89900000000000 932.49000000000001 404.88000000000000)"><ellipse id="spongebob-loading-ellipse31" rx="10" ry="13" transform="matrix(1 0 0 1 10 13)" fill="rgb(161,196,39)" stroke="none" stroke-width="1"/><ellipse id="spongebob-loading-ellipse32" rx="9.500000" ry="12.500000" transform="matrix(1 0 0 1 10 13)" fill="none" stroke="rgb(161,196,39)" stroke-width="1"/></g><g id="spongebob-loading-ellipse-89" transform="matrix(0.80900000000000 0.58800000000000 -0.58800000000000 0.80900000000000 1211.32999999999993 374.55300000000000)"><ellipse id="spongebob-loading-ellipse33" rx="9" ry="12" transform="matrix(1 0 0 1 9 12)" fill="rgb(161,196,39)" stroke="none" stroke-width="1"/><ellipse id="spongebob-loading-ellipse34" rx="8.500000" ry="11.500000" transform="matrix(1 0 0 1 9 12)" fill="none" stroke="rgb(161,196,39)" stroke-width="1"/></g><g id="spongebob-loading-ellipse-90" transform="matrix(1 0 0 1 1215.93000000000006 567.98299999999995)"><ellipse id="spongebob-loading-ellipse35" rx="14.500000" ry="23.500000" transform="matrix(1 0 0 1 14.50000000000000 23.50000000000000)" fill="rgb(135,164,34)" stroke="none" stroke-width="1"/><ellipse id="spongebob-loading-ellipse36" rx="14" ry="23" transform="matrix(1 0 0 1 14.50000000000000 23.50000000000000)" fill="none" stroke="rgb(135,164,34)" stroke-width="1"/></g><g id="spongebob-loading-ellipse-91" transform="matrix(0.99500000000000 0.10500000000000 -0.10500000000000 0.99500000000000 1245.81999999999994 412.66800000000001)"><ellipse id="spongebob-loading-ellipse37" rx="14.500000" ry="30" transform="matrix(1 0 0 1 14.50000000000000 30)" fill="rgb(135,164,34)" stroke="none" stroke-width="1"/><ellipse id="spongebob-loading-ellipse38" rx="14" ry="29.500000" transform="matrix(1 0 0 1 14.50000000000000 30)" fill="none" stroke="rgb(135,164,34)" stroke-width="1"/></g><g id="spongebob-loading-ellipse-92" transform="matrix(1 0 0 1 1250.55999999999995 508.55099999999999)"><ellipse id="spongebob-loading-ellipse39" rx="9.500000" ry="14" transform="matrix(1 0 0 1 9.50000000000000 14)" fill="rgb(135,164,34)" stroke="none" stroke-width="1"/><ellipse id="spongebob-loading-ellipse40" rx="9" ry="13.500000" transform="matrix(1 0 0 1 9.50000000000000 14)" fill="none" stroke="rgb(135,164,34)" stroke-width="1"/></g><g id="spongebob-loading-ellipse-93" transform="matrix(1 0 0 1 1179 471)"><circle id="spongebob-loading-circle5" r="3.500000" transform="matrix(1 0 0 1 3.50000000000000 3.50000000000000)" fill="rgb(135,164,34)" stroke="none" stroke-width="1"/><circle id="spongebob-loading-circle6" r="3" transform="matrix(1 0 0 1 3.50000000000000 3.50000000000000)" fill="none" stroke="rgb(135,164,34)" stroke-width="1"/></g><g id="spongebob-loading-ellipse-94" transform="matrix(1 0 0 1 1192 476)"><circle id="spongebob-loading-circle7" r="3.500000" transform="matrix(1 0 0 1 3.50000000000000 3.50000000000000)" fill="rgb(135,164,34)" stroke="none" stroke-width="1"/><circle id="spongebob-loading-circle8" r="3" transform="matrix(1 0 0 1 3.50000000000000 3.50000000000000)" fill="none" stroke="rgb(135,164,34)" stroke-width="1"/></g><g id="spongebob-loading-ellipse-95" transform="matrix(1 0 0 1 1181 485)"><circle id="spongebob-loading-circle9" r="3.500000" transform="matrix(1 0 0 1 3.50000000000000 3.50000000000000)" fill="rgb(135,164,34)" stroke="none" stroke-width="1"/><circle id="spongebob-loading-circle10" r="3" transform="matrix(1 0 0 1 3.50000000000000 3.50000000000000)" fill="none" stroke="rgb(135,164,34)" stroke-width="1"/></g><g id="spongebob-loading-ellipse-96" transform="matrix(1 0 0 1 945 456)"><circle id="spongebob-loading-circle11" r="3.500000" transform="matrix(1 0 0 1 3.50000000000000 3.50000000000000)" fill="rgb(135,164,34)" stroke="none" stroke-width="1"/><circle id="spongebob-loading-circle12" r="3" transform="matrix(1 0 0 1 3.50000000000000 3.50000000000000)" fill="none" stroke="rgb(135,164,34)" stroke-width="1"/></g><g id="spongebob-loading-ellipse-97" transform="matrix(1 0 0 1 930 466)"><circle id="spongebob-loading-circle13" r="3.500000" transform="matrix(1 0 0 1 3.50000000000000 3.50000000000000)" fill="rgb(135,164,34)" stroke="none" stroke-width="1"/><circle id="spongebob-loading-circle14" r="3" transform="matrix(1 0 0 1 3.50000000000000 3.50000000000000)" fill="none" stroke="rgb(135,164,34)" stroke-width="1"/></g><g id="spongebob-loading-ellipse-98" transform="matrix(1 0 0 1 947 468)"><circle id="spongebob-loading-circle15" r="3.500000" transform="matrix(1 0 0 1 3.50000000000000 3.50000000000000)" fill="rgb(135,164,34)" stroke="none" stroke-width="1"/><circle id="spongebob-loading-circle16" r="3" transform="matrix(1 0 0 1 3.50000000000000 3.50000000000000)" fill="none" stroke="rgb(135,164,34)" stroke-width="1"/></g><g id="spongebob-loading-mouth_to" transform="translate(1063.472717,594.822052)"><g id="spongebob-loading-mouth_ts" transform="scale(1,1)"><g id="spongebob-loading-mouth" transform="translate(-1063.472717,-594.822052)"><g id="spongebob-loading-path-1034" transform="matrix(1 0 0 1 1037.84999999999991 499)"><path id="spongebob-loading-path9" d="M22.308264,164.377563C16.272972,164.377563,12.318181,163.143784,9.862286,160.494781C5.007598,155.258438,5.843223,144.228058,7.108077,127.531494C7.829618,118.006889,8.727618,106.153160,8.727618,92.499992C8.727618,78.564911,8.940035,67.093391,9.377035,57.429871C9.883535,46.229164,10.693494,37.219685,11.853181,29.886663C13.099535,22.005663,14.789868,16.015787,16.877243,12.083413C19.009306,8.066809,21.524868,6.114288,24.567680,6.114288C24.620014,6.114288,24.670576,6.114830,24.723265,6.115975C27.717911,6.180454,30.076681,8.082954,31.934347,11.932204C33.758224,15.711433,35.086452,21.322142,35.994911,29.084934C37.736179,43.964016,37.734325,65.230225,37.732182,89.854431L37.732037,92.499992C37.732037,108.252289,39.189346,121.048264,40.360329,131.330002C41.193577,138.646561,41.851742,144.425598,41.770721,149.149994C41.686119,154.083420,40.791931,157.290710,38.871429,159.549408C37.645828,160.990829,35.963680,162.067917,33.728848,162.842224C31.381826,163.655411,28.427389,164.138000,24.696701,164.317581C23.869701,164.357376,23.066097,164.377563,22.308264,164.377563Z" fill="rgb(91,30,9)" stroke="none" stroke-width="1"/><path id="spongebob-loading-path10" d="M24.567677,7.114304C23.273699,7.114304,22.113676,7.523849,21.021351,8.366318C19.854134,9.266556,18.757025,10.674927,17.760502,12.552261C15.725113,16.386719,14.069916,22.271408,12.840893,30.042862C11.687088,37.338760,10.880806,46.311913,10.376003,57.475060C9.939697,67.123367,9.727612,78.580124,9.727612,92.499992C9.727612,106.190971,8.828045,118.065582,8.105221,127.606995C7.477764,135.889557,6.935894,143.042648,7.201786,148.523926C7.336613,151.303452,7.669262,153.547668,8.218742,155.384827C8.773243,157.238785,9.550720,158.687866,10.595612,159.814911C12.849045,162.245499,16.570827,163.377563,22.308285,163.377563C23.050264,163.377563,23.837654,163.357758,24.648634,163.318710C28.282742,163.143799,31.145828,162.678864,33.401459,161.897339C35.462852,161.183105,37.002895,160.203217,38.109589,158.901627C41.976048,154.354294,40.938004,145.239761,39.366741,131.443176C38.192894,121.136299,36.732025,108.309067,36.732025,92.499992L36.732178,89.854301C36.734306,65.261429,36.736153,44.022255,35.001678,29.201172C34.106373,21.550735,32.808437,16.044189,31.033741,12.366837C30.169046,10.575104,29.185741,9.228760,28.111155,8.365173C27.099350,7.552032,25.984133,7.143372,24.702024,7.115753C24.656525,7.114777,24.612850,7.114304,24.567677,7.114304M24.567675,5.114304C24.627247,5.114304,24.684807,5.114929,24.744785,5.116211C38.986633,5.422836,38.732025,41.413666,38.732025,92.499992C38.732025,143.586319,54.164501,163.900391,24.744785,165.316406C23.899040,165.357117,23.086199,165.377548,22.308290,165.377548C-3.973755,165.377548,7.727612,142.117722,7.727612,92.499992C7.727612,41.628815,10.481827,5.114304,24.567675,5.114304Z" fill="rgb(91,30,9)" stroke="none" stroke-width="1"/></g><path id="spongebob-loading-path-1035" d="M-12954.269000,7827.230000C-12954.269000,7827.230000,-12944.977000,7840.530000,-12934.848000,7840.530000C-12924.719000,7840.530000,-12914.039000,7827.230000,-12914.039000,7827.230000" transform="matrix(1 0 0 1 13998 -7155)" fill="none" stroke="rgb(0,0,0)" stroke-width="2" stroke-linecap="round"/></g></g></g><g id="spongebob-loading-tire_tr" transform="translate(464.955902,322.101883) rotate(0)"><g id="spongebob-loading-tire" transform="translate(-605.955902,-344.101883)"><g id="spongebob-loading-subtraction-3" transform="matrix(-0.98500000000000 -0.17400000000000 0.17400000000000 -0.98500000000000 15867.89999999999964 -4015.98999999999978)"><path id="spongebob-loading-path11" d="M14266.983398,-6737.248535C14242.787109,-6737.248047,14218.958984,-6741.426758,14196.163086,-6749.668457C14185.059570,-6753.682129,14174.214844,-6758.675781,14163.929688,-6764.510742C14153.674805,-6770.327637,14143.845703,-6777.053223,14134.714844,-6784.500977C14125.545898,-6791.978516,14116.958984,-6800.282715,14109.194336,-6809.182129C14101.342773,-6818.182617,14094.226563,-6827.911133,14088.044922,-6838.098145C14075.228516,-6859.221191,14066.317383,-6882.340820,14061.559570,-6906.813965C14058.846680,-6920.766602,14057.541992,-6934.984375,14057.681641,-6949.072266C14057.817383,-6962.801270,14059.324219,-6976.572754,14062.161133,-6990.003418C14064.946289,-7003.192383,14069.041016,-7016.185547,14074.332031,-7028.622070C14079.572266,-7040.941895,14086.031250,-7052.824219,14093.528320,-7063.939453C14101.025391,-7075.054688,14109.624023,-7085.494141,14119.083008,-7094.967773C14128.633789,-7104.532227,14139.146484,-7113.196289,14150.330078,-7120.719727C14161.720703,-7128.381348,14173.924805,-7134.937500,14186.603516,-7140.206055C14199.613281,-7145.611816,14213.284180,-7149.728027,14227.237305,-7152.440430C14240.509766,-7155.020508,14254.036133,-7156.328613,14267.440430,-7156.328613C14291.634766,-7156.328613,14315.462891,-7152.149902,14338.261719,-7143.908203C14349.364258,-7139.894531,14360.208984,-7134.900879,14370.494141,-7129.065918C14380.746094,-7123.251465,14390.576172,-7116.525879,14399.709961,-7109.076172C14408.879883,-7101.598145,14417.465820,-7093.294434,14425.230469,-7084.395508C14433.084961,-7075.392578,14440.200195,-7065.664063,14446.378906,-7055.479492C14459.196289,-7034.356934,14468.106445,-7011.237305,14472.863281,-6986.762695C14475.576172,-6972.810059,14476.880859,-6958.592285,14476.741211,-6944.504395C14476.605469,-6930.775879,14475.098633,-6917.004883,14472.261719,-6903.573730C14469.476563,-6890.387207,14465.381836,-6877.394043,14460.091797,-6864.955566C14454.850586,-6852.634766,14448.392578,-6840.752441,14440.896484,-6829.638672C14433.396484,-6818.522461,14424.798828,-6808.083008,14415.341797,-6798.609863C14405.791992,-6789.046875,14395.279297,-6780.382324,14384.093750,-6772.858398C14372.703125,-6765.196777,14360.499023,-6758.640137,14347.820313,-6753.371582C14334.814453,-6747.966309,14321.143555,-6743.850098,14307.185547,-6741.136230C14293.912109,-6738.556641,14280.385742,-6737.248535,14266.983398,-6737.248535ZM14267.213867,-7056.995117C14215.756836,-7056.992188,14171.722656,-7021.924316,14160.131836,-6971.716309C14146.487305,-6912.618652,14183.467773,-6853.436035,14242.567383,-6839.789063C14250.739258,-6837.902832,14259.095703,-6836.946289,14267.406250,-6836.946289C14318.864258,-6836.949707,14362.900391,-6872.018555,14374.494141,-6922.227051C14381.103516,-6950.854492,14376.167969,-6980.343750,14360.597656,-7005.262207C14345.027344,-7030.180176,14320.684570,-7047.542480,14292.055664,-7054.151367C14283.879883,-7056.038574,14275.521484,-7056.995605,14267.213867,-7056.995117Z" fill="url(#spongebob-loading-path11-fill)" stroke="none" stroke-width="1"/><path id="spongebob-loading-path12" d="M14266.983398,-6737.748535C14280.353516,-6737.748535,14293.847656,-6739.053223,14307.090820,-6741.626953C14321.014648,-6744.334473,14334.653320,-6748.440918,14347.627930,-6753.833008C14360.276367,-6759.089355,14372.451172,-6765.629883,14383.814453,-6773.272949C14394.973633,-6780.779297,14405.460938,-6789.422852,14414.987305,-6798.963379C14424.422852,-6808.413574,14433,-6818.828125,14440.481445,-6829.917969C14447.959961,-6841.005859,14454.403320,-6852.859863,14459.631836,-6865.151367C14464.909180,-6877.560059,14468.994141,-6890.521973,14471.772461,-6903.676758C14474.602539,-6917.075684,14476.106445,-6930.813965,14476.241211,-6944.509277C14476.379883,-6958.563477,14475.079102,-6972.747559,14472.373047,-6986.666992C14467.626953,-7011.083984,14458.738281,-7034.148438,14445.952148,-7055.220215C14439.787109,-7065.380371,14432.688477,-7075.085449,14424.853516,-7084.066895C14417.107422,-7092.944336,14408.541992,-7101.228516,14399.394531,-7108.688965C14390.281250,-7116.120605,14380.475586,-7122.830078,14370.248047,-7128.631348C14359.986328,-7134.452148,14349.167969,-7139.434082,14338.091797,-7143.437988C14315.347656,-7151.659668,14291.577148,-7155.828613,14267.440430,-7155.828613C14254.068359,-7155.828613,14240.574219,-7154.523438,14227.332031,-7151.949707C14213.413086,-7149.243652,14199.774414,-7145.137207,14186.795898,-7139.744629C14174.147461,-7134.488281,14161.971680,-7127.947754,14150.609375,-7120.305176C14139.453125,-7112.799805,14128.964844,-7104.156250,14119.437500,-7094.614746C14110,-7085.163574,14101.421875,-7074.749023,14093.942383,-7063.660156C14086.462891,-7052.571289,14080.020508,-7040.716797,14074.791992,-7028.426270C14069.514648,-7016.019531,14065.428711,-7003.057617,14062.650391,-6989.900391C14059.820313,-6976.501465,14058.316406,-6962.763184,14058.181641,-6949.067383C14058.042969,-6935.013184,14059.343750,-6920.829102,14062.049805,-6906.909668C14066.796875,-6882.494141,14075.686523,-6859.430176,14088.471680,-6838.357422C14094.639648,-6828.195313,14101.738281,-6818.489746,14109.571289,-6809.510742C14117.317383,-6800.632324,14125.882813,-6792.348145,14135.030273,-6784.888184C14144.139648,-6777.458008,14153.946289,-6770.748535,14164.175781,-6764.945313C14174.436523,-6759.124512,14185.255859,-6754.143066,14196.333008,-6750.138672C14219.075195,-6741.916504,14242.844727,-6737.748047,14266.983398,-6737.748535M14267.213867,-7057.495117C14275.559570,-7057.495605,14283.955078,-7056.534668,14292.167969,-7054.638184C14320.927734,-7047.999512,14345.379883,-7030.558105,14361.021484,-7005.526855C14376.663086,-6980.495117,14381.620117,-6950.872070,14374.981445,-6922.114258C14363.334961,-6871.677734,14319.098633,-6836.449707,14267.406250,-6836.446289C14259.057617,-6836.446289,14250.663086,-6837.407227,14242.455078,-6839.301758C14183.085938,-6853.011230,14145.937500,-6912.462402,14159.644531,-6971.829102C14171.288086,-7022.265137,14215.522461,-7057.492188,14267.213867,-7057.495117M14266.983398,-6736.748535C14242.729492,-6736.748047,14218.844727,-6740.936523,14195.993164,-6749.198242C14184.864258,-6753.221191,14173.993164,-6758.226563,14163.682617,-6764.075684C14153.403320,-6769.906738,14143.550781,-6776.648438,14134.398438,-6784.113281C14125.207031,-6791.609375,14116.600586,-6799.933105,14108.817383,-6808.853516C14100.947266,-6817.875000,14093.814453,-6827.626953,14087.617188,-6837.838867C14074.770508,-6859.011719,14065.837891,-6882.186035,14061.068359,-6906.718750C14058.349609,-6920.704590,14057.041992,-6934.956055,14057.181641,-6949.077148C14057.317383,-6962.839355,14058.828125,-6976.643555,14061.671875,-6990.106934C14064.463867,-7003.326660,14068.568359,-7016.350586,14073.872070,-7028.817871C14079.125000,-7041.166992,14085.598633,-7053.077637,14093.113281,-7064.219238C14100.629883,-7075.362305,14109.249023,-7085.826660,14118.729492,-7095.321289C14128.302734,-7104.908203,14138.840820,-7113.593262,14150.050781,-7121.134766C14161.468750,-7128.814453,14173.702148,-7135.386230,14186.412109,-7140.667969C14199.452148,-7146.086426,14213.155273,-7150.212402,14227.141602,-7152.931152C14240.447266,-7155.517578,14254.005859,-7156.828613,14267.440430,-7156.828613C14291.693359,-7156.828613,14315.578125,-7152.639648,14338.431641,-7144.378418C14349.558594,-7140.355957,14360.429688,-7135.350586,14370.741211,-7129.500977C14381.017578,-7123.672363,14390.870117,-7116.931152,14400.026367,-7109.463867C14409.216797,-7101.968262,14417.823242,-7093.645020,14425.607422,-7084.724121C14433.478516,-7075.701660,14440.611328,-7065.949707,14446.806641,-7055.738770C14459.653320,-7034.567383,14468.585938,-7011.392578,14473.354492,-6986.857910C14476.073242,-6972.872070,14477.380859,-6958.620605,14477.241211,-6944.499512C14477.105469,-6930.737793,14475.594727,-6916.933594,14472.750977,-6903.470215C14469.958984,-6890.251465,14465.854492,-6877.227539,14460.551758,-6864.759766C14455.298828,-6852.410156,14448.825195,-6840.499512,14441.310547,-6829.358887C14433.793945,-6818.216797,14425.175781,-6807.752441,14415.695313,-6798.256836C14406.122070,-6788.669434,14395.583008,-6779.984375,14384.373047,-6772.443359C14372.956055,-6764.764160,14360.722656,-6758.191895,14348.011719,-6752.909668C14334.973633,-6747.491211,14321.269531,-6743.365234,14307.281250,-6740.645508C14293.975586,-6738.059570,14280.417969,-6736.748535,14266.983398,-6736.748535ZM14267.213867,-7056.495117C14215.990234,-7056.492188,14172.157227,-7021.583496,14160.619141,-6971.604004C14147.036133,-6912.774414,14183.848633,-6853.861328,14242.679688,-6840.276367C14250.814453,-6838.398438,14259.133789,-6837.446289,14267.406250,-6837.446289C14318.629883,-6837.449707,14362.465820,-6872.358887,14374.006836,-6922.339355C14380.585938,-6950.837402,14375.672852,-6980.192383,14360.173828,-7004.997070C14344.673828,-7029.801758,14320.442383,-7047.085449,14291.943359,-7053.664063C14283.804688,-7055.542969,14275.484375,-7056.495605,14267.213867,-7056.495117Z" fill="rgb(216,249,255)" stroke="none" stroke-width="1"/></g><g id="spongebob-loading-ellipse-101" transform="matrix(1 0 0 1 591 487)"><ellipse id="spongebob-loading-ellipse41" rx="20.500000" ry="21" transform="matrix(1 0 0 1 20.50000000000000 21)" fill="rgb(86,227,255)" stroke="none" stroke-width="1"/><ellipse id="spongebob-loading-ellipse42" rx="20" ry="20.500000" transform="matrix(1 0 0 1 20.50000000000000 21)" fill="none" stroke="rgb(86,227,255)" stroke-width="1"/></g><g id="spongebob-loading-ellipse-102" transform="matrix(1 0 0 1 591 169)"><ellipse id="spongebob-loading-ellipse43" rx="20.500000" ry="21" transform="matrix(1 0 0 1 20.50000000000000 21)" fill="rgb(86,227,255)" stroke="none" stroke-width="1"/><ellipse id="spongebob-loading-ellipse44" rx="20" ry="20.500000" transform="matrix(1 0 0 1 20.50000000000000 21)" fill="none" stroke="rgb(86,227,255)" stroke-width="1"/></g><g id="spongebob-loading-ellipse-103" transform="matrix(1 0 0 1 760 316)"><ellipse id="spongebob-loading-ellipse45" rx="20.500000" ry="21" transform="matrix(1 0 0 1 20.50000000000000 21)" fill="rgb(86,227,255)" stroke="none" stroke-width="1"/><ellipse id="spongebob-loading-ellipse46" rx="20" ry="20.500000" transform="matrix(1 0 0 1 20.50000000000000 21)" fill="none" stroke="rgb(86,227,255)" stroke-width="1"/></g><g id="spongebob-loading-ellipse-104" transform="matrix(1 0 0 1 429 316)"><ellipse id="spongebob-loading-ellipse47" rx="20.500000" ry="21" transform="matrix(1 0 0 1 20.50000000000000 21)" fill="rgb(86,227,255)" stroke="none" stroke-width="1"/><ellipse id="spongebob-loading-ellipse48" rx="20" ry="20.500000" transform="matrix(1 0 0 1 20.50000000000000 21)" fill="none" stroke="rgb(86,227,255)" stroke-width="1"/></g></g></g><rect id="spongebob-loading-maxresdefassult" width="867" height="598" rx="0" ry="0" transform="matrix(1 0 0 1 48 31)" fill="none" stroke="none" stroke-width="1"/><path id="spongebob-loading-copy-of-maxresdefassult" d="M0,0L867,0L867,598L0,598L0,0Z" transform="matrix(1 0 0 1 48 31)" fill="none" stroke="none" stroke-width="1"/></g><clipPath id="spongebob-loading-clip-spongebob_loading"><rect id="spongebob-loading-rect1" width="1556" height="1080" rx="0" ry="0" fill="rgb(0,0,0)" stroke="none" stroke-width="1"/></clipPath></g></svg>