<svg xmlns="http://www.w3.org/2000/svg" width="765.628" height="595.159" viewBox="0 0 765.628 595.159">
  <g id="man_soccer" transform="translate(-64 -209.982)">
    <g id="Path_1055" data-name="Path 1055" transform="translate(64 213)" fill="#147198">
      <path d="M 339 545.5 C 316.0264282226563 545.5 293.0675048828125 543.6361694335938 270.760986328125 539.9602661132813 C 249.0223388671875 536.3779296875 227.6396636962891 531.0326538085938 207.2071685791016 524.072998046875 C 187.1467437744141 517.2400512695313 167.798828125 508.7829895019531 149.7008361816406 498.9366455078125 C 131.7764129638672 489.184814453125 114.9215850830078 477.9858093261719 99.60441589355469 465.6507263183594 C 84.28925323486328 453.3172302246094 70.38533020019531 439.7464904785156 58.27891540527344 425.3155822753906 C 46.05833435058594 410.7484130859375 35.5625 395.1761474609375 27.08300018310547 379.0314025878906 C 18.44791603088379 362.590576171875 11.81616687774658 345.3861694335938 7.371916770935059 327.8959045410156 C 2.812000036239624 309.9508361816406 0.5 291.4812316894531 0.5 273 C 0.5 263.6035766601563 1.182666659355164 254.1734008789063 2.529083251953125 244.9714965820313 C 3.864749908447266 235.8428192138672 5.865749835968018 226.8548278808594 8.47641658782959 218.2572479248047 C 11.09025001525879 209.6492462158203 14.33850002288818 201.3560791015625 18.13091659545898 193.6080780029297 C 21.96241760253906 185.7802429199219 26.38624954223633 178.4342346191406 31.27949905395508 171.7742462158203 C 36.26416778564453 164.9898223876953 41.79158401489258 158.8423309326172 47.70824813842773 153.5027465820313 C 53.77766799926758 148.0251617431641 60.33708190917969 143.3260803222656 67.20424652099609 139.5360717773438 C 81.70891571044922 131.5308227539063 97.6494140625 127.4717407226563 114.5830001831055 127.4717407226563 C 136.628173828125 127.4717407226563 160.0201721191406 134.3422393798828 184.1093292236328 147.8923187255859 C 190.5260009765625 151.5017395019531 196.7810821533203 154.2229919433594 202.7007446289063 155.9807434082031 C 208.4017486572266 157.6735687255859 213.9948272705078 158.5324859619141 219.3245849609375 158.5337371826172 C 219.3281097412109 158.5337371826172 219.3334045410156 158.5337371826172 219.3369140625 158.5337371826172 C 233.7647705078125 158.5337371826172 246.9222869873047 152.5426025390625 260.7470703125 139.6784057617188 C 273.0910949707031 128.1922454833984 284.6375122070313 112.4526596069336 296.8618469238281 95.78890991210938 C 305.1989135742188 84.424072265625 313.8199157714844 72.6722412109375 323.3499145507813 61.32782363891602 C 334.1473388671875 48.47457504272461 344.5098266601563 38.11399078369141 355.0296630859375 29.6541576385498 C 361.1223449707031 24.75457382202148 367.4244079589844 20.37874031066895 373.7609252929688 16.64824104309082 C 380.5830078125 12.6318244934082 387.7041625976563 9.20974063873291 394.9265747070313 6.477074146270752 C 402.61474609375 3.568074226379395 410.6849060058594 1.338574171066284 418.912841796875 -0.1495924443006516 C 427.6019897460938 -1.721259117126465 436.7525024414063 -2.518175840377808 446.1102600097656 -2.518175840377808 C 452.500244140625 -2.518175840377808 459.1479187011719 -2.147009134292603 465.86865234375 -1.415009140968323 C 476.5828247070313 -0.248175784945488 486.9857482910156 1.278490900993347 496.7884216308594 3.122490882873535 C 506.4782409667969 4.94524097442627 515.8643188476563 7.131324291229248 524.6860961914063 9.619991302490234 C 533.3984985351563 12.07774066925049 541.8153076171875 14.90257453918457 549.7028198242188 18.0159912109375 C 557.4851684570313 21.0879077911377 564.9805297851563 24.53090667724609 571.9806518554688 28.24932479858398 C 578.8805541992188 31.91457366943359 585.5025634765625 35.95532608032227 591.662841796875 40.25940704345703 C 597.7281494140625 44.4973258972168 603.5252685546875 49.11582565307617 608.8929443359375 53.98665618896484 C 614.1716918945313 58.77690887451172 619.1920776367188 63.95357513427734 623.8146362304688 69.37299346923828 C 628.3545532226563 74.69548797607422 632.646484375 80.41115570068359 636.5709838867188 86.36124420166016 C 640.4194946289063 92.19599151611328 644.030517578125 98.43157196044922 647.3035888671875 104.894905090332 C 650.5075073242188 111.221321105957 653.4847412109375 117.9575729370117 656.1526489257813 124.9167404174805 C 658.7584838867188 131.7136535644531 661.1489868164063 138.93115234375 663.2577514648438 146.3687438964844 C 665.31201171875 153.6142425537109 667.16259765625 161.2930755615234 668.7579956054688 169.1920776367188 C 674.6404418945313 198.3170776367188 677.5 232.2729034423828 677.5 273 C 677.5 291.4812316894531 675.18798828125 309.9508361816406 670.628173828125 327.8959045410156 C 666.183837890625 345.3861694335938 659.5520629882813 362.590576171875 650.9170532226563 379.0314025878906 C 642.4375 395.1761474609375 631.941650390625 410.7484130859375 619.7210693359375 425.3155822753906 C 607.6146850585938 439.7464904785156 593.7108154296875 453.3172302246094 578.3955688476563 465.6507263183594 C 563.0784301757813 477.9858093261719 546.2235717773438 489.184814453125 528.2991943359375 498.9366455078125 C 510.201171875 508.7829895019531 490.8533325195313 517.2400512695313 470.7929077148438 524.072998046875 C 450.3603210449219 531.0326538085938 428.9777526855469 536.3779296875 407.239013671875 539.9602661132813 C 384.9324951171875 543.6361694335938 361.9735717773438 545.5 339 545.5 Z" stroke="none"/>
      <path d="M 446.1103515625 -2.0181884765625 C 436.7821655273438 -2.01727294921875 427.6614379882813 -1.22222900390625 419.0013427734375 0.34466552734375 C 410.8031616210938 1.82806396484375 402.7625122070313 4.0498046875 395.1025695800781 6.94830322265625 C 387.9065856933594 9.67132568359375 380.8110961914063 13.08123779296875 374.0133361816406 17.083251953125 C 367.6975708007813 20.80166625976563 361.4154052734375 25.16357421875 355.3414916992188 30.04791259765625 C 344.84716796875 38.48681640625 334.5072631835938 48.8245849609375 323.7309265136719 61.6517333984375 C 314.21142578125 72.98281860351563 305.5952453613281 84.72698974609375 297.2628479003906 96.08450317382813 C 285.0245056152344 112.7658386230469 273.4649047851563 128.5220642089844 261.086669921875 140.0400695800781 C 247.1605834960938 152.9984130859375 233.8904113769531 159.0337524414063 219.3247375488281 159.0337524414063 C 213.9478454589844 159.0337524414063 208.3067626953125 158.1681518554688 202.5583190917969 156.4609985351563 C 196.6040954589844 154.6926574707031 190.3145141601563 151.9564208984375 183.8642578125 148.3281555175781 C 159.850830078125 134.8206481933594 136.541259765625 127.9717407226563 114.5830078125 127.9717407226563 C 97.73486328125 127.9717407226563 81.8756103515625 132.0098266601563 67.44586181640625 139.9737548828125 C 60.6121826171875 143.7453308105469 54.084228515625 148.4219970703125 48.04315185546875 153.8739013671875 C 42.15167236328125 159.19091796875 36.6470947265625 165.3130798339844 31.68243408203125 172.0702514648438 C 26.8067626953125 178.7064208984375 22.3984375 186.0267333984375 18.57989501953125 193.8279113769531 C 14.79925537109375 201.5519104003906 11.5609130859375 209.8199768066406 8.954833984375 218.4024963378906 C 6.3514404296875 226.976318359375 4.35589599609375 235.9398193359375 3.0238037109375 245.0439147949219 C 1.680908203125 254.2218933105469 1 263.6276550292969 1 273 C 1 291.4397583007813 3.30682373046875 309.867919921875 7.85650634765625 327.7727355957031 C 12.29107666015625 345.2250671386719 18.90875244140625 362.3927612304688 27.52557373046875 378.7988891601563 C 35.98858642578125 394.9120788574219 46.46435546875 410.4544067382813 58.6619873046875 424.994140625 C 70.74749755859375 439.4003295898438 84.62811279296875 452.9481506347656 99.91802978515625 465.2613220214844 C 115.2119140625 477.5775756835938 132.0416870117188 488.7599182128906 149.9397583007813 498.4974975585938 C 168.0129089355469 508.330322265625 187.3346557617188 516.77587890625 207.3683471679688 523.5997314453125 C 227.77490234375 530.5505981445313 249.1306762695313 535.8890991210938 270.8422546386719 539.4669189453125 C 293.1220092773438 543.138427734375 316.0535888671875 545 339 545 C 361.9464111328125 545 384.8779907226563 543.138427734375 407.1577453613281 539.4669189453125 C 428.8693237304688 535.8890991210938 450.22509765625 530.5505981445313 470.6316528320313 523.5997314453125 C 490.6652526855469 516.77587890625 509.9869995117188 508.330322265625 528.0601806640625 498.4974975585938 C 545.9583129882813 488.7599182128906 562.7880859375 477.5775756835938 578.08203125 465.2613220214844 C 593.3719482421875 452.9481506347656 607.25244140625 439.4003295898438 619.3380126953125 424.994140625 C 631.53564453125 410.4544067382813 642.0114135742188 394.9120788574219 650.4744262695313 378.7988891601563 C 659.0912475585938 362.3927612304688 665.7089233398438 345.2250671386719 670.1434936523438 327.7727355957031 C 674.6931762695313 309.867919921875 677 291.4397583007813 677 273 C 677 232.3065795898438 674.1436767578125 198.3830871582031 668.267822265625 169.2910766601563 C 666.6749877929688 161.4045715332031 664.8275146484375 153.7383117675781 662.7766723632813 146.5051574707031 C 660.6719970703125 139.0819091796875 658.2862548828125 131.8787536621094 655.6858520507813 125.0957336425781 C 653.02392578125 118.1524963378906 650.0536499023438 111.4319763183594 646.8574829101563 105.1207275390625 C 643.5928955078125 98.67440795898438 639.9916381835938 92.45541381835938 636.153564453125 86.63656616210938 C 632.2403564453125 80.70358276367188 627.9609375 75.00439453125 623.4341430664063 69.69741821289063 C 618.825439453125 64.29425048828125 613.8199462890625 59.13290405273438 608.5568237304688 54.35699462890625 C 603.204833984375 49.500244140625 597.4244995117188 44.89508056640625 591.3764038085938 40.6693115234375 C 585.2327270507813 36.37673950195313 578.628173828125 32.34664916992188 571.74609375 28.69091796875 C 564.7623901367188 24.98123168945313 557.2841796875 21.54608154296875 549.5191650390625 18.4810791015625 C 541.6473388671875 15.37380981445313 533.24658203125 12.55438232421875 524.5503540039063 10.10113525390625 C 515.7427368164063 7.6165771484375 506.3712463378906 5.43389892578125 496.6959838867188 3.6138916015625 C 486.9059143066406 1.772216796875 476.5159301757813 0.24749755859375 465.8145751953125 -0.91802978515625 C 459.1114196777344 -1.64801025390625 452.4871826171875 -2.0181884765625 446.125732421875 -2.0181884765625 L 446.1103515625 -2.0181884765625 M 446.1102294921875 -3.01812744140625 C 452.4563598632813 -3.018798828125 459.0433349609375 -2.66131591796875 465.9228515625 -1.912109375 C 639.3280639648438 16.97366333007813 678 122.2262268066406 678 273 C 678 423.7737426757813 526.2244873046875 546 339 546 C 151.775390625 546 0 423.7737426757813 0 273 C 0 196.9794616699219 44.1431884765625 126.9717712402344 114.5830078125 126.9717712402344 C 135.650146484375 126.9717712402344 159.0571899414063 133.2269287109375 184.3544921875 147.4565734863281 C 197.4256591796875 154.8090515136719 208.9293823242188 158.0337524414063 219.3247375488281 158.0337524414063 C 292.8497009277344 158.0337524414063 311.523681640625 -3.00469970703125 446.1102294921875 -3.01812744140625 Z" stroke="none" fill="#147198"/>
    </g>
    <g id="Path_985" data-name="Path 985" transform="translate(84 223)" fill="#00b4d8">
      <path d="M 339 545.5 C 316.0264282226563 545.5 293.0675048828125 543.6361694335938 270.760986328125 539.9602661132813 C 249.0223388671875 536.3779296875 227.6396636962891 531.0326538085938 207.2071685791016 524.072998046875 C 187.1467437744141 517.2400512695313 167.798828125 508.7829895019531 149.7008361816406 498.9366455078125 C 131.7764129638672 489.184814453125 114.9215850830078 477.9858093261719 99.60441589355469 465.6507263183594 C 84.28925323486328 453.3172302246094 70.38533020019531 439.7464904785156 58.27891540527344 425.3155822753906 C 46.05833435058594 410.7484130859375 35.5625 395.1761474609375 27.08300018310547 379.0314025878906 C 18.44791603088379 362.590576171875 11.81616687774658 345.3861694335938 7.371916770935059 327.8959045410156 C 2.812000036239624 309.9508361816406 0.5 291.4812316894531 0.5 273 C 0.5 263.6035766601563 1.182666659355164 254.1734008789063 2.529083251953125 244.9714965820313 C 3.864749908447266 235.8428192138672 5.865749835968018 226.8548278808594 8.47641658782959 218.2572479248047 C 11.09025001525879 209.6492462158203 14.33850002288818 201.3560791015625 18.13091659545898 193.6080780029297 C 21.96241760253906 185.7802429199219 26.38624954223633 178.4342346191406 31.27949905395508 171.7742462158203 C 36.26416778564453 164.9898223876953 41.79158401489258 158.8423309326172 47.70824813842773 153.5027465820313 C 53.77766799926758 148.0251617431641 60.33708190917969 143.3260803222656 67.20424652099609 139.5360717773438 C 81.70891571044922 131.5308227539063 97.6494140625 127.4717407226563 114.5830001831055 127.4717407226563 C 136.628173828125 127.4717407226563 160.0201721191406 134.3422393798828 184.1093292236328 147.8923187255859 C 190.5260009765625 151.5017395019531 196.7810821533203 154.2229919433594 202.7007446289063 155.9807434082031 C 208.4017486572266 157.6735687255859 213.9948272705078 158.5324859619141 219.3245849609375 158.5337371826172 C 219.3281097412109 158.5337371826172 219.3334045410156 158.5337371826172 219.3369140625 158.5337371826172 C 233.7647705078125 158.5337371826172 246.9222869873047 152.5426025390625 260.7470703125 139.6784057617188 C 273.0910949707031 128.1922454833984 284.6375122070313 112.4526596069336 296.8618469238281 95.78890991210938 C 305.1989135742188 84.424072265625 313.8199157714844 72.6722412109375 323.3499145507813 61.32782363891602 C 334.1473388671875 48.47457504272461 344.5098266601563 38.11399078369141 355.0296630859375 29.6541576385498 C 361.1223449707031 24.75457382202148 367.4244079589844 20.37874031066895 373.7609252929688 16.64824104309082 C 380.5830078125 12.6318244934082 387.7041625976563 9.20974063873291 394.9265747070313 6.477074146270752 C 402.61474609375 3.568074226379395 410.6849060058594 1.338574171066284 418.912841796875 -0.1495924443006516 C 427.6019897460938 -1.721259117126465 436.7525024414063 -2.518175840377808 446.1102600097656 -2.518175840377808 C 452.500244140625 -2.518175840377808 459.1479187011719 -2.147009134292603 465.86865234375 -1.415009140968323 C 476.5828247070313 -0.248175784945488 486.9857482910156 1.278490900993347 496.7884216308594 3.122490882873535 C 506.4782409667969 4.94524097442627 515.8643188476563 7.131324291229248 524.6860961914063 9.619991302490234 C 533.3984985351563 12.07774066925049 541.8153076171875 14.90257453918457 549.7028198242188 18.0159912109375 C 557.4851684570313 21.0879077911377 564.9805297851563 24.53090667724609 571.9806518554688 28.24932479858398 C 578.8805541992188 31.91457366943359 585.5025634765625 35.95532608032227 591.662841796875 40.25940704345703 C 597.7281494140625 44.4973258972168 603.5252685546875 49.11582565307617 608.8929443359375 53.98665618896484 C 614.1716918945313 58.77690887451172 619.1920776367188 63.95357513427734 623.8146362304688 69.37299346923828 C 628.3545532226563 74.69548797607422 632.646484375 80.41115570068359 636.5709838867188 86.36124420166016 C 640.4194946289063 92.19599151611328 644.030517578125 98.43157196044922 647.3035888671875 104.894905090332 C 650.5075073242188 111.221321105957 653.4847412109375 117.9575729370117 656.1526489257813 124.9167404174805 C 658.7584838867188 131.7136535644531 661.1489868164063 138.93115234375 663.2577514648438 146.3687438964844 C 665.31201171875 153.6142425537109 667.16259765625 161.2930755615234 668.7579956054688 169.1920776367188 C 674.6404418945313 198.3170776367188 677.5 232.2729034423828 677.5 273 C 677.5 291.4812316894531 675.18798828125 309.9508361816406 670.628173828125 327.8959045410156 C 666.183837890625 345.3861694335938 659.5520629882813 362.590576171875 650.9170532226563 379.0314025878906 C 642.4375 395.1761474609375 631.941650390625 410.7484130859375 619.7210693359375 425.3155822753906 C 607.6146850585938 439.7464904785156 593.7108154296875 453.3172302246094 578.3955688476563 465.6507263183594 C 563.0784301757813 477.9858093261719 546.2235717773438 489.184814453125 528.2991943359375 498.9366455078125 C 510.201171875 508.7829895019531 490.8533325195313 517.2400512695313 470.7929077148438 524.072998046875 C 450.3603210449219 531.0326538085938 428.9777526855469 536.3779296875 407.239013671875 539.9602661132813 C 384.9324951171875 543.6361694335938 361.9735717773438 545.5 339 545.5 Z" stroke="none"/>
      <path d="M 446.1103515625 -2.0181884765625 C 436.7821655273438 -2.01727294921875 427.6614379882813 -1.22222900390625 419.0013427734375 0.34466552734375 C 410.8031616210938 1.82806396484375 402.7625122070313 4.0498046875 395.1025695800781 6.94830322265625 C 387.9065856933594 9.67132568359375 380.8110961914063 13.08123779296875 374.0133361816406 17.083251953125 C 367.6975708007813 20.80166625976563 361.4154052734375 25.16357421875 355.3414916992188 30.04791259765625 C 344.84716796875 38.48681640625 334.5072631835938 48.8245849609375 323.7309265136719 61.6517333984375 C 314.21142578125 72.98281860351563 305.5952453613281 84.72698974609375 297.2628479003906 96.08450317382813 C 285.0245056152344 112.7658386230469 273.4649047851563 128.5220642089844 261.086669921875 140.0400695800781 C 247.1605834960938 152.9984130859375 233.8904113769531 159.0337524414063 219.3247375488281 159.0337524414063 C 213.9478454589844 159.0337524414063 208.3067626953125 158.1681518554688 202.5583190917969 156.4609985351563 C 196.6040954589844 154.6926574707031 190.3145141601563 151.9564208984375 183.8642578125 148.3281555175781 C 159.850830078125 134.8206481933594 136.541259765625 127.9717407226563 114.5830078125 127.9717407226563 C 97.73486328125 127.9717407226563 81.8756103515625 132.0098266601563 67.44586181640625 139.9737548828125 C 60.6121826171875 143.7453308105469 54.084228515625 148.4219970703125 48.04315185546875 153.8739013671875 C 42.15167236328125 159.19091796875 36.6470947265625 165.3130798339844 31.68243408203125 172.0702514648438 C 26.8067626953125 178.7064208984375 22.3984375 186.0267333984375 18.57989501953125 193.8279113769531 C 14.79925537109375 201.5519104003906 11.5609130859375 209.8199768066406 8.954833984375 218.4024963378906 C 6.3514404296875 226.976318359375 4.35589599609375 235.9398193359375 3.0238037109375 245.0439147949219 C 1.680908203125 254.2218933105469 1 263.6276550292969 1 273 C 1 291.4397583007813 3.30682373046875 309.867919921875 7.85650634765625 327.7727355957031 C 12.29107666015625 345.2250671386719 18.90875244140625 362.3927612304688 27.52557373046875 378.7988891601563 C 35.98858642578125 394.9120788574219 46.46435546875 410.4544067382813 58.6619873046875 424.994140625 C 70.74749755859375 439.4003295898438 84.62811279296875 452.9481506347656 99.91802978515625 465.2613220214844 C 115.2119140625 477.5775756835938 132.0416870117188 488.7599182128906 149.9397583007813 498.4974975585938 C 168.0129089355469 508.330322265625 187.3346557617188 516.77587890625 207.3683471679688 523.5997314453125 C 227.77490234375 530.5505981445313 249.1306762695313 535.8890991210938 270.8422546386719 539.4669189453125 C 293.1220092773438 543.138427734375 316.0535888671875 545 339 545 C 361.9464111328125 545 384.8779907226563 543.138427734375 407.1577453613281 539.4669189453125 C 428.8693237304688 535.8890991210938 450.22509765625 530.5505981445313 470.6316528320313 523.5997314453125 C 490.6652526855469 516.77587890625 509.9869995117188 508.330322265625 528.0601806640625 498.4974975585938 C 545.9583129882813 488.7599182128906 562.7880859375 477.5775756835938 578.08203125 465.2613220214844 C 593.3719482421875 452.9481506347656 607.25244140625 439.4003295898438 619.3380126953125 424.994140625 C 631.53564453125 410.4544067382813 642.0114135742188 394.9120788574219 650.4744262695313 378.7988891601563 C 659.0912475585938 362.3927612304688 665.7089233398438 345.2250671386719 670.1434936523438 327.7727355957031 C 674.6931762695313 309.867919921875 677 291.4397583007813 677 273 C 677 232.3065795898438 674.1436767578125 198.3830871582031 668.267822265625 169.2910766601563 C 666.6749877929688 161.4045715332031 664.8275146484375 153.7383117675781 662.7766723632813 146.5051574707031 C 660.6719970703125 139.0819091796875 658.2862548828125 131.8787536621094 655.6858520507813 125.0957336425781 C 653.02392578125 118.1524963378906 650.0536499023438 111.4319763183594 646.8574829101563 105.1207275390625 C 643.5928955078125 98.67440795898438 639.9916381835938 92.45541381835938 636.153564453125 86.63656616210938 C 632.2403564453125 80.70358276367188 627.9609375 75.00439453125 623.4341430664063 69.69741821289063 C 618.825439453125 64.29425048828125 613.8199462890625 59.13290405273438 608.5568237304688 54.35699462890625 C 603.204833984375 49.500244140625 597.4244995117188 44.89508056640625 591.3764038085938 40.6693115234375 C 585.2327270507813 36.37673950195313 578.628173828125 32.34664916992188 571.74609375 28.69091796875 C 564.7623901367188 24.98123168945313 557.2841796875 21.54608154296875 549.5191650390625 18.4810791015625 C 541.6473388671875 15.37380981445313 533.24658203125 12.55438232421875 524.5503540039063 10.10113525390625 C 515.7427368164063 7.6165771484375 506.3712463378906 5.43389892578125 496.6959838867188 3.6138916015625 C 486.9059143066406 1.772216796875 476.5159301757813 0.24749755859375 465.8145751953125 -0.91802978515625 C 459.1114196777344 -1.64801025390625 452.4871826171875 -2.0181884765625 446.125732421875 -2.0181884765625 L 446.1103515625 -2.0181884765625 M 446.1102294921875 -3.01812744140625 C 452.4563598632813 -3.018798828125 459.0433349609375 -2.66131591796875 465.9228515625 -1.912109375 C 639.3280639648438 16.97366333007813 678 122.2262268066406 678 273 C 678 423.7737426757813 526.2244873046875 546 339 546 C 151.775390625 546 0 423.7737426757813 0 273 C 0 196.9794616699219 44.1431884765625 126.9717712402344 114.5830078125 126.9717712402344 C 135.650146484375 126.9717712402344 159.0571899414063 133.2269287109375 184.3544921875 147.4565734863281 C 197.4256591796875 154.8090515136719 208.9293823242188 158.0337524414063 219.3247375488281 158.0337524414063 C 292.8497009277344 158.0337524414063 311.523681640625 -3.00469970703125 446.1102294921875 -3.01812744140625 Z" stroke="none" fill="#00b4d8"/>
    </g>
    <g id="man_soccer-2" data-name="man_soccer">
      <path id="Path_258" data-name="Path 258" d="M-3855.458,4231.773s-53.073.962-83.839,10.192-39.035,14.229-39.035,14.229,1.035,6.181,0,9.435-1.437,8.727,0,16.862,2.916,9.911.993,11.833-6.8,1.184-8.727-5.917-2.811-15.531-5.029-16.123-8.135-2.515-11.094-1.036-25.146,29.14-26.773,28.844-5.029-1.627-3.846-4.733,13.165-18.934,11.094-18.638-19.229,15.383-20.117,14.792-6.064-2.958-3.994-5.473,24.554-21.892,23.223-21.892-25.442,10.8-27.217,8.135-1.923-4.142.74-6.064,28.992-11.538,26.477-12.573-25.442-1.479-26.477-3.55-1.923-6.508,2.367-6.8,28.1-.3,34.317-2.515,18.342-3.55,23.371-5.177,51.623-30.323,92.892-36.092,45.115-4.585,45.115-4.585Z" transform="translate(4192 -3860)" fill="#fdd8bb" stroke="#fdd8bb" stroke-width="1"/>
      <path id="Path_263" data-name="Path 263" d="M-3875.018,4328.722s-1.079,10.809,5.975,10.809,9.1-.228,12.516,2.275,7.168,8.534,7.168,8.534l49.04-27.763-9.216-15.815s-43.237,5.575-46.992,6.372S-3875.018,4328.722-3875.018,4328.722Z" transform="translate(4192 -3860)" fill="#880c21" stroke="#880c21" stroke-width="1"/>
      <path id="Path_262" data-name="Path 262" d="M-3836.028,4312.719s-8.076,10.96-9.422,21.729a119.306,119.306,0,0,0-1.154,16.729l58.072-26.344-22.5-13.076Z" transform="translate(4192 -3860)" fill="#efa594" stroke="#efa594" stroke-width="1"/>
      <path id="Path_264" data-name="Path 264" d="M-3611.061,4253.02s1.481,3.636,1.01,5.117-14.071-2.289-14.341-2.491-5.117-6.732-5.117-6.732l10.1-2.155,6.867,2.626Z" transform="translate(4192 -3860)" fill="#07415a" stroke="#07415a" stroke-width="1"/>
      <path id="Path_253" data-name="Path 253" d="M-3711.076,4203.733s-30.7-34.286-60.274-32.986-81.244,7.149-81.244,7.149-3.575,17.224-6.175,22.423-3.9,16.249-2.925,21.448a116.3,116.3,0,0,0,2.925,11.375s50.372-2.925,51.021,1.625-8.774,10.074-6.175,17.549,3.25,10.074,0,10.074-1.3,5.525-5.2,7.8-35.1,21.448-45.5,40.622-10.4,17.874-10.4,17.874,15.732-13.357,31.644-12.653,34.805,5,34.805,5-11.6,5.377-17.4,8.744a118.541,118.541,0,0,0-12.125,8.417s39.944-25.045,82.441-22.161,56.111,5,56.111,5,38.458-49.036,44.035-51.343a23.473,23.473,0,0,1,10.576-1.73s15.576-18.268,25.383-18.46,9.807,8.845,9.807,8.845.961-8.077-5.384-12.884a25.748,25.748,0,0,0-12.691-5.192s-2.308-12.884-9.615-16.922-30.767-4.615-30.767-4.615l-30.19-11.345Z" transform="translate(4192 -3860)" fill="#d30a2c" stroke="#d30a2c" stroke-width="1"/>
      <path id="Path_252" data-name="Path 252" d="M-3628,4172.2s15.008-8.5,21.008-23.5,1.75-26.5,1.75-26.5,1.25,20.5-7.25,23.749-12.749-6.25-12.749-6.25.75-4.25,7.75-6.25,8.75,0,8.75,0-7.25-4-13-3.5-13.5,2.25-10-4-2.75-16.5-2.75-16.5,3.25,15.5-1.75,14.749-8.25-20-31.5-20-37.5,17.749-36.748,29.248-14.749,12.5-16,28.748,6.75,16.249,6.75,16.249l25.248,6.5Z" transform="translate(4192 -3860)" stroke="#000" stroke-width="1"/>
      <path id="Path_251" data-name="Path 251" d="M-3628.494,4158.457s2.75,18.249-4.75,27.5,1,24.248-4,26.248-2,22.5-20.249,21.249-12.749,5.25-18.249,5.5-31.248-4-35.748-18.5-4-16.749-4-16.749,4.75,1.25,9.5-4.5-4.5-7.75-6.75-13.249.25-24.748,11.749-20.249,17.749,15,17.749,15-3-14.249,1.25-19.5,7.75-14,23.248-11a31.218,31.218,0,0,1,21.5,15.5l-6.75-15.5Z" transform="translate(4192 -3860)" fill="#fdd8bb" stroke="#fdd8bb" stroke-width="1"/>
      <path id="Path_257" data-name="Path 257" d="M-3666.926,4233.707c3.707-.584-17.646-1.282-27.09-4.582a75.436,75.436,0,0,1-18.024-9.843s1.023,11.379,21.5,17.182,17.408,1.365,18.319.569A7.687,7.687,0,0,1-3666.926,4233.707Z" transform="translate(4192 -3860)" fill="#efa594" stroke="#efa594" stroke-width="1"/>
      <path id="Path_254" data-name="Path 254" d="M-3622.992,4250.181s28.108,12.855,45.656,24.229,13.649,25.348,7.149,34.772-39.322-.325-52.321-5.2-68.895-19.5-75.069-29.573-4.225-16.9-6.175-18.849-7.474-10.725-6.5-13.324,5.525-2.6,10.074,2.6,11.374,12.349,11.374,12.349,1.209-19.11.981-20.248,3.413-3.186,5.689-.569,1.934,7.168,1.934,7.168a3.222,3.222,0,0,1,1.479-2.5c1.365-.683,4.21,1.024,4.324,4.551s1.479,0,2.162,0a3.644,3.644,0,0,1,3.755,3.641c.114,3.3-1.138,10,0,7.959s.683-6.516,2.5-7.959,5.007,1.29,5.234,6.334,0,10.62,5.461,12.44,18.319,2.73,18.319,2.73l-7.48-2.269a78.262,78.262,0,0,1,10.535-11.3A45.681,45.681,0,0,1-3622.992,4250.181Z" transform="matrix(0.999, 0.035, -0.035, 0.999, 4338.949, -3730.448)" fill="#fdd8bb" stroke="#fdd8bb" stroke-width="1"/>
      <path id="Path_255" data-name="Path 255" d="M-3636.11,4270.529s23.223,3.846,33.281,8.727,12.721,7.692,12.721,7.692-14.644-7.1-19.229-8.579S-3636.11,4270.529-3636.11,4270.529Z" transform="translate(4192 -3860)" fill="#efa695" stroke="#efa695" stroke-width="1"/>
      <path id="Path_256" data-name="Path 256" d="M-3688.769,4256.328s2.663,4.142,2.958,6.952a10.521,10.521,0,0,1-1.183,5.473s.74-4.29,0-6.213S-3688.769,4256.328-3688.769,4256.328Z" transform="translate(4192 -3860)" fill="#efa594" stroke="#efa594" stroke-width="1"/>
      <path id="Path_267" data-name="Path 267" d="M-3731.026,4433.274s5.192-.384,10.576-8.076,7.884-20.19,7.884-20.19l-52.688,5s17.306,19.229,21.152,20.767S-3731.026,4433.274-3731.026,4433.274Z" transform="translate(4192 -3860)" fill="#a5a5a5" stroke="#a5a5a5" stroke-width="1"/>
      <path id="Path_260" data-name="Path 260" d="M-3751.494,4419.64s75.394-22.1,79.293-23.723,29.573-8.774,29.573-8.774-13.974-16.574-14.624-29.9,0-24.7,0-24.7-41.921-10.074-51.346-9.424-48.1,16.573-51.671,46.8S-3751.494,4419.64-3751.494,4419.64Z" transform="translate(4192 -3860)" fill="#fdd8bb" stroke="#fdd8bb" stroke-width="1"/>
      <path id="Path_274" data-name="Path 274" d="M-3700.821,4323.093s-24.229,14.21-32.689,46.13-3.461,46.534-3.461,46.534l-19.614,5-2.885-63.456,33.651-30Z" transform="translate(4192 -3860)" fill="#efa594" stroke="#efa594" stroke-width="1"/>
      <path id="Path_271" data-name="Path 271" d="M-3728.522,4481.416s-1.775,23.371-13.756,31.8-26.773-45.41-26.773-45.41l31.506-1.332Z" transform="translate(4192 -3860)" fill="#a5a5a5" stroke="#a5a5a5" stroke-width="1"/>
      <path id="Path_268" data-name="Path 268" d="M-3744.676,4471.112s7.5,49.246,7.75,58.745,0,43.246,0,43.246-17-13.749-28-14-33.5,3.75-33.5,3.75-19.5-41-19.5-44,59.995-52.5,59.995-52.5Z" transform="translate(4192 -3860)" fill="#fdd8bb" stroke="#fdd8bb" stroke-width="1"/>
      <path id="Path_273" data-name="Path 273" d="M-3742.719,4484.292s-41.856,20.929-56.5,33.8-19.525,6.656-19.525,6.656l73.435-58.114Z" transform="translate(4192 -3860)" fill="#d89889" stroke="#d89889" stroke-width="1"/>
      <path id="Path_276" data-name="Path 276" d="M-3692.865,4312.632s-56.652-2.663-71,0-15.975,5.029-15.975,5.029l80.022,3.846Z" transform="translate(4192 -3860)" fill="#880c21" stroke="#880c21" stroke-width="1"/>
      <path id="Path_259" data-name="Path 259" d="M-3863.874,4379.706s-4.224-26.193,30.84-44.359,62.587-22.942,92.834-20.692,40.8,8.357,40.8,8.357-30.8,8.392-42.8,37.889-13.249,45.747-5.75,58.246,18,14.5,18,14.5h-15.7s11.049,24.349,13.324,32.473,3.849,15.533,3.849,15.533-4.5-11.309-17.173-8.709-52.646,48.421-65.32,54.921-18.717-5.128-21.106-10.7-32.612-55.77-36.862-79.018-3.75-40,0-47.746S-3863.874,4379.706-3863.874,4379.706Z" transform="translate(4192 -3860)" fill="#e2e2e2" stroke="#e2e2e2" stroke-width="1"/>
      <path id="Path_261" data-name="Path 261" d="M-3641.813,4388.481s-10.384-9.614-14.229-20.383-4.038-35.767-2.884-37.5,25.959-3.846,40.381,2.308,15.96,8.845,17.883,8.076,3.845-2.692,9.422-1.154,66.148,19.229,67.687,21.344,5.769,11.153,13.076,12.884,61.533,20.575,61.726,22.113-15.768,23.075-21.152,21.921-18.845-11.153-20.383-9.23-1.538,5.576-4.23,4.807-37.113-7.884-65.764-7.884-43.458-5.961-48.65-7.692-21.152-12.5-25.959-11.922S-3641.813,4388.481-3641.813,4388.481Z" transform="translate(4192 -3860)" stroke="#000" stroke-width="1"/>
      <path id="Path_265" data-name="Path 265" d="M-3486.817,4410.007s12.883,9.038,17.883,6.73,11.922-16.921,15.768-20,35.381,7.307,43.842,7.691,40.381,1.923,44.227,3.654,2.308,7.691-1.923,11.345-6.153,4.423-5.769,6.346.961,5.192-3.269,6.923-6.345-5.384-8.076-4.615-9.23,1.923-9.23,3.461-.577,6.346-4.807,7.115-8.461-7.691-11.153-7.115-7.5-.192-7.5,1.154-1.731,8.076-4.23,8.845-6.922,1.923-8.076,0-1.923-5.385-5.192-4.615-28.844,7.115-31.536,10.384-1.538,7.115-6.538,7.692-16.537-15-17.691-20.383-3.846-23.075-1.538-24.613A4.727,4.727,0,0,1-3486.817,4410.007Z" transform="translate(4192 -3860)" fill="#ffa841" stroke="#ffa841" stroke-width="1"/>
      <path id="Path_266" data-name="Path 266" d="M-3396.89,4405.037s4.712,7.536-10.99,9.926-39.255-2.958-39.255-2.958,20.139,9.9,32.314,9.672,30.721-2.731,34.135-7.624,0-8.073,0-8.073Z" transform="translate(4192 -3860)" fill="#e2e2e2" stroke="#e2e2e2" stroke-width="1"/>
      <path id="Path_269" data-name="Path 269" d="M-3797.921,4566.1s-3.75-4.5-1.5-5.5,22-6.25,38-2.75,30.5,14,29.5,16.249-6.5,16.749-7,24.248,2,21.749-11.749,23.248-71.744,3.5-87.992,2.75-41-2.5-44.746-6-4.25-7.749-7.75-8-55.245-4-59.995-3.25-10.249-23-8.249-26.5,2.5-5.25,22.748-7.5,76.243-10.749,90.992-11S-3797.921,4566.1-3797.921,4566.1Z" transform="translate(4192 -3860)" stroke="#000" stroke-width="1"/>
      <path id="Path_270" data-name="Path 270" d="M-3955.04,4590.59c-.961-4.258-2.692-10.219,1.346-13.3s12.5-2.115,13.268-4.038-.385-10.192-11.345-17.114-14.806-4.422-16.345-3.461-2.5,2.5-3.654,2.307-11.922-1.539-12.884,0-3.077,5.384-2.115,7.307,7.692,9.422,5.961,12.307-5.577,20-8.076,20.383-9.615-2.308-10.576,0-2.692,7.691-1.73,9.422,5.961,5.384,5,6.922-3.076,8.269-5,8.461-6.73-.384-7.692,2.5-1.923,7.307-.769,8.076,9.614,5.384,7.5,6.345-7.5,5-7.5,7.692-.577,5.576.769,5.961,9.614,2.115,6.73,3.077-5.192,2.5-3.461,5.384,4.038,4.038,7.5,5.192,7.307.192,9.23-2.5,6.922-26.151,11.345-28.459,34.228-21.344,31.151-26.729S-3954.079,4594.848-3955.04,4590.59Z" transform="translate(4192 -3860)" fill="#ffa841" stroke="#ffa841" stroke-width="1"/>
      <path id="Path_272" data-name="Path 272" d="M-3745.164,4434.653s-36.236,6.3-69.118,3.612-46.342-26.729-46.342-26.729,12.884,29.229,35.574,37.112,65.764,12.307,74.032,11.153,15.96-1.73,15.96-1.73l-5.817-13.852Z" transform="translate(4192 -3860)" fill="#a5a5a5" stroke="#a5a5a5" stroke-width="1"/>
      <path id="Path_275" data-name="Path 275" d="M-3974.039,4631.24l12.288-8.306s-5.461-2.276-7.4-7.282,1.138-7.964,1.138-7.964-8.192,6.371-7.851,13.084A36.215,36.215,0,0,0-3974.039,4631.24Z" transform="translate(4192 -3860)" fill="#e2e2e2" stroke="#e2e2e2" stroke-width="1"/>
    </g>
  </g>
</svg>
