<svg xmlns="http://www.w3.org/2000/svg" width="720.196" height="680.614" viewBox="0 0 720.196 680.614">
  <g id="play_games" transform="translate(-986.804 -236.982)">
    <g id="Path_1055" data-name="Path 1055" transform="translate(1009 240)" fill="#147198">
      <path d="M 339 545.5 C 316.0264282226563 545.5 293.0675048828125 543.6361694335938 270.760986328125 539.9602661132813 C 249.0223388671875 536.3779296875 227.6396636962891 531.0326538085938 207.2071685791016 524.072998046875 C 187.1467437744141 517.2400512695313 167.798828125 508.7829895019531 149.7008361816406 498.9366455078125 C 131.7764129638672 489.184814453125 114.9215850830078 477.9858093261719 99.60441589355469 465.6507263183594 C 84.28925323486328 453.3172302246094 70.38533020019531 439.7464904785156 58.27891540527344 425.3155822753906 C 46.05833435058594 410.7484130859375 35.5625 395.1761474609375 27.08300018310547 379.0314025878906 C 18.44791603088379 362.590576171875 11.81616687774658 345.3861694335938 7.371916770935059 327.8959045410156 C 2.812000036239624 309.9508361816406 0.5 291.4812316894531 0.5 273 C 0.5 263.6035766601563 1.182666659355164 254.1734008789063 2.529083251953125 244.9714965820313 C 3.864749908447266 235.8428192138672 5.865749835968018 226.8548278808594 8.47641658782959 218.2572479248047 C 11.09025001525879 209.6492462158203 14.33850002288818 201.3560791015625 18.13091659545898 193.6080780029297 C 21.96241760253906 185.7802429199219 26.38624954223633 178.4342346191406 31.27949905395508 171.7742462158203 C 36.26416778564453 164.9898223876953 41.79158401489258 158.8423309326172 47.70824813842773 153.5027465820313 C 53.77766799926758 148.0251617431641 60.33708190917969 143.3260803222656 67.20424652099609 139.5360717773438 C 81.70891571044922 131.5308227539063 97.6494140625 127.4717407226563 114.5830001831055 127.4717407226563 C 136.628173828125 127.4717407226563 160.0201721191406 134.3422393798828 184.1093292236328 147.8923187255859 C 190.5260009765625 151.5017395019531 196.7810821533203 154.2229919433594 202.7007446289063 155.9807434082031 C 208.4017486572266 157.6735687255859 213.9948272705078 158.5324859619141 219.3245849609375 158.5337371826172 C 219.3281097412109 158.5337371826172 219.3334045410156 158.5337371826172 219.3369140625 158.5337371826172 C 233.7647705078125 158.5337371826172 246.9222869873047 152.5426025390625 260.7470703125 139.6784057617188 C 273.0910949707031 128.1922454833984 284.6375122070313 112.4526596069336 296.8618469238281 95.78890991210938 C 305.1989135742188 84.424072265625 313.8199157714844 72.6722412109375 323.3499145507813 61.32782363891602 C 334.1473388671875 48.47457504272461 344.5098266601563 38.11399078369141 355.0296630859375 29.6541576385498 C 361.1223449707031 24.75457382202148 367.4244079589844 20.37874031066895 373.7609252929688 16.64824104309082 C 380.5830078125 12.6318244934082 387.7041625976563 9.20974063873291 394.9265747070313 6.477074146270752 C 402.61474609375 3.568074226379395 410.6849060058594 1.338574171066284 418.912841796875 -0.1495924443006516 C 427.6019897460938 -1.721259117126465 436.7525024414063 -2.518175840377808 446.1102600097656 -2.518175840377808 C 452.500244140625 -2.518175840377808 459.1479187011719 -2.147009134292603 465.86865234375 -1.415009140968323 C 476.5828247070313 -0.248175784945488 486.9857482910156 1.278490900993347 496.7884216308594 3.122490882873535 C 506.4782409667969 4.94524097442627 515.8643188476563 7.131324291229248 524.6860961914063 9.619991302490234 C 533.3984985351563 12.07774066925049 541.8153076171875 14.90257453918457 549.7028198242188 18.0159912109375 C 557.4851684570313 21.0879077911377 564.9805297851563 24.53090667724609 571.9806518554688 28.24932479858398 C 578.8805541992188 31.91457366943359 585.5025634765625 35.95532608032227 591.662841796875 40.25940704345703 C 597.7281494140625 44.4973258972168 603.5252685546875 49.11582565307617 608.8929443359375 53.98665618896484 C 614.1716918945313 58.77690887451172 619.1920776367188 63.95357513427734 623.8146362304688 69.37299346923828 C 628.3545532226563 74.69548797607422 632.646484375 80.41115570068359 636.5709838867188 86.36124420166016 C 640.4194946289063 92.19599151611328 644.030517578125 98.43157196044922 647.3035888671875 104.894905090332 C 650.5075073242188 111.221321105957 653.4847412109375 117.9575729370117 656.1526489257813 124.9167404174805 C 658.7584838867188 131.7136535644531 661.1489868164063 138.93115234375 663.2577514648438 146.3687438964844 C 665.31201171875 153.6142425537109 667.16259765625 161.2930755615234 668.7579956054688 169.1920776367188 C 674.6404418945313 198.3170776367188 677.5 232.2729034423828 677.5 273 C 677.5 291.4812316894531 675.18798828125 309.9508361816406 670.628173828125 327.8959045410156 C 666.183837890625 345.3861694335938 659.5520629882813 362.590576171875 650.9170532226563 379.0314025878906 C 642.4375 395.1761474609375 631.941650390625 410.7484130859375 619.7210693359375 425.3155822753906 C 607.6146850585938 439.7464904785156 593.7108154296875 453.3172302246094 578.3955688476563 465.6507263183594 C 563.0784301757813 477.9858093261719 546.2235717773438 489.184814453125 528.2991943359375 498.9366455078125 C 510.201171875 508.7829895019531 490.8533325195313 517.2400512695313 470.7929077148438 524.072998046875 C 450.3603210449219 531.0326538085938 428.9777526855469 536.3779296875 407.239013671875 539.9602661132813 C 384.9324951171875 543.6361694335938 361.9735717773438 545.5 339 545.5 Z" stroke="none"/>
      <path d="M 446.1103515625 -2.0181884765625 C 436.7821655273438 -2.01727294921875 427.6614379882813 -1.22222900390625 419.0013427734375 0.34466552734375 C 410.8031616210938 1.82806396484375 402.7625122070313 4.0498046875 395.1025695800781 6.94830322265625 C 387.9065856933594 9.67132568359375 380.8110961914063 13.08123779296875 374.0133361816406 17.083251953125 C 367.6975708007813 20.80166625976563 361.4154052734375 25.16357421875 355.3414916992188 30.04791259765625 C 344.84716796875 38.48681640625 334.5072631835938 48.8245849609375 323.7309265136719 61.6517333984375 C 314.21142578125 72.98281860351563 305.5952453613281 84.72698974609375 297.2628479003906 96.08450317382813 C 285.0245056152344 112.7658386230469 273.4649047851563 128.5220642089844 261.086669921875 140.0400695800781 C 247.1605834960938 152.9984130859375 233.8904113769531 159.0337524414063 219.3247375488281 159.0337524414063 C 213.9478454589844 159.0337524414063 208.3067626953125 158.1681518554688 202.5583190917969 156.4609985351563 C 196.6040954589844 154.6926574707031 190.3145141601563 151.9564208984375 183.8642578125 148.3281555175781 C 159.850830078125 134.8206481933594 136.541259765625 127.9717407226563 114.5830078125 127.9717407226563 C 97.73486328125 127.9717407226563 81.8756103515625 132.0098266601563 67.44586181640625 139.9737548828125 C 60.6121826171875 143.7453308105469 54.084228515625 148.4219970703125 48.04315185546875 153.8739013671875 C 42.15167236328125 159.19091796875 36.6470947265625 165.3130798339844 31.68243408203125 172.0702514648438 C 26.8067626953125 178.7064208984375 22.3984375 186.0267333984375 18.57989501953125 193.8279113769531 C 14.79925537109375 201.5519104003906 11.5609130859375 209.8199768066406 8.954833984375 218.4024963378906 C 6.3514404296875 226.976318359375 4.35589599609375 235.9398193359375 3.0238037109375 245.0439147949219 C 1.680908203125 254.2218933105469 1 263.6276550292969 1 273 C 1 291.4397583007813 3.30682373046875 309.867919921875 7.85650634765625 327.7727355957031 C 12.29107666015625 345.2250671386719 18.90875244140625 362.3927612304688 27.52557373046875 378.7988891601563 C 35.98858642578125 394.9120788574219 46.46435546875 410.4544067382813 58.6619873046875 424.994140625 C 70.74749755859375 439.4003295898438 84.62811279296875 452.9481506347656 99.91802978515625 465.2613220214844 C 115.2119140625 477.5775756835938 132.0416870117188 488.7599182128906 149.9397583007813 498.4974975585938 C 168.0129089355469 508.330322265625 187.3346557617188 516.77587890625 207.3683471679688 523.5997314453125 C 227.77490234375 530.5505981445313 249.1306762695313 535.8890991210938 270.8422546386719 539.4669189453125 C 293.1220092773438 543.138427734375 316.0535888671875 545 339 545 C 361.9464111328125 545 384.8779907226563 543.138427734375 407.1577453613281 539.4669189453125 C 428.8693237304688 535.8890991210938 450.22509765625 530.5505981445313 470.6316528320313 523.5997314453125 C 490.6652526855469 516.77587890625 509.9869995117188 508.330322265625 528.0601806640625 498.4974975585938 C 545.9583129882813 488.7599182128906 562.7880859375 477.5775756835938 578.08203125 465.2613220214844 C 593.3719482421875 452.9481506347656 607.25244140625 439.4003295898438 619.3380126953125 424.994140625 C 631.53564453125 410.4544067382813 642.0114135742188 394.9120788574219 650.4744262695313 378.7988891601563 C 659.0912475585938 362.3927612304688 665.7089233398438 345.2250671386719 670.1434936523438 327.7727355957031 C 674.6931762695313 309.867919921875 677 291.4397583007813 677 273 C 677 232.3065795898438 674.1436767578125 198.3830871582031 668.267822265625 169.2910766601563 C 666.6749877929688 161.4045715332031 664.8275146484375 153.7383117675781 662.7766723632813 146.5051574707031 C 660.6719970703125 139.0819091796875 658.2862548828125 131.8787536621094 655.6858520507813 125.0957336425781 C 653.02392578125 118.1524963378906 650.0536499023438 111.4319763183594 646.8574829101563 105.1207275390625 C 643.5928955078125 98.67440795898438 639.9916381835938 92.45541381835938 636.153564453125 86.63656616210938 C 632.2403564453125 80.70358276367188 627.9609375 75.00439453125 623.4341430664063 69.69741821289063 C 618.825439453125 64.29425048828125 613.8199462890625 59.13290405273438 608.5568237304688 54.35699462890625 C 603.204833984375 49.500244140625 597.4244995117188 44.89508056640625 591.3764038085938 40.6693115234375 C 585.2327270507813 36.37673950195313 578.628173828125 32.34664916992188 571.74609375 28.69091796875 C 564.7623901367188 24.98123168945313 557.2841796875 21.54608154296875 549.5191650390625 18.4810791015625 C 541.6473388671875 15.37380981445313 533.24658203125 12.55438232421875 524.5503540039063 10.10113525390625 C 515.7427368164063 7.6165771484375 506.3712463378906 5.43389892578125 496.6959838867188 3.6138916015625 C 486.9059143066406 1.772216796875 476.5159301757813 0.24749755859375 465.8145751953125 -0.91802978515625 C 459.1114196777344 -1.64801025390625 452.4871826171875 -2.0181884765625 446.125732421875 -2.0181884765625 L 446.1103515625 -2.0181884765625 M 446.1102294921875 -3.01812744140625 C 452.4563598632813 -3.018798828125 459.0433349609375 -2.66131591796875 465.9228515625 -1.912109375 C 639.3280639648438 16.97366333007813 678 122.2262268066406 678 273 C 678 423.7737426757813 526.2244873046875 546 339 546 C 151.775390625 546 0 423.7737426757813 0 273 C 0 196.9794616699219 44.1431884765625 126.9717712402344 114.5830078125 126.9717712402344 C 135.650146484375 126.9717712402344 159.0571899414063 133.2269287109375 184.3544921875 147.4565734863281 C 197.4256591796875 154.8090515136719 208.9293823242188 158.0337524414063 219.3247375488281 158.0337524414063 C 292.8497009277344 158.0337524414063 311.523681640625 -3.00469970703125 446.1102294921875 -3.01812744140625 Z" stroke="none" fill="#147198"/>
    </g>
    <g id="Path_985" data-name="Path 985" transform="translate(1029 250)" fill="#00b4d8">
      <path d="M 339 545.5 C 316.0264282226563 545.5 293.0675048828125 543.6361694335938 270.760986328125 539.9602661132813 C 249.0223388671875 536.3779296875 227.6396636962891 531.0326538085938 207.2071685791016 524.072998046875 C 187.1467437744141 517.2400512695313 167.798828125 508.7829895019531 149.7008361816406 498.9366455078125 C 131.7764129638672 489.184814453125 114.9215850830078 477.9858093261719 99.60441589355469 465.6507263183594 C 84.28925323486328 453.3172302246094 70.38533020019531 439.7464904785156 58.27891540527344 425.3155822753906 C 46.05833435058594 410.7484130859375 35.5625 395.1761474609375 27.08300018310547 379.0314025878906 C 18.44791603088379 362.590576171875 11.81616687774658 345.3861694335938 7.371916770935059 327.8959045410156 C 2.812000036239624 309.9508361816406 0.5 291.4812316894531 0.5 273 C 0.5 263.6035766601563 1.182666659355164 254.1734008789063 2.529083251953125 244.9714965820313 C 3.864749908447266 235.8428192138672 5.865749835968018 226.8548278808594 8.47641658782959 218.2572479248047 C 11.09025001525879 209.6492462158203 14.33850002288818 201.3560791015625 18.13091659545898 193.6080780029297 C 21.96241760253906 185.7802429199219 26.38624954223633 178.4342346191406 31.27949905395508 171.7742462158203 C 36.26416778564453 164.9898223876953 41.79158401489258 158.8423309326172 47.70824813842773 153.5027465820313 C 53.77766799926758 148.0251617431641 60.33708190917969 143.3260803222656 67.20424652099609 139.5360717773438 C 81.70891571044922 131.5308227539063 97.6494140625 127.4717407226563 114.5830001831055 127.4717407226563 C 136.628173828125 127.4717407226563 160.0201721191406 134.3422393798828 184.1093292236328 147.8923187255859 C 190.5260009765625 151.5017395019531 196.7810821533203 154.2229919433594 202.7007446289063 155.9807434082031 C 208.4017486572266 157.6735687255859 213.9948272705078 158.5324859619141 219.3245849609375 158.5337371826172 C 219.3281097412109 158.5337371826172 219.3334045410156 158.5337371826172 219.3369140625 158.5337371826172 C 233.7647705078125 158.5337371826172 246.9222869873047 152.5426025390625 260.7470703125 139.6784057617188 C 273.0910949707031 128.1922454833984 284.6375122070313 112.4526596069336 296.8618469238281 95.78890991210938 C 305.1989135742188 84.424072265625 313.8199157714844 72.6722412109375 323.3499145507813 61.32782363891602 C 334.1473388671875 48.47457504272461 344.5098266601563 38.11399078369141 355.0296630859375 29.6541576385498 C 361.1223449707031 24.75457382202148 367.4244079589844 20.37874031066895 373.7609252929688 16.64824104309082 C 380.5830078125 12.6318244934082 387.7041625976563 9.20974063873291 394.9265747070313 6.477074146270752 C 402.61474609375 3.568074226379395 410.6849060058594 1.338574171066284 418.912841796875 -0.1495924443006516 C 427.6019897460938 -1.721259117126465 436.7525024414063 -2.518175840377808 446.1102600097656 -2.518175840377808 C 452.500244140625 -2.518175840377808 459.1479187011719 -2.147009134292603 465.86865234375 -1.415009140968323 C 476.5828247070313 -0.248175784945488 486.9857482910156 1.278490900993347 496.7884216308594 3.122490882873535 C 506.4782409667969 4.94524097442627 515.8643188476563 7.131324291229248 524.6860961914063 9.619991302490234 C 533.3984985351563 12.07774066925049 541.8153076171875 14.90257453918457 549.7028198242188 18.0159912109375 C 557.4851684570313 21.0879077911377 564.9805297851563 24.53090667724609 571.9806518554688 28.24932479858398 C 578.8805541992188 31.91457366943359 585.5025634765625 35.95532608032227 591.662841796875 40.25940704345703 C 597.7281494140625 44.4973258972168 603.5252685546875 49.11582565307617 608.8929443359375 53.98665618896484 C 614.1716918945313 58.77690887451172 619.1920776367188 63.95357513427734 623.8146362304688 69.37299346923828 C 628.3545532226563 74.69548797607422 632.646484375 80.41115570068359 636.5709838867188 86.36124420166016 C 640.4194946289063 92.19599151611328 644.030517578125 98.43157196044922 647.3035888671875 104.894905090332 C 650.5075073242188 111.221321105957 653.4847412109375 117.9575729370117 656.1526489257813 124.9167404174805 C 658.7584838867188 131.7136535644531 661.1489868164063 138.93115234375 663.2577514648438 146.3687438964844 C 665.31201171875 153.6142425537109 667.16259765625 161.2930755615234 668.7579956054688 169.1920776367188 C 674.6404418945313 198.3170776367188 677.5 232.2729034423828 677.5 273 C 677.5 291.4812316894531 675.18798828125 309.9508361816406 670.628173828125 327.8959045410156 C 666.183837890625 345.3861694335938 659.5520629882813 362.590576171875 650.9170532226563 379.0314025878906 C 642.4375 395.1761474609375 631.941650390625 410.7484130859375 619.7210693359375 425.3155822753906 C 607.6146850585938 439.7464904785156 593.7108154296875 453.3172302246094 578.3955688476563 465.6507263183594 C 563.0784301757813 477.9858093261719 546.2235717773438 489.184814453125 528.2991943359375 498.9366455078125 C 510.201171875 508.7829895019531 490.8533325195313 517.2400512695313 470.7929077148438 524.072998046875 C 450.3603210449219 531.0326538085938 428.9777526855469 536.3779296875 407.239013671875 539.9602661132813 C 384.9324951171875 543.6361694335938 361.9735717773438 545.5 339 545.5 Z" stroke="none"/>
      <path d="M 446.1103515625 -2.0181884765625 C 436.7821655273438 -2.01727294921875 427.6614379882813 -1.22222900390625 419.0013427734375 0.34466552734375 C 410.8031616210938 1.82806396484375 402.7625122070313 4.0498046875 395.1025695800781 6.94830322265625 C 387.9065856933594 9.67132568359375 380.8110961914063 13.08123779296875 374.0133361816406 17.083251953125 C 367.6975708007813 20.80166625976563 361.4154052734375 25.16357421875 355.3414916992188 30.04791259765625 C 344.84716796875 38.48681640625 334.5072631835938 48.8245849609375 323.7309265136719 61.6517333984375 C 314.21142578125 72.98281860351563 305.5952453613281 84.72698974609375 297.2628479003906 96.08450317382813 C 285.0245056152344 112.7658386230469 273.4649047851563 128.5220642089844 261.086669921875 140.0400695800781 C 247.1605834960938 152.9984130859375 233.8904113769531 159.0337524414063 219.3247375488281 159.0337524414063 C 213.9478454589844 159.0337524414063 208.3067626953125 158.1681518554688 202.5583190917969 156.4609985351563 C 196.6040954589844 154.6926574707031 190.3145141601563 151.9564208984375 183.8642578125 148.3281555175781 C 159.850830078125 134.8206481933594 136.541259765625 127.9717407226563 114.5830078125 127.9717407226563 C 97.73486328125 127.9717407226563 81.8756103515625 132.0098266601563 67.44586181640625 139.9737548828125 C 60.6121826171875 143.7453308105469 54.084228515625 148.4219970703125 48.04315185546875 153.8739013671875 C 42.15167236328125 159.19091796875 36.6470947265625 165.3130798339844 31.68243408203125 172.0702514648438 C 26.8067626953125 178.7064208984375 22.3984375 186.0267333984375 18.57989501953125 193.8279113769531 C 14.79925537109375 201.5519104003906 11.5609130859375 209.8199768066406 8.954833984375 218.4024963378906 C 6.3514404296875 226.976318359375 4.35589599609375 235.9398193359375 3.0238037109375 245.0439147949219 C 1.680908203125 254.2218933105469 1 263.6276550292969 1 273 C 1 291.4397583007813 3.30682373046875 309.867919921875 7.85650634765625 327.7727355957031 C 12.29107666015625 345.2250671386719 18.90875244140625 362.3927612304688 27.52557373046875 378.7988891601563 C 35.98858642578125 394.9120788574219 46.46435546875 410.4544067382813 58.6619873046875 424.994140625 C 70.74749755859375 439.4003295898438 84.62811279296875 452.9481506347656 99.91802978515625 465.2613220214844 C 115.2119140625 477.5775756835938 132.0416870117188 488.7599182128906 149.9397583007813 498.4974975585938 C 168.0129089355469 508.330322265625 187.3346557617188 516.77587890625 207.3683471679688 523.5997314453125 C 227.77490234375 530.5505981445313 249.1306762695313 535.8890991210938 270.8422546386719 539.4669189453125 C 293.1220092773438 543.138427734375 316.0535888671875 545 339 545 C 361.9464111328125 545 384.8779907226563 543.138427734375 407.1577453613281 539.4669189453125 C 428.8693237304688 535.8890991210938 450.22509765625 530.5505981445313 470.6316528320313 523.5997314453125 C 490.6652526855469 516.77587890625 509.9869995117188 508.330322265625 528.0601806640625 498.4974975585938 C 545.9583129882813 488.7599182128906 562.7880859375 477.5775756835938 578.08203125 465.2613220214844 C 593.3719482421875 452.9481506347656 607.25244140625 439.4003295898438 619.3380126953125 424.994140625 C 631.53564453125 410.4544067382813 642.0114135742188 394.9120788574219 650.4744262695313 378.7988891601563 C 659.0912475585938 362.3927612304688 665.7089233398438 345.2250671386719 670.1434936523438 327.7727355957031 C 674.6931762695313 309.867919921875 677 291.4397583007813 677 273 C 677 232.3065795898438 674.1436767578125 198.3830871582031 668.267822265625 169.2910766601563 C 666.6749877929688 161.4045715332031 664.8275146484375 153.7383117675781 662.7766723632813 146.5051574707031 C 660.6719970703125 139.0819091796875 658.2862548828125 131.8787536621094 655.6858520507813 125.0957336425781 C 653.02392578125 118.1524963378906 650.0536499023438 111.4319763183594 646.8574829101563 105.1207275390625 C 643.5928955078125 98.67440795898438 639.9916381835938 92.45541381835938 636.153564453125 86.63656616210938 C 632.2403564453125 80.70358276367188 627.9609375 75.00439453125 623.4341430664063 69.69741821289063 C 618.825439453125 64.29425048828125 613.8199462890625 59.13290405273438 608.5568237304688 54.35699462890625 C 603.204833984375 49.500244140625 597.4244995117188 44.89508056640625 591.3764038085938 40.6693115234375 C 585.2327270507813 36.37673950195313 578.628173828125 32.34664916992188 571.74609375 28.69091796875 C 564.7623901367188 24.98123168945313 557.2841796875 21.54608154296875 549.5191650390625 18.4810791015625 C 541.6473388671875 15.37380981445313 533.24658203125 12.55438232421875 524.5503540039063 10.10113525390625 C 515.7427368164063 7.6165771484375 506.3712463378906 5.43389892578125 496.6959838867188 3.6138916015625 C 486.9059143066406 1.772216796875 476.5159301757813 0.24749755859375 465.8145751953125 -0.91802978515625 C 459.1114196777344 -1.64801025390625 452.4871826171875 -2.0181884765625 446.125732421875 -2.0181884765625 L 446.1103515625 -2.0181884765625 M 446.1102294921875 -3.01812744140625 C 452.4563598632813 -3.018798828125 459.0433349609375 -2.66131591796875 465.9228515625 -1.912109375 C 639.3280639648438 16.97366333007813 678 122.2262268066406 678 273 C 678 423.7737426757813 526.2244873046875 546 339 546 C 151.775390625 546 0 423.7737426757813 0 273 C 0 196.9794616699219 44.1431884765625 126.9717712402344 114.5830078125 126.9717712402344 C 135.650146484375 126.9717712402344 159.0571899414063 133.2269287109375 184.3544921875 147.4565734863281 C 197.4256591796875 154.8090515136719 208.9293823242188 158.0337524414063 219.3247375488281 158.0337524414063 C 292.8497009277344 158.0337524414063 311.523681640625 -3.00469970703125 446.1102294921875 -3.01812744140625 Z" stroke="none" fill="#00b4d8"/>
    </g>
    <g id="play_games-2" data-name="play_games">
      <path id="Path_295" data-name="Path 295" d="M-2781.059,5463.685s-16.476-19.433-16.053-35.909,12.251-54.075,12.251-54.075-14.364,9.294-19.011,13.941,5.914-20.278,9.717-24.081,15.209-13.941,15.209-13.941-13.519-1.69-18.166,0,2.112-5.915,25.348-14.786,89.562-15.631,113.642,2.957,49.85,33.8,53.23,63.792-10.139,73.931-20.278,81.535S-2781.059,5463.685-2781.059,5463.685Z" transform="translate(4192 -5030)" fill="#474747" stroke="#474747" stroke-width="1"/>
      <path id="Path_305" data-name="Path 305" d="M-2614.161,5780s41.4,15.26,57.032,28.778,45.625,45.2,45.625,45.2l-5.07,22.39-139.833-36.332-3.8-29.149Z" transform="translate(4192 -5030)" stroke="#000" stroke-width="1"/>
      <path id="Path_306" data-name="Path 306" d="M-2497.615,5876.371s-244.1-96.866-322.991-157.2-226.465-175.418-226.465-175.418-109.52,49.191-102.095,140.148,61.225,168.356,137.563,209.505,159.44,68.936,326.5,44.8S-2497.615,5876.371-2497.615,5876.371Z" transform="translate(4192 -5030)" fill="#e2e2e2" stroke="#e2e2e2" stroke-width="1"/>
      <path id="Path_300" data-name="Path 300" d="M-2769.71,5580.367l-19.5,30.872,37.7,34.771s24.7-32.5,26.972-34.771,6.5-7.8,6.5-7.8,45.171,37.046,65.319,74.418,45.821,105.94,45.821,105.94,28.272,8.449,47.771,23.4,47.445,46.146,47.445,46.146,8.125-110.49,4.875-126.738-30.222-132.262-45.5-151.11-100.415-59.794-100.415-59.794Z" transform="translate(4192 -5030)" fill="#1387b8" stroke="#1387b8" stroke-width="1"/>
      <path id="Path_299" data-name="Path 299" d="M-2695.944,5573.545s14.3,13.649,16.9,17.224,10.724,15.6,10.724,15.6,35.1-35.1,42.246-47.12,9.1-13,5.524-16.9-29.9-29.572-29.9-29.572Z" transform="translate(4192 -5030)" fill="#ffc49f" stroke="#ffc49f" stroke-width="1"/>
      <path id="Path_294" data-name="Path 294" d="M-2786.974,5456.926s-8.027,31.262,2.535,76.888,14.364,56.61,22.813,58.722,34.219,4.647,43.936,0,43.091-21.123,63.369-51.963,19.855-95.054,19.855-95.054-17.321-10.984-22.813-26.192-13.941-45.626-13.941-45.626-43.513-13.519-62.1,0-32.107,22.391-39.711,41.4S-2786.974,5456.926-2786.974,5456.926Z" transform="translate(4192 -5030)" fill="#fdd8bb" stroke="#fdd8bb" stroke-width="1"/>
      <path id="Path_297" data-name="Path 297" d="M-2645.5,5506.973s-3.5,61.994-22.748,67.494-68.493,6.25-68.493,6.25v9s61.244-3.5,68.493-5.25,19.5-13,23.748-27.747,8.749-45.246,8.749-45.246Z" transform="translate(4192 -5030)" stroke="#000" stroke-width="1"/>
      <g id="Ellipse_19" data-name="Ellipse 19" transform="translate(1527 395)" stroke="#000" stroke-width="1">
        <ellipse cx="34" cy="45.5" rx="34" ry="45.5" stroke="none"/>
        <ellipse cx="34" cy="45.5" rx="33.5" ry="45" fill="none"/>
      </g>
      <g id="Ellipse_20" data-name="Ellipse 20" transform="translate(1537 394)" fill="#03e902" stroke="#03e902" stroke-width="1">
        <ellipse cx="34" cy="45.5" rx="34" ry="45.5" stroke="none"/>
        <ellipse cx="34" cy="45.5" rx="33.5" ry="45" fill="none"/>
      </g>
      <path id="Path_296" data-name="Path 296" d="M-2756.553,5334.4s66.326-16.9,100.123-5.069,35.909,16.054,39.289,43.936,4.584,88.947,2.112,91.674-11.791,3.614-14.364,0,.423-102.236-14.364-111.107c-6.048-3.628-21.4-10.976-43.091-14.363C-2717.7,5334.657-2756.553,5334.4-2756.553,5334.4Z" transform="translate(4192 -5030)" stroke="#000" stroke-width="1"/>
      <path id="Path_298" data-name="Path 298" d="M-2763.934,5592.063c-1.627-.592-3.7-3.55-2.515-11.538s29.731-4.881,32.393-3.254,3.254,16.123-2.071,16.862S-2762.307,5592.655-2763.934,5592.063Z" transform="translate(4192 -5030)" fill="#03e902" stroke="#03e902" stroke-width="1"/>
      <path id="Path_302" data-name="Path 302" d="M-2773.386,5814.055s-14.806-10.191-28.651-7.115-23.652,16.537-20.575,18.652,3.077,4.615,5.384,3.461,16.345-5.384,18.652-5.192S-2773.386,5814.055-2773.386,5814.055Z" transform="translate(4195 -5028)" fill="#f2d0b5" stroke="#f2d0b5" stroke-width="1"/>
      <path id="Path_308" data-name="Path 308" d="M-2680.9,5876.371l1.69,18.151-116.175,40.556L-2942.4,5796.09l2.535-19.011Z" transform="translate(4192 -5030)" stroke="#000" stroke-width="1"/>
      <path id="Path_307" data-name="Path 307" d="M-2847.773,5744.128s68.438,63.791,98.855,84.491,68.015,48.583,68.015,48.583l-111.106,42.668-148.282-142.79Z" transform="translate(4192 -5030)" fill="#03e902" stroke="#03e902" stroke-width="1"/>
      <path id="Path_329" data-name="Path 329" d="M-2878.927,5763.431l5,4.038,11.537-4.038-5.576-5Z" transform="translate(4221 -4965)" fill="#707070" stroke="#707070" stroke-width="1"/>
      <path id="Path_330" data-name="Path 330" d="M-2878.927,5763.431l5,4.038,11.537-4.038-5.576-5Z" transform="translate(4231 -4957)" fill="#707070" stroke="#707070" stroke-width="1"/>
      <path id="Path_301" data-name="Path 301" d="M-2623.051,5671.518s-16.925,48.662-20.734,59.855-7.884,24.421-7.884,24.421-20.19,6.345-34.227,19.421-63.263,43.265-63.263,43.265-19.228-7.116-28.266-5-39.227,10-43.457,19.229-8.461,16.344-10,29.8,9.23,17.5,10.96,11.922,6.345-19.806,6.345-19.806-.769,25.189.961,26.536,6.154,4.423,6.923,1.539,2.307-1.154,1.923,0-2.307,4.038,0,4.807,8.269,1.73,8.076,0-1.154-6.345,0-4.807.769,4.615,3.077,4.807,6.11.914,5.341-1.2-.438-5.251,0-4.2,1.138,5.952,2.538,5.952,6.915.7,6.652-1.75.441-10.521,1.619-13.409,1.348-10.3,13.076-10.387,29.228.388,33.266-4.611,2.692-8.46,33.074-19.613,75.57-25.574,81.915-37.881,39.419-107.3,39.419-107.3-10.384-13.075-19.037-16.344S-2623.051,5671.518-2623.051,5671.518Z" transform="translate(4192 -5030)" fill="#fdd8bb" stroke="#fdd8bb" stroke-width="1"/>
      <path id="Path_335" data-name="Path 335" d="M-2969.859,5738.89s25.347.65,39.646-11.049,21.772-19.5,18.848-26.647-47.12-10.4-47.12-10.4l-38.346,33.146Z" transform="translate(4192 -5030)" fill="#3f4851" stroke="#3f4851" stroke-width="1"/>
      <path id="Path_303" data-name="Path 303" d="M-2750.981,5644.7s-39.246,59.994-50.245,58.744-89.491-15.5-98.49-8.749-15.749,11.749-24.748,13-16.5,13.749-21.748,12-7.5-7.249-4-10.5,11.249-10,6.5-9-27.747,17.5-30,16.5-14.749-32.747-14.749-32.747,21-18.748,40-19.248,131.737-7,136.237-14,25.248-41.246,25.248-41.246Z" transform="translate(4192 -5030)" fill="#fdd8bb" stroke="#fdd8bb" stroke-width="1"/>
      <path id="Path_304" data-name="Path 304" d="M-2573.986,5693.667s-11-14.749-27.5-19.5-22-3.25-22-3.25,9.5-5,25.248-2.75,21.748,7.5,21.748,7.5,29-44.5,25.5-63.494-83.741-87.491-83.741-87.491,74.243,37.747,81.992,50.245,24.247,61.493,34.746,102.739,11.5,56.745,11.5,78.242-4.25,86.741-4.25,86.741-2-91.991-10.749-134.736-20.248-79.992-20.248-79.992Z" transform="translate(4192 -5030)" fill="#0b6084" stroke="#0b6084" stroke-width="1"/>
      <path id="Path_309" data-name="Path 309" d="M-2929.691,5780l15.96,14.005,13.268-6.153-14.229-13.268Z" transform="translate(4192 -5030)" fill="#707070" stroke="#707070" stroke-width="1"/>
      <path id="Path_310" data-name="Path 310" d="M-2911.424,5774.583l12.5,9.807,13.076-5-12.306-10.383Z" transform="translate(4192 -5030)" fill="#707070" stroke="#707070" stroke-width="1"/>
      <path id="Path_311" data-name="Path 311" d="M-2894.5,5769.007l8.653,6.153,11.345-4.038-7.307-7.692Z" transform="translate(4192 -5030)" fill="#707070" stroke="#707070" stroke-width="1"/>
      <path id="Path_312" data-name="Path 312" d="M-2878.927,5763.431l5,4.038,11.537-4.038-5.576-5Z" transform="translate(4192 -5030)" fill="#707070" stroke="#707070" stroke-width="1"/>
      <path id="Path_313" data-name="Path 313" d="M-2878.927,5763.431l5,4.038,11.537-4.038-5.576-5Z" transform="translate(4201 -5022)" fill="#707070" stroke="#707070" stroke-width="1"/>
      <path id="Path_314" data-name="Path 314" d="M-2878.927,5763.431l5,4.038,11.537-4.038-5.576-5Z" transform="translate(4211 -5014)" fill="#707070" stroke="#707070" stroke-width="1"/>
      <path id="Path_315" data-name="Path 315" d="M-2878.927,5763.431l5,4.038,11.537-4.038-5.576-5Z" transform="translate(4192 -5009)" fill="#707070" stroke="#707070" stroke-width="1"/>
      <path id="Path_316" data-name="Path 316" d="M-2878.927,5763.431l5,4.038,11.537-4.038-5.576-5Z" transform="translate(4180 -5000)" fill="#707070" stroke="#707070" stroke-width="1"/>
      <path id="Path_317" data-name="Path 317" d="M-2878.927,5763.431l5,4.038,11.537-4.038-5.576-5Z" transform="translate(4176 -4985)" fill="#707070" stroke="#707070" stroke-width="1"/>
      <path id="Path_318" data-name="Path 318" d="M-2878.927,5763.431l5,4.038,11.537-4.038-5.576-5Z" transform="translate(4196 -4988)" fill="#707070" stroke="#707070" stroke-width="1"/>
      <path id="Path_319" data-name="Path 319" d="M-2878.927,5763.431l5,4.038,11.537-4.038-5.576-5Z" transform="translate(4208 -4998)" fill="#707070" stroke="#707070" stroke-width="1"/>
      <path id="Path_320" data-name="Path 320" d="M-2878.927,5763.431l5,4.038,11.537-4.038-5.576-5Z" transform="translate(4228 -5001)" fill="none" stroke="#707070" stroke-width="1"/>
      <path id="Path_321" data-name="Path 321" d="M-2878.927,5763.431l5,4.038,11.537-4.038-5.576-5Z" transform="translate(4228 -5001)" fill="#707070" stroke="#707070" stroke-width="1"/>
      <path id="Path_322" data-name="Path 322" d="M-2878.927,5763.431l5,4.038,11.537-4.038-5.576-5Z" transform="translate(4223 -4985)" fill="#707070" stroke="#707070" stroke-width="1"/>
      <path id="Path_323" data-name="Path 323" d="M-2878.927,5763.431l5,4.038,11.537-4.038-5.576-5Z" transform="translate(4211 -4975)" fill="#707070" stroke="#707070" stroke-width="1"/>
      <path id="Path_324" data-name="Path 324" d="M-2878.927,5763.431l5,4.038,11.537-4.038-5.576-5Z" transform="translate(4198 -4964)" fill="#707070" stroke="#707070" stroke-width="1"/>
      <path id="Path_325" data-name="Path 325" d="M-2878.927,5763.431l5,4.038,11.537-4.038-5.576-5Z" transform="translate(4208 -4956)" fill="#707070" stroke="#707070" stroke-width="1"/>
      <path id="Path_326" data-name="Path 326" d="M-2801.436,5805.734l-20.382-18.459,9.23-3.846,32.881,28.843h-13.268Z" transform="translate(4192 -5030)" fill="#707070" stroke="#707070" stroke-width="1"/>
      <path id="Path_327" data-name="Path 327" d="M-2842.927,5770.95l9.764,8.825,11.729-3.846-10.576-9.807Z" transform="translate(4192 -5030)" fill="#707070" stroke="#707070" stroke-width="1"/>
      <path id="Path_328" data-name="Path 328" d="M-2858.391,5755.932l11.575,10.768,10.384-3.846-11.537-10.576Z" transform="translate(4192 -5030)" fill="#707070" stroke="#707070" stroke-width="1"/>
      <path id="Path_331" data-name="Path 331" d="M-2878.927,5763.431l5,4.038,11.537-4.038-5.576-5Z" transform="translate(4277 -4889)" fill="#707070" stroke="#707070" stroke-width="1"/>
      <path id="Path_332" data-name="Path 332" d="M-2878.927,5763.431l5,4.038,11.537-4.038-5.576-5Z" transform="translate(4303 -4915)" fill="#707070" stroke="#707070" stroke-width="1"/>
      <path id="Path_333" data-name="Path 333" d="M-2878.927,5763.431l5,4.038,11.537-4.038-5.576-5Z" transform="translate(4313 -4906)" fill="#707070" stroke="#707070" stroke-width="1"/>
      <path id="Path_334" data-name="Path 334" d="M-2878.927,5763.431l5,4.038,11.537-4.038-5.576-5Z" transform="translate(4333 -4913)" fill="#707070" stroke="#707070" stroke-width="1"/>
      <path id="Path_337" data-name="Path 337" d="M-3204.537,5385.326s28.887,116.374,53.875,197.764,35.7,116.374,35.7,116.374,78.535,103.523,122.8,147.074,92.1,85.674,92.1,85.674l4.284-13.565-63.542-132.795-39.267-128.511-5.712-19.276-94.241-97.811-79.962-122.8Z" transform="translate(4192 -5030)" fill="#2c2a37" stroke="#2c2a37" stroke-width="1"/>
      <path id="Path_336" data-name="Path 336" d="M-3188.61,5377.691s43.935,93.363,89.518,149.93,105.994,111.486,105.994,111.486,16.064,72.356,42.837,143.339,64.256,140.593,64.256,140.593l-12.632,10.435s-38.443-62.882-65.354-134-42.288-150.479-42.288-150.479-66.864-59.175-116.429-125.216-81.83-138.945-81.83-138.945Z" transform="translate(4192 -5030)" fill="#03e902" stroke="#03e902" stroke-width="1"/>
      <path id="Path_339" data-name="Path 339" d="M-3064.1,5716.317s10.384-10.317,22.5,1.154,10.576,64.993,10.576,64.993Z" transform="translate(4192 -5030)" fill="#59566d" stroke="#59566d" stroke-width="1"/>
      <path id="Path_341" data-name="Path 341" d="M-2955.687,5883.876v7l-23.419,18.881s-39.419-15.383-73.838-43.457-44.611-46.918-44.611-46.918l2.133-4.248,45.745,21.248,63.993,47.5Z" transform="translate(4192 -5030)" fill="#59566d" stroke="#59566d" stroke-width="1"/>
      <path id="Path_340" data-name="Path 340" d="M-3095.172,5815.383l42.246-5.749s23.748,30,50.495,48.495,46.745,26.247,46.745,26.247l-23.747,19s-55.994-29.5-80.741-52.994S-3095.172,5815.383-3095.172,5815.383Z" transform="translate(4192 -5030)" fill="#938fb4" stroke="#938fb4" stroke-width="1"/>
      <path id="Path_338" data-name="Path 338" d="M-3003.984,5862.708s-24.7-38.671-29.247-99.439-33.146-53.62-33.146-41.921,8.774,57.844,17.873,86.441,10.4,29.9,10.4,29.9,28.6,28.6,30.222,28.272S-3003.984,5862.708-3003.984,5862.708Z" transform="translate(4192 -5030)" fill="#7b7798" stroke="#7b7798" stroke-width="1"/>
    </g>
  </g>
</svg>
