<svg id="enp7v3oz27gm1" xmlns="http://www.w3.org/2000/svg" xmlns:xlink="http://www.w3.org/1999/xlink" viewBox="0 0 1920 1080" shape-rendering="geometricPrecision" text-rendering="geometricPrecision"><style><![CDATA[#enp7v3oz27gm8_to {animation: enp7v3oz27gm8_to__to 2000ms linear 1 normal forwards}@keyframes enp7v3oz27gm8_to__to { 0% {transform: translate(310.921875px,-14.294434px)} 25% {transform: translate(310.921875px,187.705566px)} 40% {transform: translate(310.921875px,205.705566px)} 55% {transform: translate(310.921875px,187.705566px)} 100% {transform: translate(310.921875px,187.705566px)} }#enp7v3oz27gm19_to {animation: enp7v3oz27gm19_to__to 2000ms linear 1 normal forwards}@keyframes enp7v3oz27gm19_to__to { 0% {transform: translate(0px,-150px)} 15% {transform: translate(0px,43px)} 30% {transform: translate(0px,65px)} 45% {transform: translate(0px,43px)} 100% {transform: translate(0px,43px)} }#enp7v3oz27gm26_to {animation: enp7v3oz27gm26_to__to 2000ms linear 1 normal forwards}@keyframes enp7v3oz27gm26_to__to { 0% {transform: translate(0px,-181px)} 25% {transform: translate(0px,-17px)} 40% {transform: translate(0px,12px)} 55% {transform: translate(0px,-17px)} 100% {transform: translate(0px,-17px)} }#enp7v3oz27gm33_to {animation: enp7v3oz27gm33_to__to 2000ms linear 1 normal forwards}@keyframes enp7v3oz27gm33_to__to { 0% {transform: translate(0px,-149px)} 30% {transform: translate(0px,26px)} 45% {transform: translate(0px,42px)} 60% {transform: translate(0px,26px)} 100% {transform: translate(0px,26px)} }#enp7v3oz27gm40_to {animation: enp7v3oz27gm40_to__to 2000ms linear 1 normal forwards}@keyframes enp7v3oz27gm40_to__to { 0% {transform: translate(0px,-205px)} 25% {transform: translate(0px,26px)} 40% {transform: translate(0px,50px)} 55% {transform: translate(0px,26px)} 100% {transform: translate(0px,26px)} }#enp7v3oz27gm47_to {animation: enp7v3oz27gm47_to__to 2000ms linear 1 normal forwards}@keyframes enp7v3oz27gm47_to__to { 0% {transform: translate(0px,-157px)} 20% {transform: translate(0px,-24px)} 35% {transform: translate(0px,1px)} 50% {transform: translate(0px,-24px)} 100% {transform: translate(0px,-24px)} }#enp7v3oz27gm58_to {animation: enp7v3oz27gm58_to__to 2000ms linear 1 normal forwards}@keyframes enp7v3oz27gm58_to__to { 0% {transform: translate(1084.367188px,0.705566px)} 25% {transform: translate(1084.367188px,187.705566px)} 40% {transform: translate(1084.367188px,213.705566px)} 55% {transform: translate(1084.367188px,187.705566px)} 100% {transform: translate(1084.367188px,187.705566px)} }#enp7v3oz27gm65_to {animation: enp7v3oz27gm65_to__to 2000ms linear 1 normal forwards}@keyframes enp7v3oz27gm65_to__to { 0% {transform: translate(0px,-117px)} 25% {transform: translate(0px,35px)} 40% {transform: translate(0px,46px)} 55% {transform: translate(0px,35px)} 100% {transform: translate(0px,35px)} }#enp7v3oz27gm76_to {animation: enp7v3oz27gm76_to__to 2000ms linear 1 normal forwards}@keyframes enp7v3oz27gm76_to__to { 0% {transform: translate(1414.125000px,25.705566px)} 30% {transform: translate(1414.125000px,187.705566px)} 45% {transform: translate(1414.125000px,205.705566px)} 60% {transform: translate(1414.125000px,187.705566px)} 100% {transform: translate(1414.125000px,187.705566px)} }#enp7v3oz27gm83_to {animation: enp7v3oz27gm83_to__to 2000ms linear 1 normal forwards}@keyframes enp7v3oz27gm83_to__to { 0% {transform: translate(0px,-152px)} 20% {transform: translate(0px,-36px)} 35% {transform: translate(0px,-3px)} 50% {transform: translate(0px,-36px)} 100% {transform: translate(0px,-36px)} }#enp7v3oz27gm90_to {animation: enp7v3oz27gm90_to__to 2000ms linear 1 normal forwards}@keyframes enp7v3oz27gm90_to__to { 0% {transform: translate(1644.367310px,82.705566px)} 25% {transform: translate(1644.367310px,187.705566px)} 40% {transform: translate(1644.367310px,205.705566px)} 55% {transform: translate(1644.367310px,187.705566px)} 100% {transform: translate(1644.367310px,187.705566px)} }]]></style><g id="enp7v3oz27gm2" clip-path="url(#enp7v3oz27gm102)"><g id="enp7v3oz27gm3"><rect id="enp7v3oz27gm4" width="1920" height="1080" rx="0" ry="0" fill="rgb(255,255,255)" stroke="none" stroke-width="1"/><path id="enp7v3oz27gm5" d="M-10782.487000,-558C-10782.487000,-558,-10812.115000,-587.217000,-10816.001000,-589.970000C-10819.887000,-592.723000,-10835.268000,-606.484000,-10840.448000,-614.417000C-10845.628000,-622.350000,-10903.590000,-735.843000,-10909.904000,-744.100000C-10916.218000,-752.357000,-10936.942000,-787.490000,-10942.123000,-798.337000C-10947.304000,-809.184000,-10961.712000,-844.479000,-10977.255000,-868.437000C-10992.798000,-892.395000,-11007.692000,-898.551000,-11001.702000,-906.808000C-10995.712000,-915.065000,-10988.427000,-916.198000,-10988.264000,-918.951000C-10988.101000,-921.704000,-10988.911000,-929.960000,-10985.997000,-930.446000C-10983.083000,-930.932000,-10976.445000,-928.503000,-10972.397000,-924.779000C-10968.349000,-921.055000,-10953.455000,-907.779000,-10948.112000,-907.779000C-10942.769000,-907.779000,-10936.778000,-910.046000,-10936.940000,-914.093000C-10937.102000,-918.140000,-10939.040000,-919.112000,-10938.721000,-919.921000C-10938.402000,-920.730000,-10924.151000,-930.445000,-10924.636000,-934.330000C-10925.121000,-938.215000,-10929.169000,-939.349000,-10928.198000,-940.806000C-10927.227000,-942.263000,-10922.207000,-946.306000,-10915.731000,-948.739000C-10909.255000,-951.172000,-10904.075000,-950.520000,-10904.075000,-952.463000C-10904.075000,-954.406000,-10909.742000,-967.844000,-10907.799000,-974.482000C-10905.856000,-981.120000,-10903.427000,-986.948000,-10903.427000,-986.948000C-10903.427000,-986.948000,-10897.113000,-984.848000,-10895.170000,-986.300000C-10893.227000,-987.752000,-10889.670000,-990.024000,-10889.670000,-990.024000C-10889.670000,-990.024000,-10885.621000,-981.281000,-10882.870000,-977.881000C-10880.119000,-974.481000,-10872.670000,-966.872000,-10872.670000,-966.872000C-10872.670000,-966.872000,-10879.146000,-979.824000,-10879.470000,-982.738000C-10879.794000,-985.652000,-10883.356000,-992.128000,-10881.089000,-997.633000C-10879.522743,-1001.642431,-10878.224552,-1005.751477,-10877.203000,-1009.933000C-10876.181448,-1014.114523,-10872.346000,-1008.962000,-10866.517000,-1003.781000C-10860.688000,-998.600000,-10855.346000,-987.915000,-10855.346000,-987.915000C-10855.346000,-987.915000,-10870.403000,-1018.515000,-10868.783000,-1023.695000C-10867.163000,-1028.875000,-10859.554000,-1032.923000,-10849.516000,-1033.895000C-10839.478000,-1034.867000,-10833.164000,-1035.352000,-10833.164000,-1035.352000C-10833.164000,-1035.352000,-10842.715000,-1042.476000,-10847.087000,-1043.285000C-10851.459000,-1044.094000,-10866.516000,-1045.066000,-10866.516000,-1045.066000C-10866.516000,-1045.066000,-10855.992000,-1059.637000,-10857.125000,-1066.275000C-10858.258000,-1072.913000,-10863.925000,-1076.151000,-10863.602000,-1080.846000C-10863.279000,-1085.541000,-10861.011000,-1095.417000,-10861.011000,-1095.417000C-10861.011000,-1095.417000,-10870.563000,-1073.722000,-10870.887000,-1078.256000C-10871.211000,-1082.790000,-10877.364000,-1106.265000,-10881.087000,-1111.284000C-10884.810000,-1116.303000,-10889.345000,-1121.160000,-10889.668000,-1114.684000C-10889.991000,-1108.208000,-10889.505000,-1091.046000,-10891.448000,-1095.418000C-10893.391000,-1099.790000,-10906.991000,-1121.970000,-10921.400000,-1135.570000C-10935.809000,-1149.170000,-10940.018000,-1150.470000,-10940.018000,-1150.470000C-10940.018000,-1150.470000,-10931.762000,-1129.908000,-10935.162000,-1133.147000C-10938.562000,-1136.386000,-10966.733000,-1144.156000,-10971.104000,-1146.261000C-10975.475000,-1148.366000,-10981.465000,-1150.470000,-10981.465000,-1150.470000C-10981.465000,-1150.470000,-10960.902000,-1126.670000,-10966.732000,-1128.937000C-10972.562000,-1131.204000,-11002.837000,-1134.118000,-11015.951000,-1133.146000C-11024.177365,-1132.437892,-11032.196619,-1130.185933,-11039.589000,-1126.508000L-11017.408000,-1121.165000C-11022.782430,-1117.477201,-11028.603298,-1114.486627,-11034.731000,-1112.265000C-11042.038485,-1109.900949,-11049.744578,-1109.020389,-11057.397000,-1109.675000C-11060.882046,-1110.071217,-11064.341662,-1110.665849,-11067.759000,-1111.456000L-11058.206000,-1102.713000L-11079.415000,-1108.213000C-11079.415000,-1108.213000,-11065.169000,-1093.966000,-11065.492000,-1089.756000C-11065.815000,-1085.546000,-11066.948000,-1080.690000,-11064.844000,-1077.775000C-11062.740000,-1074.860000,-11052.544000,-1066.118000,-11052.544000,-1066.118000C-11052.544000,-1066.118000,-11067.923000,-1067.418000,-11073.914000,-1066.118000C-11077.431496,-1065.373527,-11080.853319,-1064.232919,-11084.114000,-1062.718000L-11075.695000,-1061.418000L-11094.795000,-1048.790000C-11094.795000,-1048.790000,-11080.709000,-1049.438000,-11075.695000,-1046.038000C-11070.681000,-1042.638000,-11062.420000,-1035.191000,-11060.153000,-1031.305000C-11057.886000,-1027.419000,-11052.544000,-1024.505000,-11052.544000,-1024.505000L-11063.230000,-1018.838000C-11063.230000,-1018.838000,-11046.553000,-1019.486000,-11048.172000,-1015.276000C-11049.791000,-1011.066000,-11050.925000,-1002.648000,-11058.534000,-1003.619000C-11066.143000,-1004.590000,-11074.562000,-1009.771000,-11074.562000,-1009.771000C-11074.562000,-1009.771000,-11071.647000,-1001.190000,-11067.923000,-998.114000C-11064.199000,-995.038000,-11052.543000,-993.581000,-11052.543000,-993.581000C-11052.543000,-993.581000,-11055.781000,-989.048000,-11060.152000,-988.724000C-11063.225210,-988.538721,-11066.306790,-988.538721,-11069.380000,-988.724000L-11055.295000,-984.191000L-11064.037000,-979.010000L-11044.937000,-977.710000C-11044.937000,-977.710000,-11052.708000,-971.720000,-11050.280000,-971.720000C-11047.852000,-971.720000,-11035.546000,-975.767000,-11038.946000,-970.587000C-11042.346000,-965.407000,-11063.717000,-930.435000,-11065.822000,-930.435000C-11067.927000,-930.435000,-11094.964000,-932.216000,-11095.612000,-922.335000C-11096.260000,-912.454000,-11089.946000,-898.374000,-11098.688000,-876.679000C-11107.430000,-854.984000,-11123.296000,-812.242000,-11127.506000,-787.471000C-11131.716000,-762.700000,-11127.183000,-740.843000,-11123.297000,-725.463000C-11119.411000,-710.083000,-11104.516000,-671.226000,-11105.325000,-663.131000C-11106.134000,-655.036000,-11108.887000,-630.913000,-11113.425000,-616.180000C-11117.963000,-601.447000,-11120.386000,-575.219000,-11120.548000,-572.790000C-11120.710000,-570.361000,-11120.548000,-557.733000,-11120.548000,-557.733000Z" transform="matrix(1 0 0 1 12494 1638)" fill="rgb(0,180,216)" stroke="rgb(0,180,216)" stroke-width="1"/><path id="enp7v3oz27gm6" d="M-10844.967000,-622.168000C-10844.967000,-622.168000,-10818.518000,-617.359000,-10815.512000,-622.168000C-10812.506000,-626.977000,-10797.478000,-806.113000,-10797.478000,-810.922000C-10797.478000,-815.731000,-10800.484000,-833.765000,-10800.484000,-833.765000C-10800.484000,-833.765000,-10790.866000,-842.181000,-10790.866000,-845.788000L-10790.866000,-854.200000C-10790.866000,-854.200000,-10730.152000,-843.380000,-10727.146000,-842.779000C-10724.140000,-842.178000,-10720.455000,-832.459000,-10718.265000,-833.762000C-10716.075000,-835.065000,-10689.265000,-848.745000,-10692.272000,-856.133000C-10695.279000,-863.521000,-10709.236000,-879.117000,-10712.246000,-878.022000C-10715.256000,-876.927000,-10715.803000,-873.371000,-10720.454000,-873.371000C-10725.105000,-873.371000,-10791.319000,-880.759000,-10793.509000,-886.504000C-10795.699000,-892.249000,-10796.792000,-904.289000,-10803.909000,-905.383000C-10811.026000,-906.477000,-10812.118000,-905.383000,-10812.118000,-905.383000C-10812.118000,-905.383000,-10811.845000,-911.402000,-10821.147000,-911.402000L-10834.280000,-911.402000C-10834.280000,-911.402000,-10837.017000,-919.063000,-10839.480000,-917.695000C-10841.943000,-916.327000,-10844.680000,-912.770000,-10844.680000,-912.770000C-10844.680000,-912.770000,-10844.132000,-922.070000,-10849.605000,-920.705000C-10855.078000,-919.340000,-10856.171000,-914.685000,-10858.634000,-915.780000C-10861.097000,-916.875000,-10863.013000,-919.337000,-10863.834000,-923.988000C-10864.655000,-928.639000,-10867.934000,-937.395000,-10873.410000,-936.574000C-10878.886000,-935.753000,-10879.703000,-932.196000,-10879.430000,-927.545000C-10879.157000,-922.894000,-10878.610000,-919.337000,-10880.525000,-917.695000C-10882.440000,-916.053000,-10889.280000,-913.864000,-10889.006000,-911.402000C-10888.732000,-908.940000,-10878.063000,-899.910000,-10880.525000,-899.910000C-10882.987000,-899.910000,-10889.825000,-898.542000,-10890.648000,-899.910000C-10891.471000,-901.278000,-10899.948000,-925.082000,-10900.499000,-927.545000C-10901.050000,-930.008000,-10901.593000,-931.923000,-10905.424000,-931.923000C-10909.255000,-931.923000,-10964.524000,-933.017000,-10960.147000,-930.555000C-10955.770000,-928.093000,-10937.438000,-923.988000,-10933.334000,-923.988000C-10929.230000,-923.988000,-10914.182000,-925.630000,-10912.266000,-922.620000C-10910.350000,-919.610000,-10904.057000,-904.288000,-10907.066000,-904.288000C-10910.075000,-904.288000,-11107.951000,-914.636000,-11220.316000,-909.550000C-11332.681000,-904.464000,-11478.339000,-860.997000,-11492.216000,-857.760000C-11506.093000,-854.523000,-11552.791000,-836.489000,-11552.791000,-836.489000C-11552.791000,-836.489000,-11379.391000,-875.331000,-11304.016000,-882.267000C-11228.641000,-889.203000,-11114.893000,-892.440000,-11052.467000,-890.128000C-10990.041000,-887.816000,-10915.419000,-875.793000,-10912.267000,-869.320000C-10909.115000,-862.847000,-10914.675000,-851.144000,-10918.884000,-853.459000C-10923.093000,-855.774000,-10950.454000,-859.559000,-10957.611000,-858.931000C-10964.768000,-858.303000,-10977.816000,-853.038000,-10971.292000,-851.564000C-10964.768000,-850.090000,-10922.252000,-849.464000,-10920.568000,-846.934000C-10918.884000,-844.404000,-10916.568000,-838.305000,-10913.623000,-838.515000C-10910.678000,-838.725000,-10906.912000,-841.041000,-10905.423000,-846.934000C-10903.934000,-852.827000,-10903.163000,-860.194000,-10900.498000,-862.088000C-10897.833000,-863.982000,-10894.677000,-869.188000,-10892.782000,-869.319000C-10890.887000,-869.450000,-10881.441000,-868.612000,-10879.429000,-867.139000C-10877.417000,-865.666000,-10871.945000,-851.139000,-10864.788000,-847.986000C-10857.631000,-844.833000,-10845.618000,-836.410000,-10844.680000,-827.149000C-10843.742000,-817.888000,-10842.461000,-811.943000,-10844.680000,-810.916000C-10846.899000,-809.889000,-10847.951000,-807.364000,-10846.480000,-804.207000C-10845.009000,-801.050000,-10841.428000,-799.998000,-10841.428000,-795.578000C-10841.428000,-791.158000,-10844.796000,-721.913000,-10846.480000,-722.544000C-10848.164000,-723.175000,-10854.480000,-730.752000,-10858.480000,-728.016000C-10862.480000,-725.280000,-10865.003000,-719.176000,-10871.739000,-720.229000C-10878.475000,-721.282000,-10878.264000,-726.754000,-10883.526000,-726.754000C-10888.788000,-726.754000,-10888.577000,-725.702000,-10888.577000,-725.702000C-10888.577000,-725.702000,-10888.366000,-735.173000,-10891.734000,-734.121000C-10895.102000,-733.069000,-10899.101000,-728.228000,-10902.047000,-733.069000C-10904.993000,-737.910000,-10912.268000,-658.769000,-10912.268000,-658.769000Z" transform="matrix(1 0 0 1 12494 1638)" fill="rgb(0,180,216)" stroke="rgb(0,180,216)" stroke-width="1"/><path id="enp7v3oz27gm7" d="M-11952.260000,-558C-11952.260000,-558,-11957.734000,-644.086000,-11957.186000,-655.031000C-11956.638000,-665.976000,-11957.186000,-668.985000,-11957.186000,-668.985000C-11957.186000,-668.985000,-11820.926000,-632.594000,-11767.572000,-612.894000C-11714.218000,-593.194000,-11677.552000,-575.956000,-11675.911000,-577.871000C-11674.270000,-579.786000,-11657.305000,-600.307000,-11663.872000,-605.506000C-11670.439000,-610.705000,-11782.621000,-654.483000,-11807.519000,-662.144000C-11832.417000,-669.805000,-11960.195000,-702.092000,-11962.658000,-703.460000C-11965.121000,-704.828000,-11972.782000,-712.216000,-11971.687000,-713.310000C-11970.592000,-714.404000,-11941.317000,-747.238000,-11938.854000,-769.127000C-11936.391000,-791.016000,-11944.054000,-914.689000,-11948.977000,-931.380000C-11953.900000,-948.071000,-11970.045000,-985.008000,-11980.990000,-997.594000C-11991.935000,-1010.180000,-12000.416000,-1023.861000,-12002.332000,-1029.333000C-12004.248000,-1034.805000,-12025.042000,-1080.499000,-12023.400000,-1081.867000C-12021.758000,-1083.235000,-12018.200000,-1092.267000,-12017.654000,-1096.095000C-12017.108000,-1099.923000,-12019.297000,-1107.040000,-12019.297000,-1107.040000C-12019.297000,-1107.040000,-12014.069000,-1108.540000,-12014.878000,-1110.482000C-12015.687000,-1112.424000,-12018.813000,-1120.358000,-12017.654000,-1120.358000C-12016.495000,-1120.358000,-12009.211000,-1121.167000,-12006.297000,-1115.015000C-12003.383000,-1108.863000,-12001.768000,-1094.292000,-12002.332000,-1079.073000C-12002.896000,-1063.854000,-11993.832000,-1029.855000,-11995.449000,-1028.236000C-11997.623420,-1026.453418,-11999.923736,-1024.830196,-12002.332000,-1023.379000L-11970.192000,-975.132000C-11970.192000,-975.132000,-11965.335000,-997.313000,-11965.011000,-1001.360000C-11964.687000,-1005.407000,-11965.173000,-1012.531000,-11963.716000,-1011.560000C-11962.259000,-1010.589000,-11947.040000,-998.446000,-11947.040000,-998.446000C-11947.040000,-998.446000,-11962.740000,-1023.217000,-11963.716000,-1035.683000C-11964.692000,-1048.149000,-11980.231000,-1115.339000,-11986.544000,-1126.672000C-11992.857000,-1138.005000,-11999.658000,-1147.072000,-12008.563000,-1146.586000C-12017.468000,-1146.100000,-12025.077000,-1145.615000,-12025.886000,-1146.586000C-12026.695000,-1147.557000,-12050.009000,-1171.033000,-12064.580000,-1172.814000C-12079.151000,-1174.595000,-12095.018000,-1170.714000,-12106.027000,-1157.114000C-12117.036000,-1143.514000,-12123.997000,-1131.048000,-12123.836000,-1129.267000C-12123.675000,-1127.486000,-12119.465000,-1105.144000,-12119.627000,-1085.715000C-12119.789000,-1066.286000,-12118.008000,-1051.230000,-12114.127000,-1046.049000C-12110.246000,-1040.868000,-12091.137000,-1026.621000,-12091.137000,-1026.621000C-12091.137000,-1026.621000,-12097.127000,-1048.640000,-12094.861000,-1051.230000C-12092.595000,-1053.820000,-12086.119000,-1050.097000,-12085.471000,-1045.078000C-12084.823000,-1040.059000,-12085.146000,-1032.935000,-12081.099000,-1033.421000C-12077.052000,-1033.907000,-12071.223000,-1033.745000,-12067.661000,-1039.088000C-12064.099000,-1044.431000,-12063.127000,-1049.126000,-12059.890000,-1045.078000C-12056.653000,-1041.030000,-12042.728000,-1017.069000,-12044.671000,-1008.488000C-12046.614000,-999.907000,-12087.412000,-880.748000,-12088.708000,-881.557000C-12090.004000,-882.366000,-12109.108000,-897.100000,-12113.317000,-891.919000C-12117.526000,-886.738000,-12112.994000,-843.510000,-12115.746000,-834.768000C-12118.498000,-826.026000,-12129.993000,-790.893000,-12130.803000,-796.721000C-12131.613000,-802.549000,-12139.703000,-829.587000,-12139.869000,-845.615000C-12140.035000,-861.643000,-12140.031000,-869.253000,-12143.917000,-870.062000C-12147.803000,-870.871000,-12152.982000,-866.500000,-12153.469000,-860.834000C-12153.956000,-855.168000,-12152.335000,-803.359000,-12153.469000,-802.711000C-12154.603000,-802.063000,-12161.888000,-799.959000,-12162.050000,-792.511000C-12162.212000,-785.063000,-12153.470000,-774.540000,-12154.765000,-773.568000C-12156.060000,-772.596000,-12163.993000,-761.587000,-12165.612000,-762.883000C-12167.231000,-764.179000,-12207.545000,-789.435000,-12209.326000,-786.521000C-12211.107000,-783.607000,-12215.316000,-756.407000,-12215.316000,-756.407000L-12204.468000,-754.950000C-12204.468000,-754.950000,-12201.231000,-771.302000,-12199.449000,-769.845000C-12197.667000,-768.388000,-12174.516000,-751.226000,-12177.430000,-751.388000C-12180.344000,-751.550000,-12217.257000,-759.321000,-12221.305000,-759.807000C-12225.353000,-760.293000,-12227.943000,-760.778000,-12227.943000,-760.778000C-12227.943000,-760.778000,-12233.934000,-780.368000,-12241.219000,-781.178000C-12248.504000,-781.988000,-12250.933000,-778.264000,-12251.742000,-776.321000C-12252.551000,-774.378000,-12253.842000,-769.197000,-12257.085000,-771.140000C-12260.328000,-773.083000,-12266.476000,-774.702000,-12270.199000,-778.911000C-12273.922000,-783.120000,-12275.542000,-781.825000,-12276.351000,-778.911000C-12277.160000,-775.997000,-12280.074000,-768.549000,-12283.636000,-769.035000C-12287.198000,-769.521000,-12345.969000,-778.587000,-12366.368000,-780.368000C-12386.767000,-782.149000,-12394.053000,-780.530000,-12394.862000,-778.911000C-12395.671000,-777.292000,-12395.348000,-770.492000,-12396.805000,-767.416000C-12398.262000,-764.340000,-12399.880000,-752.197000,-12397.614000,-751.716000C-12395.348000,-751.235000,-12347.426000,-747.668000,-12314.235000,-742.164000C-12281.044000,-736.660000,-12241.864000,-730.183000,-12239.435000,-728.402000C-12237.006000,-726.621000,-12219.360000,-714.802000,-12209.322000,-712.859000C-12199.284000,-710.916000,-12168.199000,-707.516000,-12167.551000,-705.897000C-12166.903000,-704.278000,-12156.540000,-665.422000,-12157.189000,-665.422000C-12157.838000,-665.422000,-12173.218000,-663.322000,-12175.161000,-658.784000C-12177.104000,-654.246000,-12177.589000,-628.508000,-12176.456000,-628.346000C-12175.323000,-628.184000,-12165.124000,-628.346000,-12162.371000,-625.917000C-12159.011811,-622.778925,-12157.130545,-618.370548,-12157.189000,-613.774000C-12157.351000,-608.755000,-12165.447000,-568.603000,-12165.447000,-564.880000L-12165.447000,-557.918000Z" transform="matrix(1 0 0 1 12494 1638)" fill="rgb(0,180,216)" stroke="rgb(0,180,216)" stroke-width="1"/><g id="enp7v3oz27gm8_to" transform="translate(310.921875,-14.294434)"><g id="enp7v3oz27gm8" transform="translate(-310.921875,-187.705566)"><g id="enp7v3oz27gm9"><text id="enp7v3oz27gm10" dx="0" dy="0" font-family="Montserrat-ExtraBold, Montserrat" font-size="135" font-weight="bold" transform="matrix(1 0 0 1 231 342.75000000000000)" fill="rgb(45,45,45)" stroke="none" stroke-width="1"><![CDATA[W]]></text></g><g id="enp7v3oz27gm11" transform="matrix(1 0 0 1 244 251)"><circle id="enp7v3oz27gm12" r="4.500000" transform="matrix(1 0 0 1 4.50000000000000 4.50000000000000)" fill="rgb(255,255,255)" stroke="none" stroke-width="1"/><circle id="enp7v3oz27gm13" r="4" transform="matrix(1 0 0 1 4.50000000000000 4.50000000000000)" fill="none" stroke="rgb(255,255,255)" stroke-width="1"/></g><g id="enp7v3oz27gm14" transform="matrix(1 0 0 1 369 251)"><circle id="enp7v3oz27gm15" r="4.500000" transform="matrix(1 0 0 1 4.50000000000000 4.50000000000000)" fill="rgb(255,255,255)" stroke="none" stroke-width="1"/><circle id="enp7v3oz27gm16" r="4" transform="matrix(1 0 0 1 4.50000000000000 4.50000000000000)" fill="none" stroke="rgb(255,255,255)" stroke-width="1"/></g><path id="enp7v3oz27gm17" d="M-12245.586000,-1385.752418C-12245.586000,-1385.752418,-12246.643000,-1385.559386,-12246.643000,-1388.099649C-12246.643000,-1390.639913,-12247.209000,-1392.233289,-12246.381000,-1391.884917C-12246.614090,-1392.851741,-12247.048045,-1393.740020,-12247.646000,-1394.474295C-12248.193000,-1394.951737,-12249.630000,-1394.449167,-12248.605000,-1393.428036C-12247.253000,-1392.083660,-12246.590000,-1390.489142,-12246.643000,-1393.179035C-12246.696000,-1395.868927,-12245.500000,-1674.258539,-12245.500000,-1674.258539" transform="matrix(1 0 0 1 12494 1638)" fill="none" stroke="rgb(20,113,152)" stroke-width="3" stroke-linecap="round"/><path id="enp7v3oz27gm18" d="M-12245.586000,-1385.752304C-12245.586000,-1385.752304,-12246.643000,-1385.565842,-12246.643000,-1388.019634C-12246.643000,-1390.473427,-12247.209000,-1392.012564,-12246.381000,-1391.676050C-12246.614090,-1392.609963,-12247.048045,-1393.468005,-12247.646000,-1394.177285C-12248.193000,-1394.638474,-12249.630000,-1394.153012,-12248.605000,-1393.166640C-12247.253000,-1391.868028,-12246.590000,-1390.327788,-12246.643000,-1392.926116C-12246.696000,-1395.524444,-12245.500000,-1664.437573,-12245.500000,-1664.437573" transform="matrix(1 0 0 1 12619 1638)" fill="none" stroke="rgb(20,113,152)" stroke-width="3" stroke-linecap="round"/></g></g><g id="enp7v3oz27gm19_to" transform="translate(0,-150)"><g id="enp7v3oz27gm19" transform="translate(0,0)"><g id="enp7v3oz27gm20" transform="matrix(1 0 0 1 0 -43)"><text id="enp7v3oz27gm21" dx="0" dy="0" font-family="Montserrat-ExtraBold, Montserrat" font-size="135" font-weight="bold" transform="matrix(1 0 0 1 413 385.75000000000000)" fill="rgb(45,45,45)" stroke="none" stroke-width="1"><![CDATA[E]]></text></g><g id="enp7v3oz27gm22" transform="matrix(1 0 0 1 454 251)"><circle id="enp7v3oz27gm23" r="4.500000" transform="matrix(1 0 0 1 4.50000000000000 4.50000000000000)" fill="rgb(255,255,255)" stroke="none" stroke-width="1"/><circle id="enp7v3oz27gm24" r="4" transform="matrix(1 0 0 1 4.50000000000000 4.50000000000000)" fill="none" stroke="rgb(255,255,255)" stroke-width="1"/></g><path id="enp7v3oz27gm25" d="M-12245.586000,-1343.092265C-12245.586000,-1343.092265,-12246.643000,-1342.877360,-12246.643000,-1345.671122C-12246.643000,-1348.464883,-12247.209000,-1350.216357,-12246.381000,-1349.833826C-12246.603896,-1350.870935,-12247.035701,-1351.842918,-12247.646000,-1352.681314C-12248.193000,-1353.206756,-12249.630000,-1352.653376,-12248.605000,-1351.531574C-12247.253000,-1350.053029,-12246.590000,-1348.300481,-12246.643000,-1351.257570C-12246.696000,-1354.214659,-12245.500000,-1660.340000,-12245.500000,-1660.340000" transform="matrix(1 0 0 1 12704 1595.33999999999992)" fill="none" stroke="rgb(20,113,152)" stroke-width="3" stroke-linecap="round"/></g></g><g id="enp7v3oz27gm26_to" transform="translate(0,-181)"><g id="enp7v3oz27gm26" transform="translate(0,0)"><g id="enp7v3oz27gm27" transform="matrix(1 0 0 1 0 17)"><text id="enp7v3oz27gm28" dx="0" dy="0" font-family="Montserrat-ExtraBold, Montserrat" font-size="135" font-weight="bold" transform="matrix(1 0 0 1 526 325.75000000000000)" fill="rgb(45,45,45)" stroke="none" stroke-width="1"><![CDATA[L]]></text></g><g id="enp7v3oz27gm29" transform="matrix(1 0 0 1 545 251)"><circle id="enp7v3oz27gm30" r="4.500000" transform="matrix(1 0 0 1 4.50000000000000 4.50000000000000)" fill="rgb(255,255,255)" stroke="none" stroke-width="1"/><circle id="enp7v3oz27gm31" r="4" transform="matrix(1 0 0 1 4.50000000000000 4.50000000000000)" fill="none" stroke="rgb(255,255,255)" stroke-width="1"/></g><path id="enp7v3oz27gm32" d="M-12245.586000,-1365.653895C-12245.586000,-1365.653895,-12246.643000,-1365.458000,-12246.643000,-1368.035928C-12246.643000,-1370.613855,-12247.209000,-1372.230855,-12246.381000,-1371.877317C-12246.614090,-1372.858477,-12247.048045,-1373.759926,-12247.646000,-1374.505088C-12248.193000,-1374.989608,-12249.630000,-1374.479587,-12248.605000,-1373.443315C-12247.253000,-1372.079008,-12246.590000,-1370.460848,-12246.643000,-1373.190623C-12246.696000,-1375.920397,-12245.500000,-1658.437573,-12245.500000,-1658.437573" transform="matrix(1 0 0 1 12795 1619.15048554500027)" fill="none" stroke="rgb(20,113,152)" stroke-width="3" stroke-linecap="round"/></g></g><g id="enp7v3oz27gm33_to" transform="translate(0,-149)"><g id="enp7v3oz27gm33" transform="translate(0,0)"><g id="enp7v3oz27gm34" transform="matrix(1 0 0 1 0 -26)"><text id="enp7v3oz27gm35" dx="0" dy="0" font-family="Montserrat-ExtraBold, Montserrat" font-size="135" font-weight="bold" transform="matrix(1 0 0 1 630 368.75000000000000)" fill="rgb(45,45,45)" stroke="none" stroke-width="1"><![CDATA[C]]></text></g><g id="enp7v3oz27gm36" transform="matrix(1 0 0 1 680 251)"><circle id="enp7v3oz27gm37" r="4.500000" transform="matrix(1 0 0 1 4.50000000000000 4.50000000000000)" fill="rgb(255,255,255)" stroke="none" stroke-width="1"/><circle id="enp7v3oz27gm38" r="4" transform="matrix(1 0 0 1 4.50000000000000 4.50000000000000)" fill="none" stroke="rgb(255,255,255)" stroke-width="1"/></g><path id="enp7v3oz27gm39" d="M-12245.586000,-1345.763856C-12245.586000,-1345.763856,-12246.643000,-1345.547780,-12246.643000,-1348.393943C-12246.643000,-1351.240106,-12247.209000,-1353.025638,-12246.381000,-1352.635307C-12246.607147,-1353.702511,-12247.039778,-1354.695766,-12247.646000,-1355.539555C-12248.193000,-1356.075098,-12249.630000,-1355.511674,-12248.605000,-1354.367400C-12247.253000,-1352.857191,-12246.590000,-1351.075145,-12246.643000,-1354.088593C-12246.696000,-1357.102040,-12245.500000,-1669.006667,-12245.500000,-1669.006667" transform="matrix(1 0 0 1 12929.46450566000021 1598.26010122999992)" fill="none" stroke="rgb(20,113,152)" stroke-width="3" stroke-linecap="round"/></g></g><g id="enp7v3oz27gm40_to" transform="translate(0,-205)"><g id="enp7v3oz27gm40" transform="translate(0,0)"><g id="enp7v3oz27gm41" transform="matrix(1 0 0 1 0 -26)"><text id="enp7v3oz27gm42" dx="0" dy="0" font-family="Montserrat-ExtraBold, Montserrat" font-size="135" font-weight="bold" transform="matrix(1 0 0 1 752 368.75000000000000)" fill="rgb(45,45,45)" stroke="none" stroke-width="1"><![CDATA[O]]></text></g><g id="enp7v3oz27gm43" transform="matrix(1 0 0 1 805 251)"><circle id="enp7v3oz27gm44" r="4.500000" transform="matrix(1 0 0 1 4.50000000000000 4.50000000000000)" fill="rgb(255,255,255)" stroke="none" stroke-width="1"/><circle id="enp7v3oz27gm45" r="4" transform="matrix(1 0 0 1 4.50000000000000 4.50000000000000)" fill="none" stroke="rgb(255,255,255)" stroke-width="1"/></g><path id="enp7v3oz27gm46" d="M-12245.586000,-1360.091449C-12245.586000,-1360.091449,-12246.643000,-1359.879603,-12246.643000,-1362.670051C-12246.643000,-1365.460500,-12247.209000,-1367.211079,-12246.381000,-1366.828389C-12246.607147,-1367.874703,-12247.039778,-1368.848514,-12247.646000,-1369.675785C-12248.193000,-1370.200845,-12249.630000,-1369.648450,-12248.605000,-1368.526576C-12247.253000,-1367.045930,-12246.590000,-1365.298768,-12246.643000,-1368.253226C-12246.696000,-1371.207685,-12245.500000,-1677.006667,-12245.500000,-1677.006667" transform="matrix(1 0 0 1 13055 1612.33999999999992)" fill="none" stroke="rgb(20,113,152)" stroke-width="3" stroke-linecap="round"/></g></g><g id="enp7v3oz27gm47_to" transform="translate(0,-157)"><g id="enp7v3oz27gm47" transform="translate(0,0)"><g id="enp7v3oz27gm48" transform="matrix(1 0 0 1 0 24)"><text id="enp7v3oz27gm49" dx="0" dy="0" font-family="Montserrat-ExtraBold, Montserrat" font-size="135" font-weight="bold" transform="matrix(1 0 0 1 888 318.75000000000000)" fill="rgb(45,45,45)" stroke="none" stroke-width="1"><![CDATA[M]]></text></g><g id="enp7v3oz27gm50" transform="matrix(1 0 0 1 905 251)"><circle id="enp7v3oz27gm51" r="4.500000" transform="matrix(1 0 0 1 4.50000000000000 4.50000000000000)" fill="rgb(255,255,255)" stroke="none" stroke-width="1"/><circle id="enp7v3oz27gm52" r="4" transform="matrix(1 0 0 1 4.50000000000000 4.50000000000000)" fill="none" stroke="rgb(255,255,255)" stroke-width="1"/></g><path id="enp7v3oz27gm53" d="M-12245.586000,-1385.752000C-12245.586000,-1385.752000,-12246.643000,-1385.583000,-12246.643000,-1387.807000C-12246.643000,-1390.031000,-12247.209000,-1391.426000,-12246.381000,-1391.121000C-12246.614090,-1391.967454,-12247.048045,-1392.745142,-12247.646000,-1393.388000C-12248.193000,-1393.806000,-12249.630000,-1393.366000,-12248.605000,-1392.472000C-12247.253000,-1391.295000,-12246.590000,-1389.899000,-12246.643000,-1392.254000C-12246.696000,-1394.609000,-12245.500000,-1638.339000,-12245.500000,-1638.339000" transform="matrix(1 0 0 1 13155 1638)" fill="none" stroke="rgb(20,113,152)" stroke-width="3" stroke-linecap="round"/><g id="enp7v3oz27gm54" transform="matrix(1 0 0 1 990 251)"><circle id="enp7v3oz27gm55" r="4.500000" transform="matrix(1 0 0 1 4.50000000000000 4.50000000000000)" fill="rgb(255,255,255)" stroke="none" stroke-width="1"/><circle id="enp7v3oz27gm56" r="4" transform="matrix(1 0 0 1 4.50000000000000 4.50000000000000)" fill="none" stroke="rgb(255,255,255)" stroke-width="1"/></g><path id="enp7v3oz27gm57" d="M-12245.586000,-1385.752000C-12245.586000,-1385.752000,-12246.643000,-1385.583000,-12246.643000,-1387.807000C-12246.643000,-1390.031000,-12247.209000,-1391.426000,-12246.381000,-1391.121000C-12246.614090,-1391.967454,-12247.048045,-1392.745142,-12247.646000,-1393.388000C-12248.193000,-1393.806000,-12249.630000,-1393.366000,-12248.605000,-1392.472000C-12247.253000,-1391.295000,-12246.590000,-1389.899000,-12246.643000,-1392.254000C-12246.696000,-1394.609000,-12245.500000,-1638.339000,-12245.500000,-1638.339000" transform="matrix(1 0 0 1 13240 1638)" fill="none" stroke="rgb(20,113,152)" stroke-width="3" stroke-linecap="round"/></g></g><g id="enp7v3oz27gm58_to" transform="translate(1084.367188,0.705566)"><g id="enp7v3oz27gm58" transform="translate(-1084.367188,-187.705566)"><g id="enp7v3oz27gm59"><text id="enp7v3oz27gm60" dx="0" dy="0" font-family="Montserrat-ExtraBold, Montserrat" font-size="135" font-weight="bold" transform="matrix(1 0 0 1 1039 342.75000000000000)" fill="rgb(45,45,45)" stroke="none" stroke-width="1"><![CDATA[E]]></text></g><g id="enp7v3oz27gm61" transform="matrix(1 0 0 1 1080 251)"><circle id="enp7v3oz27gm62" r="4.500000" transform="matrix(1 0 0 1 4.50000000000000 4.50000000000000)" fill="rgb(255,255,255)" stroke="none" stroke-width="1"/><circle id="enp7v3oz27gm63" r="4" transform="matrix(1 0 0 1 4.50000000000000 4.50000000000000)" fill="none" stroke="rgb(255,255,255)" stroke-width="1"/></g><path id="enp7v3oz27gm64" d="M-12245.586000,-1385.752470C-12245.586000,-1385.752470,-12246.643000,-1385.556488,-12246.643000,-1388.135564C-12246.643000,-1390.714640,-12247.209000,-1392.332362,-12246.381000,-1391.978666C-12246.614090,-1392.960263,-12247.048045,-1393.862114,-12247.646000,-1394.607608C-12248.193000,-1395.092344,-12249.630000,-1394.582095,-12248.605000,-1393.545362C-12247.253000,-1392.180446,-12246.590000,-1390.561566,-12246.643000,-1393.292557C-12246.696000,-1396.023549,-12245.500000,-1678.666667,-12245.500000,-1678.666667" transform="matrix(1 0 0 1 13330 1638)" fill="none" stroke="rgb(20,113,152)" stroke-width="3" stroke-linecap="round"/></g></g><g id="enp7v3oz27gm65_to" transform="translate(0,-117)"><g id="enp7v3oz27gm65" transform="translate(0,0)"><g id="enp7v3oz27gm66" transform="matrix(1 0 0 1 0 -35)"><text id="enp7v3oz27gm67" dx="0" dy="0" font-family="Montserrat-ExtraBold, Montserrat" font-size="135" font-weight="bold" transform="matrix(1 0 0 1 1210 377.75000000000000)" fill="rgb(45,45,45)" stroke="none" stroke-width="1"><![CDATA[M]]></text></g><g id="enp7v3oz27gm68" transform="matrix(1 0 0 1 1227 251)"><circle id="enp7v3oz27gm69" r="4.500000" transform="matrix(1 0 0 1 4.50000000000000 4.50000000000000)" fill="rgb(255,255,255)" stroke="none" stroke-width="1"/><circle id="enp7v3oz27gm70" r="4" transform="matrix(1 0 0 1 4.50000000000000 4.50000000000000)" fill="none" stroke="rgb(255,255,255)" stroke-width="1"/></g><path id="enp7v3oz27gm71" d="M-12245.586000,-1351.092298C-12245.586000,-1351.092298,-12246.643000,-1350.883143,-12246.643000,-1353.638106C-12246.643000,-1356.393070,-12247.209000,-1358.121866,-12246.381000,-1357.743862C-12246.605441,-1358.771239,-12247.037621,-1359.731065,-12247.646000,-1360.553293C-12248.193000,-1361.071823,-12249.630000,-1360.526059,-12248.605000,-1359.419281C-12247.253000,-1357.960643,-12246.590000,-1356.231846,-12246.643000,-1359.149122C-12246.696000,-1362.066398,-12245.500000,-1664.006667,-12245.500000,-1664.006667" transform="matrix(1 0 0 1 13477 1603.33999999999992)" fill="none" stroke="rgb(20,113,152)" stroke-width="3" stroke-linecap="round"/><g id="enp7v3oz27gm72" transform="matrix(1 0 0 1 1313 251)"><circle id="enp7v3oz27gm73" r="4.500000" transform="matrix(1 0 0 1 4.50000000000000 4.50000000000000)" fill="rgb(255,255,255)" stroke="none" stroke-width="1"/><circle id="enp7v3oz27gm74" r="4" transform="matrix(1 0 0 1 4.50000000000000 4.50000000000000)" fill="none" stroke="rgb(255,255,255)" stroke-width="1"/></g><path id="enp7v3oz27gm75" d="M-12245.586000,-1351.092226C-12245.586000,-1351.092226,-12246.643000,-1350.887234,-12246.643000,-1353.587356C-12246.643000,-1356.287478,-12247.209000,-1357.981860,-12246.381000,-1357.611381C-12246.605441,-1358.618306,-12247.037621,-1359.559025,-12247.646000,-1360.364886C-12248.193000,-1360.873093,-12249.630000,-1360.338194,-12248.605000,-1359.253448C-12247.253000,-1357.823846,-12246.590000,-1356.129463,-12246.643000,-1358.988667C-12246.696000,-1361.847870,-12245.500000,-1657.777573,-12245.500000,-1657.777573" transform="matrix(1 0 0 1 13563 1603.33999999999992)" fill="none" stroke="rgb(20,113,152)" stroke-width="3" stroke-linecap="round"/></g></g><g id="enp7v3oz27gm76_to" transform="translate(1414.125000,25.705566)"><g id="enp7v3oz27gm76" transform="translate(-1414.125000,-187.705566)"><g id="enp7v3oz27gm77"><text id="enp7v3oz27gm78" dx="0" dy="0" font-family="Montserrat-ExtraBold, Montserrat" font-size="135" font-weight="bold" transform="matrix(1 0 0 1 1358.50000000000000 342.75000000000000)" fill="rgb(45,45,45)" stroke="none" stroke-width="1"><![CDATA[A]]></text></g><g id="enp7v3oz27gm79" transform="matrix(1 0 0 1 1407 251)"><circle id="enp7v3oz27gm80" r="4.500000" transform="matrix(1 0 0 1 4.50000000000000 4.50000000000000)" fill="rgb(255,255,255)" stroke="none" stroke-width="1"/><circle id="enp7v3oz27gm81" r="4" transform="matrix(1 0 0 1 4.50000000000000 4.50000000000000)" fill="none" stroke="rgb(255,255,255)" stroke-width="1"/></g><path id="enp7v3oz27gm82" d="M-12245.586000,-1385.752376C-12245.586000,-1385.752376,-12246.643000,-1385.561747,-12246.643000,-1388.070385C-12246.643000,-1390.579023,-12247.209000,-1392.152562,-12246.381000,-1391.808527C-12246.614090,-1392.763314,-12247.048045,-1393.640535,-12247.646000,-1394.365668C-12248.193000,-1394.837166,-12249.630000,-1394.340853,-12248.605000,-1393.332434C-12247.253000,-1392.004796,-12246.590000,-1390.430129,-12246.643000,-1393.086533C-12246.696000,-1395.742938,-12245.500000,-1670.666667,-12245.500000,-1670.666667" transform="matrix(1 0 0 1 13658 1638)" fill="none" stroke="rgb(20,113,152)" stroke-width="3" stroke-linecap="round"/></g></g><g id="enp7v3oz27gm83_to" transform="translate(0,-152)"><g id="enp7v3oz27gm83" transform="translate(0,0)"><g id="enp7v3oz27gm84" transform="matrix(1 0 0 1 0 36)"><text id="enp7v3oz27gm85" dx="0" dy="0" font-family="Montserrat-ExtraBold, Montserrat" font-size="135" font-weight="bold" transform="matrix(1 0 0 1 1491 306.75000000000000)" fill="rgb(45,45,45)" stroke="none" stroke-width="1"><![CDATA[T]]></text></g><g id="enp7v3oz27gm86" transform="matrix(1 0 0 1 1530 251)"><circle id="enp7v3oz27gm87" r="4.500000" transform="matrix(1 0 0 1 4.50000000000000 4.50000000000000)" fill="rgb(255,255,255)" stroke="none" stroke-width="1"/><circle id="enp7v3oz27gm88" r="4" transform="matrix(1 0 0 1 4.50000000000000 4.50000000000000)" fill="none" stroke="rgb(255,255,255)" stroke-width="1"/></g><path id="enp7v3oz27gm89" d="M-12245.586000,-1385.752000C-12245.586000,-1385.752000,-12246.643000,-1385.583000,-12246.643000,-1387.807000C-12246.643000,-1390.031000,-12247.209000,-1391.426000,-12246.381000,-1391.121000C-12246.614090,-1391.967454,-12247.048045,-1392.745142,-12247.646000,-1393.388000C-12248.193000,-1393.806000,-12249.630000,-1393.366000,-12248.605000,-1392.472000C-12247.253000,-1391.295000,-12246.590000,-1389.899000,-12246.643000,-1392.254000C-12246.696000,-1394.609000,-12245.500000,-1638.339000,-12245.500000,-1638.339000" transform="matrix(1 0 0 1 13780 1638)" fill="none" stroke="rgb(20,113,152)" stroke-width="3" stroke-linecap="round"/></g></g><g id="enp7v3oz27gm90_to" transform="translate(1644.367310,82.705566)"><g id="enp7v3oz27gm90" transform="translate(-1644.367310,-187.705566)"><g id="enp7v3oz27gm91"><text id="enp7v3oz27gm92" dx="0" dy="0" font-family="Montserrat-ExtraBold, Montserrat" font-size="135" font-weight="bold" transform="matrix(1 0 0 1 1599 342.75000000000000)" fill="rgb(45,45,45)" stroke="none" stroke-width="1"><![CDATA[E]]></text></g><g id="enp7v3oz27gm93" transform="matrix(1 0 0 1 1640 251)"><circle id="enp7v3oz27gm94" r="4.500000" transform="matrix(1 0 0 1 4.50000000000000 4.50000000000000)" fill="rgb(255,255,255)" stroke="none" stroke-width="1"/><circle id="enp7v3oz27gm95" r="4" transform="matrix(1 0 0 1 4.50000000000000 4.50000000000000)" fill="none" stroke="rgb(255,255,255)" stroke-width="1"/></g><path id="enp7v3oz27gm96" d="M-12245.586000,-1385.752304C-12245.586000,-1385.752304,-12246.643000,-1385.565842,-12246.643000,-1388.019634C-12246.643000,-1390.473427,-12247.209000,-1392.012564,-12246.381000,-1391.676050C-12246.614090,-1392.609963,-12247.048045,-1393.468005,-12247.646000,-1394.177285C-12248.193000,-1394.638474,-12249.630000,-1394.153012,-12248.605000,-1393.166640C-12247.253000,-1391.868028,-12246.590000,-1390.327788,-12246.643000,-1392.926116C-12246.696000,-1395.524444,-12245.500000,-1664.437573,-12245.500000,-1664.437573" transform="matrix(1 0 0 1 13890 1638)" fill="none" stroke="rgb(20,113,152)" stroke-width="3" stroke-linecap="round"/></g></g><path id="enp7v3oz27gm97" d="M-11456.684000,-1038.764000L-11459.598000,-1052.850000L-11460.731000,-1040.383000L-11466.722000,-1066.125000C-11466.722000,-1066.125000,-11465.427000,-1054.792000,-11465.912000,-1050.097000C-11466.320332,-1046.802755,-11467.023144,-1043.551745,-11468.012000,-1040.383000C-11469.000856,-1037.214255,-11468.659000,-1056.573000,-11463.479000,-1062.402000C-11458.299000,-1068.231000,-11457.489000,-1068.392000,-11457.489000,-1068.392000C-11457.489000,-1068.392000,-11468.661000,-1061.754000,-11471.251000,-1054.954000C-11473.065629,-1049.684514,-11474.419705,-1044.267540,-11475.298000,-1038.764000C-11476.176295,-1033.260460,-11479.507000,-1056.249000,-11480.479000,-1059.649000C-11481.260334,-1062.149556,-11482.234938,-1064.585566,-11483.394000,-1066.935000C-11483.087663,-1062.947208,-11483.087663,-1058.941792,-11483.394000,-1054.954000C-11483.782201,-1050.046906,-11484.540018,-1045.176086,-11485.661000,-1040.383000C-11486.781982,-1035.589914,-11487.929000,-1051.393000,-11487.280000,-1054.954000C-11486.631000,-1058.515000,-11477.404000,-1068.392000,-11477.404000,-1068.392000L-11487.280000,-1059.649000L-11488.898000,-1066.935000C-11488.898000,-1066.935000,-11489.870000,-1054.954000,-11492.298000,-1054.954000C-11494.726000,-1054.954000,-11497.155000,-1058.516000,-11495.536000,-1062.402000C-11494.517257,-1064.951511,-11493.812089,-1067.615368,-11493.436000,-1070.335000L-11498.778000,-1061.268000L-11497.969000,-1070.335000C-11497.969000,-1070.335000,-11504.931000,-1052.850000,-11506.226000,-1054.954000C-11507.521000,-1057.058000,-11508.169000,-1060.135000,-11508.655000,-1061.268000C-11509.305337,-1062.314215,-11510.125978,-1063.244364,-11511.083000,-1064.020000C-11512.040022,-1064.795636,-11508.168000,-1061.591000,-11512.540000,-1050.096000C-11516.912000,-1038.601000,-11519.340000,-1039.734000,-11519.988000,-1042.648000C-11520.636000,-1045.562000,-11519.016000,-1054.143000,-11517.559000,-1056.895000C-11516.102000,-1059.647000,-11511.082000,-1068.395000,-11511.082000,-1068.395000C-11511.082000,-1068.395000,-11523.063000,-1054.148000,-11523.711000,-1052.852000C-11524.202232,-1051.907020,-11524.742639,-1050.988427,-11525.330000,-1050.100000L-11525.330000,-1058.681000L-11528.567000,-1049.452000C-11528.567000,-1049.452000,-11531.159000,-1064.185000,-11532.292000,-1066.937000C-11533.729041,-1069.844248,-11535.351036,-1072.656352,-11537.148000,-1075.356000C-11536.112262,-1072.653644,-11535.458627,-1069.819995,-11535.206000,-1066.937000C-11535.044000,-1063.051000,-11533.911000,-1050.747000,-11535.206000,-1051.394000C-11536.501000,-1052.041000,-11537.147000,-1064.994000,-11531.643000,-1071.794000C-11526.139000,-1078.594000,-11525.330000,-1079.727000,-11525.330000,-1079.727000C-11525.330000,-1079.727000,-11538.606000,-1068.556000,-11539.901000,-1066.127000C-11541.196000,-1063.698000,-11542.653000,-1061.270000,-11542.653000,-1061.270000L-11549.291000,-1068.394000C-11549.291000,-1068.394000,-11544.435000,-1063.213000,-11546.377000,-1058.680000C-11548.319000,-1054.147000,-11550.748000,-1047.671000,-11550.910000,-1050.099000C-11551.072000,-1052.527000,-11557.548000,-1078.108000,-11557.548000,-1078.108000L-11557.548000,-1062.408000C-11557.548000,-1059.656000,-11558.843000,-1056.418000,-11559.329000,-1058.037000C-11559.815000,-1059.656000,-11560.463000,-1064.027000,-11560.463000,-1064.027000C-11560.463000,-1064.027000,-11563.863000,-1055.127000,-11564.349000,-1058.684000C-11564.835000,-1062.241000,-11556.249000,-1074.227000,-11553.987000,-1075.360000C-11551.725000,-1076.493000,-11549.287000,-1079.731000,-11549.287000,-1079.731000L-11564.345000,-1068.398000L-11565.468000,-1078.112000C-11565.468000,-1078.112000,-11566.713000,-1063.632000,-11570.354000,-1062.412000C-11573.995000,-1061.192000,-11575.145000,-1066.649000,-11574.854000,-1069.235000C-11574.563000,-1071.821000,-11571.980000,-1082.360000,-11571.980000,-1082.360000L-11579.644000,-1070.345000C-11579.644000,-1070.345000,-11577.728000,-1081.593000,-11577.824000,-1081.881000C-11577.920000,-1082.169000,-11587.307000,-1060.134000,-11588.841000,-1062.817000C-11590.375000,-1065.500000,-11594.398000,-1073.163000,-11595.164000,-1074.026000C-11595.930000,-1074.889000,-11593.343000,-1066.543000,-11595.643000,-1061.279000C-11597.943000,-1056.015000,-11598.421000,-1051.608000,-11599.475000,-1053.908000C-11600.049685,-1055.222260,-11600.899047,-1056.398275,-11601.966000,-1057.357000C-11603.032953,-1058.315725,-11599.954000,-1049.501000,-11601.966000,-1047.202000C-11603.978000,-1044.903000,-11608.001000,-1040.496000,-11608.193000,-1045.002000C-11608.385000,-1049.508000,-11607.618000,-1059.085000,-11605.223000,-1063.587000C-11602.828000,-1068.089000,-11594.302000,-1079.739000,-11594.302000,-1079.739000C-11594.302000,-1079.739000,-11603.977000,-1070.926000,-11606.468000,-1068.406000C-11608.959000,-1065.886000,-11615.186000,-1055.252000,-11615.186000,-1055.252000L-11612.986000,-1066.652000C-11612.986000,-1066.652000,-11618.926000,-1055.352000,-11619.214000,-1055.252000C-11619.502000,-1055.152000,-11628.793000,-1074.699000,-11630.231000,-1076.520000C-11631.669000,-1078.341000,-11633.488000,-1080.927000,-11633.488000,-1080.927000C-11633.488000,-1080.927000,-11629.847000,-1072.209000,-11629.656000,-1071.827000C-11629.465000,-1071.445000,-11628.699000,-1058.046000,-11628.699000,-1058.046000C-11628.699000,-1058.046000,-11632.915000,-1067.325000,-11626.879000,-1073.073000C-11620.843000,-1078.821000,-11618.353000,-1080.929000,-11618.353000,-1080.929000C-11618.353000,-1080.929000,-11631.764000,-1070.295000,-11633.489000,-1067.709000C-11635.214000,-1065.123000,-11640.099000,-1056.788000,-11640.099000,-1056.788000L-11635.980000,-1078.123000L-11645.847000,-1059.566000L-11652.457000,-1079.742000C-11652.457000,-1079.742000,-11651.787000,-1061.893000,-11653.894000,-1058.047000C-11656.001000,-1054.201000,-11661.748000,-1057.703000,-11659.545000,-1062.418000C-11657.342000,-1067.133000,-11641.918000,-1080.929000,-11641.918000,-1080.929000L-11659.066000,-1069.241000L-11659.545000,-1080.450000C-11659.545000,-1080.450000,-11669.221000,-1064.260000,-11668.838000,-1065.026000C-11668.455000,-1065.792000,-11654.468000,-1079.741000,-11654.468000,-1079.741000C-11654.468000,-1079.741000,-11669.508000,-1060.427000,-11669.892000,-1060.236000C-11670.276000,-1060.045000,-11666.539000,-1083.324000,-11666.539000,-1083.324000L-11673.245000,-1070.966000L-11673.245000,-1083.324000L-11681.579000,-1065.024000L-11685.699000,-1078.124000L-11686.465000,-1069.243000L-11691.447000,-1075.374000C-11691.447000,-1075.374000,-11688.382000,-1064.836000,-11690.585000,-1060.908000C-11692.788000,-1056.980000,-11694.801000,-1060.808000,-11692.501000,-1063.590000C-11690.201000,-1066.372000,-11677.556000,-1078.822000,-11677.556000,-1078.822000L-11699.399000,-1063.590000C-11699.046917,-1065.332333,-11698.363911,-1066.990964,-11697.387000,-1068.476000C-11696.045000,-1070.105000,-11688.574000,-1080.451000,-11688.574000,-1080.451000C-11688.574000,-1080.451000,-11703.998000,-1063.686000,-11703.327000,-1066.273000C-11702.656000,-1068.860000,-11700.927000,-1082.751000,-11700.927000,-1082.751000C-11700.927000,-1082.751000,-11713.191000,-1054.873000,-11714.527000,-1058.897000C-11715.863000,-1062.921000,-11724.298000,-1076.907000,-11724.298000,-1076.907000C-11724.298000,-1076.907000,-11719.986000,-1063.782000,-11719.986000,-1057.459000C-11719.959150,-1053.969735,-11720.151193,-1050.482220,-11720.561000,-1047.017000C-11720.970807,-1043.551780,-11726.596000,-1064.453000,-11728.704000,-1067.901000C-11730.812000,-1071.349000,-11742.691000,-1079.742000,-11742.691000,-1079.742000C-11742.691000,-1079.742000,-11732.630000,-1064.742000,-11730.811000,-1061.865000C-11729.683171,-1059.913623,-11729.088603,-1057.699857,-11729.087000,-1055.446000L-11712.226000,-1067.900000C-11712.226000,-1067.900000,-11727.171000,-1052.955000,-11727.554000,-1052.668000C-11727.937000,-1052.381000,-11735.792000,-1055.638000,-11734.739000,-1058.895000C-11733.686000,-1062.152000,-11733.590000,-1078.821000,-11733.590000,-1078.821000C-11733.590000,-1078.821000,-11744.416000,-1051.326000,-11745.661000,-1054.584000C-11746.906000,-1057.842000,-11751.600000,-1065.697000,-11751.600000,-1065.697000C-11751.600000,-1065.697000,-11749.109000,-1053.051000,-11750.642000,-1054.584000C-11752.175000,-1056.117000,-11759.264000,-1077.384000,-11759.264000,-1077.384000C-11759.264000,-1077.384000,-11756.198000,-1051.901000,-11757.731000,-1053.338000C-11759.264000,-1054.775000,-11761.085000,-1066.367000,-11755.531000,-1072.498000C-11749.977000,-1078.629000,-11748.250000,-1080.449000,-11748.250000,-1080.449000C-11748.250000,-1080.449000,-11764.536000,-1063.492000,-11767.314000,-1058.894000C-11770.092000,-1054.296000,-11769.514000,-1053.337000,-11770.763000,-1054.583000C-11772.012000,-1055.829000,-11773.637000,-1055.445000,-11774.786000,-1060.331000C-11775.935000,-1065.217000,-11779.863000,-1079.741000,-11779.863000,-1079.741000C-11779.863000,-1079.741000,-11779.863000,-1053.721000,-11781.683000,-1055.924000C-11783.503000,-1058.127000,-11788.483000,-1061.097000,-11786.760000,-1063.875000C-11785.037000,-1066.653000,-11771.624000,-1079.740000,-11771.624000,-1079.740000C-11771.624000,-1079.740000,-11792.317000,-1064.162000,-11795.766000,-1059.756000C-11799.215000,-1055.350000,-11801.227000,-1050.751000,-11800.652000,-1053.337000C-11800.077000,-1055.923000,-11795.382000,-1083.514000,-11795.382000,-1083.514000C-11795.382000,-1083.514000,-11803.334000,-1067.037000,-11807.453000,-1062.914000C-11811.572000,-1058.791000,-11817.128000,-1052.472000,-11818.661000,-1050.077000C-11820.194000,-1047.682000,-11820.961000,-1037.910000,-11820.961000,-1037.910000C-11820.961000,-1037.910000,-11824.121000,-1058.315000,-11825.272000,-1061.094000C-11826.423000,-1063.873000,-11827.763000,-1067.129000,-11827.763000,-1067.129000C-11827.763000,-1067.129000,-11828.721000,-1039.729000,-11829.870000,-1043.658000C-11831.019000,-1047.587000,-11835.140000,-1054.483000,-11833.511000,-1056.399000C-11831.882000,-1058.315000,-11820.386000,-1068.182000,-11820.386000,-1068.182000C-11820.386000,-1068.182000,-11836.959000,-1058.315000,-11839.642000,-1055.249000C-11842.325000,-1052.183000,-11844.336000,-1047.394000,-11844.336000,-1047.968000C-11844.336000,-1048.542000,-11841.078000,-1063.392000,-11840.791000,-1066.168000C-11840.504000,-1068.944000,-11840.121000,-1070.768000,-11840.121000,-1070.768000C-11840.121000,-1070.768000,-11850.659000,-1051.416000,-11851.042000,-1051.320000C-11851.425000,-1051.224000,-11856.599000,-1057.643000,-11856.599000,-1057.643000C-11856.599000,-1057.643000,-11854.013000,-1049.596000,-11854.399000,-1047.488000C-11854.785000,-1045.380000,-11856.599000,-1039.345000,-11856.599000,-1039.345000L-11863.688000,-1039.345000L-11863.688000,-993.726000L-11434.443000,-993.726000L-11434.443000,-1039.345000Z" transform="matrix(1 0 0 1 11856 2074)" fill="rgb(0,180,216)" stroke="rgb(0,180,216)" stroke-width="1"/><path id="enp7v3oz27gm98" d="M-11456.684000,-1038.764000L-11459.598000,-1052.850000L-11460.731000,-1040.383000L-11466.722000,-1066.125000C-11466.722000,-1066.125000,-11465.427000,-1054.792000,-11465.912000,-1050.097000C-11466.320332,-1046.802755,-11467.023144,-1043.551745,-11468.012000,-1040.383000C-11469.000856,-1037.214255,-11468.659000,-1056.573000,-11463.479000,-1062.402000C-11458.299000,-1068.231000,-11457.489000,-1068.392000,-11457.489000,-1068.392000C-11457.489000,-1068.392000,-11468.661000,-1061.754000,-11471.251000,-1054.954000C-11473.065629,-1049.684514,-11474.419705,-1044.267540,-11475.298000,-1038.764000C-11476.176295,-1033.260460,-11479.507000,-1056.249000,-11480.479000,-1059.649000C-11481.260334,-1062.149556,-11482.234938,-1064.585566,-11483.394000,-1066.935000C-11483.087663,-1062.947208,-11483.087663,-1058.941792,-11483.394000,-1054.954000C-11483.782201,-1050.046906,-11484.540018,-1045.176086,-11485.661000,-1040.383000C-11486.781982,-1035.589914,-11487.929000,-1051.393000,-11487.280000,-1054.954000C-11486.631000,-1058.515000,-11477.404000,-1068.392000,-11477.404000,-1068.392000L-11487.280000,-1059.649000L-11488.898000,-1066.935000C-11488.898000,-1066.935000,-11489.870000,-1054.954000,-11492.298000,-1054.954000C-11494.726000,-1054.954000,-11497.155000,-1058.516000,-11495.536000,-1062.402000C-11494.517257,-1064.951511,-11493.812089,-1067.615368,-11493.436000,-1070.335000L-11498.778000,-1061.268000L-11497.969000,-1070.335000C-11497.969000,-1070.335000,-11504.931000,-1052.850000,-11506.226000,-1054.954000C-11507.521000,-1057.058000,-11508.169000,-1060.135000,-11508.655000,-1061.268000C-11509.305337,-1062.314215,-11510.125978,-1063.244364,-11511.083000,-1064.020000C-11512.040022,-1064.795636,-11508.168000,-1061.591000,-11512.540000,-1050.096000C-11516.912000,-1038.601000,-11519.340000,-1039.734000,-11519.988000,-1042.648000C-11520.636000,-1045.562000,-11519.016000,-1054.143000,-11517.559000,-1056.895000C-11516.102000,-1059.647000,-11511.082000,-1068.395000,-11511.082000,-1068.395000C-11511.082000,-1068.395000,-11523.063000,-1054.148000,-11523.711000,-1052.852000C-11524.202232,-1051.907020,-11524.742639,-1050.988427,-11525.330000,-1050.100000L-11525.330000,-1058.681000L-11528.567000,-1049.452000C-11528.567000,-1049.452000,-11531.159000,-1064.185000,-11532.292000,-1066.937000C-11533.729041,-1069.844248,-11535.351036,-1072.656352,-11537.148000,-1075.356000C-11536.112262,-1072.653644,-11535.458627,-1069.819995,-11535.206000,-1066.937000C-11535.044000,-1063.051000,-11533.911000,-1050.747000,-11535.206000,-1051.394000C-11536.501000,-1052.041000,-11537.147000,-1064.994000,-11531.643000,-1071.794000C-11526.139000,-1078.594000,-11525.330000,-1079.727000,-11525.330000,-1079.727000C-11525.330000,-1079.727000,-11538.606000,-1068.556000,-11539.901000,-1066.127000C-11541.196000,-1063.698000,-11542.653000,-1061.270000,-11542.653000,-1061.270000L-11549.291000,-1068.394000C-11549.291000,-1068.394000,-11544.435000,-1063.213000,-11546.377000,-1058.680000C-11548.319000,-1054.147000,-11550.748000,-1047.671000,-11550.910000,-1050.099000C-11551.072000,-1052.527000,-11557.548000,-1078.108000,-11557.548000,-1078.108000L-11557.548000,-1062.408000C-11557.548000,-1059.656000,-11558.843000,-1056.418000,-11559.329000,-1058.037000C-11559.815000,-1059.656000,-11560.463000,-1064.027000,-11560.463000,-1064.027000C-11560.463000,-1064.027000,-11563.863000,-1055.127000,-11564.349000,-1058.684000C-11564.835000,-1062.241000,-11556.249000,-1074.227000,-11553.987000,-1075.360000C-11551.725000,-1076.493000,-11549.287000,-1079.731000,-11549.287000,-1079.731000L-11564.345000,-1068.398000L-11565.468000,-1078.112000C-11565.468000,-1078.112000,-11566.713000,-1063.632000,-11570.354000,-1062.412000C-11573.995000,-1061.192000,-11575.145000,-1066.649000,-11574.854000,-1069.235000C-11574.563000,-1071.821000,-11571.980000,-1082.360000,-11571.980000,-1082.360000L-11579.644000,-1070.345000C-11579.644000,-1070.345000,-11577.728000,-1081.593000,-11577.824000,-1081.881000C-11577.920000,-1082.169000,-11587.307000,-1060.134000,-11588.841000,-1062.817000C-11590.375000,-1065.500000,-11594.398000,-1073.163000,-11595.164000,-1074.026000C-11595.930000,-1074.889000,-11593.343000,-1066.543000,-11595.643000,-1061.279000C-11597.943000,-1056.015000,-11598.421000,-1051.608000,-11599.475000,-1053.908000C-11600.049685,-1055.222260,-11600.899047,-1056.398275,-11601.966000,-1057.357000C-11603.032953,-1058.315725,-11599.954000,-1049.501000,-11601.966000,-1047.202000C-11603.978000,-1044.903000,-11608.001000,-1040.496000,-11608.193000,-1045.002000C-11608.385000,-1049.508000,-11607.618000,-1059.085000,-11605.223000,-1063.587000C-11602.828000,-1068.089000,-11594.302000,-1079.739000,-11594.302000,-1079.739000C-11594.302000,-1079.739000,-11603.977000,-1070.926000,-11606.468000,-1068.406000C-11608.959000,-1065.886000,-11615.186000,-1055.252000,-11615.186000,-1055.252000L-11612.986000,-1066.652000C-11612.986000,-1066.652000,-11618.926000,-1055.352000,-11619.214000,-1055.252000C-11619.502000,-1055.152000,-11628.793000,-1074.699000,-11630.231000,-1076.520000C-11631.669000,-1078.341000,-11633.488000,-1080.927000,-11633.488000,-1080.927000C-11633.488000,-1080.927000,-11629.847000,-1072.209000,-11629.656000,-1071.827000C-11629.465000,-1071.445000,-11628.699000,-1058.046000,-11628.699000,-1058.046000C-11628.699000,-1058.046000,-11632.915000,-1067.325000,-11626.879000,-1073.073000C-11620.843000,-1078.821000,-11618.353000,-1080.929000,-11618.353000,-1080.929000C-11618.353000,-1080.929000,-11631.764000,-1070.295000,-11633.489000,-1067.709000C-11635.214000,-1065.123000,-11640.099000,-1056.788000,-11640.099000,-1056.788000L-11635.980000,-1078.123000L-11645.847000,-1059.566000L-11652.457000,-1079.742000C-11652.457000,-1079.742000,-11651.787000,-1061.893000,-11653.894000,-1058.047000C-11656.001000,-1054.201000,-11661.748000,-1057.703000,-11659.545000,-1062.418000C-11657.342000,-1067.133000,-11641.918000,-1080.929000,-11641.918000,-1080.929000L-11659.066000,-1069.241000L-11659.545000,-1080.450000C-11659.545000,-1080.450000,-11669.221000,-1064.260000,-11668.838000,-1065.026000C-11668.455000,-1065.792000,-11654.468000,-1079.741000,-11654.468000,-1079.741000C-11654.468000,-1079.741000,-11669.508000,-1060.427000,-11669.892000,-1060.236000C-11670.276000,-1060.045000,-11666.539000,-1083.324000,-11666.539000,-1083.324000L-11673.245000,-1070.966000L-11673.245000,-1083.324000L-11681.579000,-1065.024000L-11685.699000,-1078.124000L-11686.465000,-1069.243000L-11691.447000,-1075.374000C-11691.447000,-1075.374000,-11688.382000,-1064.836000,-11690.585000,-1060.908000C-11692.788000,-1056.980000,-11694.801000,-1060.808000,-11692.501000,-1063.590000C-11690.201000,-1066.372000,-11677.556000,-1078.822000,-11677.556000,-1078.822000L-11699.399000,-1063.590000C-11699.046917,-1065.332333,-11698.363911,-1066.990964,-11697.387000,-1068.476000C-11696.045000,-1070.105000,-11688.574000,-1080.451000,-11688.574000,-1080.451000C-11688.574000,-1080.451000,-11703.998000,-1063.686000,-11703.327000,-1066.273000C-11702.656000,-1068.860000,-11700.927000,-1082.751000,-11700.927000,-1082.751000C-11700.927000,-1082.751000,-11713.191000,-1054.873000,-11714.527000,-1058.897000C-11715.863000,-1062.921000,-11724.298000,-1076.907000,-11724.298000,-1076.907000C-11724.298000,-1076.907000,-11719.986000,-1063.782000,-11719.986000,-1057.459000C-11719.959150,-1053.969735,-11720.151193,-1050.482220,-11720.561000,-1047.017000C-11720.970807,-1043.551780,-11726.596000,-1064.453000,-11728.704000,-1067.901000C-11730.812000,-1071.349000,-11742.691000,-1079.742000,-11742.691000,-1079.742000C-11742.691000,-1079.742000,-11732.630000,-1064.742000,-11730.811000,-1061.865000C-11729.683171,-1059.913623,-11729.088603,-1057.699857,-11729.087000,-1055.446000L-11712.226000,-1067.900000C-11712.226000,-1067.900000,-11727.171000,-1052.955000,-11727.554000,-1052.668000C-11727.937000,-1052.381000,-11735.792000,-1055.638000,-11734.739000,-1058.895000C-11733.686000,-1062.152000,-11733.590000,-1078.821000,-11733.590000,-1078.821000C-11733.590000,-1078.821000,-11744.416000,-1051.326000,-11745.661000,-1054.584000C-11746.906000,-1057.842000,-11751.600000,-1065.697000,-11751.600000,-1065.697000C-11751.600000,-1065.697000,-11749.109000,-1053.051000,-11750.642000,-1054.584000C-11752.175000,-1056.117000,-11759.264000,-1077.384000,-11759.264000,-1077.384000C-11759.264000,-1077.384000,-11756.198000,-1051.901000,-11757.731000,-1053.338000C-11759.264000,-1054.775000,-11761.085000,-1066.367000,-11755.531000,-1072.498000C-11749.977000,-1078.629000,-11748.250000,-1080.449000,-11748.250000,-1080.449000C-11748.250000,-1080.449000,-11764.536000,-1063.492000,-11767.314000,-1058.894000C-11770.092000,-1054.296000,-11769.514000,-1053.337000,-11770.763000,-1054.583000C-11772.012000,-1055.829000,-11773.637000,-1055.445000,-11774.786000,-1060.331000C-11775.935000,-1065.217000,-11779.863000,-1079.741000,-11779.863000,-1079.741000C-11779.863000,-1079.741000,-11779.863000,-1053.721000,-11781.683000,-1055.924000C-11783.503000,-1058.127000,-11788.483000,-1061.097000,-11786.760000,-1063.875000C-11785.037000,-1066.653000,-11771.624000,-1079.740000,-11771.624000,-1079.740000C-11771.624000,-1079.740000,-11792.317000,-1064.162000,-11795.766000,-1059.756000C-11799.215000,-1055.350000,-11801.227000,-1050.751000,-11800.652000,-1053.337000C-11800.077000,-1055.923000,-11795.382000,-1083.514000,-11795.382000,-1083.514000C-11795.382000,-1083.514000,-11803.334000,-1067.037000,-11807.453000,-1062.914000C-11811.572000,-1058.791000,-11817.128000,-1052.472000,-11818.661000,-1050.077000C-11820.194000,-1047.682000,-11820.961000,-1037.910000,-11820.961000,-1037.910000C-11820.961000,-1037.910000,-11824.121000,-1058.315000,-11825.272000,-1061.094000C-11826.423000,-1063.873000,-11827.763000,-1067.129000,-11827.763000,-1067.129000C-11827.763000,-1067.129000,-11828.721000,-1039.729000,-11829.870000,-1043.658000C-11831.019000,-1047.587000,-11835.140000,-1054.483000,-11833.511000,-1056.399000C-11831.882000,-1058.315000,-11820.386000,-1068.182000,-11820.386000,-1068.182000C-11820.386000,-1068.182000,-11836.959000,-1058.315000,-11839.642000,-1055.249000C-11842.325000,-1052.183000,-11844.336000,-1047.394000,-11844.336000,-1047.968000C-11844.336000,-1048.542000,-11841.078000,-1063.392000,-11840.791000,-1066.168000C-11840.504000,-1068.944000,-11840.121000,-1070.768000,-11840.121000,-1070.768000C-11840.121000,-1070.768000,-11850.659000,-1051.416000,-11851.042000,-1051.320000C-11851.425000,-1051.224000,-11856.599000,-1057.643000,-11856.599000,-1057.643000C-11856.599000,-1057.643000,-11854.013000,-1049.596000,-11854.399000,-1047.488000C-11854.785000,-1045.380000,-11856.599000,-1039.345000,-11856.599000,-1039.345000L-11863.688000,-1039.345000L-11863.688000,-993.726000L-11434.443000,-993.726000L-11434.443000,-1039.345000Z" transform="matrix(1 0 0 1 12255 2074)" fill="rgb(0,180,216)" stroke="rgb(0,180,216)" stroke-width="1"/><path id="enp7v3oz27gm99" d="M-11456.684000,-1038.764000L-11459.598000,-1052.850000L-11460.731000,-1040.383000L-11466.722000,-1066.125000C-11466.722000,-1066.125000,-11465.427000,-1054.792000,-11465.912000,-1050.097000C-11466.320332,-1046.802755,-11467.023144,-1043.551745,-11468.012000,-1040.383000C-11469.000856,-1037.214255,-11468.659000,-1056.573000,-11463.479000,-1062.402000C-11458.299000,-1068.231000,-11457.489000,-1068.392000,-11457.489000,-1068.392000C-11457.489000,-1068.392000,-11468.661000,-1061.754000,-11471.251000,-1054.954000C-11473.065629,-1049.684514,-11474.419705,-1044.267540,-11475.298000,-1038.764000C-11476.176295,-1033.260460,-11479.507000,-1056.249000,-11480.479000,-1059.649000C-11481.260334,-1062.149556,-11482.234938,-1064.585566,-11483.394000,-1066.935000C-11483.087663,-1062.947208,-11483.087663,-1058.941792,-11483.394000,-1054.954000C-11483.782201,-1050.046906,-11484.540018,-1045.176086,-11485.661000,-1040.383000C-11486.781982,-1035.589914,-11487.929000,-1051.393000,-11487.280000,-1054.954000C-11486.631000,-1058.515000,-11477.404000,-1068.392000,-11477.404000,-1068.392000L-11487.280000,-1059.649000L-11488.898000,-1066.935000C-11488.898000,-1066.935000,-11489.870000,-1054.954000,-11492.298000,-1054.954000C-11494.726000,-1054.954000,-11497.155000,-1058.516000,-11495.536000,-1062.402000C-11494.517257,-1064.951511,-11493.812089,-1067.615368,-11493.436000,-1070.335000L-11498.778000,-1061.268000L-11497.969000,-1070.335000C-11497.969000,-1070.335000,-11504.931000,-1052.850000,-11506.226000,-1054.954000C-11507.521000,-1057.058000,-11508.169000,-1060.135000,-11508.655000,-1061.268000C-11509.305337,-1062.314215,-11510.125978,-1063.244364,-11511.083000,-1064.020000C-11512.040022,-1064.795636,-11508.168000,-1061.591000,-11512.540000,-1050.096000C-11516.912000,-1038.601000,-11519.340000,-1039.734000,-11519.988000,-1042.648000C-11520.636000,-1045.562000,-11519.016000,-1054.143000,-11517.559000,-1056.895000C-11516.102000,-1059.647000,-11511.082000,-1068.395000,-11511.082000,-1068.395000C-11511.082000,-1068.395000,-11523.063000,-1054.148000,-11523.711000,-1052.852000C-11524.202232,-1051.907020,-11524.742639,-1050.988427,-11525.330000,-1050.100000L-11525.330000,-1058.681000L-11528.567000,-1049.452000C-11528.567000,-1049.452000,-11531.159000,-1064.185000,-11532.292000,-1066.937000C-11533.729041,-1069.844248,-11535.351036,-1072.656352,-11537.148000,-1075.356000C-11536.112262,-1072.653644,-11535.458627,-1069.819995,-11535.206000,-1066.937000C-11535.044000,-1063.051000,-11533.911000,-1050.747000,-11535.206000,-1051.394000C-11536.501000,-1052.041000,-11537.147000,-1064.994000,-11531.643000,-1071.794000C-11526.139000,-1078.594000,-11525.330000,-1079.727000,-11525.330000,-1079.727000C-11525.330000,-1079.727000,-11538.606000,-1068.556000,-11539.901000,-1066.127000C-11541.196000,-1063.698000,-11542.653000,-1061.270000,-11542.653000,-1061.270000L-11549.291000,-1068.394000C-11549.291000,-1068.394000,-11544.435000,-1063.213000,-11546.377000,-1058.680000C-11548.319000,-1054.147000,-11550.748000,-1047.671000,-11550.910000,-1050.099000C-11551.072000,-1052.527000,-11557.548000,-1078.108000,-11557.548000,-1078.108000L-11557.548000,-1062.408000C-11557.548000,-1059.656000,-11558.843000,-1056.418000,-11559.329000,-1058.037000C-11559.815000,-1059.656000,-11560.463000,-1064.027000,-11560.463000,-1064.027000C-11560.463000,-1064.027000,-11563.863000,-1055.127000,-11564.349000,-1058.684000C-11564.835000,-1062.241000,-11556.249000,-1074.227000,-11553.987000,-1075.360000C-11551.725000,-1076.493000,-11549.287000,-1079.731000,-11549.287000,-1079.731000L-11564.345000,-1068.398000L-11565.468000,-1078.112000C-11565.468000,-1078.112000,-11566.713000,-1063.632000,-11570.354000,-1062.412000C-11573.995000,-1061.192000,-11575.145000,-1066.649000,-11574.854000,-1069.235000C-11574.563000,-1071.821000,-11571.980000,-1082.360000,-11571.980000,-1082.360000L-11579.644000,-1070.345000C-11579.644000,-1070.345000,-11577.728000,-1081.593000,-11577.824000,-1081.881000C-11577.920000,-1082.169000,-11587.307000,-1060.134000,-11588.841000,-1062.817000C-11590.375000,-1065.500000,-11594.398000,-1073.163000,-11595.164000,-1074.026000C-11595.930000,-1074.889000,-11593.343000,-1066.543000,-11595.643000,-1061.279000C-11597.943000,-1056.015000,-11598.421000,-1051.608000,-11599.475000,-1053.908000C-11600.049685,-1055.222260,-11600.899047,-1056.398275,-11601.966000,-1057.357000C-11603.032953,-1058.315725,-11599.954000,-1049.501000,-11601.966000,-1047.202000C-11603.978000,-1044.903000,-11608.001000,-1040.496000,-11608.193000,-1045.002000C-11608.385000,-1049.508000,-11607.618000,-1059.085000,-11605.223000,-1063.587000C-11602.828000,-1068.089000,-11594.302000,-1079.739000,-11594.302000,-1079.739000C-11594.302000,-1079.739000,-11603.977000,-1070.926000,-11606.468000,-1068.406000C-11608.959000,-1065.886000,-11615.186000,-1055.252000,-11615.186000,-1055.252000L-11612.986000,-1066.652000C-11612.986000,-1066.652000,-11618.926000,-1055.352000,-11619.214000,-1055.252000C-11619.502000,-1055.152000,-11628.793000,-1074.699000,-11630.231000,-1076.520000C-11631.669000,-1078.341000,-11633.488000,-1080.927000,-11633.488000,-1080.927000C-11633.488000,-1080.927000,-11629.847000,-1072.209000,-11629.656000,-1071.827000C-11629.465000,-1071.445000,-11628.699000,-1058.046000,-11628.699000,-1058.046000C-11628.699000,-1058.046000,-11632.915000,-1067.325000,-11626.879000,-1073.073000C-11620.843000,-1078.821000,-11618.353000,-1080.929000,-11618.353000,-1080.929000C-11618.353000,-1080.929000,-11631.764000,-1070.295000,-11633.489000,-1067.709000C-11635.214000,-1065.123000,-11640.099000,-1056.788000,-11640.099000,-1056.788000L-11635.980000,-1078.123000L-11645.847000,-1059.566000L-11652.457000,-1079.742000C-11652.457000,-1079.742000,-11651.787000,-1061.893000,-11653.894000,-1058.047000C-11656.001000,-1054.201000,-11661.748000,-1057.703000,-11659.545000,-1062.418000C-11657.342000,-1067.133000,-11641.918000,-1080.929000,-11641.918000,-1080.929000L-11659.066000,-1069.241000L-11659.545000,-1080.450000C-11659.545000,-1080.450000,-11669.221000,-1064.260000,-11668.838000,-1065.026000C-11668.455000,-1065.792000,-11654.468000,-1079.741000,-11654.468000,-1079.741000C-11654.468000,-1079.741000,-11669.508000,-1060.427000,-11669.892000,-1060.236000C-11670.276000,-1060.045000,-11666.539000,-1083.324000,-11666.539000,-1083.324000L-11673.245000,-1070.966000L-11673.245000,-1083.324000L-11681.579000,-1065.024000L-11685.699000,-1078.124000L-11686.465000,-1069.243000L-11691.447000,-1075.374000C-11691.447000,-1075.374000,-11688.382000,-1064.836000,-11690.585000,-1060.908000C-11692.788000,-1056.980000,-11694.801000,-1060.808000,-11692.501000,-1063.590000C-11690.201000,-1066.372000,-11677.556000,-1078.822000,-11677.556000,-1078.822000L-11699.399000,-1063.590000C-11699.046917,-1065.332333,-11698.363911,-1066.990964,-11697.387000,-1068.476000C-11696.045000,-1070.105000,-11688.574000,-1080.451000,-11688.574000,-1080.451000C-11688.574000,-1080.451000,-11703.998000,-1063.686000,-11703.327000,-1066.273000C-11702.656000,-1068.860000,-11700.927000,-1082.751000,-11700.927000,-1082.751000C-11700.927000,-1082.751000,-11713.191000,-1054.873000,-11714.527000,-1058.897000C-11715.863000,-1062.921000,-11724.298000,-1076.907000,-11724.298000,-1076.907000C-11724.298000,-1076.907000,-11719.986000,-1063.782000,-11719.986000,-1057.459000C-11719.959150,-1053.969735,-11720.151193,-1050.482220,-11720.561000,-1047.017000C-11720.970807,-1043.551780,-11726.596000,-1064.453000,-11728.704000,-1067.901000C-11730.812000,-1071.349000,-11742.691000,-1079.742000,-11742.691000,-1079.742000C-11742.691000,-1079.742000,-11732.630000,-1064.742000,-11730.811000,-1061.865000C-11729.683171,-1059.913623,-11729.088603,-1057.699857,-11729.087000,-1055.446000L-11712.226000,-1067.900000C-11712.226000,-1067.900000,-11727.171000,-1052.955000,-11727.554000,-1052.668000C-11727.937000,-1052.381000,-11735.792000,-1055.638000,-11734.739000,-1058.895000C-11733.686000,-1062.152000,-11733.590000,-1078.821000,-11733.590000,-1078.821000C-11733.590000,-1078.821000,-11744.416000,-1051.326000,-11745.661000,-1054.584000C-11746.906000,-1057.842000,-11751.600000,-1065.697000,-11751.600000,-1065.697000C-11751.600000,-1065.697000,-11749.109000,-1053.051000,-11750.642000,-1054.584000C-11752.175000,-1056.117000,-11759.264000,-1077.384000,-11759.264000,-1077.384000C-11759.264000,-1077.384000,-11756.198000,-1051.901000,-11757.731000,-1053.338000C-11759.264000,-1054.775000,-11761.085000,-1066.367000,-11755.531000,-1072.498000C-11749.977000,-1078.629000,-11748.250000,-1080.449000,-11748.250000,-1080.449000C-11748.250000,-1080.449000,-11764.536000,-1063.492000,-11767.314000,-1058.894000C-11770.092000,-1054.296000,-11769.514000,-1053.337000,-11770.763000,-1054.583000C-11772.012000,-1055.829000,-11773.637000,-1055.445000,-11774.786000,-1060.331000C-11775.935000,-1065.217000,-11779.863000,-1079.741000,-11779.863000,-1079.741000C-11779.863000,-1079.741000,-11779.863000,-1053.721000,-11781.683000,-1055.924000C-11783.503000,-1058.127000,-11788.483000,-1061.097000,-11786.760000,-1063.875000C-11785.037000,-1066.653000,-11771.624000,-1079.740000,-11771.624000,-1079.740000C-11771.624000,-1079.740000,-11792.317000,-1064.162000,-11795.766000,-1059.756000C-11799.215000,-1055.350000,-11801.227000,-1050.751000,-11800.652000,-1053.337000C-11800.077000,-1055.923000,-11795.382000,-1083.514000,-11795.382000,-1083.514000C-11795.382000,-1083.514000,-11803.334000,-1067.037000,-11807.453000,-1062.914000C-11811.572000,-1058.791000,-11817.128000,-1052.472000,-11818.661000,-1050.077000C-11820.194000,-1047.682000,-11820.961000,-1037.910000,-11820.961000,-1037.910000C-11820.961000,-1037.910000,-11824.121000,-1058.315000,-11825.272000,-1061.094000C-11826.423000,-1063.873000,-11827.763000,-1067.129000,-11827.763000,-1067.129000C-11827.763000,-1067.129000,-11828.721000,-1039.729000,-11829.870000,-1043.658000C-11831.019000,-1047.587000,-11835.140000,-1054.483000,-11833.511000,-1056.399000C-11831.882000,-1058.315000,-11820.386000,-1068.182000,-11820.386000,-1068.182000C-11820.386000,-1068.182000,-11836.959000,-1058.315000,-11839.642000,-1055.249000C-11842.325000,-1052.183000,-11844.336000,-1047.394000,-11844.336000,-1047.968000C-11844.336000,-1048.542000,-11841.078000,-1063.392000,-11840.791000,-1066.168000C-11840.504000,-1068.944000,-11840.121000,-1070.768000,-11840.121000,-1070.768000C-11840.121000,-1070.768000,-11850.659000,-1051.416000,-11851.042000,-1051.320000C-11851.425000,-1051.224000,-11856.599000,-1057.643000,-11856.599000,-1057.643000C-11856.599000,-1057.643000,-11854.013000,-1049.596000,-11854.399000,-1047.488000C-11854.785000,-1045.380000,-11856.599000,-1039.345000,-11856.599000,-1039.345000L-11863.688000,-1039.345000L-11863.688000,-993.726000L-11434.443000,-993.726000L-11434.443000,-1039.345000Z" transform="matrix(1 0 0 1 12634 2074)" fill="rgb(0,180,216)" stroke="rgb(0,180,216)" stroke-width="1"/><path id="enp7v3oz27gm100" d="M-11456.684000,-1038.764000L-11459.598000,-1052.850000L-11460.731000,-1040.383000L-11466.722000,-1066.125000C-11466.722000,-1066.125000,-11465.427000,-1054.792000,-11465.912000,-1050.097000C-11466.320332,-1046.802755,-11467.023144,-1043.551745,-11468.012000,-1040.383000C-11469.000856,-1037.214255,-11468.659000,-1056.573000,-11463.479000,-1062.402000C-11458.299000,-1068.231000,-11457.489000,-1068.392000,-11457.489000,-1068.392000C-11457.489000,-1068.392000,-11468.661000,-1061.754000,-11471.251000,-1054.954000C-11473.065629,-1049.684514,-11474.419705,-1044.267540,-11475.298000,-1038.764000C-11476.176295,-1033.260460,-11479.507000,-1056.249000,-11480.479000,-1059.649000C-11481.260334,-1062.149556,-11482.234938,-1064.585566,-11483.394000,-1066.935000C-11483.087663,-1062.947208,-11483.087663,-1058.941792,-11483.394000,-1054.954000C-11483.782201,-1050.046906,-11484.540018,-1045.176086,-11485.661000,-1040.383000C-11486.781982,-1035.589914,-11487.929000,-1051.393000,-11487.280000,-1054.954000C-11486.631000,-1058.515000,-11477.404000,-1068.392000,-11477.404000,-1068.392000L-11487.280000,-1059.649000L-11488.898000,-1066.935000C-11488.898000,-1066.935000,-11489.870000,-1054.954000,-11492.298000,-1054.954000C-11494.726000,-1054.954000,-11497.155000,-1058.516000,-11495.536000,-1062.402000C-11494.517257,-1064.951511,-11493.812089,-1067.615368,-11493.436000,-1070.335000L-11498.778000,-1061.268000L-11497.969000,-1070.335000C-11497.969000,-1070.335000,-11504.931000,-1052.850000,-11506.226000,-1054.954000C-11507.521000,-1057.058000,-11508.169000,-1060.135000,-11508.655000,-1061.268000C-11509.305337,-1062.314215,-11510.125978,-1063.244364,-11511.083000,-1064.020000C-11512.040022,-1064.795636,-11508.168000,-1061.591000,-11512.540000,-1050.096000C-11516.912000,-1038.601000,-11519.340000,-1039.734000,-11519.988000,-1042.648000C-11520.636000,-1045.562000,-11519.016000,-1054.143000,-11517.559000,-1056.895000C-11516.102000,-1059.647000,-11511.082000,-1068.395000,-11511.082000,-1068.395000C-11511.082000,-1068.395000,-11523.063000,-1054.148000,-11523.711000,-1052.852000C-11524.202232,-1051.907020,-11524.742639,-1050.988427,-11525.330000,-1050.100000L-11525.330000,-1058.681000L-11528.567000,-1049.452000C-11528.567000,-1049.452000,-11531.159000,-1064.185000,-11532.292000,-1066.937000C-11533.729041,-1069.844248,-11535.351036,-1072.656352,-11537.148000,-1075.356000C-11536.112262,-1072.653644,-11535.458627,-1069.819995,-11535.206000,-1066.937000C-11535.044000,-1063.051000,-11533.911000,-1050.747000,-11535.206000,-1051.394000C-11536.501000,-1052.041000,-11537.147000,-1064.994000,-11531.643000,-1071.794000C-11526.139000,-1078.594000,-11525.330000,-1079.727000,-11525.330000,-1079.727000C-11525.330000,-1079.727000,-11538.606000,-1068.556000,-11539.901000,-1066.127000C-11541.196000,-1063.698000,-11542.653000,-1061.270000,-11542.653000,-1061.270000L-11549.291000,-1068.394000C-11549.291000,-1068.394000,-11544.435000,-1063.213000,-11546.377000,-1058.680000C-11548.319000,-1054.147000,-11550.748000,-1047.671000,-11550.910000,-1050.099000C-11551.072000,-1052.527000,-11557.548000,-1078.108000,-11557.548000,-1078.108000L-11557.548000,-1062.408000C-11557.548000,-1059.656000,-11558.843000,-1056.418000,-11559.329000,-1058.037000C-11559.815000,-1059.656000,-11560.463000,-1064.027000,-11560.463000,-1064.027000C-11560.463000,-1064.027000,-11563.863000,-1055.127000,-11564.349000,-1058.684000C-11564.835000,-1062.241000,-11556.249000,-1074.227000,-11553.987000,-1075.360000C-11551.725000,-1076.493000,-11549.287000,-1079.731000,-11549.287000,-1079.731000L-11564.345000,-1068.398000L-11565.468000,-1078.112000C-11565.468000,-1078.112000,-11566.713000,-1063.632000,-11570.354000,-1062.412000C-11573.995000,-1061.192000,-11575.145000,-1066.649000,-11574.854000,-1069.235000C-11574.563000,-1071.821000,-11571.980000,-1082.360000,-11571.980000,-1082.360000L-11579.644000,-1070.345000C-11579.644000,-1070.345000,-11577.728000,-1081.593000,-11577.824000,-1081.881000C-11577.920000,-1082.169000,-11587.307000,-1060.134000,-11588.841000,-1062.817000C-11590.375000,-1065.500000,-11594.398000,-1073.163000,-11595.164000,-1074.026000C-11595.930000,-1074.889000,-11593.343000,-1066.543000,-11595.643000,-1061.279000C-11597.943000,-1056.015000,-11598.421000,-1051.608000,-11599.475000,-1053.908000C-11600.049685,-1055.222260,-11600.899047,-1056.398275,-11601.966000,-1057.357000C-11603.032953,-1058.315725,-11599.954000,-1049.501000,-11601.966000,-1047.202000C-11603.978000,-1044.903000,-11608.001000,-1040.496000,-11608.193000,-1045.002000C-11608.385000,-1049.508000,-11607.618000,-1059.085000,-11605.223000,-1063.587000C-11602.828000,-1068.089000,-11594.302000,-1079.739000,-11594.302000,-1079.739000C-11594.302000,-1079.739000,-11603.977000,-1070.926000,-11606.468000,-1068.406000C-11608.959000,-1065.886000,-11615.186000,-1055.252000,-11615.186000,-1055.252000L-11612.986000,-1066.652000C-11612.986000,-1066.652000,-11618.926000,-1055.352000,-11619.214000,-1055.252000C-11619.502000,-1055.152000,-11628.793000,-1074.699000,-11630.231000,-1076.520000C-11631.669000,-1078.341000,-11633.488000,-1080.927000,-11633.488000,-1080.927000C-11633.488000,-1080.927000,-11629.847000,-1072.209000,-11629.656000,-1071.827000C-11629.465000,-1071.445000,-11628.699000,-1058.046000,-11628.699000,-1058.046000C-11628.699000,-1058.046000,-11632.915000,-1067.325000,-11626.879000,-1073.073000C-11620.843000,-1078.821000,-11618.353000,-1080.929000,-11618.353000,-1080.929000C-11618.353000,-1080.929000,-11631.764000,-1070.295000,-11633.489000,-1067.709000C-11635.214000,-1065.123000,-11640.099000,-1056.788000,-11640.099000,-1056.788000L-11635.980000,-1078.123000L-11645.847000,-1059.566000L-11652.457000,-1079.742000C-11652.457000,-1079.742000,-11651.787000,-1061.893000,-11653.894000,-1058.047000C-11656.001000,-1054.201000,-11661.748000,-1057.703000,-11659.545000,-1062.418000C-11657.342000,-1067.133000,-11641.918000,-1080.929000,-11641.918000,-1080.929000L-11659.066000,-1069.241000L-11659.545000,-1080.450000C-11659.545000,-1080.450000,-11669.221000,-1064.260000,-11668.838000,-1065.026000C-11668.455000,-1065.792000,-11654.468000,-1079.741000,-11654.468000,-1079.741000C-11654.468000,-1079.741000,-11669.508000,-1060.427000,-11669.892000,-1060.236000C-11670.276000,-1060.045000,-11666.539000,-1083.324000,-11666.539000,-1083.324000L-11673.245000,-1070.966000L-11673.245000,-1083.324000L-11681.579000,-1065.024000L-11685.699000,-1078.124000L-11686.465000,-1069.243000L-11691.447000,-1075.374000C-11691.447000,-1075.374000,-11688.382000,-1064.836000,-11690.585000,-1060.908000C-11692.788000,-1056.980000,-11694.801000,-1060.808000,-11692.501000,-1063.590000C-11690.201000,-1066.372000,-11677.556000,-1078.822000,-11677.556000,-1078.822000L-11699.399000,-1063.590000C-11699.046917,-1065.332333,-11698.363911,-1066.990964,-11697.387000,-1068.476000C-11696.045000,-1070.105000,-11688.574000,-1080.451000,-11688.574000,-1080.451000C-11688.574000,-1080.451000,-11703.998000,-1063.686000,-11703.327000,-1066.273000C-11702.656000,-1068.860000,-11700.927000,-1082.751000,-11700.927000,-1082.751000C-11700.927000,-1082.751000,-11713.191000,-1054.873000,-11714.527000,-1058.897000C-11715.863000,-1062.921000,-11724.298000,-1076.907000,-11724.298000,-1076.907000C-11724.298000,-1076.907000,-11719.986000,-1063.782000,-11719.986000,-1057.459000C-11719.959150,-1053.969735,-11720.151193,-1050.482220,-11720.561000,-1047.017000C-11720.970807,-1043.551780,-11726.596000,-1064.453000,-11728.704000,-1067.901000C-11730.812000,-1071.349000,-11742.691000,-1079.742000,-11742.691000,-1079.742000C-11742.691000,-1079.742000,-11732.630000,-1064.742000,-11730.811000,-1061.865000C-11729.683171,-1059.913623,-11729.088603,-1057.699857,-11729.087000,-1055.446000L-11712.226000,-1067.900000C-11712.226000,-1067.900000,-11727.171000,-1052.955000,-11727.554000,-1052.668000C-11727.937000,-1052.381000,-11735.792000,-1055.638000,-11734.739000,-1058.895000C-11733.686000,-1062.152000,-11733.590000,-1078.821000,-11733.590000,-1078.821000C-11733.590000,-1078.821000,-11744.416000,-1051.326000,-11745.661000,-1054.584000C-11746.906000,-1057.842000,-11751.600000,-1065.697000,-11751.600000,-1065.697000C-11751.600000,-1065.697000,-11749.109000,-1053.051000,-11750.642000,-1054.584000C-11752.175000,-1056.117000,-11759.264000,-1077.384000,-11759.264000,-1077.384000C-11759.264000,-1077.384000,-11756.198000,-1051.901000,-11757.731000,-1053.338000C-11759.264000,-1054.775000,-11761.085000,-1066.367000,-11755.531000,-1072.498000C-11749.977000,-1078.629000,-11748.250000,-1080.449000,-11748.250000,-1080.449000C-11748.250000,-1080.449000,-11764.536000,-1063.492000,-11767.314000,-1058.894000C-11770.092000,-1054.296000,-11769.514000,-1053.337000,-11770.763000,-1054.583000C-11772.012000,-1055.829000,-11773.637000,-1055.445000,-11774.786000,-1060.331000C-11775.935000,-1065.217000,-11779.863000,-1079.741000,-11779.863000,-1079.741000C-11779.863000,-1079.741000,-11779.863000,-1053.721000,-11781.683000,-1055.924000C-11783.503000,-1058.127000,-11788.483000,-1061.097000,-11786.760000,-1063.875000C-11785.037000,-1066.653000,-11771.624000,-1079.740000,-11771.624000,-1079.740000C-11771.624000,-1079.740000,-11792.317000,-1064.162000,-11795.766000,-1059.756000C-11799.215000,-1055.350000,-11801.227000,-1050.751000,-11800.652000,-1053.337000C-11800.077000,-1055.923000,-11795.382000,-1083.514000,-11795.382000,-1083.514000C-11795.382000,-1083.514000,-11803.334000,-1067.037000,-11807.453000,-1062.914000C-11811.572000,-1058.791000,-11817.128000,-1052.472000,-11818.661000,-1050.077000C-11820.194000,-1047.682000,-11820.961000,-1037.910000,-11820.961000,-1037.910000C-11820.961000,-1037.910000,-11824.121000,-1058.315000,-11825.272000,-1061.094000C-11826.423000,-1063.873000,-11827.763000,-1067.129000,-11827.763000,-1067.129000C-11827.763000,-1067.129000,-11828.721000,-1039.729000,-11829.870000,-1043.658000C-11831.019000,-1047.587000,-11835.140000,-1054.483000,-11833.511000,-1056.399000C-11831.882000,-1058.315000,-11820.386000,-1068.182000,-11820.386000,-1068.182000C-11820.386000,-1068.182000,-11836.959000,-1058.315000,-11839.642000,-1055.249000C-11842.325000,-1052.183000,-11844.336000,-1047.394000,-11844.336000,-1047.968000C-11844.336000,-1048.542000,-11841.078000,-1063.392000,-11840.791000,-1066.168000C-11840.504000,-1068.944000,-11840.121000,-1070.768000,-11840.121000,-1070.768000C-11840.121000,-1070.768000,-11850.659000,-1051.416000,-11851.042000,-1051.320000C-11851.425000,-1051.224000,-11856.599000,-1057.643000,-11856.599000,-1057.643000C-11856.599000,-1057.643000,-11854.013000,-1049.596000,-11854.399000,-1047.488000C-11854.785000,-1045.380000,-11856.599000,-1039.345000,-11856.599000,-1039.345000L-11863.688000,-1039.345000L-11863.688000,-993.726000L-11434.443000,-993.726000L-11434.443000,-1039.345000Z" transform="matrix(1 0 0 1 13033 2074)" fill="rgb(0,180,216)" stroke="rgb(0,180,216)" stroke-width="1"/><path id="enp7v3oz27gm101" d="M-11456.684000,-1038.764000L-11459.598000,-1052.850000L-11460.731000,-1040.383000L-11466.722000,-1066.125000C-11466.722000,-1066.125000,-11465.427000,-1054.792000,-11465.912000,-1050.097000C-11466.320332,-1046.802755,-11467.023144,-1043.551745,-11468.012000,-1040.383000C-11469.000856,-1037.214255,-11468.659000,-1056.573000,-11463.479000,-1062.402000C-11458.299000,-1068.231000,-11457.489000,-1068.392000,-11457.489000,-1068.392000C-11457.489000,-1068.392000,-11468.661000,-1061.754000,-11471.251000,-1054.954000C-11473.065629,-1049.684514,-11474.419705,-1044.267540,-11475.298000,-1038.764000C-11476.176295,-1033.260460,-11479.507000,-1056.249000,-11480.479000,-1059.649000C-11481.260334,-1062.149556,-11482.234938,-1064.585566,-11483.394000,-1066.935000C-11483.087663,-1062.947208,-11483.087663,-1058.941792,-11483.394000,-1054.954000C-11483.782201,-1050.046906,-11484.540018,-1045.176086,-11485.661000,-1040.383000C-11486.781982,-1035.589914,-11487.929000,-1051.393000,-11487.280000,-1054.954000C-11486.631000,-1058.515000,-11477.404000,-1068.392000,-11477.404000,-1068.392000L-11487.280000,-1059.649000L-11488.898000,-1066.935000C-11488.898000,-1066.935000,-11489.870000,-1054.954000,-11492.298000,-1054.954000C-11494.726000,-1054.954000,-11497.155000,-1058.516000,-11495.536000,-1062.402000C-11494.517257,-1064.951511,-11493.812089,-1067.615368,-11493.436000,-1070.335000L-11498.778000,-1061.268000L-11497.969000,-1070.335000C-11497.969000,-1070.335000,-11504.931000,-1052.850000,-11506.226000,-1054.954000C-11507.521000,-1057.058000,-11508.169000,-1060.135000,-11508.655000,-1061.268000C-11509.305337,-1062.314215,-11510.125978,-1063.244364,-11511.083000,-1064.020000C-11512.040022,-1064.795636,-11508.168000,-1061.591000,-11512.540000,-1050.096000C-11516.912000,-1038.601000,-11519.340000,-1039.734000,-11519.988000,-1042.648000C-11520.636000,-1045.562000,-11519.016000,-1054.143000,-11517.559000,-1056.895000C-11516.102000,-1059.647000,-11511.082000,-1068.395000,-11511.082000,-1068.395000C-11511.082000,-1068.395000,-11523.063000,-1054.148000,-11523.711000,-1052.852000C-11524.202232,-1051.907020,-11524.742639,-1050.988427,-11525.330000,-1050.100000L-11525.330000,-1058.681000L-11528.567000,-1049.452000C-11528.567000,-1049.452000,-11531.159000,-1064.185000,-11532.292000,-1066.937000C-11533.729041,-1069.844248,-11535.351036,-1072.656352,-11537.148000,-1075.356000C-11536.112262,-1072.653644,-11535.458627,-1069.819995,-11535.206000,-1066.937000C-11535.044000,-1063.051000,-11533.911000,-1050.747000,-11535.206000,-1051.394000C-11536.501000,-1052.041000,-11537.147000,-1064.994000,-11531.643000,-1071.794000C-11526.139000,-1078.594000,-11525.330000,-1079.727000,-11525.330000,-1079.727000C-11525.330000,-1079.727000,-11538.606000,-1068.556000,-11539.901000,-1066.127000C-11541.196000,-1063.698000,-11542.653000,-1061.270000,-11542.653000,-1061.270000L-11549.291000,-1068.394000C-11549.291000,-1068.394000,-11544.435000,-1063.213000,-11546.377000,-1058.680000C-11548.319000,-1054.147000,-11550.748000,-1047.671000,-11550.910000,-1050.099000C-11551.072000,-1052.527000,-11557.548000,-1078.108000,-11557.548000,-1078.108000L-11557.548000,-1062.408000C-11557.548000,-1059.656000,-11558.843000,-1056.418000,-11559.329000,-1058.037000C-11559.815000,-1059.656000,-11560.463000,-1064.027000,-11560.463000,-1064.027000C-11560.463000,-1064.027000,-11563.863000,-1055.127000,-11564.349000,-1058.684000C-11564.835000,-1062.241000,-11556.249000,-1074.227000,-11553.987000,-1075.360000C-11551.725000,-1076.493000,-11549.287000,-1079.731000,-11549.287000,-1079.731000L-11564.345000,-1068.398000L-11565.468000,-1078.112000C-11565.468000,-1078.112000,-11566.713000,-1063.632000,-11570.354000,-1062.412000C-11573.995000,-1061.192000,-11575.145000,-1066.649000,-11574.854000,-1069.235000C-11574.563000,-1071.821000,-11571.980000,-1082.360000,-11571.980000,-1082.360000L-11579.644000,-1070.345000C-11579.644000,-1070.345000,-11577.728000,-1081.593000,-11577.824000,-1081.881000C-11577.920000,-1082.169000,-11587.307000,-1060.134000,-11588.841000,-1062.817000C-11590.375000,-1065.500000,-11594.398000,-1073.163000,-11595.164000,-1074.026000C-11595.930000,-1074.889000,-11593.343000,-1066.543000,-11595.643000,-1061.279000C-11597.943000,-1056.015000,-11598.421000,-1051.608000,-11599.475000,-1053.908000C-11600.049685,-1055.222260,-11600.899047,-1056.398275,-11601.966000,-1057.357000C-11603.032953,-1058.315725,-11599.954000,-1049.501000,-11601.966000,-1047.202000C-11603.978000,-1044.903000,-11608.001000,-1040.496000,-11608.193000,-1045.002000C-11608.385000,-1049.508000,-11607.618000,-1059.085000,-11605.223000,-1063.587000C-11602.828000,-1068.089000,-11594.302000,-1079.739000,-11594.302000,-1079.739000C-11594.302000,-1079.739000,-11603.977000,-1070.926000,-11606.468000,-1068.406000C-11608.959000,-1065.886000,-11615.186000,-1055.252000,-11615.186000,-1055.252000L-11612.986000,-1066.652000C-11612.986000,-1066.652000,-11618.926000,-1055.352000,-11619.214000,-1055.252000C-11619.502000,-1055.152000,-11628.793000,-1074.699000,-11630.231000,-1076.520000C-11631.669000,-1078.341000,-11633.488000,-1080.927000,-11633.488000,-1080.927000C-11633.488000,-1080.927000,-11629.847000,-1072.209000,-11629.656000,-1071.827000C-11629.465000,-1071.445000,-11628.699000,-1058.046000,-11628.699000,-1058.046000C-11628.699000,-1058.046000,-11632.915000,-1067.325000,-11626.879000,-1073.073000C-11620.843000,-1078.821000,-11618.353000,-1080.929000,-11618.353000,-1080.929000C-11618.353000,-1080.929000,-11631.764000,-1070.295000,-11633.489000,-1067.709000C-11635.214000,-1065.123000,-11640.099000,-1056.788000,-11640.099000,-1056.788000L-11635.980000,-1078.123000L-11645.847000,-1059.566000L-11652.457000,-1079.742000C-11652.457000,-1079.742000,-11651.787000,-1061.893000,-11653.894000,-1058.047000C-11656.001000,-1054.201000,-11661.748000,-1057.703000,-11659.545000,-1062.418000C-11657.342000,-1067.133000,-11641.918000,-1080.929000,-11641.918000,-1080.929000L-11659.066000,-1069.241000L-11659.545000,-1080.450000C-11659.545000,-1080.450000,-11669.221000,-1064.260000,-11668.838000,-1065.026000C-11668.455000,-1065.792000,-11654.468000,-1079.741000,-11654.468000,-1079.741000C-11654.468000,-1079.741000,-11669.508000,-1060.427000,-11669.892000,-1060.236000C-11670.276000,-1060.045000,-11666.539000,-1083.324000,-11666.539000,-1083.324000L-11673.245000,-1070.966000L-11673.245000,-1083.324000L-11681.579000,-1065.024000L-11685.699000,-1078.124000L-11686.465000,-1069.243000L-11691.447000,-1075.374000C-11691.447000,-1075.374000,-11688.382000,-1064.836000,-11690.585000,-1060.908000C-11692.788000,-1056.980000,-11694.801000,-1060.808000,-11692.501000,-1063.590000C-11690.201000,-1066.372000,-11677.556000,-1078.822000,-11677.556000,-1078.822000L-11699.399000,-1063.590000C-11699.046917,-1065.332333,-11698.363911,-1066.990964,-11697.387000,-1068.476000C-11696.045000,-1070.105000,-11688.574000,-1080.451000,-11688.574000,-1080.451000C-11688.574000,-1080.451000,-11703.998000,-1063.686000,-11703.327000,-1066.273000C-11702.656000,-1068.860000,-11700.927000,-1082.751000,-11700.927000,-1082.751000C-11700.927000,-1082.751000,-11713.191000,-1054.873000,-11714.527000,-1058.897000C-11715.863000,-1062.921000,-11724.298000,-1076.907000,-11724.298000,-1076.907000C-11724.298000,-1076.907000,-11719.986000,-1063.782000,-11719.986000,-1057.459000C-11719.959150,-1053.969735,-11720.151193,-1050.482220,-11720.561000,-1047.017000C-11720.970807,-1043.551780,-11726.596000,-1064.453000,-11728.704000,-1067.901000C-11730.812000,-1071.349000,-11742.691000,-1079.742000,-11742.691000,-1079.742000C-11742.691000,-1079.742000,-11732.630000,-1064.742000,-11730.811000,-1061.865000C-11729.683171,-1059.913623,-11729.088603,-1057.699857,-11729.087000,-1055.446000L-11712.226000,-1067.900000C-11712.226000,-1067.900000,-11727.171000,-1052.955000,-11727.554000,-1052.668000C-11727.937000,-1052.381000,-11735.792000,-1055.638000,-11734.739000,-1058.895000C-11733.686000,-1062.152000,-11733.590000,-1078.821000,-11733.590000,-1078.821000C-11733.590000,-1078.821000,-11744.416000,-1051.326000,-11745.661000,-1054.584000C-11746.906000,-1057.842000,-11751.600000,-1065.697000,-11751.600000,-1065.697000C-11751.600000,-1065.697000,-11749.109000,-1053.051000,-11750.642000,-1054.584000C-11752.175000,-1056.117000,-11759.264000,-1077.384000,-11759.264000,-1077.384000C-11759.264000,-1077.384000,-11756.198000,-1051.901000,-11757.731000,-1053.338000C-11759.264000,-1054.775000,-11761.085000,-1066.367000,-11755.531000,-1072.498000C-11749.977000,-1078.629000,-11748.250000,-1080.449000,-11748.250000,-1080.449000C-11748.250000,-1080.449000,-11764.536000,-1063.492000,-11767.314000,-1058.894000C-11770.092000,-1054.296000,-11769.514000,-1053.337000,-11770.763000,-1054.583000C-11772.012000,-1055.829000,-11773.637000,-1055.445000,-11774.786000,-1060.331000C-11775.935000,-1065.217000,-11779.863000,-1079.741000,-11779.863000,-1079.741000C-11779.863000,-1079.741000,-11779.863000,-1053.721000,-11781.683000,-1055.924000C-11783.503000,-1058.127000,-11788.483000,-1061.097000,-11786.760000,-1063.875000C-11785.037000,-1066.653000,-11771.624000,-1079.740000,-11771.624000,-1079.740000C-11771.624000,-1079.740000,-11792.317000,-1064.162000,-11795.766000,-1059.756000C-11799.215000,-1055.350000,-11801.227000,-1050.751000,-11800.652000,-1053.337000C-11800.077000,-1055.923000,-11795.382000,-1083.514000,-11795.382000,-1083.514000C-11795.382000,-1083.514000,-11803.334000,-1067.037000,-11807.453000,-1062.914000C-11811.572000,-1058.791000,-11817.128000,-1052.472000,-11818.661000,-1050.077000C-11820.194000,-1047.682000,-11820.961000,-1037.910000,-11820.961000,-1037.910000C-11820.961000,-1037.910000,-11824.121000,-1058.315000,-11825.272000,-1061.094000C-11826.423000,-1063.873000,-11827.763000,-1067.129000,-11827.763000,-1067.129000C-11827.763000,-1067.129000,-11828.721000,-1039.729000,-11829.870000,-1043.658000C-11831.019000,-1047.587000,-11835.140000,-1054.483000,-11833.511000,-1056.399000C-11831.882000,-1058.315000,-11820.386000,-1068.182000,-11820.386000,-1068.182000C-11820.386000,-1068.182000,-11836.959000,-1058.315000,-11839.642000,-1055.249000C-11842.325000,-1052.183000,-11844.336000,-1047.394000,-11844.336000,-1047.968000C-11844.336000,-1048.542000,-11841.078000,-1063.392000,-11840.791000,-1066.168000C-11840.504000,-1068.944000,-11840.121000,-1070.768000,-11840.121000,-1070.768000C-11840.121000,-1070.768000,-11850.659000,-1051.416000,-11851.042000,-1051.320000C-11851.425000,-1051.224000,-11856.599000,-1057.643000,-11856.599000,-1057.643000C-11856.599000,-1057.643000,-11854.013000,-1049.596000,-11854.399000,-1047.488000C-11854.785000,-1045.380000,-11856.599000,-1039.345000,-11856.599000,-1039.345000L-11863.688000,-1039.345000L-11863.688000,-993.726000L-11434.443000,-993.726000L-11434.443000,-1039.345000Z" transform="matrix(1 0 0 1 13388 2074)" fill="rgb(0,180,216)" stroke="rgb(0,180,216)" stroke-width="1"/></g><clipPath id="enp7v3oz27gm102"><rect id="enp7v3oz27gm103" width="1920" height="1080" rx="0" ry="0" fill="rgb(0,0,0)" stroke="none" stroke-width="1"/></clipPath></g></svg>